<svg id="Layer_1" data-name="Layer 1" xmlns="http://www.w3.org/2000/svg" viewBox="0 0 516 516"><defs><style>.cls-1{fill:#4acfd9;}</style></defs><title>icons-expand</title><path class="cls-1" d="M468.75,13.64H47.25A32.18,32.18,0,0,0,15.16,45.72V372.53a32.18,32.18,0,0,0,32.09,32.09H403.09l97.75,97.74V45.72A32.18,32.18,0,0,0,468.75,13.64Z"/><path d="M500.84,513.66a11.3,11.3,0,0,1-8-3.31l-94.44-94.44H47.25A43.43,43.43,0,0,1,3.87,372.53V45.72A43.43,43.43,0,0,1,47.25,2.34h421.5a43.43,43.43,0,0,1,43.38,43.38V502.36a11.29,11.29,0,0,1-11.29,11.3ZM47.25,24.93A20.82,20.82,0,0,0,26.46,45.72V372.53a20.81,20.81,0,0,0,20.79,20.79H403.09a11.29,11.29,0,0,1,8,3.31l78.46,78.47V45.72a20.82,20.82,0,0,0-20.79-20.79Z"/><path d="M403.09,148.64H109.85a11.3,11.3,0,0,1,0-22.59H403.09a11.3,11.3,0,1,1,0,22.59Z"/><path d="M403.09,220.42H109.85a11.3,11.3,0,0,1,0-22.59H403.09a11.3,11.3,0,1,1,0,22.59Z"/><path d="M403.09,292.2h-197a11.3,11.3,0,0,1,0-22.59h197a11.3,11.3,0,1,1,0,22.59Z"/></svg>