<svg id="Layer_1" data-name="Layer 1" xmlns="http://www.w3.org/2000/svg" viewBox="0 0 516 516"><defs><style>.cls-1{fill:#a4286a;}.cls-2{fill:#9fda4f;}.cls-3{fill:#fec228;}.cls-4{fill:#ff4e47;}.cls-5{fill:#fff;}</style></defs><title>icons-expand</title><path class="cls-1" d="M156.7,457H102.41a86.76,86.76,0,0,1-86.76-86.76V108.47a86.76,86.76,0,0,1,86.76-86.76H413.59a86.76,86.76,0,0,1,86.76,86.76V457h-270"/><path d="M500.35,466.75h-270a9.78,9.78,0,0,1,0-19.56h260.2V108.47a77.06,77.06,0,0,0-77-77H102.41a77.06,77.06,0,0,0-77,77V370.21a77.06,77.06,0,0,0,77,77H156.7a9.78,9.78,0,1,1,0,19.56H102.41A96.65,96.65,0,0,1,5.87,370.21V108.47a96.65,96.65,0,0,1,96.54-96.54H413.59a96.65,96.65,0,0,1,96.54,96.54V457A9.78,9.78,0,0,1,500.35,466.75Z"/><circle class="cls-2" cx="373.84" cy="142.4" r="92.09"/><path d="M373.84,244.27A101.87,101.87,0,1,1,475.72,142.4,102,102,0,0,1,373.84,244.27Zm0-184.19a82.32,82.32,0,1,0,82.32,82.32A82.41,82.41,0,0,0,373.84,60.08Z"/><circle class="cls-3" cx="269.15" cy="322.71" r="62.04"/><path d="M269.15,394.53A71.82,71.82,0,1,1,341,322.71,71.9,71.9,0,0,1,269.15,394.53Zm0-124.08a52.26,52.26,0,1,0,52.26,52.26A52.31,52.31,0,0,0,269.15,270.45Z"/><circle class="cls-4" cx="193.53" cy="457.45" r="36.84"/><path d="M193.54,504.07a46.62,46.62,0,1,1,46.61-46.62A46.67,46.67,0,0,1,193.54,504.07Zm0-73.67a27.06,27.06,0,1,0,27.05,27.05A27.09,27.09,0,0,0,193.54,430.4Z"/><path class="cls-5" d="M88.21,383.41c0-10.39.05-20.7,0-31,0-3.45,2.69-3.14,4.68-3.65,12.36-3.16,22.63-9.42,29.63-20.26,11.22-17.39,13.8-35.76,6.13-55.35q-25-63.91-49.84-127.92c-.69-1.77-1.27-3.59-2.19-6.21H95.47c5.66,0,11.32.23,17-.09,3.79-.21,5.22,1.29,6.32,4.8,10.51,33.5,21.22,66.95,31.89,100.4.53,1.66,1.14,3.3,2.08,6,4.5-12.45,8.67-23.88,12.79-35.34Q194.25,135,222.88,55.1c1.18-3.3,2.73-4.45,6.22-4.39,11.62.21,23.25.07,34.88.09,1.39,0,2.79.2,4.83.34-3,8.19-5.86,15.87-8.72,23.54q-42.16,113-84.41,226c-7.72,20.6-16.91,40.52-31.36,57.48-13.66,16-31,24.83-52.14,26a19.39,19.39,0,0,1-2.41-.05A7.82,7.82,0,0,1,88.21,383.41Z"/></svg>