<svg id="Layer_1" data-name="Layer 1" xmlns="http://www.w3.org/2000/svg" viewBox="0 0 516 516"><defs><style>.cls-1{fill:#fd6a33;}.cls-2{fill:#607d8b;}.cls-3{fill:#fda72f;}.cls-4{fill:#fff;}.cls-5{fill:#0b050c;}</style></defs><title>icons-expand</title><polygon class="cls-1" points="313.42 57.84 345.42 57.84 351.92 77.5 377.4 88.9 393.92 77.5 416.42 96.67 404.42 113.86 416.42 145 439.42 147.5 434.42 172.5 418.42 175.5 403.92 206.11 415.42 223.84 395.42 242 381.42 233.89 348.42 244.19 345.42 265 320.42 265 313.42 248.5 285.23 233.89 268.92 242 248.42 226.5 258 213 243.92 173.5 227.42 175 227.42 148 249.92 141 258 113.86 249.92 94.5 269.42 76 285.23 86.5 319.42 71 313.42 57.84"/><rect class="cls-2" x="17.92" y="265" width="89" height="170.5"/><polygon class="cls-3" points="108.42 412.42 108.42 292.9 209.87 260.44 350.17 295.77 357.83 328.31 461.38 242.69 490.54 242.69 502.63 282.98 362.56 409.97 212.42 418.5 108.42 412.42"/><path d="M489.42,244.19l11.5,38.31-139,126L212.42,417l-102.5-6V294l100-32,139,35,8,34,105-86.81h27.5m2.23-3H460.84l-.83.69L358.73,325.61l-6.89-29.3-.42-1.77-1.77-.45-139-35-.83-.21-.81.26-100,32-2.09.67v122l2.83.16,102.5,6,.17,0h.17l149.52-8.5,1.06-.07.79-.71,139-126,1.4-1.27-.55-1.81-11.5-38.31-.64-2.14Z"/><circle class="cls-4" cx="331.31" cy="159.87" r="32.65"/><path class="cls-5" d="M98.48,428h-72V273h72V428ZM508.86,269.5A37.71,37.71,0,0,0,445.5,244l-80.95,75.4A35.26,35.26,0,0,0,337.81,284l-98.87-25.09a94.47,94.47,0,0,0-52.51,1.72l-68.35,22.19V263.17a9.8,9.8,0,0,0-9.8-9.8H16.67a9.8,9.8,0,0,0-9.8,9.8V437.83a9.8,9.8,0,0,0,9.8,9.8h91.61a9.81,9.81,0,0,0,9.81-9.8V303.46l74.4-24.16a74.92,74.92,0,0,1,41.63-1.36L333,303a15.88,15.88,0,0,1-3.91,31.27H250.36a9.81,9.81,0,1,0,0,19.61h30.93a8.32,8.32,0,0,0,1.12.07H331a63.66,63.66,0,0,0,43.55-17.14l84.28-78.49a18.11,18.11,0,1,1,24.68,26.5L367.45,392.93a43,43,0,0,1-29.39,11.56H112.25a9.81,9.81,0,0,0,0,19.61H338.06a62.52,62.52,0,0,0,42.75-16.82L496.9,299.21a37.6,37.6,0,0,0,12-29.71Z"/><path class="cls-5" d="M62.47,414a9.81,9.81,0,1,0,0-19.61,9.81,9.81,0,0,0,0,19.61Z"/><path class="cls-5" d="M62.48,378a9.81,9.81,0,0,0,9.8-9.81V300.56a9.81,9.81,0,1,0-19.61,0v67.65A9.81,9.81,0,0,0,62.48,378Z"/><path class="cls-5" d="M323.74,273.57h15.14a16.81,16.81,0,0,0,16.79-16.79V249a88.94,88.94,0,0,0,21.49-8.94l5.49,5.49a16.79,16.79,0,0,0,11.85,4.94,16.42,16.42,0,0,0,11.84-4.94L417,234.9A16.75,16.75,0,0,0,422,223.05,16.38,16.38,0,0,0,417,211.21l-5.49-5.5a88.14,88.14,0,0,0,8.94-21.49h7.77A16.81,16.81,0,0,0,445,167.43V152.3a16.81,16.81,0,0,0-16.79-16.79h-7.77a88.38,88.38,0,0,0-8.94-21.5l5.49-5.49A16.71,16.71,0,0,0,422,96.68,16.42,16.42,0,0,0,417,84.83L406.34,74.16a16.71,16.71,0,0,0-11.84-4.94,16.46,16.46,0,0,0-11.85,4.94l-5.49,5.49a88.94,88.94,0,0,0-21.49-8.94V63a16.81,16.81,0,0,0-16.79-16.79H323.74A16.81,16.81,0,0,0,307,63v7.76a88.94,88.94,0,0,0-21.49,8.94L280,74.16a16.75,16.75,0,0,0-11.85-4.94,16.44,16.44,0,0,0-11.84,4.94L245.61,84.83a16.81,16.81,0,0,0,0,23.69L251.1,114a89.17,89.17,0,0,0-8.94,21.5h-7.77A16.81,16.81,0,0,0,217.6,152.3v15.13a16.81,16.81,0,0,0,16.79,16.79h7.77a88.94,88.94,0,0,0,8.94,21.49l-5.49,5.5a16.81,16.81,0,0,0,0,23.69l10.67,10.67a16.77,16.77,0,0,0,11.84,4.94A16.46,16.46,0,0,0,280,245.57l5.49-5.49A88.94,88.94,0,0,0,307,249v7.76a16.91,16.91,0,0,0,16.79,16.79Zm-35.06-49.73a8,8,0,0,0-4.32-1.34,7.72,7.72,0,0,0-5.49,2.28l-9.81,9.8a1.14,1.14,0,0,1-1.72,0l-10.67-10.66a1.24,1.24,0,0,1,0-1.73l9.8-9.81a7.71,7.71,0,0,0,.95-9.8A75.82,75.82,0,0,1,256,175a7.8,7.8,0,0,0-7.61-6.27H234.47a1.23,1.23,0,0,1-1.25-1.26V152.3a1.23,1.23,0,0,1,1.25-1.26h13.88a7.72,7.72,0,0,0,7.61-6.28,75.78,75.78,0,0,1,11.46-27.61,7.83,7.83,0,0,0-.95-9.8l-9.8-9.81a1.24,1.24,0,0,1,0-1.73l10.67-10.66a1.12,1.12,0,0,1,1.72,0l9.81,10a7.74,7.74,0,0,0,9.81.94A75.51,75.51,0,0,1,316.29,84.6,7.81,7.81,0,0,0,322.56,77V63.1a1.23,1.23,0,0,1,1.26-1.25H339a1.23,1.23,0,0,1,1.25,1.25V77a7.74,7.74,0,0,0,6.28,7.61A75.58,75.58,0,0,1,374.1,96.05a7.84,7.84,0,0,0,9.81-.94l9.81-9.81a1.2,1.2,0,0,1,.86-.39,1.23,1.23,0,0,1,.86.39L406.11,96a1.23,1.23,0,0,1,.39.86,1.2,1.2,0,0,1-.39.86l-9.81,9.81a7.74,7.74,0,0,0-.94,9.81,75.78,75.78,0,0,1,11.46,27.61,7.8,7.8,0,0,0,7.6,6.28h13.89a1.23,1.23,0,0,1,1.25,1.25v15.14a1.23,1.23,0,0,1-1.25,1.26H414.42a7.72,7.72,0,0,0-7.6,6.27,75.7,75.7,0,0,1-11.46,27.61,7.84,7.84,0,0,0,.94,9.81l9.81,9.81a1.2,1.2,0,0,1,.39.86,1.21,1.21,0,0,1-.39.86l-10.67,10.67a1.23,1.23,0,0,1-.86.39,1.2,1.2,0,0,1-.86-.39l-9.81-9.8a7.74,7.74,0,0,0-9.81-.95,75.6,75.6,0,0,1-27.61,11.46,7.8,7.8,0,0,0-6.28,7.61v13.88A1.24,1.24,0,0,1,339,258.2H323.82a1.24,1.24,0,0,1-1.26-1.26V243.06a7.72,7.72,0,0,0-6.27-7.61,78.69,78.69,0,0,1-27.61-11.61Zm0,0"/><path class="cls-5" d="M377.4,160a46.09,46.09,0,1,0-46,46.13,46.2,46.2,0,0,0,46-46.13Zm-76.64,0a30.59,30.59,0,1,1,30.59,30.6A30.62,30.62,0,0,1,300.76,160Zm0,0"/></svg>