<svg id="Layer_1" data-name="Layer 1" xmlns="http://www.w3.org/2000/svg" viewBox="0 0 516 516"><defs><style>.cls-1{fill:#fd6a33;}.cls-2{fill:#607d8b;}.cls-3{fill:#4acfd9;}.cls-4{fill:#fda72f;}</style></defs><title>icons-expand</title><rect class="cls-1" x="439.35" y="83" width="44" height="151.5"/><path class="cls-2" d="M231.35,111.5S366.85,100.24,407.85,283l-10,7.76H231.35Z"/><rect class="cls-1" x="362.85" y="114" width="41.5" height="120.5"/><path class="cls-3" d="M22.52,34.33c0-1,143,0,143,0V177.67l-52.67-49.34-92.67-2.66Z"/><polygon class="cls-4" points="355.2 485.83 302.04 429.6 307.37 418.94 325.1 408.44 380.12 464.66 371.22 485.83 355.2 485.83"/><path d="M324.85,410.33,378.35,465l-8.13,19.33H355.85l-52-55,4.67-9.33,16.33-9.67m.5-3.78-2,1.2L307,417.42l-.76.45-.4.79L301.17,428l-.94,1.88,1.44,1.52,52,55,.89.94h17.65l.78-1.83,8.13-19.34.77-1.83-1.4-1.43L327,408.24l-1.64-1.69Z"/><rect class="cls-1" x="283.87" y="145.5" width="46.98" height="89"/><path class="cls-2" d="M175.17,143h20.68l2.53,175,180,3.93L346.85,425,322.7,412l-3.89-25.5s-8.54-19.5-8.75-21-26.19-12.6-26.19-12.6l-18,2.1-17,20.5-4,24,11,17.51s17.82,13,20.91,13h21.09l20.88,21.5-8.67,8-47.71,28-85,14.5-80-32-60-73-19.5-69.5L35.35,249l43-59.16,53.5-34.34,17.75,3.28,6.75,9.72,11.05-5.17Z"/><path d="M478,228.66H446.93V88.9H478V228.66ZM431.4,73.37V244.19h62.12V73.37Z"/><path d="M369.28,120h31.06v108.7H369.28V120ZM322.7,151v77.64H291.64V151Zm77.47,132H237.28V120.13a170.73,170.73,0,0,1,63.12,15.36H276.11v108.7h62.11V159.3a169.1,169.1,0,0,1,15.53,14.42v70.47h40A170.92,170.92,0,0,1,400.17,283Zm-46.42-131.1a182.9,182.9,0,0,0-15.53-12.46v-4h-5.84a186.64,186.64,0,0,0-102.86-31.06h-7.77V298.55H415.87v-7.77a186.46,186.46,0,0,0-6-46.59h6V104.43H353.75v47.49Z"/><polygon points="72.62 327.99 138.62 262 149.6 272.98 83.6 338.97 72.62 327.99 72.62 327.99"/><path d="M74.23,267.49A7.77,7.77,0,1,1,82,275.25a7.77,7.77,0,0,1-7.76-7.76Zm31.06,0A23.3,23.3,0,1,0,82,290.78a23.33,23.33,0,0,0,23.3-23.29Z"/><path d="M144.11,337.37a7.77,7.77,0,1,1,7.76-7.77,7.77,7.77,0,0,1-7.76,7.77Zm0-31.06A23.3,23.3,0,1,0,167.4,329.6a23.33,23.33,0,0,0-23.29-23.29Z"/><path d="M367.68,475.53a8.72,8.72,0,0,1-12.32,0l-45.3-45.3a46.87,46.87,0,0,0,12.32-12.32l45.3,45.3a8.73,8.73,0,0,1,0,12.32Zm-83.81-52.75a31.06,31.06,0,1,1,31.06-31.06,31.09,31.09,0,0,1-31.06,31.06Zm-85.41,69.88c-94.19,0-170.82-76.63-170.82-170.82a171.07,171.07,0,0,1,109.3-159.25l38.23,38.23V152.73c5.19-.72,10.39-1.29,15.53-1.53V329.6H369.11a169.1,169.1,0,0,1-27.62,85.46L329.1,402.68a46.08,46.08,0,0,0,1.36-11A46.84,46.84,0,1,0,294.83,437l14.52,14.52a169.91,169.91,0,0,1-110.89,41.19ZM27.64,120V42.31h132v121L116.26,120Zm325,306.26a184.8,184.8,0,0,0,32.17-104.38v-7.77H206.23V135.49h-7.77a186.21,186.21,0,0,0-23.29,1.66V43.93A17.15,17.15,0,0,0,158,26.78H29.26A17.15,17.15,0,0,0,12.11,43.93v74.41a17.15,17.15,0,0,0,17.15,17.15h80.58L125,150.65A186.69,186.69,0,0,0,12.11,321.84c0,102.75,83.6,186.35,186.35,186.35a185.49,185.49,0,0,0,121.9-45.71l24,24a24.26,24.26,0,0,0,34.6-.33c9.22-9.57,8.68-24.93-.72-34.34l-25.62-25.61Z"/><polygon points="43.17 57.84 144.11 57.84 144.11 73.37 43.17 73.37 43.17 57.84 43.17 57.84"/><polygon points="43.17 88.9 144.11 88.9 144.11 104.43 43.17 104.43 43.17 88.9 43.17 88.9"/><polygon points="276.11 383.96 291.64 383.96 291.64 399.49 276.11 399.49 276.11 383.96 276.11 383.96"/><polygon points="206.23 383.96 221.75 383.96 221.75 399.49 206.23 399.49 206.23 383.96 206.23 383.96"/><polygon points="175.17 383.96 190.7 383.96 190.7 399.49 175.17 399.49 175.17 383.96 175.17 383.96"/><polygon points="144.11 383.96 159.64 383.96 159.64 399.49 144.11 399.49 144.11 383.96 144.11 383.96"/></svg>