<svg id="Layer_1" data-name="Layer 1" xmlns="http://www.w3.org/2000/svg" viewBox="0 0 516 516"><defs><style>.cls-1{fill:#4acfd9;}.cls-2{fill:#fda72f;}.cls-3{fill:#f16051;}</style></defs><title>icons-expand</title><rect class="cls-1" x="144.85" y="432.74" width="237" height="67.26"/><path d="M360.53,512.28H165.4a35.8,35.8,0,0,1-35.75-35.76V104.67A35.8,35.8,0,0,1,165.4,68.91h30.74a9.78,9.78,0,0,1,0,19.56H165.4a16.21,16.21,0,0,0-16.19,16.2V476.52a16.21,16.21,0,0,0,16.19,16.2H360.53a16.21,16.21,0,0,0,16.19-16.2V104.67a16.21,16.21,0,0,0-16.19-16.2H329.79a9.78,9.78,0,0,1,0-19.56h30.74a35.8,35.8,0,0,1,35.75,35.76V476.52A35.8,35.8,0,0,1,360.53,512.28Z"/><path d="M386.5,442.52H139.43a9.78,9.78,0,0,1,0-19.56H386.5a9.78,9.78,0,0,1,0,19.56Z"/><circle cx="263.4" cy="466.45" r="16.71"/><polygon class="cls-2" points="297.7 143.75 297.7 17.14 228.23 17.14 228.23 143.75 177.98 143.75 262.96 228.74 347.94 143.75 297.7 143.75"/><path d="M263,238.51a9.78,9.78,0,0,1-6.91-2.86l-85-85A9.78,9.78,0,0,1,178,134h40.47V17.14a9.78,9.78,0,0,1,9.78-9.78H297.7a9.78,9.78,0,0,1,9.78,9.78V134H348a9.78,9.78,0,0,1,6.91,16.7l-85,85A9.79,9.79,0,0,1,263,238.51Zm-61.37-85L263,214.9l61.37-61.37H297.7a9.77,9.77,0,0,1-9.78-9.78V26.92H238V143.75a9.78,9.78,0,0,1-9.78,9.78Z"/><path class="cls-3" d="M299.42,305.87c-1.43-.32-2.9-.48-4.35-.7l-18.83-2.84a1.48,1.48,0,0,1-1.19-1.93q9.61-29.29,19.21-58.59a1.28,1.28,0,0,0,.11-.33,1.81,1.81,0,0,0-3.11-1.71C268.69,267,245.81,294,223.54,321.47c-3.14,3.9-1.7,7.52,3.24,8.52.77.15,1.55.24,2.32.35q9.74,1.47,19.46,2.92c1.61.24,2.86.53,2.11,2.76-3.21,9.61-6.44,19.47-9.53,29.22s-5.65,19.59-9.51,29a1.81,1.81,0,0,0,3.11,1.72c1.88-2.51,5.73-7.05,5.73-7.05s4-4.64,5.9-7l5.2-6.27q23.15-28,46.31-55.94l4.45-5.36C305.47,310.56,304.19,306.93,299.42,305.87Z"/></svg>