<svg id="Layer_1" data-name="Layer 1" xmlns="http://www.w3.org/2000/svg" viewBox="0 0 516 516"><defs><style>.cls-1{fill:#fda72f;}.cls-2{fill:#607d8b;}.cls-3{fill:#00bcd4;}.cls-4{fill:#37474f;}</style></defs><title>icons-expand</title><polygon class="cls-1" points="17.61 107.82 17.61 38.33 45.87 12.83 476.55 15.51 495.28 41.85 495.28 111.18 17.61 107.82"/><path d="M46.44,14.33,475.78,17l18,25.33v67.34L19.11,106.33V39L46.44,14.33m-1.14-3-.87.78L17.1,36.77l-1,.9v71.64l3,0,474.66,3.34,3,0V41.38l-.56-.78-18-25.34L477.33,14h-1.54L46.46,11.33Z"/><rect class="cls-2" x="19.11" y="109.67" width="474.67" height="384.67"/><rect class="cls-3" x="85.11" y="179.67" width="230.67" height="181.58"/><path d="M509.84,51.51A45.4,45.4,0,0,0,464.49,6.16h-413A45.4,45.4,0,0,0,6.16,51.51v413a45.4,45.4,0,0,0,45.35,45.35h413a45.4,45.4,0,0,0,45.35-45.35ZM488,464.49A23.52,23.52,0,0,1,464.49,488h-413A23.52,23.52,0,0,1,28,464.49V119.8H488Zm0-366.56H28V51.51A23.52,23.52,0,0,1,51.51,28h413A23.52,23.52,0,0,1,488,51.51Z"/><path d="M63,52A10.94,10.94,0,1,0,73.91,63,11,11,0,0,0,63,52Z"/><path d="M108.87,52A10.94,10.94,0,1,0,119.8,63,11,11,0,0,0,108.87,52Z"/><path d="M154.75,52A10.94,10.94,0,1,0,165.69,63,10.95,10.95,0,0,0,154.75,52Z"/><path d="M326.29,177.7a11,11,0,0,0-10.93-10.94H85.92A11,11,0,0,0,75,177.7V361.25a10.94,10.94,0,0,0,10.93,10.93H315.36a10.94,10.94,0,0,0,10.93-10.93ZM304.43,350.31H96.86V188.63H304.43Z"/><path d="M188.63,246.53a33.88,33.88,0,1,0-67.75,0v68.83a10.93,10.93,0,1,0,21.86,0v-12h24v12a10.94,10.94,0,0,0,21.87,0Zm-21.87,35h-24v-35a12,12,0,1,1,24,0Z"/><path d="M280.41,246.53a33.92,33.92,0,0,0-33.88-33.88H223.58a11,11,0,0,0-10.93,10.93v91.78a10.94,10.94,0,0,0,10.93,10.93h22.95a33.91,33.91,0,0,0,33.88-33.87Zm-21.87,45.89a12,12,0,0,1-12,12h-12V234.52h12a12,12,0,0,1,12,12Z"/><path class="cls-4" d="M430.08,419.14H85.92a10.94,10.94,0,0,0,0,21.87H430.08a10.94,10.94,0,0,0,0-21.87Z"/><path class="cls-4" d="M430.08,212.65H361.25a10.94,10.94,0,1,0,0,21.87h68.83a10.94,10.94,0,0,0,0-21.87Z"/><path class="cls-4" d="M430.08,281.48H361.25a10.94,10.94,0,1,0,0,21.87h68.83a10.94,10.94,0,0,0,0-21.87Z"/><path class="cls-4" d="M430.08,350.31H361.25a10.94,10.94,0,1,0,0,21.87h68.83a10.94,10.94,0,0,0,0-21.87Z"/></svg>