<svg id="Layer_1" data-name="Layer 1" xmlns="http://www.w3.org/2000/svg" viewBox="0 0 516 516"><defs><style>.cls-1{fill:#fd6a33;}.cls-2{fill:#4acfd9;}.cls-3{fill:#fda72f;}</style></defs><title>icons-expand</title><polygon class="cls-1" points="135.71 8 392.5 8 420.5 35 420.5 85.5 96 85.5 101.5 29 135.71 8"/><polygon class="cls-2" points="310 264 355 299 481 303 500.5 329 500.5 469.5 469.5 503 296.27 498 258.43 486.5 249 453 251 319.36 296.27 290.75 309.5 290.75 310 264"/><polygon class="cls-3" points="125.12 167.67 187.5 183.88 214.33 193.83 258.43 193.83 231 228.33 246.33 295.67 216.33 355.67 157.28 399.88 66.33 383.67 23.74 325 13 251.67 40.56 208.33 89.67 173.94 125.12 167.67"/><path d="M157.28,405.38a5.36,5.36,0,0,1-1-.08L65.37,389.08a5.52,5.52,0,0,1-3.49-2.18L19.29,328.23a5.52,5.52,0,0,1-1-2.43L7.56,252.46a5.47,5.47,0,0,1,.8-3.74l27.56-43.34a5.47,5.47,0,0,1,1.48-1.55l49.11-34.4a5.53,5.53,0,0,1,2.2-.91l35.45-6.27a5.59,5.59,0,0,1,2.34.09l62.38,16.22.53.16,25.91,9.61h43.1a5.5,5.5,0,0,1,4.31,8.92L237,229.69l14.75,64.76a5.51,5.51,0,0,1-.45,3.68l-30,60a5.53,5.53,0,0,1-1.62,1.94l-59,44.22A5.56,5.56,0,0,1,157.28,405.38Zm-87.8-26.74,86.41,15.41L212,352,240.53,295l-14.89-65.42a5.53,5.53,0,0,1,1.05-4.64L247,199.33h-32.7a5.65,5.65,0,0,1-1.91-.34l-26.57-9.85L124.9,173.29l-33.08,5.85L44.61,212.21,18.74,252.89l10.24,70Z"/><path d="M260.51,58.54H378.75a9.94,9.94,0,1,0,0-19.88H260.51a9.94,9.94,0,1,0,0,19.88Z"/><path d="M172.88,58.54a9.92,9.92,0,1,0-7-2.91,10,10,0,0,0,7,2.91Z"/><path d="M135.07,58.54a9.94,9.94,0,1,0-7-2.91,10,10,0,0,0,7,2.91Z"/><path d="M210.69,58.54a9.94,9.94,0,1,0-7-2.91,10,10,0,0,0,7,2.91Z"/><path d="M299.2,136.15a10,10,0,0,0-9.95-9.94H248.48a9.95,9.95,0,0,0,0,19.89h40.77a10,10,0,0,0,9.95-9.95Z"/><path d="M329.87,146.1h40.69a9.95,9.95,0,1,0,0-19.89H329.87a9.95,9.95,0,0,0,0,19.89Z"/><path d="M370.56,221.64H360a9.94,9.94,0,1,0,0,19.88h10.59a9.95,9.95,0,1,0,0-19.89Z"/><path d="M324.06,221.67h0l-38.43,0a9.95,9.95,0,0,0,0,19.89h0l38.43,0a9.95,9.95,0,0,0,0-19.89Z"/><path d="M335,173.94H301.76a9.95,9.95,0,1,0,0,19.89H335a9.95,9.95,0,0,0,0-19.89Z"/><path d="M370.57,173.94a9.94,9.94,0,1,0,7,2.91,10,10,0,0,0-7-2.91Z"/><path d="M316.35,258.12a9.95,9.95,0,0,0-16.16,7.76v21.88h-6.71a54.85,54.85,0,0,0-42.88,20.65,124.89,124.89,0,0,0-9.11-78.22l28.7-28.7a9.94,9.94,0,0,0-7-17H205a124.78,124.78,0,0,0-99.71-24V94.34H411.57V287.76H353.4l-37-29.64ZM128.53,387.79a104.79,104.79,0,1,1,66.64-185.66,10,10,0,0,0,6.33,2.27h37.65l-16.81,16.81a10,10,0,0,0-1.7,11.78,104.82,104.82,0,0,1-92.11,154.8Zm-1.37-365H389.69a21.91,21.91,0,0,1,21.88,21.88V74.45H105.28V44.62a21.91,21.91,0,0,1,21.88-21.88Zm330.9,265h-26.6V44.62A41.81,41.81,0,0,0,389.69,2.86H127.16A41.81,41.81,0,0,0,85.39,44.62V166A124.68,124.68,0,1,0,238.57,341.57c0,.38,0,.75,0,1.13V457.06A55,55,0,0,0,293.48,512H340a9.95,9.95,0,0,0,0-19.89H293.48a35.1,35.1,0,0,1-35.06-35.06V342.7a35.09,35.09,0,0,1,35.06-35.05h16.66a9.94,9.94,0,0,0,9.94-9.94V286.57l23.62,18.9a10,10,0,0,0,6.21,2.18H458.06a35.09,35.09,0,0,1,35.05,35.05V457.06a35.09,35.09,0,0,1-35.05,35.06H330A9.95,9.95,0,0,0,330,512H458.06A55,55,0,0,0,513,457.06V342.7a55,55,0,0,0-54.94-54.94Z"/><path d="M312.15,431.71a10,10,0,0,0,9.94-9.95V378a9.95,9.95,0,1,0-19.89,0v11.93H290.35V378a9.95,9.95,0,1,0-19.89,0v43.75a9.95,9.95,0,1,0,19.89,0V409.83H302.2v11.93a10,10,0,0,0,9.95,9.95Z"/><path d="M456.81,368.06a9.94,9.94,0,0,0-9.94,9.95v43.75a10,10,0,0,0,9.94,9.95H475.6a9.95,9.95,0,1,0,0-19.89h-8.84V378a9.94,9.94,0,0,0-9.95-9.95Z"/><path d="M365.89,388a9.95,9.95,0,1,0,0-19.89H340A9.95,9.95,0,1,0,340,388h3v33.81a9.95,9.95,0,1,0,19.89,0V388Z"/><path d="M416.34,402v19.75a9.95,9.95,0,1,0,19.89,0V378a10,10,0,0,0-17-7l-9.69,9.69L399.88,371a10,10,0,0,0-17,7v43.75a9.95,9.95,0,1,0,19.89,0V402a10,10,0,0,0,13.55,0Z"/><path d="M76.93,266.52a16.34,16.34,0,0,1,11.65,4.83,9.95,9.95,0,0,0,14.06-14.07,36.36,36.36,0,1,0,0,51.43,9.94,9.94,0,1,0-14.06-14.06,16.48,16.48,0,1,1-11.65-28.13Z"/><path d="M134.12,266.52h13.22a9.95,9.95,0,0,0,0-19.89H134.12a23.16,23.16,0,0,0,0,46.31,3.27,3.27,0,1,1,0,6.54H120.91a9.94,9.94,0,1,0,0,19.88h13.21a23.16,23.16,0,1,0,0-46.31,3.27,3.27,0,0,1,0-6.53Z"/><path d="M187.5,266.52h13.21a9.95,9.95,0,0,0,0-19.89H187.5a23.16,23.16,0,1,0,0,46.31,3.27,3.27,0,0,1,0,6.54H174.29a9.94,9.94,0,1,0,0,19.88H187.5a23.16,23.16,0,0,0,0-46.31,3.27,3.27,0,1,1,0-6.53Z"/></svg>