<svg id="Layer_1" data-name="Layer 1" xmlns="http://www.w3.org/2000/svg" viewBox="0 0 516 516"><defs><style>.cls-1{fill:#fd6a33;}.cls-2{fill:#607d8b;}</style></defs><title>icons-expand</title><rect class="cls-1" x="15.52" y="75.57" width="483.33" height="67.76"/><rect class="cls-2" x="12.9" y="147.2" width="490.21" height="289.8"/><path d="M489.67,450.43H26.33A23.46,23.46,0,0,1,2.9,427V89A23.46,23.46,0,0,1,26.33,65.57H489.67A23.46,23.46,0,0,1,513.1,89V427A23.46,23.46,0,0,1,489.67,450.43ZM26.33,85.57A3.47,3.47,0,0,0,22.9,89V427a3.47,3.47,0,0,0,3.43,3.43H489.67A3.47,3.47,0,0,0,493.1,427V89a3.47,3.47,0,0,0-3.43-3.43Z"/><path d="M503.1,157.2H12.9a10,10,0,0,1,0-20H503.1a10,10,0,0,1,0,20Z"/><circle cx="62.14" cy="110.27" r="13.43"/><circle cx="103.55" cy="110.27" r="13.43"/><circle cx="146.08" cy="110.27" r="13.43"/><path d="M172.4,372.5a10,10,0,0,1-7.07-2.93L89.58,293.81l76.12-76.12a10,10,0,0,1,14.14,14.14l-62,62,61.61,61.61a10,10,0,0,1-7.07,17.08Z"/><path d="M344.72,372.5a10,10,0,0,1-7.07-17.08l61.61-61.61-62-62a10,10,0,0,1,14.14-14.14l76.12,76.12-75.75,75.76A10,10,0,0,1,344.72,372.5Z"/><path d="M226,395a10,10,0,0,1-9.44-13.3l63.8-182.43a10,10,0,1,1,18.87,6.6L235.41,388.33A10,10,0,0,1,226,395Z"/></svg>