<svg id="Layer_1" data-name="Layer 1" xmlns="http://www.w3.org/2000/svg" viewBox="0 0 516 516"><defs><style>.cls-1{fill:#607d8b;}.cls-2{fill:#37474f;}.cls-3{fill:#fd6a33;}</style></defs><title>icons-expand</title><rect class="cls-1" x="72.66" y="12.17" width="382.69" height="212.97" rx="106.49" ry="106.49"/><path d="M348.86,235.14H179.14a116.49,116.49,0,0,1,0-233H348.86a116.49,116.49,0,0,1,0,233Zm-169.72-213a96.49,96.49,0,0,0,0,193H348.86a96.49,96.49,0,0,0,0-193Z"/><rect class="cls-1" x="72.66" y="290.86" width="382.69" height="212.97" rx="106.49" ry="106.49"/><path d="M348.86,513.83H179.14a116.49,116.49,0,0,1,0-233H348.86a116.49,116.49,0,0,1,0,233Zm-169.72-213a96.49,96.49,0,0,0,0,193H348.86a96.49,96.49,0,0,0,0-193Z"/><circle class="cls-2" cx="181.8" cy="396.93" r="72.89"/><path d="M181.8,479.82a82.89,82.89,0,1,1,82.89-82.89A83,83,0,0,1,181.8,479.82Zm0-145.78a62.89,62.89,0,1,0,62.89,62.89A63,63,0,0,0,181.8,334Z"/><circle class="cls-3" cx="343.78" cy="118.65" r="72.89"/><path d="M343.78,201.54a82.89,82.89,0,1,1,82.89-82.89A83,83,0,0,1,343.78,201.54Zm0-145.78a62.89,62.89,0,1,0,62.89,62.89A63,63,0,0,0,343.78,55.76Z"/></svg>