<svg id="Layer_1" data-name="Layer 1" xmlns="http://www.w3.org/2000/svg" viewBox="0 0 516 516"><defs><style>.cls-1{fill:#4acfd9;}.cls-2{fill:#fda72f;}.cls-3{fill:#f16051;}</style></defs><title>icons-expand</title><circle class="cls-1" cx="258" cy="298.36" r="109.78"/><path d="M258,417.91A119.56,119.56,0,1,1,377.56,298.36,119.69,119.69,0,0,1,258,417.91Zm0-219.55a100,100,0,1,0,100,100A100.11,100.11,0,0,0,258,198.36Z"/><polygon class="cls-2" points="273.74 90.72 273.74 27.41 239.01 27.41 239.01 90.72 213.89 90.72 256.38 133.21 298.87 90.72 273.74 90.72"/><path d="M256.38,138.71a5.49,5.49,0,0,1-3.89-1.61L210,94.61a5.5,5.5,0,0,1,3.89-9.39h19.62V27.41a5.5,5.5,0,0,1,5.5-5.5h34.73a5.5,5.5,0,0,1,5.5,5.5V85.22h19.63a5.5,5.5,0,0,1,3.89,9.39L260.27,137.1A5.52,5.52,0,0,1,256.38,138.71ZM227.17,96.22l29.21,29.21,29.21-29.21H273.74a5.5,5.5,0,0,1-5.5-5.5V32.91H244.51V90.72a5.5,5.5,0,0,1-5.5,5.5Z"/><path d="M258,514.16a215.84,215.84,0,0,1-78.14-417A9.78,9.78,0,0,1,187,115.36c-76,29.56-125.2,101.38-125.2,183,0,108.21,88,196.25,196.25,196.25s196.25-88,196.25-196.25c0-80.69-50.6-154.35-125.92-183.27a9.78,9.78,0,0,1,7-18.26A215.84,215.84,0,0,1,258,514.16Z"/><path class="cls-3" d="M287.3,292.32c-1.08-.38-2.2-.63-3.3-.93l-14.34-3.88a1.16,1.16,0,0,1-.75-1.6Q279,264.07,289,242.24a1.12,1.12,0,0,0,.11-.25,1.41,1.41,0,0,0-2.26-1.6c-19.9,19.08-40,38-59.72,57.26-2.78,2.74-2,5.68,1.75,6.89.58.18,1.18.32,1.77.48q7.41,2,14.81,4c1.23.33,2.17.66,1.39,2.32-3.34,7.16-6.72,14.51-10,21.79s-6.12,14.67-9.94,21.6a1.41,1.41,0,0,0,2.25,1.61c1.68-1.77,5.06-4.95,5.06-4.95s3.48-3.24,5.2-4.89l4.58-4.4q20.41-19.6,40.85-39.2l3.93-3.76C291.57,296.48,290.91,293.56,287.3,292.32Z"/></svg>