<svg id="Layer_1" data-name="Layer 1" xmlns="http://www.w3.org/2000/svg" viewBox="0 0 516 516"><defs><style>.cls-1{fill:#fda72f;}.cls-2{fill:#0295aa;}.cls-3{fill:#fff;}</style></defs><title>icons-expand</title><rect class="cls-1" x="23.42" y="21.5" width="471.5" height="471.5"/><path d="M493.42,23V491.5H24.92V23h468.5m3-3H21.92V494.5h474.5V20Z"/><rect class="cls-2" x="80.92" y="78.5" width="356" height="295"/><polyline class="cls-3" points="80.25 359 199.59 257.25 226.62 276.33 314.25 186.33 331.59 191 440.25 297 433.59 377 80.92 377 80.25 362.5"/><polygon points="434.97 378.5 79.49 378.5 78.76 362.56 81.75 362.43 82.35 375.5 432.21 375.5 438.7 297.58 330.82 192.35 314.71 188.01 226.8 278.3 199.68 259.15 81.23 360.14 79.28 357.86 199.5 255.35 226.44 274.37 313.79 184.66 332.36 189.65 332.64 189.93 441.81 296.42 434.97 378.5"/><rect class="cls-3" x="165.15" y="137.02" width="44.6" height="44.6"/><path d="M208.25,138.52v41.6h-41.6v-41.6h41.6m3-3h-47.6v47.6h47.6v-47.6Z"/><path d="M42.82,6.36A36.7,36.7,0,0,0,6.16,43V473.18a36.69,36.69,0,0,0,36.66,36.66H473a36.7,36.7,0,0,0,36.67-36.66V43A36.71,36.71,0,0,0,473,6.36H199l-49.75-.15v0C147.17,6.26,134,6.27,42.82,6.36ZM473,29.67A13.37,13.37,0,0,1,486.33,43V473.18A13.37,13.37,0,0,1,473,486.53H42.82a13.37,13.37,0,0,1-13.35-13.35V43A13.37,13.37,0,0,1,42.82,29.67Z"/><path d="M438,66.38H77.83A11.67,11.67,0,0,0,66.18,78v300.1A11.67,11.67,0,0,0,77.83,389.8H438a11.66,11.66,0,0,0,11.65-11.66V78A11.66,11.66,0,0,0,438,66.38ZM426.3,270.87,325.58,170.15a11.64,11.64,0,0,0-16.48,0l-92.16,92a11.66,11.66,0,0,0,16.48,16.49l83.92-83.8L426.23,303.75l.07.43v62.31H106l92.83-92.83,68,68a11.66,11.66,0,0,0,16.49-16.49L207,248.93a11.66,11.66,0,0,0-16.48,0L89.49,350V89.69H426.3Z"/><path d="M187.46,120.15a39.17,39.17,0,1,0,39.16,39.17A39.21,39.21,0,0,0,187.46,120.15Zm0,55a15.86,15.86,0,1,1,15.85-15.85A15.87,15.87,0,0,1,187.46,175.17Z"/></svg>