<svg id="Layer_1" data-name="Layer 1" xmlns="http://www.w3.org/2000/svg" viewBox="0 0 516 516"><defs><style>.cls-1{fill:#00bcd4;}.cls-2{fill:#fff;}.cls-3{fill:#f16051;}</style></defs><title>icons-expand</title><circle class="cls-1" cx="197.16" cy="194.16" r="182"/><path d="M197.16,386.16c-105.87,0-192-86.14-192-192s86.13-192,192-192,192,86.13,192,192S303,386.16,197.16,386.16Zm0-364c-94.85,0-172,77.15-172,172s77.15,172,172,172,172-77.16,172-172S292,22.16,197.16,22.16Z"/><circle class="cls-2" cx="197.16" cy="194.16" r="139"/><path d="M197.16,343.16c-82.16,0-149-66.85-149-149s66.84-149,149-149,149,66.84,149,149S279.31,343.16,197.16,343.16Zm0-278a129,129,0,1,0,129,129A129.13,129.13,0,0,0,197.16,65.16Z"/><path class="cls-1" d="M370.16,290.16h72a0,0,0,0,1,0,0v202a36,36,0,0,1-36,36h0a36,36,0,0,1-36-36v-202A0,0,0,0,1,370.16,290.16Z" transform="translate(-170.36 407.03) rotate(-45)"/><path d="M464.84,513.82a45.85,45.85,0,0,1-32.52-13.45L282.41,350.46l65-65L497.37,435.32a46,46,0,0,1-32.53,78.5ZM310.7,350.46,446.46,486.23a26,26,0,1,0,36.77-36.77L347.46,313.7Z"/><path class="cls-3" d="M238.61,180.53c-1.62-.36-3.29-.54-4.94-.79l-21.42-3.24a1.69,1.69,0,0,1-1.35-2.2q10.93-33.3,21.85-66.62a1.86,1.86,0,0,0,.12-.38,2.05,2.05,0,0,0-3.53-2c-25.67,31-51.69,61.68-77,92.92-3.57,4.43-1.93,8.56,3.69,9.69.87.17,1.76.27,2.64.4q11.06,1.66,22.13,3.32c1.83.28,3.25.6,2.39,3.14-3.65,10.93-7.33,22.14-10.84,33.23s-6.42,22.28-10.81,33a2.06,2.06,0,0,0,3.54,1.95c2.13-2.84,6.51-8,6.51-8s4.5-5.28,6.72-7.95l5.9-7.14q26.33-31.81,52.67-63.61l5.07-6.1C245.5,185.86,244,181.73,238.61,180.53Z"/></svg>