<svg id="Layer_1" data-name="Layer 1" xmlns="http://www.w3.org/2000/svg" viewBox="0 0 516 516"><defs><style>.cls-1{fill:#4acfd9;}.cls-2{fill:#fff;}.cls-3{fill:#f16051;}</style></defs><title>icons-expand</title><path class="cls-1" d="M352.24,86.28h77.48a0,0,0,0,1,0,0v77.48a266,266,0,0,1-266,266H86.28a0,0,0,0,1,0,0V352.24A266,266,0,0,1,352.24,86.28Z" transform="translate(258 -106.87) rotate(45)"/><path d="M258,400.46A273.94,273.94,0,0,1,63,319.7L8.23,264.92a9.81,9.81,0,0,1,0-13.84L63,196.3a275.75,275.75,0,0,1,390,0l54.79,54.78a9.81,9.81,0,0,1,0,13.84L453,319.7A273.94,273.94,0,0,1,258,400.46ZM29,258l47.87,47.87c99.89,99.89,262.41,99.89,362.3,0L487,258l-47.87-47.87c-99.89-99.89-262.41-99.89-362.3,0Z"/><circle class="cls-2" cx="258" cy="258" r="133.64"/><path d="M258,401.42c-79.08,0-143.42-64.34-143.42-143.42S178.92,114.58,258,114.58,401.42,178.92,401.42,258,337.08,401.42,258,401.42Zm0-267.28A123.86,123.86,0,1,0,381.86,258,124,124,0,0,0,258,134.14Z"/><circle class="cls-3" cx="258" cy="258" r="68.62"/><path d="M258,336.4A78.4,78.4,0,1,1,336.4,258,78.49,78.49,0,0,1,258,336.4Zm0-137.24A58.84,58.84,0,1,0,316.84,258,58.91,58.91,0,0,0,258,199.16Z"/><path d="M427.18,437a9.74,9.74,0,0,1-6.91-2.86L81.9,95.73A9.78,9.78,0,1,1,95.73,81.9L434.1,420.27A9.78,9.78,0,0,1,427.18,437Z"/></svg>