<svg id="Layer_1" data-name="Layer 1" xmlns="http://www.w3.org/2000/svg" viewBox="0 0 516 516"><defs><style>.cls-1{fill:#4acfd9;}.cls-2{fill:#fd6a33;}.cls-3{fill:#607d8b;}</style></defs><title>icons-expand</title><path class="cls-1" d="M324.3,60.49c-.62,0-1.23,0-1.84,0V16.29L268.21,74.42h.06a119.7,119.7,0,1,0,56-13.92"/><path d="M324.3,309.9A129.71,129.71,0,0,1,262,66.44l53.17-57a10,10,0,0,1,17.32,6.82V50.74C400.19,55,454,111.42,454,180.19,454,251.71,395.82,309.9,324.3,309.9ZM276.14,80.57A9.76,9.76,0,0,1,273,83.24,109.71,109.71,0,1,0,324.3,70.49l-.72,0-.95,0a10,10,0,0,1-10.17-10V41.66Z"/><path class="cls-2" d="M191.7,455.51c.62,0,1.23,0,1.84-.05v44.25l54.25-58.13h-.06a119.7,119.7,0,1,0-56,13.92"/><path d="M193.54,509.71a10,10,0,0,1-10-10V465.26C115.81,461,62,404.58,62,335.81c0-71.52,58.18-129.71,129.7-129.71A129.7,129.7,0,0,1,254,449.55l-53.18,57A10,10,0,0,1,193.54,509.71Zm0-64.25a10,10,0,0,1,10,10v18.88l36.32-38.91a9.76,9.76,0,0,1,3.18-2.67,109.71,109.71,0,1,0-51.34,12.75l.66,0,1.06,0Z"/><path class="cls-3" d="M111.92,176.82s1.84-44.19,44.2-46v-7.37l23.94,12.89L156.12,151v-9.2s-31.31,3.68-31.31,35h7.37l-14.73,24-14.74-24Z"/><path class="cls-3" d="M397.69,336s-1.84,44.2-44.2,46h0v7.37l-23.94-12.89,23.94-14.74V371s31.31-3.68,31.31-35h-7.37l14.73-23.94L406.9,336Z"/><polygon points="159.44 328.56 159.44 350.78 154.03 350.78 154.03 341.51 145.6 341.51 145.6 350.78 140.23 350.78 140.23 328.56 145.6 328.56 145.6 337.17 154.03 337.17 154.03 328.56 159.44 328.56"/><polygon points="168.52 332.83 168.52 337.48 176.03 337.48 176.03 341.54 168.52 341.54 168.52 346.48 176.98 346.48 176.98 350.78 163.14 350.78 163.14 328.56 176.98 328.56 176.98 332.83 168.52 332.83"/><polygon points="185.4 346.66 192.57 346.66 192.57 350.78 180.03 350.78 180.03 328.56 185.4 328.56 185.4 346.66"/><polygon points="200.43 346.66 207.59 346.66 207.59 350.78 195.05 350.78 195.05 328.56 200.43 328.56 200.43 346.66"/><path d="M226.35,329.67a10.72,10.72,0,0,1,4,4.06,12.38,12.38,0,0,1,0,11.74,10.7,10.7,0,0,1-4.05,4.07,11.76,11.76,0,0,1-11.35,0,10.72,10.72,0,0,1-4.06-4.07,12.31,12.31,0,0,1,0-11.74,10.84,10.84,0,0,1,4.06-4.06,11.82,11.82,0,0,1,11.38,0m-9.91,5.25a7.78,7.78,0,0,0,0,9.32,5.94,5.94,0,0,0,8.38,0,7.71,7.71,0,0,0,0-9.3,6,6,0,0,0-8.4,0"/><path d="M242.24,327.46l-.66,15.37H237l-.66-15.37Zm-.13,23.32h-5.6v-5.37h5.6Z"/><polygon points="297.27 171.37 297.27 193.6 291.86 193.6 291.86 184.32 283.44 184.32 283.44 193.6 278.06 193.6 278.06 171.37 283.44 171.37 283.44 179.99 291.86 179.99 291.86 171.37 297.27 171.37"/><path d="M314.75,189.55h-8.33l-1.39,4h-5.66l8.15-22.07h6.19l8.14,22.07h-5.72Zm-1.39-4.09-2.76-8.17-2.8,8.17Z"/><polygon points="329.3 189.48 336.47 189.48 336.47 193.6 323.93 193.6 323.93 171.37 329.3 171.37 329.3 189.48"/><path d="M355.22,172.49a10.58,10.58,0,0,1,4,4.06,12.29,12.29,0,0,1,0,11.73,10.72,10.72,0,0,1-4.05,4.08,11.76,11.76,0,0,1-11.35,0,10.72,10.72,0,0,1-4-4.08,12.22,12.22,0,0,1,0-11.73,10.67,10.67,0,0,1,4-4.06,11.82,11.82,0,0,1,11.38,0m-9.9,5.25a7.74,7.74,0,0,0,0,9.32,5.94,5.94,0,0,0,8.38,0,7.69,7.69,0,0,0,0-9.3,5.33,5.33,0,0,0-4.19-1.73,5.41,5.41,0,0,0-4.2,1.71"/><path d="M371.11,170.27l-.66,15.38h-4.56l-.66-15.38ZM371,193.6h-5.6v-5.38H371Z"/></svg>