<?xml version="1.0" encoding="utf-8"?>
<!-- Generator: Adobe Illustrator 22.0.1, SVG Export Plug-In . SVG Version: 6.00 Build 0)  -->
<svg width="20px" height="34px" version="1.1" id="Layer_1" xmlns="http://www.w3.org/2000/svg" xmlns:xlink="http://www.w3.org/1999/xlink" x="0px" y="0px"
	 viewBox="0 0 20 34" style="enable-background:new 0 0 20 34;" xml:space="preserve">
<style type="text/css">
	.st0{fill:#FFFFFF;}
</style>
<g>
	<g>
		<path class="st0" d="M6.2,24.1c0,0-0.1,0-0.1,0L1,18.9c-1-1-1-2.7,0-3.8L8.1,8C8.6,7.5,9.3,7.2,10,7.2c0.7,0,1.4,0.3,1.9,0.8
			l0.3,0.3c0.1,0.1,0.1,0.2,0,0.2c-0.1,0.1-0.2,0.1-0.2,0l-0.3-0.3c-0.4-0.4-1-0.7-1.7-0.7c-0.6,0-1.2,0.2-1.7,0.7l-7.1,7.1
			c-0.9,0.9-0.9,2.4,0,3.4l5.1,5.1c0.1,0.1,0.1,0.2,0,0.2C6.3,24.1,6.3,24.1,6.2,24.1z"/>
	</g>
	<g>
		<path class="st0" d="M10,26.8c-0.7,0-1.4-0.3-1.9-0.8l-0.3-0.3c-0.1-0.1-0.1-0.2,0-0.2c0.1-0.1,0.2-0.1,0.2,0l0.3,0.3
			c0.9,0.9,2.4,0.9,3.4,0l7.1-7.1c0.9-0.9,0.9-2.4,0-3.4l-5.1-5.1c-0.1-0.1-0.1-0.2,0-0.2c0.1-0.1,0.2-0.1,0.2,0l5.1,5.1
			c1,1,1,2.7,0,3.8L11.9,26C11.4,26.6,10.7,26.8,10,26.8z"/>
	</g>
	<g>
		<g>
			<path class="st0" d="M7.3,23.3C7.3,23.3,7.3,23.3,7.3,23.3C7.3,23.3,7.3,23.4,7.3,23.3L6.7,25c-0.1,0.2,0.2,0.3,0.3,0.2l0.7-0.9
				l0,0L8,24L7.3,23.3C7.3,23.3,7.3,23.3,7.3,23.3z"/>
		</g>
		<g>
			<path class="st0" d="M18.1,16.1l-5.3-5.3c0,0,0,0,0-0.1c0,0,0,0,0,0c0,0,0,0,0-0.1L13.3,9c0.1-0.2-0.2-0.3-0.3-0.2l-0.7,0.9l0,0
				L12,10L10.9,9c-0.5-0.5-1.3-0.5-1.8,0L2,16.1c-0.5,0.5-0.5,1.3,0,1.8l5.3,5.3l0,0l0.1,0.1l1.3-4c0-0.1,0.1-0.2,0.1-0.3
				c0.1-0.2-0.1-0.3-0.2-0.3c-0.7-0.1-1.4-0.2-2-0.3c-0.1,0-0.2,0-0.2,0c-0.5-0.1-0.7-0.5-0.3-0.9c0.5-0.6,1-1.2,1.5-1.8
				c0.1-0.1,0.2-0.3,0.3-0.4l0,0l3.4-4.1l0,0l0.3-0.4l0.2-0.2c0.1-0.1,0.2-0.2,0.3-0.4L12,10l0.7,0.7c-0.5,1.5-1,2.9-1.5,4.4
				c0,0.1,0,0.2,0.1,0.2c0.7,0.1,1.3,0.2,2,0.3c0.2,0,0.3,0,0.5,0.1c0.5,0.1,0.6,0.5,0.3,0.9c-1.2,1.4-2.4,2.8-3.5,4.2l-1.6,2l0,0
				L8.9,23L8,24l0,0L9.1,25c0.5,0.5,1.3,0.5,1.8,0l7.1-7.1C18.6,17.4,18.6,16.6,18.1,16.1z"/>
		</g>
	</g>
</g>
</svg>
