<?xml version="1.0" encoding="utf-8"?>
<!-- Generator: Adobe Illustrator 22.0.1, SVG Export Plug-In . SVG Version: 6.00 Build 0)  -->
<svg version="1.1" id="Layer_1" xmlns="http://www.w3.org/2000/svg" xmlns:xlink="http://www.w3.org/1999/xlink" x="0px" y="0px"
	 viewBox="0 0 80 80" style="enable-background:new 0 0 80 80;" xml:space="preserve">
<style type="text/css">
	.st0{fill:#e53935;}
</style>
<g>
	<path class="st0" d="M5.1,46.7C1.4,43,1.4,37,5.1,33.3L33.4,5c1.8-1.8,4.2-2.8,6.7-2.8c2.5,0,4.9,1,6.7,2.8l1.2,1.2
		c0.2,0.2,0.6,0.2,0.8,0C49,6,49,5.6,48.8,5.4l-1.2-1.2c-2-2-4.7-3.1-7.5-3.1c-2.8,0-5.5,1.1-7.5,3.1L4.2,32.5
		c-4.1,4.1-4.1,10.9,0,15l20.4,20.4c0.1,0.1,0.3,0.2,0.4,0.2s0.3-0.1,0.4-0.2c0.2-0.2,0.2-0.6,0-0.8L5.1,46.7z"/>
	<path class="st0" d="M75.9,32.5L55.5,12.1c-0.2-0.2-0.6-0.2-0.8,0c-0.2,0.2-0.2,0.6,0,0.8L75,33.3c1.8,1.8,2.8,4.2,2.8,6.7
		c0,2.5-1,4.9-2.8,6.7L46.7,75c-1.8,1.8-4.2,2.8-6.7,2.8c-2.5,0-4.9-1-6.7-2.8l-1.3-1.3c-0.2-0.2-0.6-0.2-0.8,0
		c-0.2,0.2-0.2,0.6,0,0.8l1.3,1.3c2,2,4.7,3.1,7.5,3.1c2.8,0,5.5-1.1,7.5-3.1l28.3-28.3c2-2,3.1-4.7,3.1-7.5
		C79,37.2,77.9,34.5,75.9,32.5z"/>
	<path class="st0" d="M31.2,68.9l1-1.2l-2.9-2.9c0,0.1-0.1,0.2-0.1,0.2c0,0,0,0,0,0c0,0.1-0.1,0.2-0.1,0.3l-2.1,6.3
		c-0.3,0.8,0.8,1.3,1.3,0.7L31.2,68.9L31.2,68.9z"/>
	<path class="st0" d="M34.9,47.6c0.3-0.9-0.2-1-0.9-1.1c-2.7-0.4-5.4-0.8-8.1-1.2c-0.3,0-0.6-0.1-1-0.1c-2-0.4-2.6-1.9-1.3-3.5
		c1.9-2.4,3.9-4.7,5.8-7c0.4-0.5,0.9-1.1,1.3-1.6l0,0.1l13.4-16.2l0,0l1.2-1.4l0.6-0.7c0.2-0.3,0.7-0.9,1.3-1.6l0.6-0.7l2.9,2.9
		C48.9,21.2,47,27,45,32.8c-0.1,0.4,0.1,0.7,0.5,0.8c2.7,0.4,5.2,0.8,7.8,1.2c0.6,0.1,1.2,0.2,1.8,0.3c2,0.4,2.5,1.9,1.2,3.5
		c-4.7,5.6-9.4,11.2-14,16.8l-6.5,8l0,0l-0.3,0.3l-3.3,4l0,0l4.2,4.2c2,2,5.2,2,7.2,0L72,43.6c2-2,2-5.2,0-7.2L50.8,15.3
		c0-0.1,0-0.2,0.1-0.2c0,0,0,0,0,0c0-0.1,0.1-0.2,0.1-0.3L53,8.4c0.3-0.8-0.8-1.3-1.3-0.7l-2.9,3.5l0,0l-1,1.2l-4.3-4.3
		c-2-2-5.2-2-7.2,0L8.1,36.4c-2,2-2,5.2,0,7.2L29,64.6l0,0l0.3,0.3l5.2-16C34.7,48.4,34.8,48,34.9,47.6z"/>
</g>
</svg>
