<?xml version="1.0" encoding="utf-8"?>
<!-- Generator: Adobe Illustrator 22.0.1, SVG Export Plug-In . SVG Version: 6.00 Build 0)  -->
<svg version="1.1" id="Layer_1" xmlns="http://www.w3.org/2000/svg" xmlns:xlink="http://www.w3.org/1999/xlink" x="0px" y="0px"
	 viewBox="0 0 70 72.2" style="enable-background:new 0 0 70 72.2;" xml:space="preserve">
<style type="text/css">
	.st0{fill:#999999;}
	.st1{fill:none;stroke:#999999;stroke-miterlimit:10;}
	.st2{font-family:'Poppins-SemiBold';}
	.st3{font-size:8.8245px;}
</style>
<title>blog-list</title>
<desc>Created with Sketch.</desc>
<path class="st0" d="M67.6,2.8v47.1H2.4V2.8H67.6 M68.6,1.9H1.4v49h67.2V1.9L68.6,1.9z"/>
<rect x="4.6" y="5" class="st0" width="30" height="3"/>
<rect x="4.6" y="9.6" class="st0" width="21.1" height="3"/>
<rect x="12" y="20" class="st0" width="6.3" height="0.9"/>
<g>
	<path class="st0" d="M25.1,19.5v1.8H5.2v-1.8H25.1 M25.7,19H4.6v3h21.1V19L25.7,19z"/>
</g>
<rect x="12" y="46.3" class="st0" width="6.3" height="0.9"/>
<g>
	<path class="st0" d="M25.1,45.8v1.8H5.2v-1.8H25.1 M25.7,45.2H4.6v3h21.1V45.2L25.7,45.2z"/>
</g>
<rect x="4.6" y="30.8" class="st0" width="58.1" height="3"/>
<rect x="4.6" y="35.3" class="st0" width="56.2" height="3"/>
<rect x="4.6" y="40" class="st0" width="30.8" height="3"/>
<g>
	<path class="st0" d="M64.2,6v18.4H37.8V6H64.2 M65.2,5H36.8v20.4h28.4V5L65.2,5z"/>
</g>
<line class="st1" x1="4.6" y1="28.3" x2="65.2" y2="28.3"/>
<path class="st1" d="M58.6,20c-5.1,0-10.1,0-15.1,0c0-0.1,0-0.1,0-0.1c0-1.1,0-3.3,0-3.3s2.7-2.1,3.9-3.2l2.1,1.5l5.1-4.4l4,3.7
	C58.6,14.2,58.6,19.9,58.6,20z"/>
<text transform="matrix(1 0 0 1 15.3436 64.4658)" class="st0 st2 st3">List View</text>
<circle class="st1" cx="44.3" cy="11.8" r="1.3"/>
</svg>
