<?xml version="1.0" encoding="utf-8"?>
<!-- Generator: Adobe Illustrator 22.0.1, SVG Export Plug-In . SVG Version: 6.00 Build 0)  -->
<svg version="1.1" id="Layer_1" xmlns="http://www.w3.org/2000/svg" xmlns:xlink="http://www.w3.org/1999/xlink" x="0px" y="0px"
	 viewBox="0 0 70 70" style="enable-background:new 0 0 70 70;" xml:space="preserve">
<style type="text/css">
	.st0{fill:#999999;}
	.st1{font-family:'Poppins-SemiBold';}
	.st2{font-size:8.8245px;}
	.st3{fill:none;stroke:#999999;stroke-miterlimit:10;}
</style>
<title>blog-normal</title>
<desc>Created with Sketch.</desc>
<g id="Rectangle-5-Copy-7">
	<g>
		<path id="path-5_1_" class="st0" d="M64.5,5.2v21.2h-59V5.2H64.5 M65.3,4.3H4.6v22.9h60.7V4.3L65.3,4.3z"/>
	</g>
</g>
<title>blog-normal</title>
<desc>Created with Sketch.</desc>
<path class="st0" d="M67.6,2.2v47.1H2.4V2.2H67.6 M68.6,1.3H1.4v49h67.2V1.3L68.6,1.3z"/>
<rect x="4.6" y="29.1" class="st0" width="33" height="3"/>
<rect x="4.6" y="33.8" class="st0" width="60.8" height="1.5"/>
<rect x="4.6" y="36.1" class="st0" width="60.8" height="1.5"/>
<rect x="4.6" y="38.3" class="st0" width="60.8" height="1.5"/>
<rect x="4.6" y="40.6" class="st0" width="60.8" height="1.5"/>
<rect x="4.6" y="45" class="st0" width="16.9" height="1.5"/>
<text transform="matrix(1 0 0 1 6.3475 63.4658)" class="st0 st1 st2">Classic View</text>
<g>
	<path class="st3" d="M45.2,22c-6.7,0-13.3,0-19.8,0c0-0.1,0-0.1,0-0.1c0-1.4,0-4.3,0-4.3s3.5-2.8,5.1-4.2l2.8,2L40,9.6l5.3,4.9
		C45.3,14.5,45.2,21.8,45.2,22z"/>
	<circle class="st3" cx="26.4" cy="11.3" r="1.6"/>
</g>
<g>
	<rect x="51.7" y="45.3" class="st0" width="6.3" height="0.9"/>
	<g>
		<path class="st0" d="M64.8,44.8v1.8H44.9v-1.8H64.8 M65.4,44.3H44.3v3h21.1V44.3L65.4,44.3z"/>
	</g>
</g>
</svg>
