<?xml version="1.0" encoding="utf-8"?>
<!-- Generator: Adobe Illustrator 22.1.0, SVG Export Plug-In . SVG Version: 6.00 Build 0)  -->
<svg version="1.1" id="Layer_1" xmlns="http://www.w3.org/2000/svg" xmlns:xlink="http://www.w3.org/1999/xlink" x="0px" y="0px"
	 viewBox="0 0 300 39" style="enable-background:new 0 0 300 39;" xml:space="preserve">
<style type="text/css">
	.st0{fill:#777777;}
	.st1{fill:#FFFFFF;}
</style>
<g>
	<rect class="st0" width="300" height="39"/>
</g>
<path id="Shape-Copy-13" class="st1" d="M20,14.1h12v2.2H20V14.1z M20,18.4h12v2.2H20V18.4z M20,22.6h12v2.2H20V22.6z"/>
<path id="Shape" class="st1" d="M279.8,22.6l-1.5-1.5c0.4-0.6,0.7-1.3,0.7-2.1c0-2.1-1.7-3.7-3.7-3.7c-2.1,0-3.7,1.7-3.7,3.7
	s1.7,3.7,3.7,3.7c0.8,0,1.5-0.3,2.1-0.7l1.5,1.5c0.3,0.3,0.7,0.3,0.9,0C280.1,23.3,280.1,22.9,279.8,22.6L279.8,22.6z M275.2,21.6
	c-1.5,0-2.7-1.2-2.7-2.7s1.2-2.7,2.7-2.7s2.7,1.2,2.7,2.7C277.9,20.4,276.7,21.6,275.2,21.6L275.2,21.6z"/>
<path id="Logo" class="st1" d="M134.7,13.5v9.4h6.7v-1.7h-4.6v-7.7C136.8,13.5,134.7,13.5,134.7,13.5z M144,19.5
	c0-0.3,0-0.5,0.1-0.8c0.1-0.3,0.1-0.5,0.3-0.7c0.1-0.2,0.3-0.4,0.5-0.5c0.2-0.1,0.5-0.2,0.8-0.2s0.6,0.1,0.8,0.2s0.4,0.3,0.5,0.5
	c0.1,0.2,0.2,0.4,0.3,0.7c0.1,0.3,0.1,0.5,0.1,0.8s0,0.5-0.1,0.8c-0.1,0.3-0.1,0.5-0.3,0.7c-0.1,0.2-0.3,0.4-0.5,0.5
	c-0.2,0.1-0.5,0.2-0.8,0.2s-0.6-0.1-0.8-0.2s-0.4-0.3-0.5-0.5c-0.1-0.2-0.2-0.4-0.3-0.7C144,20,144,19.8,144,19.5L144,19.5z
	 M142.1,19.5c0,0.5,0.1,1,0.3,1.5c0.2,0.4,0.4,0.8,0.7,1.1c0.3,0.3,0.7,0.6,1.1,0.7c0.4,0.2,0.9,0.3,1.4,0.3s1-0.1,1.5-0.3
	c0.4-0.2,0.8-0.4,1.1-0.7c0.3-0.3,0.5-0.7,0.7-1.1c0.2-0.4,0.3-0.9,0.3-1.5c0-0.5-0.1-1-0.3-1.5c-0.2-0.4-0.4-0.8-0.7-1.1
	c-0.3-0.3-0.7-0.6-1.1-0.7c-0.4-0.2-0.9-0.3-1.5-0.3c-0.6,0-1,0.1-1.4,0.3c-0.4,0.2-0.8,0.4-1.1,0.7c-0.3,0.3-0.5,0.7-0.7,1.1
	C142.2,18.4,142.1,18.9,142.1,19.5L142.1,19.5z M153.5,21.3c-0.3,0-0.5-0.1-0.7-0.2s-0.3-0.3-0.5-0.5c-0.1-0.2-0.2-0.4-0.3-0.7
	c0-0.2-0.1-0.5-0.1-0.7c0-0.3,0-0.5,0.1-0.7s0.1-0.4,0.3-0.6c0.1-0.2,0.3-0.3,0.5-0.4s0.4-0.2,0.7-0.2s0.6,0.1,0.8,0.2
	s0.4,0.3,0.5,0.5c0.1,0.2,0.2,0.4,0.3,0.7c0.1,0.3,0.1,0.5,0.1,0.8c0,0.2,0,0.5-0.1,0.7c-0.1,0.2-0.2,0.4-0.3,0.6
	c-0.1,0.2-0.3,0.3-0.5,0.4C154,21.2,153.8,21.3,153.5,21.3L153.5,21.3z M156.9,22.4V16h-1.8v1l0,0c-0.2-0.4-0.5-0.7-0.8-0.8
	c-0.3-0.2-0.7-0.3-1.2-0.3s-0.9,0.1-1.3,0.3c-0.4,0.2-0.7,0.4-0.9,0.7c-0.2,0.3-0.4,0.7-0.6,1.1c-0.1,0.4-0.2,0.8-0.2,1.3
	s0.1,0.9,0.2,1.3c0.1,0.4,0.3,0.8,0.5,1.1c0.2,0.3,0.5,0.6,0.9,0.7c0.4,0.1,0.8,0.3,1.3,0.3c0.4,0,0.8-0.1,1.2-0.3
	c0.4-0.2,0.7-0.4,0.9-0.8l0,0v0.9c0,0.5-0.1,0.9-0.3,1.2c-0.2,0.3-0.6,0.5-1.2,0.5c-0.3,0-0.6-0.1-0.9-0.2c-0.3-0.1-0.4-0.4-0.5-0.7
	h-1.9c0,0.4,0.1,0.7,0.3,1c0.2,0.3,0.4,0.5,0.7,0.7s0.6,0.3,0.9,0.4c0.3,0.1,0.7,0.1,1,0.1c0.8,0,1.4-0.1,1.9-0.3
	c0.5-0.2,0.8-0.5,1.1-0.8c0.2-0.3,0.4-0.6,0.5-1C156.9,23,156.9,22.7,156.9,22.4L156.9,22.4z M160.1,19.5c0-0.3,0-0.5,0.1-0.8
	c0.1-0.3,0.1-0.5,0.3-0.7c0.1-0.2,0.3-0.4,0.5-0.5s0.5-0.2,0.8-0.2s0.6,0.1,0.8,0.2c0.2,0.1,0.4,0.3,0.5,0.5
	c0.1,0.2,0.2,0.4,0.3,0.7c0.1,0.3,0.1,0.5,0.1,0.8s0,0.5-0.1,0.8c-0.1,0.3-0.1,0.5-0.3,0.7c-0.1,0.2-0.3,0.4-0.5,0.5
	c-0.2,0.1-0.5,0.2-0.8,0.2s-0.6-0.1-0.8-0.2s-0.4-0.3-0.5-0.5s-0.2-0.4-0.3-0.7C160.1,20,160.1,19.8,160.1,19.5L160.1,19.5z
	 M158.2,19.5c0,0.5,0.1,1,0.3,1.5c0.2,0.4,0.4,0.8,0.7,1.1c0.3,0.3,0.7,0.6,1.1,0.7c0.4,0.2,0.9,0.3,1.4,0.3s1-0.1,1.5-0.3
	c0.4-0.2,0.8-0.4,1.1-0.7c0.3-0.3,0.5-0.7,0.7-1.1s0.3-0.9,0.3-1.5c0-0.5-0.1-1-0.3-1.5c-0.2-0.4-0.4-0.8-0.7-1.1
	c-0.3-0.3-0.7-0.6-1.1-0.7c-0.5-0.2-0.9-0.3-1.5-0.3c-0.6,0-1,0.1-1.4,0.3c-0.4,0.2-0.8,0.4-1.1,0.7c-0.3,0.3-0.5,0.7-0.7,1.1
	S158.2,18.9,158.2,19.5L158.2,19.5z"/>
</svg>
