<?xml version="1.0" encoding="utf-8"?>
<!-- Generator: Adobe Illustrator 22.0.1, SVG Export Plug-In . SVG Version: 6.00 Build 0)  -->
<svg version="1.1" id="Layer_1" xmlns="http://www.w3.org/2000/svg" xmlns:xlink="http://www.w3.org/1999/xlink" x="0px" y="0px"
	 viewBox="0 0 300 300" style="enable-background:new 0 0 300 300;" xml:space="preserve">
<style type="text/css">
	.st0{fill:#4E85C3;}
	.st1{fill:#A4C4E8;}
	.st2{fill:#C1DBF4;}
	.st3{fill:#8CB3D3;}
	.st4{fill:#356493;}
	.st5{fill:#FFFFFF;}
	.st6{fill:#7CA6D1;}
</style>
<rect class="st0" width="122.8" height="300"/>
<g>
	<g>
		<rect x="3.5" y="3.1" class="st1" width="116.9" height="18.3"/>
	</g>
</g>
<g>
	<g>
		<g>
			<path class="st0" d="M112,15.3c-0.1,0-0.2-0.1-0.2-0.1c-0.1-0.1-0.1-0.3,0-0.4l2.4-2.4l-2.4-2.4c-0.1-0.1-0.1-0.3,0-0.4
				c0.1-0.1,0.3-0.1,0.4,0l2.7,2.7c0.1,0.1,0.1,0.3,0,0.4l-2.7,2.7C112.2,15.2,112.1,15.3,112,15.3z"/>
		</g>
	</g>
</g>
<g>
	<g>
		<rect x="3.5" y="21.9" class="st1" width="116.9" height="18.3"/>
	</g>
</g>
<g>
	<g>
		<g>
			<path class="st0" d="M112,34c-0.1,0-0.2-0.1-0.2-0.1c-0.1-0.1-0.1-0.3,0-0.4l2.4-2.4l-2.4-2.4c-0.1-0.1-0.1-0.3,0-0.4
				s0.3-0.1,0.4,0l2.7,2.7c0.1,0.1,0.1,0.3,0,0.4l-2.7,2.7C112.2,34,112.1,34,112,34z"/>
		</g>
	</g>
</g>
<g>
	<g>
		<rect x="3.5" y="40.8" class="st1" width="116.9" height="18.3"/>
	</g>
</g>
<g>
	<g>
		<g>
			<path class="st0" d="M112,53c-0.1,0-0.2-0.1-0.2-0.1c-0.1-0.1-0.1-0.3,0-0.4l2.4-2.4l-2.4-2.4c-0.1-0.1-0.1-0.3,0-0.4
				s0.3-0.1,0.4,0l2.7,2.7c0.1,0.1,0.1,0.3,0,0.4l-2.7,2.7C112.2,53,112.1,53,112,53z"/>
		</g>
	</g>
</g>
<g>
	<g>
		<rect x="3.5" y="78.7" class="st1" width="116.9" height="18.3"/>
	</g>
</g>
<g>
	<g>
		<g>
			<path class="st0" d="M112,90.8c-0.1,0-0.2-0.1-0.2-0.1c-0.1-0.1-0.1-0.3,0-0.4l2.4-2.4l-2.4-2.4c-0.1-0.1-0.1-0.3,0-0.4
				s0.3-0.1,0.4,0l2.7,2.7c0.1,0.1,0.1,0.3,0,0.4l-2.7,2.7C112.2,90.8,112.1,90.8,112,90.8z"/>
		</g>
	</g>
</g>
<g>
	<g>
		<rect x="3.5" y="97.6" class="st1" width="116.9" height="18.3"/>
	</g>
</g>
<g>
	<g>
		<g>
			<path class="st0" d="M112,109.7c-0.1,0-0.2-0.1-0.2-0.1c-0.1-0.1-0.1-0.3,0-0.4l2.4-2.4l-2.4-2.4c-0.1-0.1-0.1-0.3,0-0.4
				s0.3-0.1,0.4,0l2.7,2.7c0.1,0.1,0.1,0.3,0,0.4l-2.7,2.7C112.2,109.7,112.1,109.7,112,109.7z"/>
		</g>
	</g>
</g>
<g>
	<g>
		<rect x="3.5" y="59.8" class="st1" width="116.9" height="18.3"/>
	</g>
</g>
<g>
	<g>
		<g>
			<path class="st0" d="M112,71.9c-0.1,0-0.2-0.1-0.2-0.1c-0.1-0.1-0.1-0.3,0-0.4l2.4-2.4l-2.4-2.4c-0.1-0.1-0.1-0.3,0-0.4
				s0.3-0.1,0.4,0l2.7,2.7c0.1,0.1,0.1,0.3,0,0.4l-2.7,2.7C112.2,71.9,112.1,71.9,112,71.9z"/>
		</g>
	</g>
</g>
<g>
	<path class="st2" d="M130.2,300v-32.1h162.6V300"/>
	<polygon class="st3" points="293,300 292.4,300 292.4,268.2 130.5,268.2 130.5,300 129.9,300 129.9,267.6 293,267.6 	"/>
</g>
<g>
	<path class="st2" d="M130.3,268.1h162.3 M292.9,267.7L292.9,267.7H130"/>
	<polygon class="st3" points="292.6,268.4 130.3,268.4 130.3,268 130,268 130,267.4 292.9,267.4 292.9,268 292.6,268 	"/>
</g>
<g>
	<g>
		<rect x="122.8" y="27.3" class="st2" width="177.2" height="139.1"/>
	</g>
</g>
<g>
	<rect x="122.8" class="st0" width="177.2" height="27.5"/>
</g>
<g>
	<g>
		<g>
			<g>
				<rect x="190.8" y="73.6" class="st4" width="41.2" height="23.6"/>
			</g>
		</g>
	</g>
	<g>
		<g>
			<g>
				<path class="st0" d="M231.4,74.3v22.3h-39.9V74.3H231.4 M232.7,73h-42.5v24.9h42.5V73L232.7,73z"/>
			</g>
		</g>
	</g>
</g>
<g>
	<g>
		<g>
			<ellipse class="st0" cx="195.6" cy="78.2" rx="2.1" ry="2.1"/>
		</g>
	</g>
</g>
<g>
	<g>
		<g>
			<polygon class="st0" points="232.7,97.8 232.7,88.5 221.7,77.5 204.7,94.5 208.1,97.8 			"/>
		</g>
	</g>
</g>
<g>
	<g>
		<g>
			<polygon class="st0" points="190.2,97.8 219.3,97.8 204.7,83.3 190.2,97.8 190.2,97.9 			"/>
		</g>
	</g>
</g>
<g>
	<rect x="139.1" y="279.7" class="st0" width="54.5" height="9.2"/>
</g>
<g>
	<rect x="129.9" y="147.8" class="st0" width="92.7" height="5.9"/>
</g>
<g>
	<rect x="129.9" y="138.7" class="st0" width="163.2" height="5.9"/>
</g>
<g>
	<g>
		<rect x="283.2" y="9.7" class="st5" width="9.6" height="1.4"/>
	</g>
</g>
<g>
	<g>
		<rect x="283.2" y="13" class="st5" width="9.6" height="1.4"/>
	</g>
</g>
<g>
	<g>
		<rect x="283.2" y="16.3" class="st5" width="9.6" height="1.4"/>
	</g>
</g>
<path class="st5" d="M269.4,16.2L269.4,16.2c-0.3-0.3-0.6-0.6-0.9-0.9l-0.2-0.2l0.2-0.2c0.4-0.5,0.5-1.1,0.5-1.8
	c0-0.2,0-0.4-0.1-0.7c-0.2-0.9-0.7-1.7-1.4-2.2c-0.7-0.5-1.7-0.7-2.5-0.6c-0.8,0.1-1.5,0.5-2,1.1s-0.8,1.4-0.9,2.1
	c-0.1,1,0.3,1.9,0.9,2.6s1.5,1.1,2.5,1.1c0.6,0,1.3-0.2,1.8-0.5l0.2-0.2l0.2,0.2c0.5,0.5,0.8,0.8,1.4,1.4l0.2,0.2l0.1,0.1
	c0.1,0.1,0.2,0.2,0.3,0.2c0.1,0.1,0.3,0.1,0.4,0.1c0.2-0.1,0.3-0.2,0.4-0.3c0.1-0.2,0.1-0.4-0.2-0.6
	C269.9,16.7,269.6,16.5,269.4,16.2z M265.5,15.6c-1.4,0-2.6-1.2-2.6-2.6s1.2-2.6,2.6-2.6s2.6,1.2,2.6,2.6S266.9,15.6,265.5,15.6z"/>
<g>
	<g>
		<path class="st4" d="M134.9,117H159c2.8,0,5,2.2,5,5l0,0c0,2.8-2.2,5-5,5h-24.1c-2.8,0-5-2.2-5-5l0,0
			C129.9,119.2,132.1,117,134.9,117z"/>
	</g>
</g>
<g>
	<g>
		<path class="st4" d="M174.2,117h24.1c2.8,0,5,2.2,5,5l0,0c0,2.8-2.2,5-5,5h-24.1c-2.8,0-5-2.2-5-5l0,0
			C169.2,119.2,171.4,117,174.2,117z"/>
	</g>
</g>
<g>
	<g>
		<g>
			<path class="st5" d="M150.9,10.1h0.8l3.1,7.3H154l-1-2.4h-3.4l-1.1,2.4h-0.8L150.9,10.1z M151.3,10.9l-1.4,3.3h2.8L151.3,10.9z"
				/>
		</g>
	</g>
	<g>
		<g>
			<path class="st5" d="M155.7,17.4v-7.3h1.1l2.7,6.2l2.7-6.2h1.1v7.3h-0.7v-6.5l-2.7,6.5h-0.6l-2.7-6.5v6.5H155.7z"/>
		</g>
	</g>
	<g>
		<g>
			<path class="st5" d="M164.7,17.4v-7.3h1.9c0.9,0,1.6,0.1,2.1,0.4c0.6,0.4,0.8,0.9,0.8,1.7v0.2c0,0.6-0.2,1.1-0.7,1.5
				s-1.1,0.6-1.8,0.6h-1.6v3h-0.7V17.4z M165.4,10.8v3h1.5c0.6,0,1.1-0.2,1.4-0.5c0.3-0.3,0.4-0.7,0.4-1.2s-0.2-0.9-0.6-1.1
				c-0.4-0.2-0.8-0.3-1.5-0.3L165.4,10.8L165.4,10.8z"/>
		</g>
	</g>
	<g>
		<g>
			<path class="st5" d="M170.8,10.1h1.4l1.3,5.1l1.2-5.1h1l1.2,5.1l1.2-5.1h1.4l-2.1,7.3h-1.1l-1.2-4.9l-1.2,4.9h-1.1L170.8,10.1z"
				/>
		</g>
	</g>
	<g>
		<g>
			<path class="st5" d="M180.2,17.4v-7.3h2c0.9,0,1.7,0.2,2.1,0.8c0.4,0.4,0.5,0.9,0.5,1.5c0,0.7-0.2,1.2-0.6,1.6
				c-0.4,0.4-1,0.6-1.8,0.6h-0.9v2.8H180.2z M181.5,13.3h0.7c0.4,0,0.6-0.1,0.9-0.2c0.3-0.2,0.4-0.4,0.4-0.7c0-0.4-0.1-0.6-0.4-0.8
				c-0.2-0.1-0.5-0.2-0.8-0.2h-0.7L181.5,13.3C181.6,13.3,181.5,13.3,181.5,13.3z"/>
		</g>
	</g>
</g>
<g>
	<g>
		<path class="st5" d="M135.4,19.2L135.4,19.2L135.4,19.2l-0.4,1.2c-0.1,0.2,0.1,0.2,0.2,0.1l0.5-0.7l0,0l0.2-0.2L135.4,19.2
			L135.4,19.2z"/>
	</g>
	<g>
		<g>
			<path class="st5" d="M134.5,19.9c-0.1,0-0.1,0-0.1-0.1l-3.9-3.9c-0.4-0.4-0.6-0.9-0.6-1.5c0-0.5,0.2-1.1,0.6-1.5l5.4-5.4
				c0.8-0.8,2.1-0.8,3,0l0.2,0.2c0.1,0.1,0.1,0.2,0,0.3c-0.1,0.1-0.2,0.1-0.3,0l-0.2-0.2c-0.6-0.7-1.8-0.7-2.4,0l-5.4,5.4
				c-0.3,0.3-0.5,0.8-0.5,1.2c0,0.5,0.2,0.9,0.5,1.2l3.8,3.8c0.1,0.1,0.1,0.2,0,0.3C134.6,19.8,134.6,19.9,134.5,19.9z"/>
		</g>
	</g>
	<g>
		<g>
			<path class="st5" d="M137.4,21.9c-0.5,0-1.1-0.2-1.5-0.6l-0.2-0.2c-0.1-0.1-0.1-0.2,0-0.3c0.1-0.1,0.2-0.1,0.3,0l0.2,0.2
				c0.6,0.7,1.8,0.7,2.4,0l5.4-5.4c0.3-0.3,0.5-0.8,0.5-1.2c0-0.5-0.2-0.9-0.5-1.2l-3.9-3.9c-0.1-0.1-0.1-0.2,0-0.3s0.2-0.1,0.3,0
				l3.9,3.9c0.4,0.4,0.6,0.9,0.6,1.5c0,0.5-0.2,1.1-0.6,1.5l-5.4,5.4C138.5,21.7,138,21.9,137.4,21.9z"/>
		</g>
	</g>
	<g>
		<path class="st5" d="M143.4,15.2l-5.4,5.4c-0.4,0.4-1,0.4-1.4,0l-0.8-0.8l0,0l0.6-0.8l0.1-0.1l0,0l1.2-1.5
			c0.9-1.1,1.8-2.1,2.7-3.2c0.2-0.3,0.1-0.6-0.2-0.7c-0.1,0-0.2-0.1-0.4-0.1c-0.5-0.1-0.9-0.1-1.5-0.2c-0.1,0-0.1-0.1-0.1-0.2
			c0.4-1.1,0.7-2.2,1.1-3.3L139,9.2l-0.2,0.1c-0.1,0.1-0.2,0.2-0.2,0.3l-0.1,0.1l-0.2,0.3l0,0l-2.5,3.1l0,0
			c-0.1,0.1-0.2,0.2-0.2,0.3c-0.4,0.4-0.8,0.9-1.1,1.4c-0.2,0.3-0.1,0.6,0.2,0.7c0.1,0,0.1,0,0.2,0c0.5,0.1,1,0.2,1.5,0.2
			c0.1,0,0.2,0.1,0.2,0.2c0,0.1-0.1,0.2-0.1,0.2l-1,3l-0.1-0.1l0,0l-4-4c-0.4-0.4-0.4-1,0-1.4l5.4-5.4c0.4-0.4,1-0.4,1.4,0L139,9
			l0.2-0.2l0,0l0.5-0.7c0.1-0.1,0.3,0,0.2,0.1l-0.4,1.2v0.1l0,0c0,0,0,0,0,0.1l4,4C143.8,14.1,143.8,14.7,143.4,15.2z"/>
	</g>
</g>
<path class="st0" d="M293.1,268.1H129.9v-84.9c0-1.3,1.1-2.4,2.4-2.4h158.4c1.3,0,2.4,1.1,2.4,2.4L293.1,268.1L293.1,268.1z"/>
<g>
	<g>
		<path class="st4" d="M143.1,247h24.1c2.8,0,5,2.2,5,5l0,0c0,2.8-2.2,5-5,5h-24.1c-2.8,0-5-2.2-5-5l0,0
			C138.1,249.2,140.4,247,143.1,247z"/>
	</g>
</g>
<g>
	<g>
		<path class="st4" d="M182.4,247h24.1c2.8,0,5,2.2,5,5l0,0c0,2.8-2.2,5-5,5h-24.1c-2.8,0-5-2.2-5-5l0,0
			C177.5,249.2,179.7,247,182.4,247z"/>
	</g>
</g>
<g>
	<rect x="129.9" y="131.4" class="st6" width="82.5" height="2.8"/>
</g>
<g>
	<g>
		<g>
			<g>
				<rect x="190.8" y="204.2" class="st2" width="41.2" height="23.6"/>
			</g>
		</g>
	</g>
	<g>
		<g>
			<g>
				<path class="st4" d="M231.4,204.8v22.3h-39.9v-22.3H231.4 M232.7,203.6h-42.5v24.9h42.5V203.6L232.7,203.6z"/>
			</g>
		</g>
	</g>
</g>
<g>
	<g>
		<g>
			<ellipse class="st4" cx="195.6" cy="208.8" rx="2.1" ry="2.1"/>
		</g>
	</g>
</g>
<g>
	<g>
		<g>
			<polygon class="st4" points="232.7,228.4 232.7,219 221.7,208 204.7,225.1 208.1,228.4 			"/>
		</g>
	</g>
</g>
<g>
	<g>
		<g>
			<polygon class="st4" points="190.2,228.4 219.3,228.4 204.7,213.8 190.2,228.4 			"/>
		</g>
	</g>
</g>
<g>
	<path class="st0" d="M16.1,10.5v4.6H15v-1.9h-1.7v1.9h-1.1v-4.6h1.1v1.8H15v-1.8H16.1z"/>
	<path class="st0" d="M20.2,13.5h-2.5c0,0.3,0.1,0.5,0.2,0.6s0.3,0.2,0.5,0.2c0.2,0,0.3,0,0.4-0.1s0.2-0.2,0.2-0.3h1.2
		c0,0.3-0.2,0.5-0.3,0.7c-0.2,0.2-0.4,0.4-0.6,0.5c-0.2,0.1-0.5,0.2-0.8,0.2c-0.4,0-0.7-0.1-0.9-0.2c-0.3-0.1-0.5-0.4-0.6-0.6
		s-0.2-0.6-0.2-1c0-0.4,0.1-0.7,0.2-1c0.2-0.3,0.4-0.5,0.6-0.6c0.3-0.1,0.6-0.2,0.9-0.2c0.4,0,0.7,0.1,0.9,0.2
		c0.3,0.1,0.5,0.4,0.6,0.6c0.1,0.3,0.2,0.6,0.2,0.9C20.3,13.3,20.3,13.3,20.2,13.5z M19,12.5c-0.1-0.1-0.3-0.2-0.5-0.2
		c-0.2,0-0.4,0.1-0.5,0.2c-0.1,0.1-0.2,0.3-0.2,0.5h1.4C19.2,12.8,19.1,12.6,19,12.5z"/>
	<path class="st0" d="M22.9,11.6c0.2,0.1,0.3,0.3,0.4,0.5v-0.7h1.1v3.6h-1.1v-0.7c-0.1,0.2-0.2,0.4-0.4,0.5s-0.4,0.2-0.7,0.2
		c-0.3,0-0.6-0.1-0.8-0.2c-0.2-0.1-0.4-0.4-0.6-0.6s-0.2-0.6-0.2-1c0-0.4,0.1-0.7,0.2-1c0.1-0.3,0.3-0.5,0.6-0.6
		c0.2-0.1,0.5-0.2,0.8-0.2C22.5,11.4,22.7,11.5,22.9,11.6z M22,12.6c-0.1,0.2-0.2,0.4-0.2,0.6s0.1,0.5,0.2,0.6
		c0.1,0.2,0.3,0.2,0.6,0.2c0.2,0,0.4-0.1,0.6-0.2c0.1-0.2,0.2-0.4,0.2-0.6c0-0.3-0.1-0.5-0.2-0.6c-0.1-0.2-0.3-0.2-0.6-0.2
		C22.3,12.4,22.1,12.5,22,12.6z"/>
	<path class="st0" d="M27.3,11.6c0.2,0.1,0.3,0.3,0.4,0.5v-1.8h1.1v4.8h-1.1v-0.7c-0.1,0.2-0.2,0.4-0.4,0.5s-0.4,0.2-0.7,0.2
		c-0.3,0-0.6-0.1-0.8-0.2c-0.2-0.1-0.4-0.4-0.6-0.6s-0.2-0.6-0.2-1c0-0.4,0.1-0.7,0.2-1c0.1-0.3,0.3-0.5,0.6-0.6
		c0.2-0.1,0.5-0.2,0.8-0.2C26.9,11.4,27.1,11.5,27.3,11.6z M26.4,12.6c-0.1,0.2-0.2,0.4-0.2,0.6s0.1,0.5,0.2,0.6
		c0.1,0.2,0.3,0.2,0.6,0.2c0.2,0,0.4-0.1,0.6-0.2c0.1-0.2,0.2-0.4,0.2-0.6c0-0.3-0.1-0.5-0.2-0.6c-0.1-0.2-0.3-0.2-0.6-0.2
		C26.7,12.4,26.5,12.5,26.4,12.6z"/>
	<path class="st0" d="M33,13.5h-2.5c0,0.3,0.1,0.5,0.2,0.6s0.3,0.2,0.5,0.2c0.2,0,0.3,0,0.4-0.1s0.2-0.2,0.2-0.3h1.2
		c0,0.3-0.2,0.5-0.3,0.7c-0.2,0.2-0.4,0.4-0.6,0.5c-0.2,0.1-0.5,0.2-0.8,0.2c-0.4,0-0.7-0.1-0.9-0.2c-0.3-0.1-0.5-0.4-0.6-0.6
		s-0.2-0.6-0.2-1c0-0.4,0.1-0.7,0.2-1c0.2-0.3,0.4-0.5,0.6-0.6c0.3-0.1,0.6-0.2,0.9-0.2c0.4,0,0.7,0.1,0.9,0.2
		c0.3,0.1,0.5,0.4,0.6,0.6c0.1,0.3,0.2,0.6,0.2,0.9C33,13.3,33,13.3,33,13.5z M31.7,12.5c-0.1-0.1-0.3-0.2-0.5-0.2
		c-0.2,0-0.4,0.1-0.5,0.2c-0.1,0.1-0.2,0.3-0.2,0.5h1.4C31.9,12.8,31.8,12.6,31.7,12.5z"/>
	<path class="st0" d="M35.2,11.6c0.2-0.1,0.5-0.2,0.7-0.2v1.2h-0.3c-0.3,0-0.5,0.1-0.7,0.2c-0.2,0.1-0.2,0.3-0.2,0.6v1.6h-1.1v-3.6
		h1.1v0.7C34.8,11.9,35,11.7,35.2,11.6z"/>
</g>
<g>
	<path class="st0" d="M15.1,28.3v0.9h-1.9v1h1.4V31h-1.4v1.8h-1.1v-4.6H15.1z"/>
	<path class="st0" d="M18.3,29.4c0.3,0.1,0.5,0.4,0.7,0.6c0.2,0.3,0.2,0.6,0.2,1c0,0.4-0.1,0.7-0.2,1c-0.2,0.3-0.4,0.5-0.7,0.6
		c-0.3,0.1-0.6,0.2-1,0.2s-0.7-0.1-1-0.2c-0.3-0.1-0.5-0.4-0.7-0.6s-0.2-0.6-0.2-1c0-0.4,0.1-0.7,0.2-1s0.4-0.5,0.7-0.6
		c0.3-0.1,0.6-0.2,1-0.2S18.1,29.3,18.3,29.4z M16.9,30.4c-0.1,0.2-0.2,0.4-0.2,0.7s0.1,0.5,0.2,0.7c0.1,0.2,0.3,0.2,0.5,0.2
		s0.4-0.1,0.5-0.2c0.1-0.2,0.2-0.4,0.2-0.7s-0.1-0.5-0.2-0.7c-0.1-0.2-0.3-0.2-0.5-0.2S17,30.2,16.9,30.4z"/>
	<path class="st0" d="M22.5,29.4c0.3,0.1,0.5,0.4,0.7,0.6c0.2,0.3,0.2,0.6,0.2,1c0,0.4-0.1,0.7-0.2,1c-0.2,0.3-0.4,0.5-0.7,0.6
		c-0.3,0.1-0.6,0.2-1,0.2s-0.7-0.1-1-0.2c-0.3-0.1-0.5-0.4-0.7-0.6s-0.2-0.6-0.2-1c0-0.4,0.1-0.7,0.2-1s0.4-0.5,0.7-0.6
		c0.3-0.1,0.6-0.2,1-0.2S22.2,29.3,22.5,29.4z M21,30.4c-0.1,0.2-0.2,0.4-0.2,0.7s0.1,0.5,0.2,0.7c0.1,0.2,0.3,0.2,0.5,0.2
		s0.4-0.1,0.5-0.2c0.1-0.2,0.2-0.4,0.2-0.7s-0.1-0.5-0.2-0.7c-0.1-0.2-0.3-0.2-0.5-0.2S21.1,30.2,21,30.4z"/>
	<path class="st0" d="M26,31.9v0.9h-0.5c-0.4,0-0.7-0.1-1-0.3c-0.2-0.2-0.4-0.6-0.4-1v-1.3h-0.5v-0.9h0.5v-0.9h1.1v0.9H26v0.9h-0.7
		v1.3c0,0.1,0,0.2,0.1,0.3c0.1,0.1,0.2,0.1,0.3,0.1H26z"/>
	<path class="st0" d="M30,31.3h-2.5c0,0.3,0.1,0.5,0.2,0.6S28,32,28.2,32c0.2,0,0.3,0,0.4-0.1s0.2-0.2,0.2-0.3h1.2
		c0,0.3-0.2,0.5-0.3,0.7c-0.2,0.2-0.4,0.4-0.6,0.5c-0.2,0.1-0.5,0.2-0.8,0.2c-0.4,0-0.7-0.1-0.9-0.2c-0.3-0.1-0.5-0.4-0.6-0.6
		s-0.2-0.6-0.2-1c0-0.4,0.1-0.7,0.2-1c0.2-0.3,0.4-0.5,0.6-0.6c0.3-0.1,0.6-0.2,0.9-0.2c0.4,0,0.7,0.1,0.9,0.2
		c0.3,0.1,0.5,0.4,0.6,0.6c0.1,0.3,0.2,0.6,0.2,0.9C30,31,30,31.1,30,31.3z M28.7,30.3c-0.1-0.1-0.3-0.2-0.5-0.2
		c-0.2,0-0.4,0.1-0.5,0.2c-0.1,0.1-0.2,0.3-0.2,0.5h1.4C28.9,30.6,28.8,30.4,28.7,30.3z"/>
	<path class="st0" d="M32.2,29.4c0.2-0.1,0.5-0.2,0.7-0.2v1.2h-0.3c-0.3,0-0.5,0.1-0.7,0.2c-0.2,0.1-0.2,0.3-0.2,0.6v1.6h-1.1v-3.6
		h1.1v0.7C31.8,29.7,32,29.5,32.2,29.4z"/>
</g>
<g>
	<path class="st0" d="M16.1,47.2v4.6H15v-1.9h-1.7v1.9h-1.1v-4.6h1.1V49H15v-1.8H16.1z"/>
	<path class="st0" d="M19.5,48.3c0.3,0.1,0.5,0.4,0.7,0.6c0.2,0.3,0.2,0.6,0.2,1c0,0.4-0.1,0.7-0.2,1c-0.2,0.3-0.4,0.5-0.7,0.6
		c-0.3,0.1-0.6,0.2-1,0.2s-0.7-0.1-1-0.2c-0.3-0.1-0.5-0.4-0.7-0.6s-0.2-0.6-0.2-1c0-0.4,0.1-0.7,0.2-1s0.4-0.5,0.7-0.6
		c0.3-0.1,0.6-0.2,1-0.2S19.2,48.2,19.5,48.3z M18,49.3c-0.1,0.2-0.2,0.4-0.2,0.7s0.1,0.5,0.2,0.7c0.1,0.2,0.3,0.2,0.5,0.2
		s0.4-0.1,0.5-0.2c0.1-0.2,0.2-0.4,0.2-0.7s-0.1-0.5-0.2-0.7c-0.1-0.2-0.3-0.2-0.5-0.2S18.2,49.1,18,49.3z"/>
	<path class="st0" d="M26.7,48.5c0.3,0.3,0.4,0.7,0.4,1.1v2.1H26v-2c0-0.2-0.1-0.4-0.2-0.5c-0.1-0.1-0.3-0.2-0.5-0.2
		c-0.2,0-0.4,0.1-0.5,0.2c-0.1,0.1-0.2,0.3-0.2,0.6v1.9h-1.1v-2c0-0.2-0.1-0.4-0.2-0.5c-0.1-0.1-0.3-0.2-0.5-0.2
		c-0.2,0-0.4,0.1-0.5,0.2s-0.2,0.3-0.2,0.6v1.9H21v-3.6h1.1v0.6c0.1-0.2,0.2-0.4,0.4-0.5c0.2-0.1,0.4-0.2,0.7-0.2
		c0.3,0,0.5,0.1,0.7,0.2c0.2,0.1,0.4,0.3,0.5,0.5c0.1-0.2,0.3-0.4,0.5-0.5c0.2-0.1,0.5-0.2,0.7-0.2C26.1,48.1,26.4,48.3,26.7,48.5z"
		/>
	<path class="st0" d="M31.2,50.2h-2.5c0,0.3,0.1,0.5,0.2,0.6s0.3,0.2,0.5,0.2c0.2,0,0.3,0,0.4-0.1s0.2-0.2,0.2-0.3h1.2
		c0,0.3-0.2,0.5-0.3,0.7c-0.2,0.2-0.4,0.4-0.6,0.5c-0.2,0.1-0.5,0.2-0.8,0.2c-0.4,0-0.7-0.1-0.9-0.2c-0.3-0.1-0.5-0.4-0.6-0.6
		s-0.2-0.6-0.2-1c0-0.4,0.1-0.7,0.2-1c0.2-0.3,0.4-0.5,0.6-0.6c0.3-0.1,0.6-0.2,0.9-0.2c0.4,0,0.7,0.1,0.9,0.2
		c0.3,0.1,0.5,0.4,0.6,0.6c0.1,0.3,0.2,0.6,0.2,0.9C31.2,49.9,31.2,50,31.2,50.2z M29.9,49.2C29.8,49,29.6,49,29.4,49
		c-0.2,0-0.4,0.1-0.5,0.2c-0.1,0.1-0.2,0.3-0.2,0.5h1.4C30.1,49.5,30,49.3,29.9,49.2z"/>
	<path class="st0" d="M34.8,48.3c0.2,0.1,0.4,0.4,0.6,0.6c0.1,0.3,0.2,0.6,0.2,1c0,0.4-0.1,0.7-0.2,1s-0.3,0.5-0.6,0.6
		c-0.2,0.1-0.5,0.2-0.8,0.2c-0.3,0-0.5-0.1-0.7-0.2c-0.2-0.1-0.3-0.3-0.4-0.5v2.4h-1.1v-5.3h1.1v0.7c0.1-0.2,0.2-0.4,0.4-0.5
		c0.2-0.1,0.4-0.2,0.7-0.2C34.3,48.1,34.6,48.2,34.8,48.3z M33.1,49.3c-0.1,0.2-0.2,0.4-0.2,0.6c0,0.3,0.1,0.5,0.2,0.6
		c0.1,0.2,0.3,0.2,0.6,0.2c0.2,0,0.4-0.1,0.6-0.2c0.1-0.2,0.2-0.4,0.2-0.6s-0.1-0.5-0.2-0.6c-0.1-0.2-0.3-0.2-0.6-0.2
		C33.4,49.1,33.3,49.2,33.1,49.3z"/>
	<path class="st0" d="M38.2,48.3c0.2,0.1,0.3,0.3,0.4,0.5v-0.7h1.1v3.6h-1.1v-0.7c-0.1,0.2-0.2,0.4-0.4,0.5s-0.4,0.2-0.7,0.2
		c-0.3,0-0.6-0.1-0.8-0.2c-0.2-0.1-0.4-0.4-0.6-0.6S36,50.3,36,50c0-0.4,0.1-0.7,0.2-1c0.1-0.3,0.3-0.5,0.6-0.6
		c0.2-0.1,0.5-0.2,0.8-0.2C37.8,48.1,38,48.2,38.2,48.3z M37.3,49.3c-0.1,0.2-0.2,0.4-0.2,0.6s0.1,0.5,0.2,0.6
		c0.1,0.2,0.3,0.2,0.6,0.2c0.2,0,0.4-0.1,0.6-0.2c0.1-0.2,0.2-0.4,0.2-0.6c0-0.3-0.1-0.5-0.2-0.6c-0.1-0.2-0.3-0.2-0.6-0.2
		C37.6,49.1,37.4,49.2,37.3,49.3z"/>
	<path class="st0" d="M42.6,48.3c0.2,0.1,0.3,0.3,0.4,0.5v-0.7h1.1v3.6c0,0.3-0.1,0.6-0.2,0.9c-0.1,0.3-0.3,0.5-0.6,0.6
		c-0.3,0.2-0.6,0.2-1,0.2c-0.5,0-1-0.1-1.3-0.4c-0.3-0.3-0.5-0.6-0.6-1h1.1c0,0.1,0.1,0.3,0.2,0.3s0.3,0.1,0.5,0.1
		c0.2,0,0.4-0.1,0.6-0.2S43,52,43,51.7v-0.6c-0.1,0.2-0.2,0.4-0.4,0.5s-0.4,0.2-0.7,0.2c-0.3,0-0.6-0.1-0.8-0.2
		c-0.2-0.1-0.4-0.4-0.6-0.6s-0.2-0.6-0.2-1c0-0.4,0.1-0.7,0.2-1c0.1-0.3,0.3-0.5,0.6-0.6c0.2-0.1,0.5-0.2,0.8-0.2
		C42.2,48.1,42.4,48.2,42.6,48.3z M41.7,49.3c-0.1,0.2-0.2,0.4-0.2,0.6s0.1,0.5,0.2,0.6c0.1,0.2,0.3,0.2,0.6,0.2
		c0.2,0,0.4-0.1,0.6-0.2C43,50.4,43,50.2,43,50c0-0.3-0.1-0.5-0.2-0.6c-0.1-0.2-0.3-0.2-0.6-0.2C42,49.1,41.8,49.2,41.7,49.3z"/>
	<path class="st0" d="M48.3,50.2h-2.5c0,0.3,0.1,0.5,0.2,0.6s0.3,0.2,0.5,0.2c0.2,0,0.3,0,0.4-0.1s0.2-0.2,0.2-0.3h1.2
		c0,0.3-0.2,0.5-0.3,0.7c-0.2,0.2-0.4,0.4-0.6,0.5c-0.2,0.1-0.5,0.2-0.8,0.2c-0.4,0-0.7-0.1-0.9-0.2c-0.3-0.1-0.5-0.4-0.6-0.6
		s-0.2-0.6-0.2-1c0-0.4,0.1-0.7,0.2-1c0.2-0.3,0.4-0.5,0.6-0.6c0.3-0.1,0.6-0.2,0.9-0.2c0.4,0,0.7,0.1,0.9,0.2
		c0.3,0.1,0.5,0.4,0.6,0.6c0.1,0.3,0.2,0.6,0.2,0.9C48.3,49.9,48.3,50,48.3,50.2z M47,49.2C46.9,49,46.7,49,46.5,49
		c-0.2,0-0.4,0.1-0.5,0.2c-0.1,0.1-0.2,0.3-0.2,0.5h1.4C47.2,49.5,47.1,49.3,47,49.2z"/>
	<path class="st0" d="M53.3,51.1c-0.1,0.2-0.3,0.4-0.5,0.5c-0.2,0.1-0.5,0.2-0.9,0.2c-0.5,0-0.9-0.1-1.3-0.4c-0.3-0.2-0.5-0.6-0.5-1
		h1.2c0,0.2,0.1,0.3,0.2,0.4c0.1,0.1,0.2,0.1,0.4,0.1c0.1,0,0.3,0,0.3-0.1c0.1-0.1,0.1-0.2,0.1-0.3c0-0.1,0-0.2-0.1-0.3
		S52,50.1,51.9,50s-0.3-0.1-0.5-0.2c-0.3-0.1-0.5-0.2-0.7-0.3c-0.2-0.1-0.3-0.2-0.5-0.4S50,48.7,50,48.4c0-0.3,0.1-0.5,0.2-0.7
		c0.1-0.2,0.3-0.3,0.6-0.5c0.2-0.1,0.5-0.2,0.8-0.2c0.5,0,0.9,0.1,1.2,0.4c0.3,0.2,0.5,0.6,0.5,1h-1.2c0-0.2-0.1-0.3-0.2-0.4
		C51.9,48,51.8,48,51.6,48c-0.1,0-0.2,0-0.3,0.1s-0.1,0.2-0.1,0.3c0,0.1,0,0.2,0.1,0.3c0.1,0.1,0.2,0.1,0.3,0.2s0.3,0.1,0.5,0.2
		c0.3,0.1,0.5,0.2,0.7,0.3s0.3,0.2,0.5,0.4c0.1,0.2,0.2,0.4,0.2,0.7C53.4,50.7,53.4,50.9,53.3,51.1z"/>
	<path class="st0" d="M57.4,50.2h-2.5c0,0.3,0.1,0.5,0.2,0.6s0.3,0.2,0.5,0.2c0.2,0,0.3,0,0.4-0.1s0.2-0.2,0.2-0.3h1.2
		c0,0.3-0.2,0.5-0.3,0.7c-0.2,0.2-0.4,0.4-0.6,0.5c-0.2,0.1-0.5,0.2-0.8,0.2c-0.4,0-0.7-0.1-0.9-0.2c-0.3-0.1-0.5-0.4-0.6-0.6
		s-0.2-0.6-0.2-1c0-0.4,0.1-0.7,0.2-1c0.2-0.3,0.4-0.5,0.6-0.6c0.3-0.1,0.6-0.2,0.9-0.2c0.4,0,0.7,0.1,0.9,0.2
		c0.3,0.1,0.5,0.4,0.6,0.6c0.1,0.3,0.2,0.6,0.2,0.9C57.5,49.9,57.5,50,57.4,50.2z M56.2,49.2C56,49,55.9,49,55.7,49
		c-0.2,0-0.4,0.1-0.5,0.2C55,49.3,55,49.5,55,49.7h1.4C56.4,49.5,56.3,49.3,56.2,49.2z"/>
	<path class="st0" d="M60.1,50.8v0.9h-0.5c-0.4,0-0.7-0.1-1-0.3c-0.2-0.2-0.4-0.6-0.4-1v-1.3h-0.5v-0.9h0.5v-0.9h1.1v0.9h0.7v0.9
		h-0.7v1.3c0,0.1,0,0.2,0.1,0.3c0.1,0.1,0.2,0.1,0.3,0.1H60.1z"/>
	<path class="st0" d="M62.7,50.8v0.9h-0.5c-0.4,0-0.7-0.1-1-0.3c-0.2-0.2-0.4-0.6-0.4-1v-1.3h-0.5v-0.9h0.5v-0.9H62v0.9h0.7v0.9H62
		v1.3c0,0.1,0,0.2,0.1,0.3c0.1,0.1,0.2,0.1,0.3,0.1H62.7z"/>
	<path class="st0" d="M63.4,46.7c0.1-0.1,0.3-0.2,0.5-0.2c0.2,0,0.4,0.1,0.5,0.2c0.1,0.1,0.2,0.2,0.2,0.4c0,0.2-0.1,0.3-0.2,0.4
		c-0.1,0.1-0.3,0.2-0.5,0.2c-0.2,0-0.4-0.1-0.5-0.2c-0.1-0.1-0.2-0.2-0.2-0.4C63.3,47,63.3,46.8,63.4,46.7z M64.5,48.2v3.6h-1.1
		v-3.6H64.5z"/>
	<path class="st0" d="M68.5,48.5c0.2,0.3,0.4,0.7,0.4,1.1v2.1h-1.1v-2c0-0.2-0.1-0.4-0.2-0.6C67.4,49.1,67.3,49,67,49
		c-0.2,0-0.4,0.1-0.5,0.2c-0.1,0.1-0.2,0.3-0.2,0.6v1.9h-1.1v-3.6h1.1v0.7c0.1-0.2,0.3-0.4,0.5-0.5c0.2-0.1,0.4-0.2,0.7-0.2
		C67.9,48.1,68.2,48.3,68.5,48.5z"/>
	<path class="st0" d="M71.6,48.3c0.2,0.1,0.3,0.3,0.4,0.5v-0.7h1.1v3.6c0,0.3-0.1,0.6-0.2,0.9c-0.1,0.3-0.3,0.5-0.6,0.6
		c-0.3,0.2-0.6,0.2-1,0.2c-0.5,0-1-0.1-1.3-0.4c-0.3-0.3-0.5-0.6-0.6-1h1.1c0,0.1,0.1,0.3,0.2,0.3s0.3,0.1,0.5,0.1
		c0.2,0,0.4-0.1,0.6-0.2s0.2-0.3,0.2-0.6v-0.6c-0.1,0.2-0.2,0.4-0.4,0.5s-0.4,0.2-0.7,0.2c-0.3,0-0.6-0.1-0.8-0.2
		c-0.2-0.1-0.4-0.4-0.6-0.6s-0.2-0.6-0.2-1c0-0.4,0.1-0.7,0.2-1c0.1-0.3,0.3-0.5,0.6-0.6c0.2-0.1,0.5-0.2,0.8-0.2
		C71.2,48.1,71.5,48.2,71.6,48.3z M70.7,49.3c-0.1,0.2-0.2,0.4-0.2,0.6s0.1,0.5,0.2,0.6c0.1,0.2,0.3,0.2,0.6,0.2
		c0.2,0,0.4-0.1,0.6-0.2c0.1-0.2,0.2-0.4,0.2-0.6c0-0.3-0.1-0.5-0.2-0.6c-0.1-0.2-0.3-0.2-0.6-0.2C71.1,49.1,70.9,49.2,70.7,49.3z"
		/>
	<path class="st0" d="M76.3,48.5c0.3,0.2,0.4,0.5,0.5,0.9h-1c0-0.1-0.1-0.3-0.2-0.3c-0.1-0.1-0.2-0.1-0.4-0.1c-0.1,0-0.2,0-0.3,0.1
		s-0.1,0.1-0.1,0.2c0,0.1,0.1,0.2,0.2,0.3c0.1,0.1,0.3,0.1,0.6,0.2c0.3,0.1,0.5,0.1,0.7,0.2c0.2,0.1,0.3,0.2,0.5,0.3
		c0.1,0.2,0.2,0.4,0.2,0.6c0,0.2-0.1,0.4-0.2,0.5c-0.1,0.2-0.3,0.3-0.5,0.4c-0.2,0.1-0.5,0.1-0.7,0.1c-0.5,0-0.9-0.1-1.2-0.3
		c-0.3-0.2-0.5-0.5-0.5-0.9h1.1c0,0.2,0.1,0.3,0.2,0.4c0.1,0.1,0.3,0.1,0.4,0.1c0.1,0,0.2,0,0.3-0.1c0.1-0.1,0.1-0.1,0.1-0.2
		c0-0.1-0.1-0.2-0.2-0.3c-0.1-0.1-0.3-0.1-0.6-0.2c-0.3-0.1-0.5-0.1-0.7-0.2s-0.3-0.2-0.4-0.3c-0.1-0.1-0.2-0.3-0.2-0.6
		c0-0.3,0.1-0.6,0.4-0.8c0.2-0.2,0.6-0.3,1-0.3C75.7,48.1,76.1,48.2,76.3,48.5z"/>
</g>
<g>
	<path class="st0" d="M15.7,66.6c0.4,0.3,0.6,0.7,0.7,1.2h-1.2c-0.1-0.2-0.2-0.4-0.4-0.5c-0.2-0.1-0.4-0.2-0.6-0.2
		c-0.3,0-0.6,0.1-0.8,0.4s-0.3,0.6-0.3,0.9c0,0.4,0.1,0.7,0.3,0.9c0.2,0.2,0.5,0.4,0.8,0.4c0.2,0,0.5-0.1,0.6-0.2
		c0.2-0.1,0.3-0.3,0.4-0.5h1.2c-0.1,0.5-0.4,0.9-0.7,1.2c-0.4,0.3-0.9,0.5-1.4,0.5c-0.4,0-0.8-0.1-1.2-0.3c-0.3-0.2-0.6-0.5-0.8-0.8
		c-0.2-0.4-0.3-0.8-0.3-1.2s0.1-0.9,0.3-1.2c0.2-0.4,0.4-0.6,0.8-0.8c0.3-0.2,0.7-0.3,1.2-0.3C14.8,66.2,15.3,66.3,15.7,66.6z"/>
	<path class="st0" d="M19.7,67.3c0.3,0.1,0.5,0.4,0.7,0.6c0.2,0.3,0.2,0.6,0.2,1c0,0.4-0.1,0.7-0.2,1c-0.2,0.3-0.4,0.5-0.7,0.6
		c-0.3,0.1-0.6,0.2-1,0.2s-0.7-0.1-1-0.2c-0.3-0.1-0.5-0.4-0.7-0.6s-0.2-0.6-0.2-1c0-0.4,0.1-0.7,0.2-1s0.4-0.5,0.7-0.6
		c0.3-0.1,0.6-0.2,1-0.2S19.4,67.2,19.7,67.3z M18.2,68.3C18,68.4,18,68.7,18,69s0.1,0.5,0.2,0.7c0.1,0.2,0.3,0.2,0.5,0.2
		s0.4-0.1,0.5-0.2c0.1-0.2,0.2-0.4,0.2-0.7s-0.1-0.5-0.2-0.7c-0.1-0.2-0.3-0.2-0.5-0.2S18.3,68.1,18.2,68.3z"/>
	<path class="st0" d="M22.3,66v4.8h-1.1V66H22.3z"/>
	<path class="st0" d="M25.7,67.3c0.3,0.1,0.5,0.4,0.7,0.6c0.2,0.3,0.2,0.6,0.2,1c0,0.4-0.1,0.7-0.2,1c-0.2,0.3-0.4,0.5-0.7,0.6
		c-0.3,0.1-0.6,0.2-1,0.2s-0.7-0.1-1-0.2c-0.3-0.1-0.5-0.4-0.7-0.6s-0.2-0.6-0.2-1c0-0.4,0.1-0.7,0.2-1s0.4-0.5,0.7-0.6
		c0.3-0.1,0.6-0.2,1-0.2S25.4,67.2,25.7,67.3z M24.2,68.3C24,68.4,24,68.7,24,69s0.1,0.5,0.2,0.7c0.1,0.2,0.3,0.2,0.5,0.2
		s0.4-0.1,0.5-0.2c0.1-0.2,0.2-0.4,0.2-0.7s-0.1-0.5-0.2-0.7c-0.1-0.2-0.3-0.2-0.5-0.2S24.3,68.1,24.2,68.3z"/>
	<path class="st0" d="M28.8,67.3c0.2-0.1,0.5-0.2,0.7-0.2v1.2h-0.3c-0.3,0-0.5,0.1-0.7,0.2c-0.2,0.1-0.2,0.3-0.2,0.6v1.6h-1.1v-3.6
		h1.1v0.7C28.4,67.6,28.6,67.4,28.8,67.3z"/>
</g>
<g>
	<path class="st0" d="M15.7,85.5c0.4,0.3,0.6,0.7,0.7,1.2h-1.2c-0.1-0.2-0.2-0.4-0.4-0.5c-0.2-0.1-0.4-0.2-0.6-0.2
		c-0.3,0-0.6,0.1-0.8,0.4s-0.3,0.6-0.3,0.9c0,0.4,0.1,0.7,0.3,0.9c0.2,0.2,0.5,0.4,0.8,0.4c0.2,0,0.5-0.1,0.6-0.2
		c0.2-0.1,0.3-0.3,0.4-0.5h1.2c-0.1,0.5-0.4,0.9-0.7,1.2c-0.4,0.3-0.9,0.5-1.4,0.5c-0.4,0-0.8-0.1-1.2-0.3c-0.3-0.2-0.6-0.5-0.8-0.8
		c-0.2-0.4-0.3-0.8-0.3-1.2s0.1-0.9,0.3-1.2c0.2-0.4,0.4-0.6,0.8-0.8c0.3-0.2,0.7-0.3,1.2-0.3C14.8,85.1,15.3,85.2,15.7,85.5z"/>
	<path class="st0" d="M20.6,86.1v3.6h-1.1V89c-0.1,0.2-0.3,0.4-0.5,0.5c-0.2,0.1-0.4,0.2-0.7,0.2c-0.4,0-0.7-0.1-1-0.4
		S17,88.6,17,88.1v-2.1h1.1v2c0,0.2,0.1,0.4,0.2,0.6c0.1,0.1,0.3,0.2,0.5,0.2c0.2,0,0.4-0.1,0.5-0.2c0.1-0.1,0.2-0.3,0.2-0.6v-1.9
		H20.6z"/>
	<path class="st0" d="M23.8,86.4c0.3,0.2,0.4,0.5,0.5,0.9h-1c0-0.1-0.1-0.3-0.2-0.3c-0.1-0.1-0.2-0.1-0.4-0.1c-0.1,0-0.2,0-0.3,0.1
		s-0.1,0.1-0.1,0.2c0,0.1,0.1,0.2,0.2,0.3c0.1,0.1,0.3,0.1,0.6,0.2c0.3,0.1,0.5,0.1,0.7,0.2c0.2,0.1,0.3,0.2,0.5,0.3
		c0.1,0.2,0.2,0.4,0.2,0.6c0,0.2-0.1,0.4-0.2,0.5c-0.1,0.2-0.3,0.3-0.5,0.4c-0.2,0.1-0.5,0.1-0.7,0.1c-0.5,0-0.9-0.1-1.2-0.3
		c-0.3-0.2-0.5-0.5-0.5-0.9h1.1c0,0.2,0.1,0.3,0.2,0.4c0.1,0.1,0.3,0.1,0.4,0.1c0.1,0,0.2,0,0.3-0.1c0.1-0.1,0.1-0.1,0.1-0.2
		c0-0.1-0.1-0.2-0.2-0.3c-0.1-0.1-0.3-0.1-0.6-0.2c-0.3-0.1-0.5-0.1-0.7-0.2s-0.3-0.2-0.4-0.3c-0.1-0.1-0.2-0.3-0.2-0.6
		c0-0.3,0.1-0.6,0.4-0.8c0.2-0.2,0.6-0.3,1-0.3C23.1,86,23.5,86.1,23.8,86.4z"/>
	<path class="st0" d="M27,88.7v0.9h-0.5c-0.4,0-0.7-0.1-1-0.3c-0.2-0.2-0.4-0.6-0.4-1V87h-0.5v-0.9h0.5v-0.9h1.1v0.9H27V87h-0.7v1.3
		c0,0.1,0,0.2,0.1,0.3c0.1,0.1,0.2,0.1,0.3,0.1H27z"/>
	<path class="st0" d="M30.2,86.2c0.3,0.1,0.5,0.4,0.7,0.6c0.2,0.3,0.2,0.6,0.2,1c0,0.4-0.1,0.7-0.2,1c-0.2,0.3-0.4,0.5-0.7,0.6
		c-0.3,0.1-0.6,0.2-1,0.2s-0.7-0.1-1-0.2c-0.3-0.1-0.5-0.4-0.7-0.6s-0.2-0.6-0.2-1c0-0.4,0.1-0.7,0.2-1s0.4-0.5,0.7-0.6
		c0.3-0.1,0.6-0.2,1-0.2S30,86.1,30.2,86.2z M28.8,87.2c-0.1,0.2-0.2,0.4-0.2,0.7s0.1,0.5,0.2,0.7c0.1,0.2,0.3,0.2,0.5,0.2
		s0.4-0.1,0.5-0.2c0.1-0.2,0.2-0.4,0.2-0.7s-0.1-0.5-0.2-0.7C29.7,87,29.5,87,29.3,87S28.9,87,28.8,87.2z"/>
	<path class="st0" d="M37.4,86.4c0.3,0.3,0.4,0.7,0.4,1.1v2.1h-1.1v-2c0-0.2-0.1-0.4-0.2-0.5C36.4,87,36.2,87,36,87
		c-0.2,0-0.4,0.1-0.5,0.2c-0.1,0.1-0.2,0.3-0.2,0.6v1.9h-1.1v-2c0-0.2-0.1-0.4-0.2-0.5C33.9,87,33.8,87,33.5,87
		c-0.2,0-0.4,0.1-0.5,0.2s-0.2,0.3-0.2,0.6v1.9h-1.1v-3.6h1.1v0.6c0.1-0.2,0.2-0.4,0.4-0.5c0.2-0.1,0.4-0.2,0.7-0.2
		c0.3,0,0.5,0.1,0.7,0.2c0.2,0.1,0.4,0.3,0.5,0.5c0.1-0.2,0.3-0.4,0.5-0.5c0.2-0.1,0.5-0.2,0.7-0.2C36.8,86,37.2,86.2,37.4,86.4z"/>
	<path class="st0" d="M43.4,85.5c0.4,0.3,0.6,0.7,0.7,1.2h-1.2c-0.1-0.2-0.2-0.4-0.4-0.5c-0.2-0.1-0.4-0.2-0.6-0.2
		c-0.3,0-0.6,0.1-0.8,0.4s-0.3,0.6-0.3,0.9c0,0.4,0.1,0.7,0.3,0.9c0.2,0.2,0.5,0.4,0.8,0.4c0.2,0,0.5-0.1,0.6-0.2
		c0.2-0.1,0.3-0.3,0.4-0.5h1.2c-0.1,0.5-0.4,0.9-0.7,1.2c-0.4,0.3-0.9,0.5-1.4,0.5c-0.4,0-0.8-0.1-1.2-0.3c-0.3-0.2-0.6-0.5-0.8-0.8
		c-0.2-0.4-0.3-0.8-0.3-1.2s0.1-0.9,0.3-1.2c0.2-0.4,0.4-0.6,0.8-0.8c0.3-0.2,0.7-0.3,1.2-0.3C42.5,85.1,43,85.2,43.4,85.5z"/>
	<path class="st0" d="M47.8,89c-0.1,0.2-0.3,0.4-0.5,0.5c-0.2,0.1-0.5,0.2-0.9,0.2c-0.5,0-0.9-0.1-1.3-0.4c-0.3-0.2-0.5-0.6-0.5-1
		h1.2c0,0.2,0.1,0.3,0.2,0.4c0.1,0.1,0.2,0.1,0.4,0.1c0.1,0,0.3,0,0.3-0.1c0.1-0.1,0.1-0.2,0.1-0.3c0-0.1,0-0.2-0.1-0.3
		s-0.2-0.1-0.3-0.2s-0.3-0.1-0.5-0.2c-0.3-0.1-0.5-0.2-0.7-0.3c-0.2-0.1-0.3-0.2-0.5-0.4s-0.2-0.4-0.2-0.7c0-0.3,0.1-0.5,0.2-0.7
		c0.1-0.2,0.3-0.3,0.6-0.5c0.2-0.1,0.5-0.2,0.8-0.2c0.5,0,0.9,0.1,1.2,0.4c0.3,0.2,0.5,0.6,0.5,1h-1.2c0-0.2-0.1-0.3-0.2-0.4
		c-0.1-0.1-0.2-0.1-0.4-0.1c-0.1,0-0.2,0-0.3,0.1s-0.1,0.2-0.1,0.3c0,0.1,0,0.2,0.1,0.3c0.1,0.1,0.2,0.1,0.3,0.2s0.3,0.1,0.5,0.2
		c0.3,0.1,0.5,0.2,0.7,0.3s0.3,0.2,0.5,0.4c0.1,0.2,0.2,0.4,0.2,0.7C48,88.6,47.9,88.8,47.8,89z"/>
	<path class="st0" d="M51.7,89c-0.1,0.2-0.3,0.4-0.5,0.5c-0.2,0.1-0.5,0.2-0.9,0.2c-0.5,0-0.9-0.1-1.3-0.4c-0.3-0.2-0.5-0.6-0.5-1
		h1.2c0,0.2,0.1,0.3,0.2,0.4c0.1,0.1,0.2,0.1,0.4,0.1c0.1,0,0.3,0,0.3-0.1c0.1-0.1,0.1-0.2,0.1-0.3c0-0.1,0-0.2-0.1-0.3
		s-0.2-0.1-0.3-0.2s-0.3-0.1-0.5-0.2c-0.3-0.1-0.5-0.2-0.7-0.3c-0.2-0.1-0.3-0.2-0.5-0.4s-0.2-0.4-0.2-0.7c0-0.3,0.1-0.5,0.2-0.7
		c0.1-0.2,0.3-0.3,0.6-0.5c0.2-0.1,0.5-0.2,0.8-0.2c0.5,0,0.9,0.1,1.2,0.4c0.3,0.2,0.5,0.6,0.5,1h-1.2c0-0.2-0.1-0.3-0.2-0.4
		c-0.1-0.1-0.2-0.1-0.4-0.1c-0.1,0-0.2,0-0.3,0.1s-0.1,0.2-0.1,0.3c0,0.1,0,0.2,0.1,0.3c0.1,0.1,0.2,0.1,0.3,0.2s0.3,0.1,0.5,0.2
		c0.3,0.1,0.5,0.2,0.7,0.3s0.3,0.2,0.5,0.4c0.1,0.2,0.2,0.4,0.2,0.7C51.9,88.6,51.8,88.8,51.7,89z"/>
	<path class="st0" d="M57.3,85.5c0.4,0.3,0.6,0.7,0.7,1.2h-1.2c-0.1-0.2-0.2-0.4-0.4-0.5c-0.2-0.1-0.4-0.2-0.6-0.2
		c-0.3,0-0.6,0.1-0.8,0.4s-0.3,0.6-0.3,0.9c0,0.4,0.1,0.7,0.3,0.9c0.2,0.2,0.5,0.4,0.8,0.4c0.2,0,0.5-0.1,0.6-0.2
		c0.2-0.1,0.3-0.3,0.4-0.5H58c-0.1,0.5-0.4,0.9-0.7,1.2c-0.4,0.3-0.9,0.5-1.4,0.5c-0.4,0-0.8-0.1-1.2-0.3c-0.3-0.2-0.6-0.5-0.8-0.8
		c-0.2-0.4-0.3-0.8-0.3-1.2s0.1-0.9,0.3-1.2c0.2-0.4,0.4-0.6,0.8-0.8c0.3-0.2,0.7-0.3,1.2-0.3C56.4,85.1,56.9,85.2,57.3,85.5z"/>
	<path class="st0" d="M61.3,86.2c0.3,0.1,0.5,0.4,0.7,0.6c0.2,0.3,0.2,0.6,0.2,1c0,0.4-0.1,0.7-0.2,1c-0.2,0.3-0.4,0.5-0.7,0.6
		c-0.3,0.1-0.6,0.2-1,0.2s-0.7-0.1-1-0.2c-0.3-0.1-0.5-0.4-0.7-0.6s-0.2-0.6-0.2-1c0-0.4,0.1-0.7,0.2-1s0.4-0.5,0.7-0.6
		c0.3-0.1,0.6-0.2,1-0.2S61,86.1,61.3,86.2z M59.8,87.2c-0.1,0.2-0.2,0.4-0.2,0.7s0.1,0.5,0.2,0.7c0.1,0.2,0.3,0.2,0.5,0.2
		s0.4-0.1,0.5-0.2c0.1-0.2,0.2-0.4,0.2-0.7s-0.1-0.5-0.2-0.7C60.7,87,60.5,87,60.3,87S59.9,87,59.8,87.2z"/>
	<path class="st0" d="M64.8,86.2c0.2,0.1,0.3,0.3,0.4,0.5v-1.8h1.1v4.8h-1.1V89c-0.1,0.2-0.2,0.4-0.4,0.5s-0.4,0.2-0.7,0.2
		c-0.3,0-0.6-0.1-0.8-0.2c-0.2-0.1-0.4-0.4-0.6-0.6s-0.2-0.6-0.2-1c0-0.4,0.1-0.7,0.2-1c0.1-0.3,0.3-0.5,0.6-0.6
		c0.2-0.1,0.5-0.2,0.8-0.2C64.4,86,64.6,86.1,64.8,86.2z M63.9,87.2c-0.1,0.2-0.2,0.4-0.2,0.6s0.1,0.5,0.2,0.6
		c0.1,0.2,0.3,0.2,0.6,0.2c0.2,0,0.4-0.1,0.6-0.2c0.1-0.2,0.2-0.4,0.2-0.6c0-0.3-0.1-0.5-0.2-0.6c-0.1-0.2-0.3-0.2-0.6-0.2
		C64.3,87,64.1,87.1,63.9,87.2z"/>
	<path class="st0" d="M70.5,88.1H68c0,0.3,0.1,0.5,0.2,0.6s0.3,0.2,0.5,0.2c0.2,0,0.3,0,0.4-0.1s0.2-0.2,0.2-0.3h1.2
		c0,0.3-0.2,0.5-0.3,0.7c-0.2,0.2-0.4,0.4-0.6,0.5c-0.2,0.1-0.5,0.2-0.8,0.2c-0.4,0-0.7-0.1-0.9-0.2c-0.3-0.1-0.5-0.4-0.6-0.6
		s-0.2-0.6-0.2-1c0-0.4,0.1-0.7,0.2-1c0.2-0.3,0.4-0.5,0.6-0.6c0.3-0.1,0.6-0.2,0.9-0.2c0.4,0,0.7,0.1,0.9,0.2
		c0.3,0.1,0.5,0.4,0.6,0.6c0.1,0.3,0.2,0.6,0.2,0.9C70.6,87.8,70.5,87.9,70.5,88.1z M69.2,87.1c-0.1-0.1-0.3-0.2-0.5-0.2
		c-0.2,0-0.4,0.1-0.5,0.2c-0.1,0.1-0.2,0.3-0.2,0.5h1.4C69.4,87.4,69.4,87.2,69.2,87.1z"/>
</g>
<g>
	<path class="st0" d="M15.7,104.4c0.4,0.3,0.6,0.7,0.7,1.2h-1.2c-0.1-0.2-0.2-0.4-0.4-0.5c-0.2-0.1-0.4-0.2-0.6-0.2
		c-0.3,0-0.6,0.1-0.8,0.4s-0.3,0.6-0.3,0.9c0,0.4,0.1,0.7,0.3,0.9c0.2,0.2,0.5,0.4,0.8,0.4c0.2,0,0.5-0.1,0.6-0.2
		c0.2-0.1,0.3-0.3,0.4-0.5h1.2c-0.1,0.5-0.4,0.9-0.7,1.2c-0.4,0.3-0.9,0.5-1.4,0.5c-0.4,0-0.8-0.1-1.2-0.3c-0.3-0.2-0.6-0.5-0.8-0.8
		c-0.2-0.4-0.3-0.8-0.3-1.2s0.1-0.9,0.3-1.2c0.2-0.4,0.4-0.6,0.8-0.8c0.3-0.2,0.7-0.3,1.2-0.3C14.8,104,15.3,104.1,15.7,104.4z"/>
	<path class="st0" d="M20.6,105v3.6h-1.1v-0.7c-0.1,0.2-0.3,0.4-0.5,0.5c-0.2,0.1-0.4,0.2-0.7,0.2c-0.4,0-0.7-0.1-1-0.4
		S17,107.5,17,107V105h1.1v2c0,0.2,0.1,0.4,0.2,0.6c0.1,0.1,0.3,0.2,0.5,0.2c0.2,0,0.4-0.1,0.5-0.2c0.1-0.1,0.2-0.3,0.2-0.6V105
		H20.6z"/>
	<path class="st0" d="M23.8,105.3c0.3,0.2,0.4,0.5,0.5,0.9h-1c0-0.1-0.1-0.3-0.2-0.3c-0.1-0.1-0.2-0.1-0.4-0.1c-0.1,0-0.2,0-0.3,0.1
		s-0.1,0.1-0.1,0.2c0,0.1,0.1,0.2,0.2,0.3c0.1,0.1,0.3,0.1,0.6,0.2c0.3,0.1,0.5,0.1,0.7,0.2c0.2,0.1,0.3,0.2,0.5,0.3
		c0.1,0.2,0.2,0.4,0.2,0.6c0,0.2-0.1,0.4-0.2,0.5c-0.1,0.2-0.3,0.3-0.5,0.4c-0.2,0.1-0.5,0.1-0.7,0.1c-0.5,0-0.9-0.1-1.2-0.3
		c-0.3-0.2-0.5-0.5-0.5-0.9h1.1c0,0.2,0.1,0.3,0.2,0.4c0.1,0.1,0.3,0.1,0.4,0.1c0.1,0,0.2,0,0.3-0.1c0.1-0.1,0.1-0.1,0.1-0.2
		c0-0.1-0.1-0.2-0.2-0.3c-0.1-0.1-0.3-0.1-0.6-0.2c-0.3-0.1-0.5-0.1-0.7-0.2s-0.3-0.2-0.4-0.3c-0.1-0.1-0.2-0.3-0.2-0.6
		c0-0.3,0.1-0.6,0.4-0.8c0.2-0.2,0.6-0.3,1-0.3C23.1,104.9,23.5,105,23.8,105.3z"/>
	<path class="st0" d="M27,107.6v0.9h-0.5c-0.4,0-0.7-0.1-1-0.3c-0.2-0.2-0.4-0.6-0.4-1v-1.3h-0.5V105h0.5v-0.9h1.1v0.9H27v0.9h-0.7
		v1.3c0,0.1,0,0.2,0.1,0.3c0.1,0.1,0.2,0.1,0.3,0.1H27z"/>
	<path class="st0" d="M30.2,105.1c0.3,0.1,0.5,0.4,0.7,0.6c0.2,0.3,0.2,0.6,0.2,1c0,0.4-0.1,0.7-0.2,1c-0.2,0.3-0.4,0.5-0.7,0.6
		c-0.3,0.1-0.6,0.2-1,0.2s-0.7-0.1-1-0.2c-0.3-0.1-0.5-0.4-0.7-0.6s-0.2-0.6-0.2-1c0-0.4,0.1-0.7,0.2-1s0.4-0.5,0.7-0.6
		c0.3-0.1,0.6-0.2,1-0.2S30,105,30.2,105.1z M28.8,106.1c-0.1,0.2-0.2,0.4-0.2,0.7s0.1,0.5,0.2,0.7c0.1,0.2,0.3,0.2,0.5,0.2
		s0.4-0.1,0.5-0.2c0.1-0.2,0.2-0.4,0.2-0.7s-0.1-0.5-0.2-0.7c-0.1-0.2-0.3-0.2-0.5-0.2S28.9,105.9,28.8,106.1z"/>
	<path class="st0" d="M37.4,105.3c0.3,0.3,0.4,0.7,0.4,1.1v2.1h-1.1v-2c0-0.2-0.1-0.4-0.2-0.5c-0.1-0.1-0.3-0.2-0.5-0.2
		c-0.2,0-0.4,0.1-0.5,0.2c-0.1,0.1-0.2,0.3-0.2,0.6v1.9h-1.1v-2c0-0.2-0.1-0.4-0.2-0.5c-0.1-0.1-0.3-0.2-0.5-0.2
		c-0.2,0-0.4,0.1-0.5,0.2s-0.2,0.3-0.2,0.6v1.9h-1.1V105h1.1v0.6c0.1-0.2,0.2-0.4,0.4-0.5c0.2-0.1,0.4-0.2,0.7-0.2
		c0.3,0,0.5,0.1,0.7,0.2c0.2,0.1,0.4,0.3,0.5,0.5c0.1-0.2,0.3-0.4,0.5-0.5c0.2-0.1,0.5-0.2,0.7-0.2
		C36.8,104.9,37.2,105.1,37.4,105.3z"/>
	<path class="st0" d="M43.8,104v4.6h-1.1v-1.9h-1.7v1.9h-1.1V104h1.1v1.8h1.7V104H43.8z"/>
	<path class="st0" d="M47.8,104v0.9h-1.2v3.7h-1.1v-3.7h-1.2V104H47.8z"/>
	<path class="st0" d="M53.4,104v4.5h-1.1v-2.8l-1,2.8h-1l-1-2.8v2.8h-1.1V104h1.3l1.2,3.2l1.2-3.2H53.4z"/>
	<path class="st0" d="M55.3,107.7h1.5v0.8h-2.6V104h1.1V107.7z"/>
	<path class="st0" d="M62,104.4c0.4,0.3,0.6,0.7,0.7,1.2h-1.2c-0.1-0.2-0.2-0.4-0.4-0.5c-0.2-0.1-0.4-0.2-0.6-0.2
		c-0.3,0-0.6,0.1-0.8,0.4s-0.3,0.6-0.3,0.9c0,0.4,0.1,0.7,0.3,0.9c0.2,0.2,0.5,0.4,0.8,0.4c0.2,0,0.5-0.1,0.6-0.2
		c0.2-0.1,0.3-0.3,0.4-0.5h1.2c-0.1,0.5-0.4,0.9-0.7,1.2c-0.4,0.3-0.9,0.5-1.4,0.5c-0.4,0-0.8-0.1-1.2-0.3c-0.3-0.2-0.6-0.5-0.8-0.8
		c-0.2-0.4-0.3-0.8-0.3-1.2s0.1-0.9,0.3-1.2c0.2-0.4,0.4-0.6,0.8-0.8c0.3-0.2,0.7-0.3,1.2-0.3C61.2,104,61.7,104.1,62,104.4z"/>
	<path class="st0" d="M66,105.1c0.3,0.1,0.5,0.4,0.7,0.6c0.2,0.3,0.2,0.6,0.2,1c0,0.4-0.1,0.7-0.2,1c-0.2,0.3-0.4,0.5-0.7,0.6
		c-0.3,0.1-0.6,0.2-1,0.2s-0.7-0.1-1-0.2c-0.3-0.1-0.5-0.4-0.7-0.6s-0.2-0.6-0.2-1c0-0.4,0.1-0.7,0.2-1s0.4-0.5,0.7-0.6
		c0.3-0.1,0.6-0.2,1-0.2S65.8,105,66,105.1z M64.5,106.1c-0.1,0.2-0.2,0.4-0.2,0.7s0.1,0.5,0.2,0.7c0.1,0.2,0.3,0.2,0.5,0.2
		s0.4-0.1,0.5-0.2c0.1-0.2,0.2-0.4,0.2-0.7s-0.1-0.5-0.2-0.7c-0.1-0.2-0.3-0.2-0.5-0.2S64.7,105.9,64.5,106.1z"/>
	<path class="st0" d="M69.6,105.1c0.2,0.1,0.3,0.3,0.4,0.5v-1.8h1.1v4.8H70v-0.7c-0.1,0.2-0.2,0.4-0.4,0.5s-0.4,0.2-0.7,0.2
		c-0.3,0-0.6-0.1-0.8-0.2c-0.2-0.1-0.4-0.4-0.6-0.6s-0.2-0.6-0.2-1c0-0.4,0.1-0.7,0.2-1c0.1-0.3,0.3-0.5,0.6-0.6
		c0.2-0.1,0.5-0.2,0.8-0.2C69.2,104.9,69.4,105,69.6,105.1z M68.7,106.1c-0.1,0.2-0.2,0.4-0.2,0.6s0.1,0.5,0.2,0.6
		c0.1,0.2,0.3,0.2,0.6,0.2c0.2,0,0.4-0.1,0.6-0.2c0.1-0.2,0.2-0.4,0.2-0.6c0-0.3-0.1-0.5-0.2-0.6c-0.1-0.2-0.3-0.2-0.6-0.2
		C69,105.9,68.8,106,68.7,106.1z"/>
	<path class="st0" d="M75.3,107h-2.5c0,0.3,0.1,0.5,0.2,0.6s0.3,0.2,0.5,0.2c0.2,0,0.3,0,0.4-0.1s0.2-0.2,0.2-0.3h1.2
		c0,0.3-0.2,0.5-0.3,0.7c-0.2,0.2-0.4,0.4-0.6,0.5c-0.2,0.1-0.5,0.2-0.8,0.2c-0.4,0-0.7-0.1-0.9-0.2c-0.3-0.1-0.5-0.4-0.6-0.6
		s-0.2-0.6-0.2-1c0-0.4,0.1-0.7,0.2-1c0.2-0.3,0.4-0.5,0.6-0.6c0.3-0.1,0.6-0.2,0.9-0.2c0.4,0,0.7,0.1,0.9,0.2
		c0.3,0.1,0.5,0.4,0.6,0.6c0.1,0.3,0.2,0.6,0.2,0.9C75.3,106.8,75.3,106.8,75.3,107z M74,106c-0.1-0.1-0.3-0.2-0.5-0.2
		c-0.2,0-0.4,0.1-0.5,0.2c-0.1,0.1-0.2,0.3-0.2,0.5h1.4C74.2,106.3,74.1,106.1,74,106z"/>
</g>
</svg>
