<?xml version="1.0" encoding="utf-8"?>
<!-- Generator: Adobe Illustrator 21.0.0, SVG Export Plug-In . SVG Version: 6.00 Build 0)  -->
<svg version="1.1" id="Layer_1" xmlns="http://www.w3.org/2000/svg" xmlns:xlink="http://www.w3.org/1999/xlink" x="0px" y="0px"
	 viewBox="0 0 301 301" style="enable-background:new 0 0 301 301;" xml:space="preserve">
<style type="text/css">
	.st0{fill:#FF8F29;}
	.st1{fill:#E87D2D;}
	.st2{enable-background:new    ;}
	.st3{fill:#FFFFFF;}
</style>
<g>
	<rect class="st0" width="301" height="301"/>
</g>
<g>
	<g>
		<g>
			<g>
				<polygon class="st1" points="16,32.6 284.7,32.6 285,66.9 16,66.9 				"/>
			</g>
		</g>
	</g>
</g>
<g>
	<g>
		<g>
			<g>
				<polygon class="st1" points="16,82.9 284.7,82.9 285,117.3 16,117.3 				"/>
			</g>
		</g>
	</g>
</g>
<g>
	<g>
		<g>
			<g>
				<polygon class="st1" points="16,133.3 284.7,133.3 285,167.7 16,167.7 				"/>
			</g>
		</g>
	</g>
</g>
<g>
	<g>
		<g>
			<g>
				<polygon class="st1" points="16,183.7 284.7,183.7 285,218.1 16,218.1 				"/>
			</g>
		</g>
	</g>
</g>
<g>
	<g>
		<g>
			<g>
				<polygon class="st1" points="16,234.1 284.7,234.1 285,268.5 16,268.5 				"/>
			</g>
		</g>
	</g>
</g>
<g class="st2">
	<path class="st3" d="M42.8,45.5c0.7,0.5,1.1,1.2,1.3,2.1h-2.2c-0.1-0.3-0.4-0.5-0.7-0.7c-0.3-0.2-0.7-0.3-1.1-0.3
		c-0.6,0-1.2,0.2-1.6,0.7c-0.4,0.4-0.6,1-0.6,1.8c0,0.8,0.2,1.4,0.6,1.9c0.4,0.4,1,0.6,1.8,0.6c0.5,0,0.9-0.1,1.3-0.4
		c0.4-0.3,0.6-0.7,0.8-1.1h-2.6v-1.5h4.3v2c-0.2,0.5-0.4,1-0.8,1.4c-0.4,0.4-0.8,0.8-1.4,1c-0.5,0.3-1.2,0.4-1.9,0.4
		c-0.9,0-1.6-0.2-2.2-0.5c-0.6-0.4-1.1-0.9-1.5-1.5S36,49.8,36,49s0.2-1.6,0.5-2.2c0.3-0.7,0.8-1.2,1.5-1.5c0.6-0.4,1.4-0.5,2.2-0.5
		C41.3,44.7,42.1,44.9,42.8,45.5z"/>
	<path class="st3" d="M50.3,46.9c0.5,0.3,0.9,0.7,1.2,1.2c0.3,0.5,0.5,1.1,0.5,1.8c0,0.7-0.1,1.3-0.5,1.8c-0.3,0.5-0.7,0.9-1.2,1.2
		s-1.1,0.4-1.8,0.4s-1.3-0.1-1.8-0.4c-0.5-0.3-0.9-0.7-1.2-1.2c-0.3-0.5-0.5-1.1-0.5-1.8c0-0.7,0.1-1.3,0.5-1.8
		c0.3-0.5,0.7-0.9,1.2-1.2c0.5-0.3,1.1-0.4,1.8-0.4S49.8,46.6,50.3,46.9z M47.5,48.7c-0.3,0.3-0.4,0.7-0.4,1.2s0.1,0.9,0.4,1.2
		s0.6,0.4,1,0.4s0.7-0.1,1-0.4c0.3-0.3,0.4-0.7,0.4-1.2s-0.1-0.9-0.4-1.2c-0.3-0.3-0.6-0.4-1-0.4S47.8,48.4,47.5,48.7z"/>
	<path class="st3" d="M57.9,46.9c0.5,0.3,0.9,0.7,1.2,1.2c0.3,0.5,0.5,1.1,0.5,1.8c0,0.7-0.1,1.3-0.5,1.8c-0.3,0.5-0.7,0.9-1.2,1.2
		s-1.1,0.4-1.8,0.4s-1.3-0.1-1.8-0.4c-0.5-0.3-0.9-0.7-1.2-1.2c-0.3-0.5-0.5-1.1-0.5-1.8c0-0.7,0.1-1.3,0.5-1.8
		c0.3-0.5,0.7-0.9,1.2-1.2c0.5-0.3,1.1-0.4,1.8-0.4S57.4,46.6,57.9,46.9z M55.2,48.7c-0.3,0.3-0.4,0.7-0.4,1.2s0.1,0.9,0.4,1.2
		s0.6,0.4,1,0.4s0.7-0.1,1-0.4c0.3-0.3,0.4-0.7,0.4-1.2s-0.1-0.9-0.4-1.2c-0.3-0.3-0.6-0.4-1-0.4S55.4,48.4,55.2,48.7z"/>
	<path class="st3" d="M64.6,46.8c0.4,0.2,0.6,0.5,0.8,0.9v-1.2h2v6.7c0,0.6-0.1,1.2-0.4,1.7c-0.2,0.5-0.6,0.9-1.1,1.2
		s-1.1,0.4-1.8,0.4c-1,0-1.8-0.2-2.4-0.7c-0.6-0.5-1-1.1-1.1-1.9h2c0.1,0.3,0.2,0.5,0.4,0.6c0.2,0.2,0.5,0.2,0.9,0.2
		c0.4,0,0.8-0.1,1-0.4c0.3-0.2,0.4-0.6,0.4-1.2V52c-0.2,0.4-0.4,0.7-0.8,0.9c-0.4,0.2-0.8,0.3-1.3,0.3c-0.6,0-1-0.1-1.5-0.4
		s-0.8-0.7-1-1.2c-0.3-0.5-0.4-1.1-0.4-1.8c0-0.7,0.1-1.3,0.4-1.8c0.3-0.5,0.6-0.9,1-1.2c0.4-0.3,0.9-0.4,1.5-0.4
		C63.8,46.5,64.2,46.6,64.6,46.8z M62.8,48.7c-0.3,0.3-0.4,0.7-0.4,1.2c0,0.5,0.1,0.9,0.4,1.2c0.3,0.3,0.6,0.4,1.1,0.4
		c0.4,0,0.8-0.1,1.1-0.4s0.4-0.7,0.4-1.2c0-0.5-0.1-0.9-0.4-1.2s-0.6-0.4-1.1-0.4C63.5,48.3,63.1,48.4,62.8,48.7z"/>
	<path class="st3" d="M70.9,44.4v8.9h-2.1v-8.9H70.9z"/>
	<path class="st3" d="M78.6,50.3H74c0,0.5,0.2,0.9,0.4,1.1c0.2,0.2,0.5,0.3,0.9,0.3c0.3,0,0.6-0.1,0.8-0.2c0.2-0.2,0.3-0.3,0.4-0.6
		h2.2c-0.1,0.5-0.3,0.9-0.6,1.3s-0.7,0.7-1.1,0.9c-0.5,0.2-1,0.3-1.5,0.3c-0.7,0-1.2-0.1-1.7-0.4c-0.5-0.3-0.9-0.7-1.2-1.2
		c-0.3-0.5-0.4-1.1-0.4-1.8c0-0.7,0.1-1.3,0.4-1.8c0.3-0.5,0.7-0.9,1.2-1.2c0.5-0.3,1.1-0.4,1.8-0.4c0.7,0,1.2,0.1,1.8,0.4
		c0.5,0.3,0.9,0.7,1.2,1.1c0.3,0.5,0.4,1.1,0.4,1.7C78.7,49.9,78.6,50.1,78.6,50.3z M76.2,48.4c-0.2-0.2-0.5-0.3-0.9-0.3
		c-0.4,0-0.7,0.1-0.9,0.3c-0.2,0.2-0.4,0.6-0.4,1h2.6C76.6,49,76.5,48.6,76.2,48.4z"/>
	<path class="st3" d="M87.4,51.7h-3.2l-0.5,1.5h-2.2l3.1-8.4H87l3.1,8.4h-2.2L87.4,51.7z M86.9,50.1L85.8,47l-1.1,3.1H86.9z"/>
	<path class="st3" d="M97,47.2c0.5,0.5,0.7,1.2,0.7,2.1v3.9h-2.1v-3.6c0-0.4-0.1-0.8-0.4-1c-0.2-0.3-0.6-0.4-0.9-0.4
		c-0.4,0-0.7,0.1-1,0.4c-0.2,0.3-0.4,0.6-0.4,1.1v3.6h-2.1v-6.7h2.1v1.2c0.2-0.4,0.5-0.7,0.9-0.9c0.4-0.2,0.8-0.3,1.3-0.3
		C95.9,46.5,96.5,46.7,97,47.2z"/>
	<path class="st3" d="M102.9,46.8c0.4,0.2,0.6,0.5,0.8,0.9v-1.2h2v6.7h-2V52c-0.2,0.4-0.4,0.7-0.8,0.9c-0.4,0.2-0.8,0.3-1.3,0.3
		c-0.6,0-1-0.1-1.5-0.4s-0.8-0.7-1-1.2c-0.3-0.5-0.4-1.1-0.4-1.8c0-0.7,0.1-1.3,0.4-1.8c0.3-0.5,0.6-0.9,1-1.2
		c0.4-0.3,0.9-0.4,1.5-0.4C102.1,46.5,102.5,46.6,102.9,46.8z M101.1,48.7c-0.3,0.3-0.4,0.7-0.4,1.2c0,0.5,0.1,0.9,0.4,1.2
		c0.3,0.3,0.6,0.4,1.1,0.4c0.4,0,0.8-0.1,1.1-0.4s0.4-0.7,0.4-1.2c0-0.5-0.1-0.9-0.4-1.2s-0.6-0.4-1.1-0.4
		C101.8,48.3,101.4,48.4,101.1,48.7z"/>
	<path class="st3" d="M109.2,44.4v8.9h-2.1v-8.9H109.2z"/>
	<path class="st3" d="M112.2,46.6l1.6,4.1l1.5-4.1h2.3l-4.2,9.9h-2.3l1.6-3.4l-2.8-6.4H112.2z"/>
	<path class="st3" d="M122,51.5v1.8h-0.9c-0.8,0-1.4-0.2-1.8-0.6s-0.7-1-0.7-1.9v-2.5h-0.9v-1.7h0.9v-1.6h2.1v1.6h1.3v1.7h-1.3v2.5
		c0,0.3,0.1,0.4,0.2,0.6s0.3,0.2,0.5,0.2H122z"/>
	<path class="st3" d="M123.3,43.9c0.2-0.2,0.5-0.3,0.9-0.3c0.4,0,0.7,0.1,0.9,0.3c0.2,0.2,0.3,0.5,0.3,0.8c0,0.3-0.1,0.6-0.3,0.8
		s-0.5,0.3-0.9,0.3c-0.4,0-0.7-0.1-0.9-0.3c-0.2-0.2-0.3-0.5-0.3-0.8C123,44.4,123.1,44.1,123.3,43.9z M125.2,46.6v6.7h-2.1v-6.7
		H125.2z"/>
	<path class="st3" d="M131.8,47.2c0.6,0.5,1,1.1,1.1,2h-2.2c-0.1-0.3-0.2-0.5-0.4-0.7c-0.2-0.2-0.5-0.2-0.8-0.2
		c-0.4,0-0.7,0.1-0.9,0.4s-0.3,0.7-0.3,1.2s0.1,1,0.3,1.2c0.2,0.3,0.5,0.4,0.9,0.4c0.3,0,0.6-0.1,0.8-0.2c0.2-0.2,0.3-0.4,0.4-0.7
		h2.2c-0.2,0.8-0.5,1.5-1.1,2s-1.3,0.7-2.2,0.7c-0.7,0-1.2-0.1-1.7-0.4c-0.5-0.3-0.9-0.7-1.2-1.2c-0.3-0.5-0.4-1.1-0.4-1.8
		c0-0.7,0.1-1.3,0.4-1.8c0.3-0.5,0.7-0.9,1.2-1.2c0.5-0.3,1.1-0.4,1.8-0.4C130.5,46.5,131.2,46.7,131.8,47.2z"/>
	<path class="st3" d="M138.5,47.1c0.5,0.4,0.8,1,1,1.7h-1.9c-0.1-0.3-0.2-0.5-0.4-0.6c-0.2-0.2-0.4-0.2-0.7-0.2
		c-0.2,0-0.4,0-0.5,0.1c-0.1,0.1-0.2,0.2-0.2,0.4c0,0.2,0.1,0.4,0.3,0.5c0.2,0.1,0.6,0.2,1,0.3c0.5,0.1,0.9,0.2,1.3,0.4
		c0.3,0.1,0.6,0.3,0.9,0.6c0.2,0.3,0.4,0.7,0.4,1.1c0,0.4-0.1,0.7-0.3,1s-0.5,0.5-0.9,0.7c-0.4,0.2-0.9,0.3-1.4,0.3
		c-0.9,0-1.6-0.2-2.2-0.6c-0.5-0.4-0.9-1-1-1.7h2c0,0.3,0.2,0.5,0.4,0.7c0.2,0.2,0.5,0.2,0.8,0.2c0.2,0,0.4-0.1,0.5-0.2
		c0.1-0.1,0.2-0.3,0.2-0.4c0-0.2-0.1-0.4-0.3-0.5c-0.2-0.1-0.6-0.2-1.1-0.3c-0.5-0.1-0.9-0.2-1.2-0.3c-0.3-0.1-0.6-0.3-0.8-0.6
		c-0.2-0.3-0.3-0.6-0.3-1.1c0-0.6,0.2-1.1,0.7-1.5s1.1-0.6,1.9-0.6C137.3,46.5,138,46.7,138.5,47.1z"/>
</g>
<g class="st2">
	<path class="st3" d="M42,102.5c-0.2,0.4-0.6,0.7-1,0.9c-0.4,0.2-1,0.3-1.6,0.3c-1,0-1.7-0.2-2.4-0.7c-0.6-0.5-1-1.1-1-1.9h2.2
		c0,0.3,0.1,0.6,0.3,0.8c0.2,0.2,0.4,0.3,0.8,0.3c0.3,0,0.5-0.1,0.6-0.2c0.2-0.1,0.2-0.3,0.2-0.6c0-0.2-0.1-0.4-0.2-0.5
		c-0.1-0.1-0.3-0.3-0.5-0.4s-0.5-0.2-0.9-0.3c-0.5-0.2-1-0.4-1.3-0.5c-0.3-0.2-0.6-0.4-0.9-0.8S36,98,36,97.5c0-0.5,0.1-0.9,0.4-1.3
		c0.3-0.4,0.6-0.7,1.1-0.8c0.5-0.2,1-0.3,1.6-0.3c0.9,0,1.7,0.2,2.3,0.7c0.6,0.4,0.9,1.1,0.9,1.8h-2.2c0-0.3-0.1-0.5-0.3-0.7
		c-0.2-0.2-0.4-0.2-0.7-0.2c-0.2,0-0.4,0.1-0.6,0.2c-0.1,0.1-0.2,0.3-0.2,0.6c0,0.2,0.1,0.4,0.2,0.5c0.1,0.1,0.3,0.3,0.5,0.3
		c0.2,0.1,0.5,0.2,0.9,0.3c0.5,0.2,1,0.4,1.3,0.5c0.3,0.2,0.6,0.4,0.9,0.8c0.2,0.3,0.4,0.8,0.4,1.3C42.3,101.7,42.2,102.1,42,102.5z
		"/>
	<path class="st3" d="M49.8,100.6h-4.6c0,0.5,0.2,0.9,0.4,1.1c0.2,0.2,0.5,0.3,0.9,0.3c0.3,0,0.6-0.1,0.8-0.2
		c0.2-0.2,0.3-0.3,0.4-0.6h2.2c-0.1,0.5-0.3,0.9-0.6,1.3s-0.7,0.7-1.1,0.9c-0.5,0.2-1,0.3-1.5,0.3c-0.7,0-1.2-0.1-1.7-0.4
		c-0.5-0.3-0.9-0.7-1.2-1.2c-0.3-0.5-0.4-1.1-0.4-1.8c0-0.7,0.1-1.3,0.4-1.8c0.3-0.5,0.7-0.9,1.2-1.2c0.5-0.3,1.1-0.4,1.8-0.4
		c0.7,0,1.2,0.1,1.8,0.4c0.5,0.3,0.9,0.7,1.2,1.1c0.3,0.5,0.4,1.1,0.4,1.7C49.8,100.3,49.8,100.4,49.8,100.6z M47.4,98.8
		c-0.2-0.2-0.5-0.3-0.9-0.3c-0.4,0-0.7,0.1-0.9,0.3c-0.2,0.2-0.4,0.6-0.4,1h2.6C47.8,99.3,47.6,99,47.4,98.8z"/>
	<path class="st3" d="M54.8,97.2c0.4,0.2,0.6,0.5,0.8,0.9v-1.2h2v6.7c0,0.6-0.1,1.2-0.4,1.7c-0.2,0.5-0.6,0.9-1.1,1.2
		s-1.1,0.4-1.8,0.4c-1,0-1.8-0.2-2.4-0.7c-0.6-0.5-1-1.1-1.1-1.9h2c0.1,0.3,0.2,0.5,0.4,0.6c0.2,0.2,0.5,0.2,0.9,0.2
		c0.4,0,0.8-0.1,1-0.4c0.3-0.2,0.4-0.6,0.4-1.2v-1.2c-0.2,0.4-0.4,0.7-0.8,0.9c-0.4,0.2-0.8,0.3-1.3,0.3c-0.6,0-1-0.1-1.5-0.4
		s-0.8-0.7-1-1.2c-0.3-0.5-0.4-1.1-0.4-1.8c0-0.7,0.1-1.3,0.4-1.8c0.3-0.5,0.6-0.9,1-1.2c0.4-0.3,0.9-0.4,1.5-0.4
		C53.9,96.8,54.4,97,54.8,97.2z M53,99.1c-0.3,0.3-0.4,0.7-0.4,1.2c0,0.5,0.1,0.9,0.4,1.2c0.3,0.3,0.6,0.4,1.1,0.4
		c0.4,0,0.8-0.1,1.1-0.4s0.4-0.7,0.4-1.2c0-0.5-0.1-0.9-0.4-1.2s-0.6-0.4-1.1-0.4C53.7,98.6,53.3,98.8,53,99.1z"/>
	<path class="st3" d="M69.6,97.6c0.5,0.5,0.7,1.2,0.7,2.1v3.9h-2V100c0-0.4-0.1-0.8-0.3-1c-0.2-0.2-0.5-0.4-0.9-0.4
		c-0.4,0-0.7,0.1-1,0.4s-0.4,0.6-0.4,1.1v3.6h-2.1V100c0-0.4-0.1-0.8-0.3-1c-0.2-0.2-0.5-0.4-0.9-0.4c-0.4,0-0.7,0.1-1,0.4
		c-0.2,0.2-0.4,0.6-0.4,1.1v3.6H59v-6.7h2.1v1.1c0.2-0.4,0.4-0.7,0.8-0.9c0.4-0.2,0.8-0.3,1.3-0.3c0.5,0,1,0.1,1.4,0.4
		c0.4,0.2,0.7,0.6,0.9,1c0.2-0.4,0.6-0.7,1-1c0.4-0.2,0.9-0.4,1.3-0.4C68.5,96.9,69.2,97.1,69.6,97.6z"/>
	<path class="st3" d="M78,100.6h-4.6c0,0.5,0.2,0.9,0.4,1.1c0.2,0.2,0.5,0.3,0.9,0.3c0.3,0,0.6-0.1,0.8-0.2c0.2-0.2,0.3-0.3,0.4-0.6
		H78c-0.1,0.5-0.3,0.9-0.6,1.3s-0.7,0.7-1.1,0.9c-0.5,0.2-1,0.3-1.5,0.3c-0.7,0-1.2-0.1-1.7-0.4c-0.5-0.3-0.9-0.7-1.2-1.2
		c-0.3-0.5-0.4-1.1-0.4-1.8c0-0.7,0.1-1.3,0.4-1.8c0.3-0.5,0.7-0.9,1.2-1.2c0.5-0.3,1.1-0.4,1.8-0.4c0.7,0,1.2,0.1,1.8,0.4
		c0.5,0.3,0.9,0.7,1.2,1.1c0.3,0.5,0.4,1.1,0.4,1.7C78.1,100.3,78.1,100.4,78,100.6z M75.6,98.8c-0.2-0.2-0.5-0.3-0.9-0.3
		c-0.4,0-0.7,0.1-0.9,0.3c-0.2,0.2-0.4,0.6-0.4,1H76C76,99.3,75.9,99,75.6,98.8z"/>
	<path class="st3" d="M85.2,97.6c0.5,0.5,0.7,1.2,0.7,2.1v3.9h-2.1V100c0-0.4-0.1-0.8-0.4-1c-0.2-0.3-0.6-0.4-0.9-0.4
		c-0.4,0-0.7,0.1-1,0.4c-0.2,0.3-0.4,0.6-0.4,1.1v3.6h-2.1v-6.7h2.1v1.2c0.2-0.4,0.5-0.7,0.9-0.9c0.4-0.2,0.8-0.3,1.3-0.3
		C84.2,96.9,84.8,97.1,85.2,97.6z"/>
	<path class="st3" d="M91.1,101.9v1.8h-0.9c-0.8,0-1.4-0.2-1.8-0.6s-0.7-1-0.7-1.9v-2.5h-0.9v-1.7h0.9v-1.6h2.1v1.6H91v1.7h-1.3v2.5
		c0,0.3,0.1,0.4,0.2,0.6s0.3,0.2,0.5,0.2H91.1z"/>
	<path class="st3" d="M99.9,102.1h-3.2l-0.5,1.5H94l3.1-8.4h2.4l3.1,8.4h-2.2L99.9,102.1z M99.3,100.5l-1.1-3.1l-1.1,3.1H99.3z"/>
	<path class="st3" d="M109.4,97.6c0.5,0.5,0.7,1.2,0.7,2.1v3.9h-2.1V100c0-0.4-0.1-0.8-0.4-1c-0.2-0.3-0.6-0.4-0.9-0.4
		c-0.4,0-0.7,0.1-1,0.4c-0.2,0.3-0.4,0.6-0.4,1.1v3.6h-2.1v-6.7h2.1v1.2c0.2-0.4,0.5-0.7,0.9-0.9c0.4-0.2,0.8-0.3,1.3-0.3
		C108.4,96.9,109,97.1,109.4,97.6z"/>
	<path class="st3" d="M115.3,97.2c0.4,0.2,0.6,0.5,0.8,0.9v-1.2h2v6.7h-2v-1.2c-0.2,0.4-0.4,0.7-0.8,0.9c-0.4,0.2-0.8,0.3-1.3,0.3
		c-0.6,0-1-0.1-1.5-0.4s-0.8-0.7-1-1.2c-0.3-0.5-0.4-1.1-0.4-1.8c0-0.7,0.1-1.3,0.4-1.8c0.3-0.5,0.6-0.9,1-1.2
		c0.4-0.3,0.9-0.4,1.5-0.4C114.5,96.8,115,97,115.3,97.2z M113.6,99.1c-0.3,0.3-0.4,0.7-0.4,1.2c0,0.5,0.1,0.9,0.4,1.2
		c0.3,0.3,0.6,0.4,1.1,0.4c0.4,0,0.8-0.1,1.1-0.4s0.4-0.7,0.4-1.2c0-0.5-0.1-0.9-0.4-1.2s-0.6-0.4-1.1-0.4
		C114.2,98.6,113.9,98.8,113.6,99.1z"/>
	<path class="st3" d="M121.7,94.7v8.9h-2.1v-8.9H121.7z"/>
	<path class="st3" d="M124.6,96.9l1.6,4.1l1.5-4.1h2.3l-4.2,9.9h-2.3l1.6-3.4l-2.8-6.4H124.6z"/>
	<path class="st3" d="M134.5,101.9v1.8h-0.9c-0.8,0-1.4-0.2-1.8-0.6s-0.7-1-0.7-1.9v-2.5h-0.9v-1.7h0.9v-1.6h2.1v1.6h1.3v1.7h-1.3
		v2.5c0,0.3,0.1,0.4,0.2,0.6s0.3,0.2,0.5,0.2H134.5z"/>
	<path class="st3" d="M135.8,94.3c0.2-0.2,0.5-0.3,0.9-0.3c0.4,0,0.7,0.1,0.9,0.3c0.2,0.2,0.3,0.5,0.3,0.8c0,0.3-0.1,0.6-0.3,0.8
		s-0.5,0.3-0.9,0.3c-0.4,0-0.7-0.1-0.9-0.3c-0.2-0.2-0.3-0.5-0.3-0.8C135.4,94.7,135.6,94.5,135.8,94.3z M137.7,96.9v6.7h-2.1v-6.7
		H137.7z"/>
	<path class="st3" d="M144.3,97.6c0.6,0.5,1,1.1,1.1,2h-2.2c-0.1-0.3-0.2-0.5-0.4-0.7c-0.2-0.2-0.5-0.2-0.8-0.2
		c-0.4,0-0.7,0.1-0.9,0.4s-0.3,0.7-0.3,1.2s0.1,1,0.3,1.2c0.2,0.3,0.5,0.4,0.9,0.4c0.3,0,0.6-0.1,0.8-0.2c0.2-0.2,0.3-0.4,0.4-0.7
		h2.2c-0.2,0.8-0.5,1.5-1.1,2s-1.3,0.7-2.2,0.7c-0.7,0-1.2-0.1-1.7-0.4c-0.5-0.3-0.9-0.7-1.2-1.2c-0.3-0.5-0.4-1.1-0.4-1.8
		c0-0.7,0.1-1.3,0.4-1.8c0.3-0.5,0.7-0.9,1.2-1.2c0.5-0.3,1.1-0.4,1.8-0.4C143,96.8,143.7,97.1,144.3,97.6z"/>
	<path class="st3" d="M150.9,97.5c0.5,0.4,0.8,1,1,1.7H150c-0.1-0.3-0.2-0.5-0.4-0.6c-0.2-0.2-0.4-0.2-0.7-0.2c-0.2,0-0.4,0-0.5,0.1
		c-0.1,0.1-0.2,0.2-0.2,0.4c0,0.2,0.1,0.4,0.3,0.5c0.2,0.1,0.6,0.2,1,0.3c0.5,0.1,0.9,0.2,1.3,0.4c0.3,0.1,0.6,0.3,0.9,0.6
		c0.2,0.3,0.4,0.7,0.4,1.1c0,0.4-0.1,0.7-0.3,1c-0.2,0.3-0.5,0.5-0.9,0.7c-0.4,0.2-0.9,0.3-1.4,0.3c-0.9,0-1.6-0.2-2.2-0.6
		c-0.5-0.4-0.9-1-1-1.7h2c0,0.3,0.2,0.5,0.4,0.7c0.2,0.2,0.5,0.2,0.8,0.2c0.2,0,0.4-0.1,0.5-0.2c0.1-0.1,0.2-0.3,0.2-0.4
		c0-0.2-0.1-0.4-0.3-0.5c-0.2-0.1-0.6-0.2-1.1-0.3c-0.5-0.1-0.9-0.2-1.2-0.3c-0.3-0.1-0.6-0.3-0.8-0.6c-0.2-0.3-0.3-0.6-0.3-1.1
		c0-0.6,0.2-1.1,0.7-1.5s1.1-0.6,1.9-0.6C149.8,96.8,150.4,97.1,150.9,97.5z"/>
</g>
<g class="st2">
	<path class="st3" d="M41.5,152.4h-3.2l-0.5,1.5h-2.2l3.1-8.4h2.4l3.1,8.4H42L41.5,152.4z M41,150.9l-1.1-3.1l-1.1,3.1H41z"/>
	<path class="st3" d="M47,145.1v8.9H45v-8.9H47z"/>
	<path class="st3" d="M54.8,151h-4.6c0,0.5,0.2,0.9,0.4,1.1c0.2,0.2,0.5,0.3,0.9,0.3c0.3,0,0.6-0.1,0.8-0.2c0.2-0.2,0.3-0.3,0.4-0.6
		h2.2c-0.1,0.5-0.3,0.9-0.6,1.3s-0.7,0.7-1.1,0.9c-0.5,0.2-1,0.3-1.5,0.3c-0.7,0-1.2-0.1-1.7-0.4c-0.5-0.3-0.9-0.7-1.2-1.2
		c-0.3-0.5-0.4-1.1-0.4-1.8c0-0.7,0.1-1.3,0.4-1.8c0.3-0.5,0.7-0.9,1.2-1.2c0.5-0.3,1.1-0.4,1.8-0.4c0.7,0,1.2,0.1,1.8,0.4
		c0.5,0.3,0.9,0.7,1.2,1.1c0.3,0.5,0.4,1.1,0.4,1.7C54.8,150.6,54.8,150.8,54.8,151z M52.4,149.2c-0.2-0.2-0.5-0.3-0.9-0.3
		c-0.4,0-0.7,0.1-0.9,0.3c-0.2,0.2-0.4,0.6-0.4,1h2.6C52.7,149.7,52.6,149.4,52.4,149.2z"/>
	<path class="st3" d="M60.1,154l-1.4-1.9l-1.1,1.9h-2.3l2.2-3.5l-2.3-3.2h2.3l1.4,1.9l1.1-1.9h2.3l-2.3,3.4l2.4,3.3H60.1z"/>
	<path class="st3" d="M67,147.6c0.4,0.2,0.6,0.5,0.8,0.9v-1.2h2v6.7h-2v-1.2c-0.2,0.4-0.4,0.7-0.8,0.9c-0.4,0.2-0.8,0.3-1.3,0.3
		c-0.6,0-1-0.1-1.5-0.4s-0.8-0.7-1-1.2c-0.3-0.5-0.4-1.1-0.4-1.8c0-0.7,0.1-1.3,0.4-1.8c0.3-0.5,0.6-0.9,1-1.2
		c0.4-0.3,0.9-0.4,1.5-0.4C66.2,147.2,66.6,147.3,67,147.6z M65.3,149.4c-0.3,0.3-0.4,0.7-0.4,1.2c0,0.5,0.1,0.9,0.4,1.2
		c0.3,0.3,0.6,0.4,1.1,0.4c0.4,0,0.8-0.1,1.1-0.4s0.4-0.7,0.4-1.2c0-0.5-0.1-0.9-0.4-1.2s-0.6-0.4-1.1-0.4
		C65.9,149,65.5,149.2,65.3,149.4z"/>
	<path class="st3" d="M83.2,145.6v8.4h-2.1v-5.3l-1.8,5.3h-1.8l-1.8-5.3v5.3h-2.1v-8.4h2.5l2.3,5.9l2.2-5.9H83.2z"/>
	<path class="st3" d="M90.9,151h-4.6c0,0.5,0.2,0.9,0.4,1.1c0.2,0.2,0.5,0.3,0.9,0.3c0.3,0,0.6-0.1,0.8-0.2c0.2-0.2,0.3-0.3,0.4-0.6
		h2.2c-0.1,0.5-0.3,0.9-0.6,1.3s-0.7,0.7-1.1,0.9c-0.5,0.2-1,0.3-1.5,0.3c-0.7,0-1.2-0.1-1.7-0.4c-0.5-0.3-0.9-0.7-1.2-1.2
		c-0.3-0.5-0.4-1.1-0.4-1.8c0-0.7,0.1-1.3,0.4-1.8c0.3-0.5,0.7-0.9,1.2-1.2c0.5-0.3,1.1-0.4,1.8-0.4c0.7,0,1.2,0.1,1.8,0.4
		c0.5,0.3,0.9,0.7,1.2,1.1c0.3,0.5,0.4,1.1,0.4,1.7C91,150.6,91,150.8,90.9,151z M88.6,149.2c-0.2-0.2-0.5-0.3-0.9-0.3
		c-0.4,0-0.7,0.1-0.9,0.3c-0.2,0.2-0.4,0.6-0.4,1h2.6C88.9,149.7,88.8,149.4,88.6,149.2z"/>
	<path class="st3" d="M95.9,152.2v1.8h-0.9c-0.8,0-1.4-0.2-1.8-0.6s-0.7-1-0.7-1.9V149h-0.9v-1.7h0.9v-1.6h2.1v1.6h1.3v1.7h-1.3v2.5
		c0,0.3,0.1,0.4,0.2,0.6s0.3,0.2,0.5,0.2H95.9z"/>
	<path class="st3" d="M100,147.6c0.4-0.2,0.8-0.4,1.3-0.4v2.2h-0.6c-0.5,0-1,0.1-1.3,0.3c-0.3,0.2-0.5,0.6-0.5,1.2v3H97v-6.7h2.1
		v1.3C99.3,148.2,99.6,147.8,100,147.6z"/>
	<path class="st3" d="M102.4,144.6c0.2-0.2,0.5-0.3,0.9-0.3c0.4,0,0.7,0.1,0.9,0.3c0.2,0.2,0.3,0.5,0.3,0.8c0,0.3-0.1,0.6-0.3,0.8
		s-0.5,0.3-0.9,0.3c-0.4,0-0.7-0.1-0.9-0.3c-0.2-0.2-0.3-0.5-0.3-0.8C102,145.1,102.1,144.8,102.4,144.6z M104.3,147.3v6.7h-2.1
		v-6.7H104.3z"/>
	<path class="st3" d="M110.9,147.9c0.6,0.5,1,1.1,1.1,2h-2.2c-0.1-0.3-0.2-0.5-0.4-0.7c-0.2-0.2-0.5-0.2-0.8-0.2
		c-0.4,0-0.7,0.1-0.9,0.4s-0.3,0.7-0.3,1.2s0.1,1,0.3,1.2c0.2,0.3,0.5,0.4,0.9,0.4c0.3,0,0.6-0.1,0.8-0.2c0.2-0.2,0.3-0.4,0.4-0.7
		h2.2c-0.2,0.8-0.5,1.5-1.1,2s-1.3,0.7-2.2,0.7c-0.7,0-1.2-0.1-1.7-0.4c-0.5-0.3-0.9-0.7-1.2-1.2c-0.3-0.5-0.4-1.1-0.4-1.8
		c0-0.7,0.1-1.3,0.4-1.8c0.3-0.5,0.7-0.9,1.2-1.2c0.5-0.3,1.1-0.4,1.8-0.4C109.6,147.2,110.3,147.5,110.9,147.9z"/>
	<path class="st3" d="M117.5,147.9c0.5,0.4,0.8,1,1,1.7h-1.9c-0.1-0.3-0.2-0.5-0.4-0.6c-0.2-0.2-0.4-0.2-0.7-0.2
		c-0.2,0-0.4,0-0.5,0.1c-0.1,0.1-0.2,0.2-0.2,0.4c0,0.2,0.1,0.4,0.3,0.5c0.2,0.1,0.6,0.2,1,0.3c0.5,0.1,0.9,0.2,1.3,0.4
		c0.3,0.1,0.6,0.3,0.9,0.6c0.2,0.3,0.4,0.7,0.4,1.1c0,0.4-0.1,0.7-0.3,1s-0.5,0.5-0.9,0.7c-0.4,0.2-0.9,0.3-1.4,0.3
		c-0.9,0-1.6-0.2-2.2-0.6c-0.5-0.4-0.9-1-1-1.7h2c0,0.3,0.2,0.5,0.4,0.7c0.2,0.2,0.5,0.2,0.8,0.2c0.2,0,0.4-0.1,0.5-0.2
		c0.1-0.1,0.2-0.3,0.2-0.4c0-0.2-0.1-0.4-0.3-0.5c-0.2-0.1-0.6-0.2-1.1-0.3c-0.5-0.1-0.9-0.2-1.2-0.3c-0.3-0.1-0.6-0.3-0.8-0.6
		c-0.2-0.3-0.3-0.6-0.3-1.1c0-0.6,0.2-1.1,0.7-1.5s1.1-0.6,1.9-0.6C116.3,147.2,117,147.4,117.5,147.9z"/>
</g>
<g class="st2">
	<path class="st3" d="M41.5,202.8h-3.2l-0.5,1.5h-2.2l3.1-8.4h2.4l3.1,8.4H42L41.5,202.8z M41,201.3l-1.1-3.1l-1.1,3.1H41z"/>
	<path class="st3" d="M48.8,197.9c0.4,0.2,0.6,0.5,0.8,0.9v-3.4h2.1v8.9h-2.1v-1.2c-0.2,0.4-0.4,0.7-0.8,0.9
		c-0.4,0.2-0.8,0.3-1.3,0.3c-0.6,0-1-0.1-1.5-0.4s-0.8-0.7-1-1.2c-0.3-0.5-0.4-1.1-0.4-1.8c0-0.7,0.1-1.3,0.4-1.8
		c0.3-0.5,0.6-0.9,1-1.2c0.4-0.3,0.9-0.4,1.5-0.4C48,197.6,48.5,197.7,48.8,197.9z M47.1,199.8c-0.3,0.3-0.4,0.7-0.4,1.2
		c0,0.5,0.1,0.9,0.4,1.2c0.3,0.3,0.6,0.4,1.1,0.4c0.4,0,0.8-0.1,1.1-0.4s0.4-0.7,0.4-1.2c0-0.5-0.1-0.9-0.4-1.2s-0.6-0.4-1.1-0.4
		C47.7,199.4,47.4,199.5,47.1,199.8z"/>
	<path class="st3" d="M58,198c0.5,0.3,0.9,0.7,1.2,1.2c0.3,0.5,0.5,1.1,0.5,1.8c0,0.7-0.1,1.3-0.5,1.8c-0.3,0.5-0.7,0.9-1.2,1.2
		s-1.1,0.4-1.8,0.4s-1.3-0.1-1.8-0.4c-0.5-0.3-0.9-0.7-1.2-1.2c-0.3-0.5-0.5-1.1-0.5-1.8c0-0.7,0.1-1.3,0.5-1.8
		c0.3-0.5,0.7-0.9,1.2-1.2c0.5-0.3,1.1-0.4,1.8-0.4S57.5,197.7,58,198z M55.3,199.8c-0.3,0.3-0.4,0.7-0.4,1.2s0.1,0.9,0.4,1.2
		s0.6,0.4,1,0.4s0.7-0.1,1-0.4c0.3-0.3,0.4-0.7,0.4-1.2s-0.1-0.9-0.4-1.2c-0.3-0.3-0.6-0.4-1-0.4S55.5,199.5,55.3,199.8z"/>
	<path class="st3" d="M66.4,198c0.4,0.3,0.8,0.7,1,1.2c0.3,0.5,0.4,1.1,0.4,1.8c0,0.7-0.1,1.3-0.4,1.8c-0.3,0.5-0.6,0.9-1,1.2
		c-0.4,0.3-0.9,0.4-1.5,0.4c-0.5,0-1-0.1-1.3-0.3c-0.4-0.2-0.6-0.5-0.8-0.9v1.2h-2.1v-8.9h2.1v3.4c0.2-0.4,0.4-0.7,0.8-0.9
		c0.4-0.2,0.8-0.3,1.3-0.3C65.5,197.6,66,197.7,66.4,198z M63.2,199.8c-0.3,0.3-0.4,0.7-0.4,1.2c0,0.5,0.1,0.9,0.4,1.2
		s0.6,0.4,1.1,0.4c0.4,0,0.8-0.1,1.1-0.4c0.3-0.3,0.4-0.7,0.4-1.2c0-0.5-0.1-0.9-0.4-1.2c-0.3-0.3-0.6-0.4-1.1-0.4
		C63.9,199.4,63.5,199.5,63.2,199.8z"/>
	<path class="st3" d="M75.2,201.4h-4.6c0,0.5,0.2,0.9,0.4,1.1c0.2,0.2,0.5,0.3,0.9,0.3c0.3,0,0.6-0.1,0.8-0.2
		c0.2-0.2,0.3-0.3,0.4-0.6h2.2c-0.1,0.5-0.3,0.9-0.6,1.3s-0.7,0.7-1.1,0.9c-0.5,0.2-1,0.3-1.5,0.3c-0.7,0-1.2-0.1-1.7-0.4
		c-0.5-0.3-0.9-0.7-1.2-1.2c-0.3-0.5-0.4-1.1-0.4-1.8c0-0.7,0.1-1.3,0.4-1.8c0.3-0.5,0.7-0.9,1.2-1.2c0.5-0.3,1.1-0.4,1.8-0.4
		c0.7,0,1.2,0.1,1.8,0.4c0.5,0.3,0.9,0.7,1.2,1.1c0.3,0.5,0.4,1.1,0.4,1.7C75.3,201,75.3,201.2,75.2,201.4z M72.9,199.5
		c-0.2-0.2-0.5-0.3-0.9-0.3c-0.4,0-0.7,0.1-0.9,0.3c-0.2,0.2-0.4,0.6-0.4,1h2.6C73.2,200.1,73.1,199.8,72.9,199.5z"/>
	<path class="st3" d="M84,202.8h-3.2l-0.5,1.5h-2.2l3.1-8.4h2.4l3.1,8.4h-2.2L84,202.8z M83.5,201.3l-1.1-3.1l-1.1,3.1H83.5z"/>
	<path class="st3" d="M93.6,198.4c0.5,0.5,0.7,1.2,0.7,2.1v3.9h-2.1v-3.6c0-0.4-0.1-0.8-0.4-1c-0.2-0.3-0.6-0.4-0.9-0.4
		c-0.4,0-0.7,0.1-1,0.4c-0.2,0.3-0.4,0.6-0.4,1.1v3.6h-2.1v-6.7h2.1v1.2c0.2-0.4,0.5-0.7,0.9-0.9c0.4-0.2,0.8-0.3,1.3-0.3
		C92.5,197.6,93.1,197.9,93.6,198.4z"/>
	<path class="st3" d="M99.5,197.9c0.4,0.2,0.6,0.5,0.8,0.9v-1.2h2v6.7h-2v-1.2c-0.2,0.4-0.4,0.7-0.8,0.9c-0.4,0.2-0.8,0.3-1.3,0.3
		c-0.6,0-1-0.1-1.5-0.4s-0.8-0.7-1-1.2c-0.3-0.5-0.4-1.1-0.4-1.8c0-0.7,0.1-1.3,0.4-1.8c0.3-0.5,0.6-0.9,1-1.2
		c0.4-0.3,0.9-0.4,1.5-0.4C98.7,197.6,99.1,197.7,99.5,197.9z M97.8,199.8c-0.3,0.3-0.4,0.7-0.4,1.2c0,0.5,0.1,0.9,0.4,1.2
		c0.3,0.3,0.6,0.4,1.1,0.4c0.4,0,0.8-0.1,1.1-0.4s0.4-0.7,0.4-1.2c0-0.5-0.1-0.9-0.4-1.2s-0.6-0.4-1.1-0.4
		C98.4,199.4,98,199.5,97.8,199.8z"/>
	<path class="st3" d="M105.8,195.5v8.9h-2.1v-8.9H105.8z"/>
	<path class="st3" d="M108.8,197.7l1.6,4.1l1.5-4.1h2.3l-4.2,9.9h-2.3l1.6-3.4l-2.8-6.4H108.8z"/>
	<path class="st3" d="M118.6,202.6v1.8h-0.9c-0.8,0-1.4-0.2-1.8-0.6s-0.7-1-0.7-1.9v-2.5h-0.9v-1.7h0.9V196h2.1v1.6h1.3v1.7h-1.3
		v2.5c0,0.3,0.1,0.4,0.2,0.6s0.3,0.2,0.5,0.2H118.6z"/>
	<path class="st3" d="M119.9,195c0.2-0.2,0.5-0.3,0.9-0.3c0.4,0,0.7,0.1,0.9,0.3c0.2,0.2,0.3,0.5,0.3,0.8c0,0.3-0.1,0.6-0.3,0.8
		s-0.5,0.3-0.9,0.3c-0.4,0-0.7-0.1-0.9-0.3c-0.2-0.2-0.3-0.5-0.3-0.8C119.6,195.5,119.7,195.2,119.9,195z M121.8,197.7v6.7h-2.1
		v-6.7H121.8z"/>
	<path class="st3" d="M128.4,198.3c0.6,0.5,1,1.1,1.1,2h-2.2c-0.1-0.3-0.2-0.5-0.4-0.7c-0.2-0.2-0.5-0.2-0.8-0.2
		c-0.4,0-0.7,0.1-0.9,0.4s-0.3,0.7-0.3,1.2s0.1,1,0.3,1.2c0.2,0.3,0.5,0.4,0.9,0.4c0.3,0,0.6-0.1,0.8-0.2c0.2-0.2,0.3-0.4,0.4-0.7
		h2.2c-0.2,0.8-0.5,1.5-1.1,2s-1.3,0.7-2.2,0.7c-0.7,0-1.2-0.1-1.7-0.4c-0.5-0.3-0.9-0.7-1.2-1.2c-0.3-0.5-0.4-1.1-0.4-1.8
		c0-0.7,0.1-1.3,0.4-1.8c0.3-0.5,0.7-0.9,1.2-1.2c0.5-0.3,1.1-0.4,1.8-0.4C127.1,197.6,127.9,197.8,128.4,198.3z"/>
	<path class="st3" d="M135.1,198.2c0.5,0.4,0.8,1,1,1.7h-1.9c-0.1-0.3-0.2-0.5-0.4-0.6c-0.2-0.2-0.4-0.2-0.7-0.2
		c-0.2,0-0.4,0-0.5,0.1c-0.1,0.1-0.2,0.2-0.2,0.4c0,0.2,0.1,0.4,0.3,0.5c0.2,0.1,0.6,0.2,1,0.3c0.5,0.1,0.9,0.2,1.3,0.4
		c0.3,0.1,0.6,0.3,0.9,0.6c0.2,0.3,0.4,0.7,0.4,1.1c0,0.4-0.1,0.7-0.3,1s-0.5,0.5-0.9,0.7c-0.4,0.2-0.9,0.3-1.4,0.3
		c-0.9,0-1.6-0.2-2.2-0.6c-0.5-0.4-0.9-1-1-1.7h2c0,0.3,0.2,0.5,0.4,0.7c0.2,0.2,0.5,0.2,0.8,0.2c0.2,0,0.4-0.1,0.5-0.2
		c0.1-0.1,0.2-0.3,0.2-0.4c0-0.2-0.1-0.4-0.3-0.5c-0.2-0.1-0.6-0.2-1.1-0.3c-0.5-0.1-0.9-0.2-1.2-0.3c-0.3-0.1-0.6-0.3-0.8-0.6
		c-0.2-0.3-0.3-0.6-0.3-1.1c0-0.6,0.2-1.1,0.7-1.5s1.1-0.6,1.9-0.6C133.9,197.6,134.6,197.8,135.1,198.2z"/>
</g>
<g class="st2">
	<path class="st3" d="M43,252.3h-2.3v2.3h-2.6v-2.3h-2.2v-2.5h2.2v-2.3h2.6v2.3H43V252.3z"/>
	<path class="st3" d="M50.9,248c-0.2-0.2-0.4-0.3-0.7-0.3c-0.4,0-0.7,0.2-0.9,0.6c-0.2,0.4-0.3,1.1-0.3,2c0.2-0.3,0.4-0.6,0.8-0.8
		s0.8-0.3,1.2-0.3c0.9,0,1.6,0.3,2.2,0.8c0.5,0.6,0.8,1.4,0.8,2.4c0,0.7-0.1,1.3-0.4,1.8c-0.3,0.5-0.7,0.9-1.2,1.2
		c-0.5,0.3-1.2,0.4-1.9,0.4c-1.5,0-2.5-0.5-3-1.4c-0.6-0.9-0.8-2.1-0.8-3.7c0-1.3,0.1-2.3,0.4-3.1c0.3-0.8,0.7-1.4,1.2-1.7
		s1.3-0.6,2.2-0.6c1.1,0,1.9,0.3,2.4,0.9c0.6,0.6,0.9,1.4,0.9,2.3h-2.6C51.2,248.4,51.1,248.2,50.9,248z M49.6,253.3
		c0.2,0.2,0.5,0.3,0.8,0.3c0.3,0,0.6-0.1,0.8-0.3c0.2-0.2,0.3-0.5,0.3-0.8c0-0.4-0.1-0.6-0.3-0.8c-0.2-0.2-0.5-0.3-0.8-0.3
		c-0.3,0-0.6,0.1-0.8,0.3s-0.3,0.4-0.3,0.8C49.3,252.9,49.4,253.1,49.6,253.3z"/>
	<path class="st3" d="M69.6,246v9.9h-2.7v-5.6l-1.8,5.6h-2.4l-1.8-5.6v5.6h-2.8V246h3.4l2.4,6.4l2.4-6.4H69.6z"/>
	<path class="st3" d="M76.9,248.4c0.6,0.3,1.1,0.8,1.5,1.4c0.4,0.6,0.5,1.3,0.5,2.1c0,0.8-0.2,1.5-0.5,2.1c-0.4,0.6-0.8,1.1-1.5,1.4
		c-0.6,0.3-1.3,0.5-2.1,0.5c-0.8,0-1.5-0.2-2.1-0.5c-0.6-0.3-1.1-0.8-1.5-1.4c-0.4-0.6-0.5-1.3-0.5-2.1s0.2-1.5,0.5-2.1
		c0.4-0.6,0.8-1.1,1.5-1.4c0.6-0.3,1.3-0.5,2.1-0.5C75.6,248,76.3,248.1,76.9,248.4z M73.9,250.8c-0.3,0.3-0.4,0.7-0.4,1.2
		c0,0.5,0.1,1,0.4,1.2s0.6,0.4,1,0.4c0.4,0,0.7-0.1,0.9-0.4c0.3-0.3,0.4-0.7,0.4-1.2c0-0.5-0.1-0.9-0.4-1.2
		c-0.3-0.3-0.6-0.4-0.9-0.4C74.4,250.3,74.1,250.5,73.9,250.8z"/>
	<path class="st3" d="M84,248.4c0.5-0.3,1-0.4,1.5-0.4v2.9h-0.8c-0.6,0-1.1,0.1-1.4,0.4s-0.5,0.7-0.5,1.2v3.4H80v-7.9h2.8v1.5
		C83.1,249.1,83.5,248.7,84,248.4z"/>
	<path class="st3" d="M93.8,252.5h-5.2c0,0.9,0.4,1.3,1.2,1.3c0.3,0,0.5-0.1,0.7-0.2s0.3-0.3,0.4-0.5h2.9c-0.1,0.6-0.3,1-0.7,1.5
		s-0.8,0.8-1.3,1c-0.5,0.3-1.1,0.4-1.8,0.4c-0.8,0-1.5-0.2-2.1-0.5c-0.6-0.3-1.1-0.8-1.4-1.4s-0.5-1.3-0.5-2.1s0.2-1.5,0.5-2.1
		c0.3-0.6,0.8-1.1,1.4-1.4c0.6-0.3,1.3-0.5,2.1-0.5c0.8,0,1.5,0.2,2.1,0.5c0.6,0.3,1.1,0.8,1.4,1.4c0.3,0.6,0.5,1.3,0.5,2
		C93.9,252,93.9,252.2,93.8,252.5z M90.8,250.4c-0.2-0.2-0.5-0.3-0.8-0.3c-0.4,0-0.7,0.1-0.9,0.3c-0.2,0.2-0.4,0.5-0.4,0.9h2.5
		C91.1,250.9,91,250.6,90.8,250.4z"/>
</g>
</svg>
