<?xml version="1.0" encoding="utf-8"?>
<!-- Generator: Adobe Illustrator 22.0.1, SVG Export Plug-In . SVG Version: 6.00 Build 0)  -->
<svg version="1.1" id="Layer_1" xmlns="http://www.w3.org/2000/svg" xmlns:xlink="http://www.w3.org/1999/xlink" x="0px" y="0px"
	 viewBox="0 0 300 300" style="enable-background:new 0 0 300 300;" xml:space="preserve">
<style type="text/css">
	.st0{fill:#33A3DB;}
	.st1{fill:#0C657A;}
	.st2{fill:#61D2FF;}
</style>
<g>
	<g>
		<rect class="st0" width="300" height="300"/>
	</g>
</g>
<g>
	<g>
		<rect x="20.3" y="32" class="st1" width="113.5" height="11.7"/>
	</g>
	<g>
		<rect x="20.4" y="53.7" class="st1" width="259.3" height="73"/>
		<g>
			<circle class="st0" cx="150" cy="90.2" r="16.2"/>
			<path class="st1" d="M157.1,92.2l-9.7,5.7c-1.6,1-3.6-0.2-3.6-2.1V84.4c0-1.9,2-3,3.6-2.1l9.7,5.7
				C158.7,89,158.7,91.3,157.1,92.2z"/>
		</g>
	</g>
	<g>
		<rect x="20.4" y="156.4" class="st1" width="259.3" height="48.4"/>
		<g>
			<rect x="29.2" y="164.5" class="st0" width="113.5" height="5"/>
		</g>
		<g>
			<rect x="60" y="186.3" class="st0" width="210.7" height="1.8"/>
		</g>
		<g>
			<circle class="st0" cx="38" cy="188.3" r="8.8"/>
			<path class="st1" d="M41.9,189.5l-5.3,3.1c-0.9,0.5-2-0.1-2-1.1v-6.3c0-1,1.1-1.7,2-1.1l5.3,3.1C42.7,187.7,42.7,189,41.9,189.5z
				"/>
		</g>
		<g>
			<rect x="60" y="192.2" class="st0" width="8" height="4.6"/>
			<rect x="68.3" y="192.2" class="st0" width="8" height="4.6"/>
		</g>
		<g>
			<rect x="253.9" y="192.2" class="st0" width="8" height="4.6"/>
			<rect x="262.8" y="192.2" class="st0" width="8" height="4.6"/>
		</g>
		<rect x="60" y="186.3" class="st2" width="24.5" height="1.8"/>
		<circle class="st0" cx="84.4" cy="187.3" r="3.3"/>
	</g>
	<g>
		<g>
			<rect x="42.5" y="234.1" class="st1" width="163.6" height="16.3"/>
		</g>
		<g>
			<rect x="42.5" y="259.9" class="st1" width="237.1" height="8.2"/>
		</g>
		<circle class="st1" cx="29.3" cy="241.4" r="9"/>
		<g>
			<path class="st0" d="M33.7,238.7c-0.3,0.1-0.7,0.2-1,0.3c0.4-0.2,0.7-0.6,0.8-1c-0.3,0.2-0.7,0.4-1.1,0.4
				c-0.3-0.3-0.8-0.6-1.3-0.6c-1,0-1.8,0.8-1.8,1.8c0,0.1,0,0.3,0,0.4c-1.5-0.1-2.8-0.8-3.7-1.9c-0.2,0.3-0.2,0.6-0.2,0.9
				c0,0.6,0.3,1.2,0.8,1.5c-0.3,0-0.6-0.1-0.8-0.2v0c0,0.9,0.6,1.6,1.4,1.8c-0.1,0-0.3,0.1-0.5,0.1c-0.1,0-0.2,0-0.3,0
				c0.2,0.7,0.9,1.2,1.7,1.2c-0.6,0.5-1.4,0.8-2.2,0.8c-0.1,0-0.3,0-0.4,0c0.8,0.5,1.7,0.8,2.8,0.8c3.3,0,5.1-2.7,5.1-5.1l0-0.2
				C33.2,239.4,33.5,239.1,33.7,238.7L33.7,238.7z M33.7,238.7"/>
		</g>
	</g>
</g>
</svg>
