<?xml version="1.0" encoding="utf-8"?>
<!-- Generator: Adobe Illustrator 21.0.0, SVG Export Plug-In . SVG Version: 6.00 Build 0)  -->
<svg version="1.1" id="Layer_1" xmlns="http://www.w3.org/2000/svg" xmlns:xlink="http://www.w3.org/1999/xlink" x="0px" y="0px"
	 viewBox="0 0 300 300" style="enable-background:new 0 0 300 300;" xml:space="preserve">
<style type="text/css">
	.st0{fill:#9B8BC3;}
	.st1{fill:#D6D6D6;}
	.st2{fill:#7B6DA5;}
	.st3{fill:#020202;}
	.st4{fill:#FFFFFF;}
</style>
<rect class="st0" width="300" height="133.9"/>
<g>
	<rect y="133.9" class="st1" width="300" height="69.7"/>
</g>
<g>
	<rect y="203.6" class="st0" width="300" height="51.1"/>
</g>
<g>
	<rect y="254.6" class="st2" width="300" height="45.4"/>
</g>
<g>
	<path class="st3" d="M191.8,178.4h-83.6c-5.4,0-9.7-4.4-9.7-9.7l0,0c0-5.4,4.4-9.7,9.7-9.7h83.6c5.4,0,9.7,4.4,9.7,9.7l0,0
		C201.5,174.1,197.2,178.4,191.8,178.4z"/>
	<g>
		<path class="st4" d="M112.4,163.8c1.6,0,3.2,0,4.8,0c0.7,0,1.1,0.4,1.1,1.1c0,1.8,0,3.6,0,5.4c0,0.6-0.4,1.1-1.1,1.1
			c-3.2,0-6.4,0-9.6,0c-0.6,0-1.1-0.4-1.1-1.1c0-1.8,0-3.7,0-5.5c0-0.6,0.5-1,1.1-1C109.2,163.8,110.8,163.8,112.4,163.8z
			 M117.6,169.6C117.6,169.6,117.6,169.6,117.6,169.6c0-1.6,0-3.1,0-4.7c0-0.3-0.1-0.4-0.4-0.4c-3.2,0-6.4,0-9.5,0
			c-0.3,0-0.4,0.1-0.4,0.4c0,1.5,0,3.1,0,4.6v0.1C110.7,169.6,114.1,169.6,117.6,169.6z M112.4,171.1c0.3,0,0.5-0.2,0.5-0.5
			c0-0.3-0.2-0.5-0.5-0.5s-0.5,0.2-0.5,0.5C112,170.8,112.2,171.1,112.4,171.1z"/>
		<path class="st4" d="M111.6,171.8c0.6,0,1.1,0,1.7,0c0,0.1,0,0.2,0,0.4c0,0.5,0.3,0.8,0.8,0.8c0.1,0,0.1,0,0.1,0
			c0.1,0,0.1,0.1,0.1,0.2c0,0.1-0.1,0.1-0.1,0.2c0,0-0.1,0-0.2,0c-1.1,0-2.2,0-3.3,0h-0.1c-0.1,0-0.2-0.1-0.2-0.2
			c0-0.1,0.1-0.2,0.2-0.2h0.1c0.5,0,0.8-0.3,0.8-0.8C111.6,172.1,111.6,172.1,111.6,171.8z"/>
	</g>
	<g>
		<path class="st4" d="M123.8,170.3l-1.8-4.7h0.7l1.5,4l1.5-4h0.7l-1.8,4.7H123.8z"/>
		<path class="st4" d="M127.6,165.9c-0.1,0.1-0.2,0.1-0.3,0.1s-0.2,0-0.3-0.1s-0.1-0.2-0.1-0.3c0-0.1,0-0.2,0.1-0.3
			c0.1-0.1,0.2-0.1,0.3-0.1s0.2,0,0.3,0.1c0.1,0.1,0.1,0.2,0.1,0.3C127.7,165.8,127.7,165.8,127.6,165.9z M127,170.3v-3.7h0.6v3.7
			H127z"/>
		<path class="st4" d="M130.2,170.4c-0.5,0-1-0.2-1.3-0.5c-0.3-0.4-0.5-0.8-0.5-1.4c0-0.6,0.2-1,0.5-1.4c0.3-0.4,0.8-0.5,1.3-0.5
			s1,0.2,1.3,0.5s0.5,0.8,0.5,1.3c0,0.1,0,0.3,0,0.4h-3c0,0.4,0.1,0.7,0.3,0.9s0.5,0.3,0.8,0.3s0.5-0.1,0.6-0.2
			c0.2-0.1,0.3-0.3,0.4-0.4h0.7c-0.1,0.3-0.3,0.6-0.6,0.8C131,170.3,130.6,170.4,130.2,170.4z M131,167.3c-0.2-0.2-0.5-0.3-0.8-0.3
			s-0.6,0.1-0.8,0.3c-0.2,0.2-0.3,0.5-0.4,0.9h2.3C131.4,167.8,131.2,167.6,131,167.3z"/>
		<path class="st4" d="M137,166.6h0.6l-1.2,3.7h-0.6l-0.8-3l-0.8,3h-0.6l-1.2-3.7h0.6l0.9,3.1l0.9-3.1h0.6l0.8,3.1L137,166.6z"/>
		<path class="st4" d="M141.8,165.6c0.8,0,1.4,0.2,1.8,0.6c0.4,0.4,0.7,1,0.7,1.7s-0.2,1.3-0.7,1.7c-0.5,0.4-1,0.6-1.8,0.6h-1.5
			v-4.7L141.8,165.6L141.8,165.6z M140.9,169.8h0.9c0.6,0,1-0.2,1.4-0.5c0.3-0.3,0.5-0.8,0.5-1.4s-0.2-1-0.5-1.4
			c-0.3-0.3-0.8-0.5-1.4-0.5h-0.9V169.8z"/>
		<path class="st4" d="M146.6,170.4c-0.5,0-1-0.2-1.3-0.5c-0.3-0.4-0.5-0.8-0.5-1.4c0-0.6,0.2-1,0.5-1.4c0.3-0.4,0.8-0.5,1.3-0.5
			s1,0.2,1.3,0.5s0.5,0.8,0.5,1.3c0,0.1,0,0.3,0,0.4h-3c0,0.4,0.1,0.7,0.3,0.9s0.5,0.3,0.8,0.3s0.5-0.1,0.6-0.2
			c0.2-0.1,0.3-0.3,0.4-0.4h0.7c-0.1,0.3-0.3,0.6-0.6,0.8C147.4,170.3,147,170.4,146.6,170.4z M147.4,167.3
			c-0.2-0.2-0.5-0.3-0.8-0.3s-0.6,0.1-0.8,0.3c-0.2,0.2-0.3,0.5-0.4,0.9h2.3C147.7,167.8,147.6,167.6,147.4,167.3z"/>
		<path class="st4" d="M149,167.6c0-0.3,0.1-0.6,0.4-0.8c0.3-0.2,0.6-0.3,1-0.3s0.7,0.1,1,0.3c0.2,0.2,0.4,0.5,0.4,0.9h-0.6
			c0-0.2-0.1-0.4-0.2-0.5c-0.1-0.1-0.3-0.2-0.5-0.2s-0.4,0.1-0.5,0.2c-0.1,0.1-0.2,0.3-0.2,0.4c0,0.2,0.1,0.3,0.2,0.4
			c0.2,0.1,0.3,0.2,0.5,0.2s0.4,0.1,0.6,0.1c0.2,0.1,0.4,0.2,0.5,0.3c0.2,0.2,0.2,0.4,0.2,0.7c0,0.3-0.1,0.5-0.4,0.7
			c-0.3,0.2-0.6,0.3-1,0.3s-0.8-0.1-1-0.3s-0.4-0.5-0.4-0.9h0.6c0,0.2,0.1,0.4,0.2,0.5c0.1,0.1,0.3,0.2,0.6,0.2
			c0.2,0,0.4-0.1,0.6-0.2c0.2-0.1,0.2-0.2,0.2-0.4s-0.1-0.3-0.2-0.4c-0.1-0.1-0.2-0.2-0.4-0.2s-0.3-0.1-0.5-0.1s-0.4-0.1-0.5-0.2
			c-0.2-0.1-0.3-0.2-0.4-0.3C149.1,167.9,149,167.8,149,167.6z"/>
		<path class="st4" d="M153.3,170.3h-0.6v-5h0.6v2.9l1.4-1.6h0.9l-1.8,1.9l1.8,1.9h-0.8l-1.5-1.6L153.3,170.3L153.3,170.3z"/>
		<path class="st4" d="M157.4,169.8h0.5v0.5h-0.6c-0.6,0-1-0.3-1-1v-2.2h-0.5v-0.5h0.5v-0.9h0.6v0.9h1v0.5h-1v2.3
			c0,0.2,0,0.3,0.1,0.4C157.1,169.8,157.3,169.8,157.4,169.8z"/>
		<path class="st4" d="M158.9,169.8c-0.3-0.4-0.5-0.8-0.5-1.4s0.2-1,0.5-1.4c0.4-0.4,0.8-0.5,1.3-0.5s1,0.2,1.3,0.5
			c0.4,0.4,0.5,0.8,0.5,1.4s-0.2,1-0.6,1.4c-0.4,0.4-0.8,0.5-1.4,0.5C159.7,170.4,159.2,170.3,158.9,169.8z M160.2,169.9
			c0.3,0,0.7-0.1,0.9-0.4c0.3-0.3,0.4-0.6,0.4-1c0-0.4-0.1-0.8-0.4-1c-0.2-0.2-0.5-0.4-0.9-0.4s-0.6,0.1-0.9,0.4
			c-0.2,0.2-0.4,0.6-0.4,1c0,0.4,0.1,0.8,0.3,1C159.6,169.8,159.9,169.9,160.2,169.9z"/>
		<path class="st4" d="M164.9,166.6c0.5,0,0.9,0.2,1.3,0.5c0.3,0.4,0.5,0.8,0.5,1.4s-0.2,1-0.5,1.4c-0.3,0.4-0.8,0.5-1.3,0.5
			c-0.3,0-0.6-0.1-0.8-0.2c-0.2-0.2-0.4-0.3-0.5-0.6v2.6H163v-5.5h0.6v0.7c0.1-0.2,0.3-0.4,0.5-0.6S164.6,166.6,164.9,166.6z
			 M164.8,169.8c0.3,0,0.6-0.1,0.9-0.4c0.2-0.3,0.4-0.6,0.4-1s-0.1-0.8-0.4-1c-0.2-0.2-0.5-0.4-0.9-0.4c-0.3,0-0.6,0.1-0.9,0.4
			c-0.2,0.3-0.4,0.6-0.4,1s0.1,0.8,0.4,1C164.1,169.8,164.4,169.8,164.8,169.8z"/>
		<path class="st4" d="M170.9,170.3l-1.8-4.7h0.7l1.5,4l1.5-4h0.7l-1.8,4.7H170.9z"/>
		<path class="st4" d="M175.7,170.4c-0.5,0-1-0.2-1.3-0.5c-0.3-0.4-0.5-0.8-0.5-1.4c0-0.6,0.2-1,0.5-1.4c0.3-0.4,0.8-0.5,1.3-0.5
			s1,0.2,1.3,0.5s0.5,0.8,0.5,1.3c0,0.1,0,0.3,0,0.4h-3c0,0.4,0.1,0.7,0.3,0.9s0.5,0.3,0.8,0.3s0.5-0.1,0.6-0.2
			c0.2-0.1,0.3-0.3,0.4-0.4h0.7c-0.1,0.3-0.3,0.6-0.6,0.8C176.5,170.3,176.1,170.4,175.7,170.4z M176.5,167.3
			c-0.2-0.2-0.5-0.3-0.8-0.3s-0.6,0.1-0.8,0.3c-0.2,0.2-0.3,0.5-0.4,0.9h2.3C176.8,167.8,176.7,167.6,176.5,167.3z"/>
		<path class="st4" d="M178.9,166.6v0.6c0.2-0.5,0.6-0.7,1.1-0.7v0.6h-0.2c-0.3,0-0.6,0.1-0.7,0.2c-0.1,0.1-0.2,0.5-0.2,0.9v2h-0.6
			v-3.7L178.9,166.6L178.9,166.6L178.9,166.6z"/>
		<path class="st4" d="M180.6,167.6c0-0.3,0.1-0.6,0.4-0.8c0.3-0.2,0.6-0.3,1-0.3s0.7,0.1,1,0.3c0.2,0.2,0.4,0.5,0.4,0.9h-0.6
			c0-0.2-0.1-0.4-0.2-0.5c-0.1-0.1-0.3-0.2-0.5-0.2s-0.4,0.1-0.5,0.2c-0.1,0.1-0.2,0.3-0.2,0.4c0,0.2,0.1,0.3,0.2,0.4
			c0.2,0.1,0.3,0.2,0.5,0.2s0.4,0.1,0.6,0.1c0.2,0.1,0.4,0.2,0.5,0.3c0.2,0.2,0.2,0.4,0.2,0.7c0,0.3-0.1,0.5-0.4,0.7
			c-0.3,0.2-0.6,0.3-1,0.3s-0.8-0.1-1-0.3s-0.4-0.5-0.4-0.9h0.6c0,0.2,0.1,0.4,0.2,0.5c0.1,0.1,0.3,0.2,0.6,0.2
			c0.2,0,0.4-0.1,0.6-0.2c0.2-0.1,0.2-0.2,0.2-0.4s-0.1-0.3-0.2-0.4c-0.1-0.1-0.2-0.2-0.4-0.2s-0.3-0.1-0.5-0.1s-0.4-0.1-0.5-0.2
			c-0.2-0.1-0.3-0.2-0.4-0.3C180.7,167.9,180.6,167.8,180.6,167.6z"/>
		<path class="st4" d="M184.9,165.9c-0.1,0.1-0.2,0.1-0.3,0.1s-0.2,0-0.3-0.1s-0.1-0.2-0.1-0.3c0-0.1,0-0.2,0.1-0.3
			c0.1-0.1,0.2-0.1,0.3-0.1s0.2,0,0.3,0.1c0.1,0.1,0.1,0.2,0.1,0.3C185,165.8,185,165.8,184.9,165.9z M184.3,170.3v-3.7h0.6v3.7
			H184.3z"/>
		<path class="st4" d="M186.2,169.8c-0.3-0.4-0.5-0.8-0.5-1.4s0.2-1,0.5-1.4c0.4-0.4,0.8-0.5,1.3-0.5s1,0.2,1.3,0.5
			c0.4,0.4,0.5,0.8,0.5,1.4s-0.2,1-0.6,1.4c-0.4,0.4-0.8,0.5-1.4,0.5C187,170.4,186.5,170.3,186.2,169.8z M187.5,169.9
			c0.3,0,0.7-0.1,0.9-0.4c0.3-0.3,0.4-0.6,0.4-1c0-0.4-0.1-0.8-0.4-1c-0.2-0.2-0.5-0.4-0.9-0.4s-0.6,0.1-0.9,0.4
			c-0.2,0.2-0.4,0.6-0.4,1c0,0.4,0.1,0.8,0.3,1C186.9,169.8,187.2,169.9,187.5,169.9z"/>
		<path class="st4" d="M190.8,166.6v0.6c0.3-0.4,0.7-0.7,1.2-0.7c0.4,0,0.8,0.1,1,0.4c0.3,0.3,0.4,0.7,0.4,1.2v2.2h-0.6v-2.1
			c0-0.4-0.1-0.7-0.3-0.9c-0.2-0.2-0.4-0.3-0.7-0.3s-0.6,0.1-0.8,0.3c-0.2,0.2-0.3,0.5-0.3,0.9v2.1h-0.6v-3.7H190.8z"/>
	</g>
</g>
<g>
	<path class="st4" d="M120.2,232.6v-6.9h3.9v0.7h-3v2.4h2.4v0.6h-2.4v3.1L120.2,232.6L120.2,232.6z"/>
	<path class="st4" d="M125.5,231.9c-0.5-0.5-0.8-1.2-0.8-2s0.3-1.5,0.8-2.1c0.5-0.5,1.2-0.8,2-0.8s1.5,0.3,2,0.8s0.8,1.2,0.8,2
		s-0.3,1.5-0.8,2c-0.6,0.5-1.2,0.8-2,0.8S126,232.4,125.5,231.9z M127.4,231.9c0.5,0,1-0.2,1.3-0.6c0.3-0.4,0.6-0.9,0.6-1.5
		c0-0.6-0.2-1.2-0.5-1.5c-0.4-0.4-0.8-0.5-1.3-0.5s-0.9,0.2-1.3,0.5c-0.3,0.4-0.5,0.9-0.5,1.5c0,0.7,0.2,1.2,0.5,1.5
		C126.5,231.7,126.9,231.9,127.4,231.9z"/>
	<path class="st4" d="M131.8,231.9c-0.5-0.5-0.8-1.2-0.8-2s0.3-1.5,0.8-2.1c0.5-0.5,1.2-0.8,2-0.8s1.5,0.3,2,0.8s0.8,1.2,0.8,2
		s-0.3,1.5-0.8,2c-0.6,0.5-1.2,0.8-2,0.8S132.3,232.4,131.8,231.9z M133.8,231.9c0.5,0,1-0.2,1.3-0.6c0.3-0.4,0.6-0.9,0.6-1.5
		c0-0.6-0.2-1.2-0.5-1.5c-0.4-0.4-0.8-0.5-1.3-0.5s-0.9,0.2-1.3,0.5c-0.3,0.4-0.5,0.9-0.5,1.5c0,0.7,0.2,1.2,0.5,1.5
		C132.8,231.7,133.2,231.9,133.8,231.9z"/>
	<path class="st4" d="M139.5,231.8h0.8v0.7h-0.9c-1,0-1.4-0.5-1.4-1.4v-3.3h-0.7v-0.7h0.7v-1.4h0.9v1.4h1.4v0.7h-1.4v3.3
		c0,0.2,0,0.4,0.1,0.5C139.1,231.8,139.3,231.8,139.5,231.8z"/>
	<path class="st4" d="M143.6,232.7c-0.8,0-1.4-0.3-1.9-0.8s-0.7-1.2-0.7-2.1c0-0.9,0.3-1.5,0.8-2.1c0.5-0.6,1.1-0.8,1.9-0.8
		s1.4,0.2,1.9,0.7s0.7,1.1,0.7,1.9c0,0.2,0,0.4,0,0.5h-4.4c0,0.5,0.2,1,0.5,1.3s0.7,0.5,1.2,0.5c0.4,0,0.7-0.1,0.9-0.3
		c0.3-0.2,0.4-0.4,0.6-0.7h1c-0.2,0.5-0.5,0.9-0.9,1.2C144.8,232.5,144.2,232.7,143.6,232.7z M144.8,228.2c-0.3-0.3-0.7-0.5-1.2-0.5
		s-0.9,0.2-1.2,0.5s-0.5,0.7-0.5,1.3h3.5C145.3,229,145.1,228.5,144.8,228.2z"/>
	<path class="st4" d="M148.3,227.1v0.9c0.3-0.7,0.9-1,1.7-1v1h-0.2c-0.5,0-0.8,0.1-1.1,0.4c-0.2,0.2-0.4,0.7-0.4,1.3v3h-0.9v-5.5
		h0.9V227.1z"/>
	<path class="st4" d="M161.1,225.6v6.9h-0.9v-5l-2.3,5h-0.6l-2.3-5v5h-0.9v-6.9h0.9l2.6,5.7l2.6-5.7
		C160.2,225.6,161.1,225.6,161.1,225.6z"/>
	<path class="st4" d="M164.9,232.7c-0.8,0-1.4-0.3-1.9-0.8s-0.7-1.2-0.7-2.1c0-0.9,0.3-1.5,0.8-2.1c0.5-0.6,1.1-0.8,1.9-0.8
		s1.4,0.2,1.9,0.7s0.7,1.1,0.7,1.9c0,0.2,0,0.4,0,0.5h-4.4c0,0.5,0.2,1,0.5,1.3s0.7,0.5,1.2,0.5c0.4,0,0.7-0.1,0.9-0.3
		c0.3-0.2,0.4-0.4,0.6-0.7h1c-0.2,0.5-0.5,0.9-0.9,1.2C166.1,232.5,165.6,232.7,164.9,232.7z M166.2,228.2c-0.3-0.3-0.7-0.5-1.2-0.5
		s-0.9,0.2-1.2,0.5s-0.5,0.7-0.5,1.3h3.5C166.7,229,166.5,228.5,166.2,228.2z"/>
	<path class="st4" d="M169.7,227.1v0.9c0.4-0.7,1-1,1.8-1c0.6,0,1.1,0.2,1.5,0.6c0.4,0.4,0.6,1,0.6,1.7v3.3h-0.9v-3.1
		c0-0.6-0.1-1-0.4-1.3c-0.3-0.3-0.6-0.4-1.1-0.4s-0.8,0.1-1.1,0.4s-0.4,0.7-0.4,1.3v3.1h-0.9v-5.5H169.7z"/>
	<path class="st4" d="M178.9,227.1h0.9v5.5h-0.9v-0.9c-0.4,0.6-1,1-1.8,1c-0.6,0-1.1-0.2-1.5-0.6c-0.4-0.4-0.6-1-0.6-1.7v-3.3h0.9
		v3.1c0,0.5,0.1,1,0.4,1.3c0.3,0.3,0.6,0.4,1.1,0.4s0.8-0.1,1.1-0.4s0.4-0.7,0.4-1.3L178.9,227.1L178.9,227.1z"/>
</g>
<g>
	<path class="st4" d="M104.5,273.3c0.4,0.4,0.6,0.9,0.6,1.5c0,0.6-0.2,1.1-0.6,1.5c-0.4,0.4-1,0.6-1.8,0.6h-1.3v2.9h-0.9v-6.9h2.3
		C103.5,272.8,104.1,272.9,104.5,273.3z M101.4,276.2h1.3c0.5,0,0.9-0.1,1.1-0.3c0.2-0.2,0.4-0.6,0.4-1c0-0.9-0.5-1.3-1.5-1.3h-1.3
		V276.2z"/>
	<path class="st4" d="M106.6,279c-0.5-0.5-0.8-1.2-0.8-2c0-0.8,0.3-1.5,0.8-2.1c0.5-0.5,1.2-0.8,2-0.8s1.5,0.3,2,0.8s0.8,1.2,0.8,2
		c0,0.8-0.3,1.5-0.8,2s-1.2,0.8-2,0.8S107.1,279.5,106.6,279z M108.6,279c0.5,0,1-0.2,1.3-0.6c0.4-0.4,0.6-0.9,0.6-1.5
		c0-0.6-0.2-1.2-0.5-1.5c-0.4-0.4-0.8-0.5-1.3-0.5s-0.9,0.2-1.3,0.5c-0.3,0.4-0.5,0.9-0.5,1.5c0,0.7,0.2,1.2,0.5,1.5
		C107.7,278.7,108.1,279,108.6,279z"/>
	<path class="st4" d="M118.8,274.3h0.9l-1.7,5.5h-0.9l-1.2-4.4l-1.2,4.4h-1l-1.7-5.5h0.9l1.3,4.6l1.3-4.6h0.9l1.2,4.6L118.8,274.3z"
		/>
	<path class="st4" d="M122.9,279.8c-0.8,0-1.4-0.3-1.9-0.8s-0.7-1.2-0.7-2.1s0.3-1.5,0.8-2.1c0.5-0.6,1.1-0.8,1.9-0.8
		s1.4,0.2,1.9,0.7s0.7,1.1,0.7,1.9c0,0.2,0,0.4,0,0.5h-4.4c0,0.5,0.2,1,0.5,1.3c0.3,0.3,0.7,0.5,1.2,0.5c0.4,0,0.7-0.1,0.9-0.3
		c0.3-0.2,0.4-0.4,0.6-0.7h1c-0.2,0.5-0.5,0.9-0.9,1.2C124.1,279.3,123.6,279.8,122.9,279.8z M124.2,275.3c-0.3-0.3-0.7-0.5-1.2-0.5
		s-0.9,0.2-1.2,0.5c-0.3,0.3-0.5,0.7-0.5,1.3h3.4C124.7,276,124.5,275.7,124.2,275.3z"/>
	<path class="st4" d="M127.7,274.3v0.9c0.3-0.7,0.9-1,1.7-1v1h-0.2c-0.5,0-0.8,0.1-1.1,0.4c-0.3,0.3-0.4,0.7-0.4,1.3v3h-0.9v-5.5
		h0.9C127.7,274.4,127.7,274.3,127.7,274.3z"/>
	<path class="st4" d="M132.7,279.8c-0.8,0-1.4-0.3-1.9-0.8s-0.7-1.2-0.7-2.1s0.3-1.5,0.8-2.1c0.5-0.6,1.1-0.8,1.9-0.8
		c0.8,0,1.4,0.2,1.9,0.7s0.7,1.1,0.7,1.9c0,0.2,0,0.4,0,0.5H131c0,0.5,0.2,1,0.5,1.3c0.3,0.3,0.7,0.5,1.2,0.5c0.4,0,0.7-0.1,0.9-0.3
		c0.3-0.2,0.4-0.4,0.6-0.7h1c-0.2,0.5-0.5,0.9-0.9,1.2C133.9,279.4,133.4,279.8,132.7,279.8z M134,275.3c-0.3-0.3-0.7-0.5-1.2-0.5
		s-0.9,0.2-1.2,0.5c-0.3,0.3-0.5,0.7-0.5,1.3h3.4C134.5,276,134.3,275.7,134,275.3z"/>
	<path class="st4" d="M136.9,278.9c-0.5-0.5-0.8-1.2-0.8-2.1c0-0.8,0.2-1.5,0.7-2s1.1-0.8,1.9-0.8c0.5,0,0.9,0.1,1.2,0.3
		c0.3,0.2,0.6,0.5,0.8,0.9v-3h0.9v7.4h-0.9v-1.1c-0.2,0.4-0.4,0.7-0.8,0.9c-0.4,0.2-0.8,0.3-1.2,0.3
		C138.1,279.8,137.4,279.5,136.9,278.9z M140.3,278.4c0.4-0.4,0.5-0.9,0.5-1.5c0-0.6-0.2-1.1-0.5-1.5c-0.4-0.4-0.8-0.6-1.3-0.6
		s-0.9,0.2-1.3,0.5c-0.4,0.4-0.5,0.8-0.5,1.5c0,0.7,0.2,1.1,0.6,1.5c0.4,0.4,0.8,0.6,1.3,0.6C139.5,279,139.9,278.8,140.3,278.4z"/>
	<path class="st4" d="M146.2,272.8h2.5c0.7,0,1.3,0.2,1.6,0.5c0.4,0.3,0.6,0.8,0.6,1.3c0,0.8-0.4,1.3-1.3,1.5
		c0.4,0.1,0.8,0.3,1.1,0.6c0.3,0.3,0.4,0.7,0.4,1.1c0,0.5-0.2,1-0.6,1.3c-0.4,0.3-1,0.5-1.6,0.5h-2.6L146.2,272.8L146.2,272.8z
		 M147.1,273.5v2.3h1.5c0.4,0,0.7-0.1,1-0.3c0.2-0.2,0.4-0.5,0.4-0.8c0-0.4-0.1-0.6-0.4-0.8c-0.2-0.2-0.6-0.3-1-0.3L147.1,273.5
		L147.1,273.5z M147.1,278.9h1.6c0.4,0,0.8-0.1,1-0.3s0.4-0.5,0.4-0.9c0-0.4-0.1-0.7-0.4-0.9c-0.3-0.2-0.6-0.3-1.1-0.3H147v2.4
		H147.1L147.1,278.9z"/>
	<path class="st4" d="M153.9,279.7l-2.2-5.4h1l1.7,4.4l1.7-4.4h0.9l-3.3,8.1h-0.9L153.9,279.7z"/>
	<path class="st4" d="M165.7,279.8l-0.5-1.5h-3.1l-0.5,1.5h-0.9l2.5-6.9h1l2.5,6.9H165.7z M162.3,277.4h2.6l-1.3-3.6L162.3,277.4z"
		/>
	<path class="st4" d="M174.9,272.8v6.9H174v-5l-2.3,5h-0.6l-2.3-5v5h-0.9v-6.9h0.9l2.6,5.7l2.6-5.7H174.9z"/>
	<path class="st4" d="M180.4,273.3c0.4,0.4,0.6,0.9,0.6,1.5c0,0.6-0.2,1.1-0.6,1.5c-0.4,0.4-1,0.6-1.8,0.6h-1.3v2.9h-0.9v-6.9h2.3
		C179.4,272.8,180,272.9,180.4,273.3z M177.3,276.2h1.3c0.5,0,0.9-0.1,1.1-0.3c0.2-0.2,0.4-0.6,0.4-1c0-0.9-0.5-1.3-1.5-1.3h-1.3
		V276.2z"/>
	<path class="st4" d="M192.9,272.8h1l-2.1,6.9h-1l-1.6-5.6l-1.7,5.6h-1l-2-6.9h1l1.5,5.9l1.7-5.9h1l1.5,5.9L192.9,272.8z"/>
	<path class="st4" d="M198.9,273.3c0.4,0.4,0.6,0.9,0.6,1.5c0,0.6-0.2,1.1-0.6,1.5c-0.4,0.4-1,0.6-1.8,0.6h-1.3v2.9h-0.9v-6.9h2.3
		C197.9,272.8,198.5,272.9,198.9,273.3z M195.8,276.2h1.3c0.5,0,0.9-0.1,1.1-0.3c0.2-0.2,0.4-0.6,0.4-1c0-0.9-0.5-1.3-1.5-1.3h-1.3
		V276.2z"/>
	<path class="st4" d="M160.2,281.3v-0.5h39.2v0.5H160.2z"/>
</g>
<g>
	<g>
		<rect x="21.4" y="22.7" class="st2" width="79.9" height="15.4"/>
	</g>
	<g>
		<rect x="21.4" y="47.3" class="st2" width="248.6" height="7.8"/>
	</g>
	<g>
		<rect x="21.4" y="59.2" class="st2" width="248.6" height="7.8"/>
	</g>
	<g>
		<rect x="21.4" y="71" class="st2" width="212.6" height="7.8"/>
	</g>
	<g>
		<rect x="21.4" y="82.8" class="st2" width="228.3" height="7.8"/>
	</g>
	<g>
		<rect x="21.4" y="94.6" class="st2" width="97.6" height="7.8"/>
	</g>
</g>
</svg>
