<?xml version="1.0" encoding="utf-8"?>
<!-- Generator: Adobe Illustrator 22.0.1, SVG Export Plug-In . SVG Version: 6.00 Build 0)  -->
<svg version="1.1" id="Layer_1" xmlns="http://www.w3.org/2000/svg" xmlns:xlink="http://www.w3.org/1999/xlink" x="0px" y="0px"
	 viewBox="0 0 300 300" style="enable-background:new 0 0 300 300;" xml:space="preserve">
<style type="text/css">
	.st0{fill:#CF4F28;}
	.st1{fill:#F89659;}
	.st2{fill:#FFB38D;}
	.st3{fill:#FFAF83;}
</style>
<rect class="st0" width="300" height="300"/>
<g>
	<g>
		<g>
			<g>
				<rect x="11.8" y="17" class="st1" width="58.9" height="58.9"/>
			</g>
		</g>
		<g>
			<g>
				<g>
					<g>
						<rect x="30.4" y="38.7" class="st1" width="27.1" height="15.5"/>
					</g>
				</g>
				<g>
					<g>
						<path class="st0" d="M57.1,39.2v14.7H30.8V39.2H57.1 M57.9,38.3H30v16.3h27.9V38.3L57.9,38.3z"/>
					</g>
				</g>
			</g>
			<g>
				<g>
					<circle class="st0" cx="33.6" cy="41.8" r="1.4"/>
				</g>
			</g>
			<g>
				<g>
					<polygon class="st0" points="57.9,54.6 57.9,48.5 50.7,41.3 39.5,52.4 41.7,54.6 					"/>
				</g>
			</g>
			<g>
				<g>
					<polygon class="st0" points="30,54.6 49.1,54.6 39.6,45.1 30,54.6 30,54.7 					"/>
				</g>
			</g>
		</g>
	</g>
	<g>
		<g>
			<g>
				<rect x="82.5" y="17" class="st1" width="58.9" height="58.9"/>
			</g>
		</g>
		<g>
			<g>
				<g>
					<g>
						<rect x="101.1" y="38.7" class="st1" width="27.1" height="15.5"/>
					</g>
				</g>
				<g>
					<g>
						<path class="st0" d="M127.8,39.2v14.7h-26.3V39.2H127.8 M128.6,38.3h-27.9v16.3h27.9V38.3L128.6,38.3z"/>
					</g>
				</g>
			</g>
			<g>
				<g>
					<circle class="st0" cx="104.3" cy="41.8" r="1.4"/>
				</g>
			</g>
			<g>
				<g>
					<polygon class="st0" points="128.6,54.6 128.6,48.5 121.4,41.3 110.2,52.4 112.4,54.6 					"/>
				</g>
			</g>
			<g>
				<g>
					<polygon class="st0" points="100.7,54.6 119.8,54.6 110.3,45.1 100.7,54.6 100.7,54.7 					"/>
				</g>
			</g>
		</g>
	</g>
	<g>
		<g>
			<g>
				<rect x="153.2" y="17" class="st1" width="58.9" height="58.9"/>
			</g>
		</g>
		<g>
			<g>
				<g>
					<g>
						<rect x="171.8" y="38.7" class="st1" width="27.1" height="15.5"/>
					</g>
				</g>
				<g>
					<g>
						<path class="st0" d="M198.5,39.2v14.7h-26.3V39.2H198.5 M199.3,38.3h-27.9v16.3h27.9V38.3L199.3,38.3z"/>
					</g>
				</g>
			</g>
			<g>
				<g>
					<circle class="st0" cx="175" cy="41.8" r="1.4"/>
				</g>
			</g>
			<g>
				<g>
					<polygon class="st0" points="199.3,54.6 199.3,48.5 192.1,41.3 180.9,52.4 183.1,54.6 					"/>
				</g>
			</g>
			<g>
				<g>
					<polygon class="st0" points="171.4,54.6 190.5,54.6 181,45.1 171.4,54.6 171.4,54.7 					"/>
				</g>
			</g>
		</g>
	</g>
	<g>
		<g>
			<g>
				<rect x="223.9" y="17" class="st1" width="58.9" height="58.9"/>
			</g>
		</g>
		<g>
			<g>
				<g>
					<g>
						<rect x="242.5" y="38.7" class="st1" width="27.1" height="15.5"/>
					</g>
				</g>
				<g>
					<g>
						<path class="st0" d="M269.2,39.2v14.7h-26.3V39.2H269.2 M270,38.3h-27.9v16.3H270V38.3L270,38.3z"/>
					</g>
				</g>
			</g>
			<g>
				<g>
					<circle class="st0" cx="245.7" cy="41.8" r="1.4"/>
				</g>
			</g>
			<g>
				<g>
					<polygon class="st0" points="270,54.6 270,48.5 262.8,41.3 251.6,52.4 253.8,54.6 					"/>
				</g>
			</g>
			<g>
				<g>
					<polygon class="st0" points="242.1,54.6 261.2,54.6 251.7,45.1 242.1,54.6 242.1,54.7 					"/>
				</g>
			</g>
		</g>
	</g>
</g>
<g>
	<g>
		<g>
			<g>
				<rect x="14.5" y="90.5" class="st1" width="58.9" height="58.9"/>
			</g>
		</g>
		<g>
			<g>
				<g>
					<g>
						<rect x="30.4" y="112.1" class="st1" width="27.1" height="15.5"/>
					</g>
				</g>
				<g>
					<g>
						<path class="st0" d="M57.1,112.6v14.7H30.8v-14.7H57.1 M57.9,111.8H30v16.3h27.9V111.8L57.9,111.8z"/>
					</g>
				</g>
			</g>
			<g>
				<g>
					<circle class="st0" cx="33.6" cy="115.2" r="1.4"/>
				</g>
			</g>
			<g>
				<g>
					<polygon class="st0" points="57.9,128 57.9,121.9 50.7,114.7 39.5,125.9 41.7,128 					"/>
				</g>
			</g>
			<g>
				<g>
					<polygon class="st0" points="30,128 49.1,128 39.6,118.5 30,128 30,128.1 					"/>
				</g>
			</g>
		</g>
	</g>
	<g>
		<g>
			<g>
				<rect x="85.2" y="90.5" class="st1" width="58.9" height="58.9"/>
			</g>
		</g>
		<g>
			<g>
				<g>
					<g>
						<rect x="101.1" y="112.1" class="st1" width="27.1" height="15.5"/>
					</g>
				</g>
				<g>
					<g>
						<path class="st0" d="M127.8,112.6v14.7h-26.3v-14.7H127.8 M128.6,111.8h-27.9v16.3h27.9V111.8L128.6,111.8z"/>
					</g>
				</g>
			</g>
			<g>
				<g>
					<circle class="st0" cx="104.3" cy="115.2" r="1.4"/>
				</g>
			</g>
			<g>
				<g>
					<polygon class="st0" points="128.6,128 128.6,121.9 121.4,114.7 110.2,125.9 112.4,128 					"/>
				</g>
			</g>
			<g>
				<g>
					<polygon class="st0" points="100.7,128 119.8,128 110.3,118.5 100.7,128 100.7,128.1 					"/>
				</g>
			</g>
		</g>
	</g>
	<g>
		<g>
			<g>
				<rect x="153.2" y="90.5" class="st1" width="58.9" height="58.9"/>
			</g>
		</g>
		<g>
			<g>
				<g>
					<g>
						<rect x="171.8" y="112.1" class="st1" width="27.1" height="15.5"/>
					</g>
				</g>
				<g>
					<g>
						<path class="st0" d="M198.5,112.6v14.7h-26.3v-14.7H198.5 M199.3,111.8h-27.9v16.3h27.9V111.8L199.3,111.8z"/>
					</g>
				</g>
			</g>
			<g>
				<g>
					<circle class="st0" cx="175" cy="115.2" r="1.4"/>
				</g>
			</g>
			<g>
				<g>
					<polygon class="st0" points="199.3,128 199.3,121.9 192.1,114.7 180.9,125.9 183.1,128 					"/>
				</g>
			</g>
			<g>
				<g>
					<polygon class="st0" points="171.4,128 190.5,128 181,118.5 171.4,128 171.4,128.1 					"/>
				</g>
			</g>
		</g>
	</g>
	<g>
		<g>
			<g>
				<rect x="223.9" y="90.5" class="st1" width="58.9" height="58.9"/>
			</g>
		</g>
		<g>
			<g>
				<g>
					<g>
						<rect x="242.5" y="112.1" class="st1" width="27.1" height="15.5"/>
					</g>
				</g>
				<g>
					<g>
						<path class="st0" d="M269.2,112.6v14.7h-26.3v-14.7H269.2 M270,111.8h-27.9v16.3H270V111.8L270,111.8z"/>
					</g>
				</g>
			</g>
			<g>
				<g>
					<circle class="st0" cx="245.7" cy="115.2" r="1.4"/>
				</g>
			</g>
			<g>
				<g>
					<polygon class="st0" points="270,128 270,121.9 262.8,114.7 251.6,125.9 253.8,128 					"/>
				</g>
			</g>
			<g>
				<g>
					<polygon class="st0" points="242.1,128 261.2,128 251.7,118.5 242.1,128 242.1,128.1 					"/>
				</g>
			</g>
		</g>
	</g>
</g>
<g>
	<g>
		<g>
			<rect x="14.5" y="163.9" class="st1" width="58.9" height="58.9"/>
		</g>
	</g>
	<g>
		<g>
			<g>
				<g>
					<rect x="30.4" y="185.6" class="st1" width="27.1" height="15.5"/>
				</g>
			</g>
			<g>
				<g>
					<path class="st0" d="M57.1,186v14.7H30.8V186H57.1 M57.9,185.2H30v16.3h27.9V185.2L57.9,185.2z"/>
				</g>
			</g>
		</g>
		<g>
			<g>
				<circle class="st0" cx="33.6" cy="188.6" r="1.4"/>
			</g>
		</g>
		<g>
			<g>
				<polygon class="st0" points="57.9,201.4 57.9,195.3 50.7,188.1 39.5,199.3 41.7,201.4 				"/>
			</g>
		</g>
		<g>
			<g>
				<polygon class="st0" points="30,201.4 49.1,201.4 39.6,191.9 30,201.4 30,201.5 				"/>
			</g>
		</g>
	</g>
</g>
<g>
	<g>
		<g>
			<rect x="85.2" y="163.9" class="st1" width="58.9" height="58.9"/>
		</g>
	</g>
	<g>
		<g>
			<g>
				<g>
					<rect x="101.1" y="185.6" class="st1" width="27.1" height="15.5"/>
				</g>
			</g>
			<g>
				<g>
					<path class="st0" d="M127.8,186v14.7h-26.3V186H127.8 M128.6,185.2h-27.9v16.3h27.9V185.2L128.6,185.2z"/>
				</g>
			</g>
		</g>
		<g>
			<g>
				<circle class="st0" cx="104.3" cy="188.6" r="1.4"/>
			</g>
		</g>
		<g>
			<g>
				<polygon class="st0" points="128.6,201.4 128.6,195.3 121.4,188.1 110.2,199.3 112.4,201.4 				"/>
			</g>
		</g>
		<g>
			<g>
				<polygon class="st0" points="100.7,201.4 119.8,201.4 110.3,191.9 100.7,201.4 100.7,201.5 				"/>
			</g>
		</g>
	</g>
</g>
<g>
	<rect x="39.3" y="58.3" class="st2" width="221.4" height="183.4"/>
	<g>
		<g>
			<g>
				<g>
					<rect x="110.1" y="127.1" class="st3" width="79.8" height="45.6"/>
				</g>
			</g>
			<g>
				<g>
					<path class="st0" d="M188.7,128.4v43.1h-77.3v-43.1H188.7 M191.2,126h-82.2v48h82.2V126L191.2,126z"/>
				</g>
			</g>
		</g>
		<g>
			<g>
				<circle class="st0" cx="119.5" cy="136" r="4.1"/>
			</g>
		</g>
		<g>
			<g>
				<g>
					<polygon class="st0" points="191.2,173.9 191.2,155.8 169.9,134.6 137,167.5 143.5,173.9 					"/>
				</g>
			</g>
		</g>
		<g>
			<g>
				<g>
					<polygon class="st0" points="108.9,173.9 165.2,173.9 137.1,145.8 108.8,173.9 108.9,174 					"/>
				</g>
			</g>
		</g>
	</g>
</g>
<g>
	<g>
		<path class="st0" d="M51.6,87.1c-0.6,0-1.3-0.2-1.8-0.7c-1-1-1-2.6,0-3.5l14-14c1-1,2.6-1,3.5,0c1,1,1,2.6,0,3.5l-14,14
			C52.9,86.9,52.3,87.1,51.6,87.1z"/>
	</g>
	<g>
		<path class="st0" d="M65.6,87.1c-0.6,0-1.3-0.2-1.8-0.7l-14-14c-1-1-1-2.6,0-3.5c1-1,2.6-1,3.5,0l14,14c1,1,1,2.6,0,3.5
			C66.9,86.9,66.2,87.1,65.6,87.1z"/>
	</g>
</g>
</svg>
