<?xml version="1.0" encoding="utf-8"?>
<!-- Generator: Adobe Illustrator 22.0.1, SVG Export Plug-In . SVG Version: 6.00 Build 0)  -->
<svg version="1.1" id="Layer_1" xmlns="http://www.w3.org/2000/svg" xmlns:xlink="http://www.w3.org/1999/xlink" x="0px" y="0px"
	 viewBox="0 0 300 300" style="enable-background:new 0 0 300 300;" xml:space="preserve">
<style type="text/css">
	.st0{fill:#416DEB;}
	.st1{fill:#223F9A;}
	.st2{fill:#FFFFFF;}
	.st3{fill:#2C56A8;}
	.st4{fill:#969696;}
</style>
<g>
	<rect y="46.1" class="st0" width="300" height="253.9"/>
</g>
<g>
	<rect class="st1" width="300" height="46.5"/>
</g>
<g>
	<g>
		<g>
			<g>
				<rect x="115.1" y="134.9" class="st0" width="69.8" height="39.9"/>
			</g>
		</g>
		<g>
			<g>
				<path class="st1" d="M183.8,136v37.7h-67.6V136H183.8 M186,133.9h-71.9v42H186V133.9L186,133.9z"/>
			</g>
		</g>
	</g>
	<g>
		<g>
			<circle class="st1" cx="123.3" cy="142.7" r="3.6"/>
		</g>
	</g>
	<g>
		<g>
			<polygon class="st1" points="186,175.8 186,160 167.4,141.4 138.6,170.2 144.3,175.8 			"/>
		</g>
	</g>
	<g>
		<g>
			<polygon class="st1" points="114.1,175.8 163.3,175.8 138.7,151.2 114,175.8 114.1,175.9 			"/>
		</g>
	</g>
</g>
<g>
	<rect x="12" y="228.3" class="st1" width="151.1" height="5.1"/>
</g>
<g>
	<rect x="12" y="241.2" class="st1" width="276.3" height="10"/>
</g>
<g>
	<rect x="12" y="255.7" class="st1" width="159.6" height="10"/>
</g>
<g>
	<g>
		<rect x="271.5" y="16.4" class="st2" width="16.3" height="2.4"/>
	</g>
	<g>
		<rect x="271.5" y="22" class="st2" width="16.3" height="2.4"/>
	</g>
	<g>
		<rect x="271.5" y="27.6" class="st2" width="16.3" height="2.4"/>
	</g>
</g>
<path class="st2" d="M248.2,27.4L248.2,27.4c-0.5-0.5-1-1-1.6-1.6l-0.3-0.3l0.3-0.4c0.6-0.9,0.9-1.9,0.9-3.1c0-0.4,0-0.7-0.1-1.1
	c-0.3-1.5-1.2-2.8-2.4-3.7c-1.2-0.9-2.8-1.2-4.3-1c-1.3,0.2-2.5,0.9-3.4,1.9s-1.4,2.3-1.5,3.6c-0.1,1.7,0.5,3.2,1.6,4.4
	c1.1,1.2,2.6,1.8,4.2,1.8c1.1,0,2.2-0.3,3.1-0.9l0.4-0.3l0.3,0.3c0.9,0.9,1.4,1.4,2.3,2.3l0.4,0.4l0.1,0.1c0.1,0.2,0.3,0.3,0.5,0.4
	c0.2,0.2,0.5,0.2,0.7,0.2c0.3-0.1,0.5-0.3,0.6-0.5c0.1-0.3,0.2-0.6-0.3-1C249.1,28.3,248.6,27.8,248.2,27.4z M241.5,26.4
	c-2.4,0-4.4-2-4.4-4.4s2-4.4,4.4-4.4s4.4,2,4.4,4.4S243.9,26.4,241.5,26.4z"/>
<g>
	<g>
		<path class="st1" d="M20.4,203.9h40.8c4.7,0,8.4,3.8,8.4,8.4l0,0c0,4.7-3.8,8.4-8.4,8.4H20.4c-4.7,0-8.4-3.8-8.4-8.4l0,0
			C11.9,207.6,15.7,203.9,20.4,203.9z"/>
	</g>
</g>
<g>
	<g>
		<path class="st1" d="M86.9,203.9h40.8c4.7,0,8.4,3.8,8.4,8.4l0,0c0,4.7-3.8,8.4-8.4,8.4H86.9c-4.7,0-8.4-3.8-8.4-8.4l0,0
			C78.5,207.6,82.3,203.9,86.9,203.9z"/>
	</g>
</g>
<g>
	<g>
		<g>
			<path class="st2" d="M47.5,17.1h1.4l5.3,12.3h-1.3l-1.8-4.1h-5.7l-1.8,4.1h-1.3L47.5,17.1z M48.2,18.5l-2.4,5.6h4.8L48.2,18.5z"
				/>
		</g>
		<g>
			<path class="st2" d="M55.6,29.4V17.1h1.9L62,27.6l4.5-10.5h1.9v12.3h-1.2V18.5l-4.6,10.9h-1.1l-4.6-10.9v10.9H55.6z"/>
		</g>
		<g>
			<path class="st2" d="M70.9,29.4V17.1h3.2c1.5,0,2.7,0.2,3.5,0.7c1,0.6,1.4,1.5,1.4,2.8v0.3c0,1-0.4,1.9-1.2,2.5
				c-0.8,0.7-1.8,1-3.1,1H72v5H70.9z M72.1,18.2v5.1h2.5c1.1,0,1.9-0.3,2.4-0.8s0.7-1.1,0.7-2s-0.3-1.5-1-1.9
				c-0.6-0.3-1.4-0.5-2.5-0.5L72.1,18.2L72.1,18.2z"/>
		</g>
		<g>
			<path class="st2" d="M81.2,17.1h2.3l2.2,8.6l2.1-8.6h1.7l2,8.7l2.1-8.7h2.3l-3.5,12.3h-1.8l-2-8.2l-2,8.2h-1.8L81.2,17.1z"/>
		</g>
		<g>
			<path class="st2" d="M97.1,29.4V17.1h3.4c1.6,0,2.8,0.4,3.6,1.3c0.6,0.7,0.9,1.6,0.9,2.6c0,1.1-0.4,2-1.1,2.7s-1.7,1-3,1h-1.5
				v4.7C99.4,29.4,97.1,29.4,97.1,29.4z M99.4,22.5h1.2c0.6,0,1.1-0.1,1.5-0.4c0.5-0.3,0.7-0.7,0.7-1.2c0-0.6-0.2-1-0.7-1.3
				c-0.3-0.2-0.8-0.3-1.4-0.3h-1.2L99.4,22.5C99.5,22.5,99.4,22.5,99.4,22.5z"/>
		</g>
	</g>
	<g>
		<path class="st2" d="M21.2,32.4L21.2,32.4L21.2,32.4l-0.7,2.1c-0.1,0.3,0.2,0.4,0.4,0.2l0.9-1.1l0,0l0.3-0.4L21.2,32.4L21.2,32.4z
			"/>
		<g>
			<path class="st2" d="M19.8,33.6c-0.1,0-0.2,0-0.2-0.1L13,26.9c-0.7-0.7-1-1.6-1-2.5s0.4-1.8,1-2.5l9.1-9.1c1.4-1.4,3.6-1.4,5,0
				l0.4,0.4c0.1,0.1,0.1,0.3,0,0.5c-0.1,0.1-0.3,0.1-0.5,0l-0.4-0.4c-1.1-1.1-3-1.1-4.1,0l-9.1,9.1c-0.5,0.5-0.8,1.3-0.8,2
				c0,0.8,0.3,1.5,0.8,2l6.5,6.5c0.1,0.1,0.1,0.3,0,0.5C20,33.5,19.9,33.6,19.8,33.6z"/>
		</g>
		<g>
			<path class="st2" d="M24.6,37c-0.9,0-1.8-0.3-2.5-1l-0.4-0.4c-0.1-0.1-0.1-0.3,0-0.5c0.1-0.1,0.3-0.1,0.5,0l0.4,0.4
				c1.1,1.1,3,1.1,4.1,0l9.1-9.1c0.5-0.5,0.8-1.3,0.8-2c0-0.8-0.3-1.5-0.8-2l-6.6-6.6c-0.1-0.1-0.1-0.3,0-0.5c0.1-0.1,0.3-0.1,0.5,0
				l6.6,6.6c0.7,0.7,1,1.6,1,2.5s-0.4,1.8-1,2.5L27.2,36C26.5,36.7,25.6,37,24.6,37z"/>
		</g>
		<path class="st2" d="M34.9,25.6l-9.1,9.1c-0.6,0.6-1.7,0.6-2.3,0l-1.3-1.3l0,0l1.1-1.3l0.1-0.1l0,0l2.1-2.6c1.5-1.8,3-3.6,4.5-5.4
			c0.4-0.5,0.2-1-0.4-1.1c-0.2,0-0.4-0.1-0.6-0.1c-0.8-0.1-1.6-0.2-2.5-0.4c-0.1,0-0.2-0.1-0.2-0.3c0.6-1.9,1.2-3.7,1.9-5.6
			l-0.9-0.9L27,15.7c-0.2,0.2-0.4,0.4-0.4,0.5l-0.2,0.2L26,16.9l0,0l-4.3,5.2l0,0c-0.1,0.2-0.3,0.3-0.4,0.5
			c-0.6,0.7-1.3,1.5-1.9,2.3c-0.4,0.5-0.2,1,0.4,1.1c0.1,0,0.2,0,0.3,0c0.9,0.1,1.7,0.3,2.6,0.4c0.2,0,0.4,0.1,0.3,0.4
			c0,0.1-0.1,0.3-0.1,0.4l-1.7,5.1l-0.1-0.1l0,0l-6.7-6.7c-0.6-0.6-0.6-1.7,0-2.3l9.1-9.1c0.6-0.6,1.7-0.6,2.3,0l1.4,1.4l0.3-0.4
			l0,0l0.9-1.1c0.2-0.2,0.5,0,0.4,0.2l-0.7,2v0.1l0,0c0,0,0,0,0,0.1l6.8,6.8C35.5,23.9,35.5,24.9,34.9,25.6z"/>
	</g>
</g>
<g>
	<rect x="147" class="st3" width="153" height="115.8"/>
</g>
<g>
	<rect x="147" y="115.8" class="st2" width="153" height="184.2"/>
</g>
<g>
	<g>
		<rect x="147" y="232.9" class="st4" width="153" height="0.6"/>
	</g>
</g>
<g>
	<circle class="st0" cx="265.1" cy="278.8" r="11.4"/>
</g>
<g>
	<circle class="st0" cx="235.9" cy="278.8" r="11.4"/>
</g>
<g>
	<circle class="st0" cx="206.8" cy="278.8" r="11.4"/>
</g>
<g>
	<circle class="st0" cx="177.6" cy="278.8" r="11.4"/>
</g>
<g>
	<g>
		<path class="st2" d="M189.5,60h1.8l6.9,16h-1.7l-2.3-5.3h-7.4l-2.3,5.3h-1.7L189.5,60z M190.4,61.8l-3.1,7.3h6.2L190.4,61.8z"/>
	</g>
	<g>
		<path class="st2" d="M200,76V60h2.5l5.9,13.7l5.9-13.7h2.5v16h-1.6V61.8l-6,14.2h-1.4l-6-14.2V76H200z"/>
	</g>
	<g>
		<path class="st2" d="M219.9,76V60h4.2c2,0,3.5,0.3,4.6,0.9c1.3,0.8,1.8,2,1.8,3.6v0.4c0,1.3-0.5,2.5-1.6,3.3c-1,0.9-2.3,1.3-4,1.3
			h-3.5V76H219.9z M221.5,61.4V68h3.3c1.4,0,2.5-0.4,3.1-1c0.7-0.7,0.9-1.4,0.9-2.6s-0.4-2-1.3-2.5c-0.8-0.4-1.8-0.7-3.3-0.7
			L221.5,61.4L221.5,61.4z"/>
	</g>
	<g>
		<path class="st2" d="M233.3,60h3l2.9,11.2l2.7-11.2h2.2l2.6,11.3l2.7-11.3h3l-4.6,16h-2.3L243,65.3L240.4,76H238L233.3,60z"/>
	</g>
	<g>
		<path class="st2" d="M254,76V60h4.4c2.1,0,3.6,0.5,4.7,1.7c0.8,0.9,1.2,2.1,1.2,3.4c0,1.4-0.5,2.6-1.4,3.5s-2.2,1.3-3.9,1.3h-2V76
			C257,76,254,76,254,76z M257,67h1.6c0.8,0,1.4-0.1,2-0.5c0.7-0.4,0.9-0.9,0.9-1.6c0-0.8-0.3-1.3-0.9-1.7c-0.4-0.3-1-0.4-1.8-0.4
			h-1.6L257,67C257.2,67,257,67,257,67z"/>
	</g>
</g>
<g>
	<path class="st2" d="M219.2,46.7L219.2,46.7L219.2,46.7l-0.9,2.6c-0.1,0.4,0.3,0.5,0.5,0.3l1.1-1.4l0,0l0.4-0.5L219.2,46.7
		L219.2,46.7z"/>
	<g>
		<path class="st2" d="M217.4,48.3c-0.1,0-0.3,0-0.3-0.1l-8.3-8.3c-0.9-0.9-1.3-2-1.3-3.1s0.5-2.3,1.3-3.1l11.4-11.4
			c1.8-1.8,4.5-1.8,6.3,0l0.5,0.5c0.1,0.1,0.1,0.4,0,0.6c-0.1,0.1-0.4,0.1-0.6,0l-0.5-0.5c-1.4-1.4-3.8-1.4-5.1,0l-11.4,11.4
			c-0.6,0.6-1,1.6-1,2.5c0,1,0.4,1.9,1,2.5l8.1,8.1c0.1,0.1,0.1,0.4,0,0.6C217.7,48.1,217.6,48.3,217.4,48.3z"/>
	</g>
	<g>
		<path class="st2" d="M223.4,52.5c-1.1,0-2.3-0.4-3.1-1.3l-0.5-0.5c-0.1-0.1-0.1-0.4,0-0.6c0.1-0.1,0.4-0.1,0.6,0l0.5,0.5
			c1.4,1.4,3.8,1.4,5.1,0l11.4-11.4c0.6-0.6,1-1.6,1-2.5c0-1-0.4-1.9-1-2.5l-8.3-8.3c-0.1-0.1-0.1-0.4,0-0.6c0.1-0.1,0.4-0.1,0.6,0
			l8.3,8.3c0.9,0.9,1.3,2,1.3,3.1s-0.5,2.3-1.3,3.1l-11.4,11.4C225.8,52.1,224.7,52.5,223.4,52.5z"/>
	</g>
	<path class="st2" d="M236.3,38.2l-11.4,11.4c-0.8,0.8-2.1,0.8-2.9,0l-1.6-1.6l0,0l1.4-1.6l0.1-0.1l0,0l2.6-3.3
		c1.9-2.3,3.8-4.5,5.6-6.8c0.5-0.6,0.3-1.3-0.5-1.4c-0.3,0-0.5-0.1-0.8-0.1c-1-0.1-2-0.3-3.1-0.5c-0.1,0-0.3-0.1-0.3-0.4
		c0.8-2.4,1.5-4.6,2.4-7l-1.1-1.1l-0.4,0.1c-0.3,0.3-0.5,0.5-0.5,0.6l-0.3,0.3l-0.5,0.6l0,0l-5.4,6.5l0,0c-0.1,0.3-0.4,0.4-0.5,0.6
		c-0.8,0.9-1.6,1.9-2.4,2.9c-0.5,0.6-0.3,1.3,0.5,1.4c0.1,0,0.3,0,0.4,0c1.1,0.1,2.1,0.4,3.3,0.5c0.3,0,0.5,0.1,0.4,0.5
		c0,0.1-0.1,0.4-0.1,0.5l-2.1,6.4l-0.1-0.1l0,0l-8.4-8.4c-0.8-0.8-0.8-2.1,0-2.9L222,23.8c0.8-0.8,2.1-0.8,2.9,0l1.8,1.8l0.4-0.5
		l0,0l1.1-1.4c0.3-0.3,0.6,0,0.5,0.3l-0.9,2.5v0.1l0,0c0,0,0,0,0,0.1l8.5,8.5C237.1,36.1,237.1,37.4,236.3,38.2z"/>
</g>
<g>
	<path class="st2" d="M175.7,89.1v8.3h-1.1v-6.1l-2.8,6.1h-0.7l-2.8-6.1v6.1h-1.1v-8.3h1.1l3.1,6.8l3.1-6.8H175.7z"/>
	<path class="st2" d="M178,96.5c-0.6-0.6-0.9-1.5-0.9-2.5s0.3-1.8,0.9-2.4c0.6-0.6,1.3-0.9,2.3-0.9c0.6,0,1,0.1,1.5,0.4
		c0.4,0.3,0.7,0.6,1,1v-1.3h1.1v6.6h-1.1v-1.3c-0.2,0.4-0.5,0.8-1,1.1s-0.9,0.4-1.5,0.4C179.4,97.5,178.6,97.2,178,96.5z M182,95.9
		c0.4-0.4,0.7-1,0.7-1.8s-0.2-1.3-0.7-1.8c-0.4-0.4-1-0.7-1.6-0.7s-1.1,0.2-1.6,0.6c-0.4,0.4-0.7,1-0.7,1.8s0.2,1.3,0.7,1.8
		c0.4,0.5,1,0.7,1.6,0.7C181.1,96.6,181.6,96.3,182,95.9z"/>
	<path class="st2" d="M186.7,97.4h-1.1v-8.9h1.1v5.2l2.5-2.9h1.5l-3.1,3.3l3.1,3.3h-1.5l-2.6-2.9v2.9H186.7z"/>
	<path class="st2" d="M194.5,97.5c-0.9,0-1.7-0.3-2.3-0.9s-0.9-1.4-0.9-2.5s0.3-1.8,0.9-2.5c0.6-0.6,1.4-0.9,2.3-0.9
		s1.7,0.3,2.3,0.9s0.9,1.3,0.9,2.3c0,0.2,0,0.4,0,0.6h-5.2c0,0.7,0.2,1.2,0.6,1.6s0.9,0.6,1.5,0.6c0.4,0,0.8-0.1,1.1-0.3
		c0.3-0.2,0.5-0.5,0.7-0.8h1.2c-0.2,0.6-0.6,1.1-1.1,1.4C195.9,97.3,195.3,97.5,194.5,97.5z M196,92.2c-0.4-0.4-0.9-0.6-1.5-0.6
		s-1.1,0.2-1.4,0.6c-0.4,0.4-0.6,0.9-0.6,1.5h4.1C196.6,93.1,196.4,92.6,196,92.2z"/>
	<path class="st2" d="M211.2,89.1v8.3h-1.1v-6.1l-2.8,6.1h-0.7l-2.8-6.1v6.1h-1.1v-8.3h1.1l3.1,6.8l3.1-6.8H211.2z"/>
	<path class="st2" d="M213.4,96.6c-0.6-0.6-0.9-1.4-0.9-2.5c0-1,0.3-1.8,0.9-2.5s1.4-0.9,2.4-0.9s1.7,0.3,2.4,0.9s0.9,1.4,0.9,2.5
		s-0.3,1.8-1,2.5s-1.5,0.9-2.4,0.9S214,97.2,213.4,96.6z M215.8,96.6c0.6,0,1.2-0.2,1.6-0.7c0.5-0.4,0.7-1.1,0.7-1.8
		c0-0.8-0.2-1.4-0.6-1.8c-0.4-0.4-1-0.7-1.6-0.7s-1.1,0.2-1.6,0.7c-0.4,0.4-0.6,1.1-0.6,1.8s0.2,1.4,0.6,1.8
		C214.6,96.4,215.1,96.6,215.8,96.6z"/>
	<path class="st2" d="M224.1,90.7c0.9,0,1.7,0.3,2.3,0.9s0.9,1.4,0.9,2.4s-0.3,1.8-0.9,2.5c-0.6,0.6-1.3,1-2.2,1
		c-0.6,0-1-0.1-1.5-0.4s-0.7-0.6-1-1.1v1.3h-1.1v-8.9h1.1V92c0.2-0.4,0.5-0.8,1-1C223,90.8,223.5,90.7,224.1,90.7z M223.9,96.6
		c0.6,0,1.1-0.2,1.6-0.7c0.4-0.5,0.7-1.1,0.7-1.8s-0.2-1.3-0.7-1.8c-0.4-0.4-1-0.6-1.6-0.6s-1.1,0.2-1.6,0.7c-0.4,0.4-0.7,1-0.7,1.8
		c0,0.7,0.2,1.3,0.7,1.8C222.7,96.3,223.2,96.6,223.9,96.6z"/>
	<path class="st2" d="M229.7,89.5c-0.1,0.1-0.3,0.2-0.5,0.2s-0.4-0.1-0.5-0.2s-0.2-0.3-0.2-0.5s0.1-0.4,0.2-0.5
		c0.1-0.1,0.3-0.2,0.5-0.2s0.4,0.1,0.5,0.2s0.2,0.3,0.2,0.5S229.8,89.4,229.7,89.5z M228.6,97.4v-6.6h1.1v6.6H228.6z"/>
	<path class="st2" d="M231.5,97.4v-8.9h1.1v8.9H231.5z"/>
	<path class="st2" d="M237.1,97.5c-0.9,0-1.7-0.3-2.3-0.9s-0.9-1.4-0.9-2.5s0.3-1.8,0.9-2.5c0.6-0.6,1.4-0.9,2.3-0.9
		s1.7,0.3,2.3,0.9s0.9,1.3,0.9,2.3c0,0.2,0,0.4,0,0.6H235c0,0.7,0.2,1.2,0.6,1.6s0.9,0.6,1.5,0.6c0.4,0,0.8-0.1,1.1-0.3
		c0.3-0.2,0.5-0.5,0.7-0.8h1.2c-0.2,0.6-0.6,1.1-1.1,1.4C238.5,97.3,237.9,97.5,237.1,97.5z M238.6,92.2c-0.4-0.4-0.9-0.6-1.5-0.6
		s-1.1,0.2-1.4,0.6c-0.4,0.4-0.6,0.9-0.6,1.5h4.1C239.2,93.1,239,92.6,238.6,92.2z"/>
	<path class="st2" d="M245.3,97.4v-8.3h4.7V90h-3.6v2.8h2.8v0.9h-2.8v3.8h-1.1L245.3,97.4L245.3,97.4z"/>
	<path class="st2" d="M251.6,96.5c-0.6-0.6-0.9-1.5-0.9-2.5s0.3-1.8,0.9-2.4c0.6-0.6,1.3-0.9,2.3-0.9c0.6,0,1,0.1,1.5,0.4
		c0.4,0.3,0.7,0.6,1,1v-1.3h1.1v6.6h-1.1v-1.3c-0.2,0.4-0.5,0.8-1,1.1s-0.9,0.4-1.5,0.4C253,97.5,252.2,97.2,251.6,96.5z
		 M255.7,95.9c0.4-0.4,0.7-1,0.7-1.8s-0.2-1.3-0.7-1.8c-0.4-0.4-1-0.7-1.6-0.7s-1.1,0.2-1.6,0.6c-0.4,0.4-0.7,1-0.7,1.8
		s0.2,1.3,0.7,1.8c0.4,0.5,1,0.7,1.6,0.7C254.7,96.6,255.2,96.3,255.7,95.9z"/>
	<path class="st2" d="M259,92.7c0-0.6,0.2-1,0.7-1.4s1.1-0.6,1.8-0.6c0.7,0,1.3,0.2,1.7,0.6c0.4,0.4,0.6,0.9,0.7,1.5h-1.1
		c0-0.4-0.1-0.7-0.4-0.9c-0.2-0.2-0.6-0.3-1-0.3s-0.7,0.1-1,0.3c-0.2,0.2-0.4,0.4-0.4,0.8c0,0.3,0.1,0.5,0.4,0.7s0.6,0.3,1,0.4
		s0.8,0.2,1.1,0.3s0.7,0.3,1,0.6c0.3,0.3,0.4,0.7,0.4,1.2s-0.2,0.9-0.7,1.3s-1.1,0.5-1.8,0.5c-0.7,0-1.3-0.2-1.8-0.6
		c-0.4-0.4-0.7-0.9-0.7-1.5h1.1c0,0.4,0.1,0.7,0.4,0.9s0.6,0.3,1,0.3s0.8-0.1,1-0.3c0.2-0.2,0.4-0.4,0.4-0.7s-0.1-0.5-0.3-0.7
		c-0.2-0.2-0.4-0.3-0.7-0.3s-0.6-0.1-0.9-0.2s-0.7-0.2-0.9-0.3s-0.5-0.3-0.7-0.5C259.1,93.4,259,93,259,92.7z"/>
	<path class="st2" d="M267.7,96.5h0.9v0.9h-1.1c-1.1,0-1.7-0.6-1.7-1.7v-4h-0.9v-0.9h0.9v-1.6h1.1v1.6h1.7v0.9h-1.7v4
		c0,0.3,0.1,0.5,0.2,0.6C267.2,96.5,267.4,96.5,267.7,96.5z"/>
	<path class="st2" d="M272.5,97.5c-0.9,0-1.7-0.3-2.3-0.9c-0.6-0.6-0.9-1.4-0.9-2.5s0.3-1.8,0.9-2.5c0.6-0.6,1.4-0.9,2.3-0.9
		s1.7,0.3,2.3,0.9s0.9,1.3,0.9,2.3c0,0.2,0,0.4,0,0.6h-5.2c0,0.7,0.2,1.2,0.6,1.6s0.9,0.6,1.5,0.6c0.4,0,0.8-0.1,1.1-0.3
		c0.3-0.2,0.5-0.5,0.7-0.8h1.2c-0.2,0.6-0.6,1.1-1.1,1.4C274,97.3,273.3,97.5,272.5,97.5z M274,92.2c-0.4-0.4-0.9-0.6-1.5-0.6
		s-1.1,0.2-1.4,0.6c-0.4,0.4-0.6,0.9-0.6,1.5h4.1C274.6,93.1,274.4,92.6,274,92.2z"/>
	<path class="st2" d="M278.2,90.8v1.1c0.4-0.8,1.1-1.2,2-1.2v1.1h-0.3c-0.6,0-1,0.1-1.3,0.4s-0.4,0.8-0.4,1.5v3.6h-1.1v-6.6
		L278.2,90.8L278.2,90.8z"/>
</g>
<g>
	<path class="st2" d="M163.5,14.4l2.3,2.3c0.1,0.1,0.2,0.3,0.2,0.5s-0.1,0.4-0.2,0.5l-0.5,0.5c-0.2,0.1-0.3,0.2-0.5,0.2
		s-0.4-0.1-0.5-0.2L162,16l-2.3,2.3c-0.1,0.1-0.3,0.2-0.5,0.2s-0.4-0.1-0.5-0.2l-0.5-0.5c-0.1-0.2-0.2-0.3-0.2-0.5s0.1-0.4,0.2-0.5
		l2.3-2.3L158,12c-0.1-0.1-0.2-0.3-0.2-0.5s0.1-0.4,0.2-0.5l0.5-0.5c0.2-0.1,0.3-0.2,0.5-0.2s0.4,0.1,0.5,0.2l2.3,2.3l2.3-2.3
		c0.1-0.1,0.3-0.2,0.5-0.2s0.4,0.1,0.5,0.2l0.5,0.5c0.1,0.2,0.2,0.3,0.2,0.5s-0.1,0.4-0.2,0.5L163.5,14.4z"/>
</g>
<g>
	<path class="st4" d="M175.7,139.1v8.3h-1.1v-6.1l-2.8,6.1h-0.7l-2.8-6.1v6.1h-1.1v-8.3h1.1l3.1,6.8l3.1-6.8H175.7z"/>
	<path class="st4" d="M180.3,147.5c-0.9,0-1.7-0.3-2.3-0.9c-0.6-0.6-0.9-1.4-0.9-2.5s0.3-1.8,0.9-2.5c0.6-0.6,1.4-0.9,2.3-0.9
		s1.7,0.3,2.3,0.9s0.9,1.3,0.9,2.3c0,0.2,0,0.4,0,0.6h-5.2c0,0.7,0.2,1.2,0.6,1.6s0.9,0.6,1.5,0.6c0.4,0,0.8-0.1,1.1-0.3
		s0.5-0.5,0.7-0.8h1.2c-0.2,0.6-0.6,1.1-1.1,1.4C181.7,147.3,181.1,147.5,180.3,147.5z M181.8,142.2c-0.4-0.4-0.9-0.6-1.5-0.6
		s-1.1,0.2-1.4,0.6c-0.4,0.4-0.6,0.9-0.6,1.5h4.1C182.4,143.1,182.2,142.6,181.8,142.2z"/>
	<path class="st4" d="M186,140.8v1.1c0.4-0.8,1.2-1.2,2.1-1.2c0.7,0,1.3,0.2,1.8,0.7s0.7,1.2,0.7,2.1v3.9h-1.1v-3.7
		c0-0.7-0.2-1.2-0.5-1.5s-0.8-0.5-1.3-0.5c-0.6,0-1,0.2-1.3,0.5s-0.5,0.8-0.5,1.5v3.7h-1.1v-6.6H186z"/>
	<path class="st4" d="M197.1,140.8h1.1v6.6h-1.1v-1.1c-0.4,0.8-1.2,1.2-2.1,1.2c-0.7,0-1.3-0.2-1.8-0.7s-0.7-1.2-0.7-2.1v-3.9h1.1
		v3.7c0,0.7,0.2,1.2,0.5,1.5s0.8,0.5,1.3,0.5c0.6,0,1-0.2,1.3-0.5s0.5-0.8,0.5-1.5v-3.7H197.1z"/>
	<path class="st4" d="M203.5,147.4v-8.3h1.1v8.3H203.5z"/>
	<path class="st4" d="M208.6,146.5h0.9v0.9h-1.1c-1.1,0-1.7-0.6-1.7-1.7v-4h-0.9v-0.9h0.9v-1.6h1.1v1.6h1.7v0.9h-1.7v4
		c0,0.3,0.1,0.5,0.2,0.6C208.1,146.5,208.3,146.5,208.6,146.5z"/>
	<path class="st4" d="M213.5,147.5c-0.9,0-1.7-0.3-2.3-0.9c-0.6-0.6-0.9-1.4-0.9-2.5s0.3-1.8,0.9-2.5c0.6-0.6,1.4-0.9,2.3-0.9
		s1.7,0.3,2.3,0.9s0.9,1.3,0.9,2.3c0,0.2,0,0.4,0,0.6h-5.2c0,0.7,0.2,1.2,0.6,1.6s0.9,0.6,1.5,0.6c0.4,0,0.8-0.1,1.1-0.3
		s0.5-0.5,0.7-0.8h1.2c-0.2,0.6-0.6,1.1-1.1,1.4C214.9,147.3,214.2,147.5,213.5,147.5z M214.9,142.2c-0.4-0.4-0.9-0.6-1.5-0.6
		s-1.1,0.2-1.4,0.6c-0.4,0.4-0.6,0.9-0.6,1.5h4.1C215.5,143.1,215.3,142.6,214.9,142.2z"/>
	<path class="st4" d="M219.1,140.8v1.1c0.4-0.8,1.2-1.2,2.1-1.2c0.5,0,1,0.1,1.4,0.4c0.4,0.2,0.7,0.6,0.9,1.1c0.2-0.4,0.6-0.8,1-1
		s0.9-0.4,1.4-0.4c0.7,0,1.4,0.2,1.8,0.7c0.5,0.5,0.7,1.2,0.7,2.1v3.9h-1.1v-3.7c0-0.7-0.2-1.2-0.5-1.5s-0.8-0.5-1.3-0.5
		c-0.6,0-1,0.2-1.3,0.5s-0.5,0.8-0.5,1.5v3.7h-1.1v-3.7c0-0.7-0.2-1.2-0.5-1.5s-0.8-0.5-1.3-0.5c-0.6,0-1,0.2-1.3,0.5
		s-0.5,0.8-0.5,1.5v3.7h-1v-6.6h1.1L219.1,140.8L219.1,140.8z"/>
	<path class="st4" d="M234.6,147.4v-7.5h-1v-1h2.1v8.5H234.6z"/>
</g>
<g>
	<path class="st4" d="M175.7,171.4v8.3h-1.1v-6.1l-2.8,6.1h-0.7l-2.8-6.1v6.1h-1.1v-8.3h1.1l3.1,6.8l3.1-6.8H175.7z"/>
	<path class="st4" d="M180.3,179.8c-0.9,0-1.7-0.3-2.3-0.9c-0.6-0.6-0.9-1.4-0.9-2.5s0.3-1.8,0.9-2.5c0.6-0.6,1.4-0.9,2.3-0.9
		s1.7,0.3,2.3,0.9s0.9,1.3,0.9,2.3c0,0.2,0,0.4,0,0.6h-5.2c0,0.7,0.2,1.2,0.6,1.6s0.9,0.6,1.5,0.6c0.4,0,0.8-0.1,1.1-0.3
		s0.5-0.5,0.7-0.8h1.2c-0.2,0.6-0.6,1.1-1.1,1.4C181.7,179.6,181.1,179.8,180.3,179.8z M181.8,174.5c-0.4-0.4-0.9-0.6-1.5-0.6
		s-1.1,0.2-1.4,0.6c-0.4,0.4-0.6,0.9-0.6,1.5h4.1C182.4,175.4,182.2,174.9,181.8,174.5z"/>
	<path class="st4" d="M186,173.1v1.1c0.4-0.8,1.2-1.2,2.1-1.2c0.7,0,1.3,0.2,1.8,0.7s0.7,1.2,0.7,2.1v3.9h-1.1V176
		c0-0.7-0.2-1.2-0.5-1.5s-0.8-0.5-1.3-0.5c-0.6,0-1,0.2-1.3,0.5s-0.5,0.8-0.5,1.5v3.7h-1.1v-6.6L186,173.1L186,173.1z"/>
	<path class="st4" d="M197.1,173.1h1.1v6.6h-1.1v-1.1c-0.4,0.8-1.2,1.2-2.1,1.2c-0.7,0-1.3-0.2-1.8-0.7s-0.7-1.2-0.7-2.1v-3.9h1.1
		v3.7c0,0.7,0.2,1.2,0.5,1.5s0.8,0.5,1.3,0.5c0.6,0,1-0.2,1.3-0.5s0.5-0.8,0.5-1.5v-3.7H197.1z"/>
	<path class="st4" d="M203.5,179.7v-8.3h1.1v8.3H203.5z"/>
	<path class="st4" d="M208.6,178.8h0.9v0.9h-1.1c-1.1,0-1.7-0.6-1.7-1.7v-4h-0.9v-0.9h0.9v-1.6h1.1v1.6h1.7v0.9h-1.7v4
		c0,0.3,0.1,0.5,0.2,0.6C208.1,178.8,208.3,178.8,208.6,178.8z"/>
	<path class="st4" d="M213.5,179.8c-0.9,0-1.7-0.3-2.3-0.9c-0.6-0.6-0.9-1.4-0.9-2.5s0.3-1.8,0.9-2.5c0.6-0.6,1.4-0.9,2.3-0.9
		s1.7,0.3,2.3,0.9s0.9,1.3,0.9,2.3c0,0.2,0,0.4,0,0.6h-5.2c0,0.7,0.2,1.2,0.6,1.6s0.9,0.6,1.5,0.6c0.4,0,0.8-0.1,1.1-0.3
		s0.5-0.5,0.7-0.8h1.2c-0.2,0.6-0.6,1.1-1.1,1.4C214.9,179.6,214.2,179.8,213.5,179.8z M214.9,174.5c-0.4-0.4-0.9-0.6-1.5-0.6
		s-1.1,0.2-1.4,0.6c-0.4,0.4-0.6,0.9-0.6,1.5h4.1C215.5,175.4,215.3,174.9,214.9,174.5z"/>
	<path class="st4" d="M219.1,173.1v1.1c0.4-0.8,1.2-1.2,2.1-1.2c0.5,0,1,0.1,1.4,0.4c0.4,0.2,0.7,0.6,0.9,1.1c0.2-0.4,0.6-0.8,1-1
		s0.9-0.4,1.4-0.4c0.7,0,1.4,0.2,1.8,0.7c0.5,0.5,0.7,1.2,0.7,2.1v3.9h-1.1V176c0-0.7-0.2-1.2-0.5-1.5s-0.8-0.5-1.3-0.5
		c-0.6,0-1,0.2-1.3,0.5s-0.5,0.8-0.5,1.5v3.7h-1.1V176c0-0.7-0.2-1.2-0.5-1.5s-0.8-0.5-1.3-0.5c-0.6,0-1,0.2-1.3,0.5
		s-0.5,0.8-0.5,1.5v3.7h-1v-6.6L219.1,173.1L219.1,173.1z"/>
	<path class="st4" d="M233.6,179.6v-0.8c0.2-0.2,0.5-0.4,0.9-0.8c0.4-0.4,0.7-0.6,0.9-0.8s0.5-0.4,0.8-0.7s0.6-0.6,0.8-0.8
		s0.3-0.4,0.5-0.7c0.3-0.5,0.5-1,0.5-1.5s-0.1-0.9-0.4-1.2c-0.3-0.3-0.7-0.5-1.2-0.5c-0.6,0-1,0.2-1.3,0.5s-0.5,0.8-0.5,1.4h-1
		c0-0.9,0.3-1.6,0.8-2.1s1.2-0.7,2-0.7s1.5,0.2,2,0.7s0.7,1.1,0.7,1.9c0,1-0.5,1.9-1.4,2.9c-0.3,0.4-0.6,0.6-0.8,0.8
		c-0.5,0.5-1.1,1-1.6,1.5h4.1v0.9L233.6,179.6L233.6,179.6z"/>
</g>
<g>
	<path class="st4" d="M175.7,204v8.3h-1.1v-6.1l-2.8,6.1h-0.7l-2.8-6.1v6.1h-1.1V204h1.1l3.1,6.8l3.1-6.8H175.7z"/>
	<path class="st4" d="M180.3,212.4c-0.9,0-1.7-0.3-2.3-0.9c-0.6-0.6-0.9-1.4-0.9-2.5s0.3-1.8,0.9-2.5c0.6-0.6,1.4-0.9,2.3-0.9
		s1.7,0.3,2.3,0.9s0.9,1.3,0.9,2.3c0,0.2,0,0.4,0,0.6h-5.2c0,0.7,0.2,1.2,0.6,1.6s0.9,0.6,1.5,0.6c0.4,0,0.8-0.1,1.1-0.3
		s0.5-0.5,0.7-0.8h1.2c-0.2,0.6-0.6,1.1-1.1,1.4C181.7,212.2,181.1,212.4,180.3,212.4z M181.8,207.1c-0.4-0.4-0.9-0.6-1.5-0.6
		s-1.1,0.2-1.4,0.6c-0.4,0.4-0.6,0.9-0.6,1.5h4.1C182.4,208,182.2,207.5,181.8,207.1z"/>
	<path class="st4" d="M186,205.7v1.1c0.4-0.8,1.2-1.2,2.1-1.2c0.7,0,1.3,0.2,1.8,0.7s0.7,1.2,0.7,2.1v3.9h-1.1v-3.7
		c0-0.7-0.2-1.2-0.5-1.5s-0.8-0.5-1.3-0.5c-0.6,0-1,0.2-1.3,0.5s-0.5,0.8-0.5,1.5v3.7h-1.1v-6.6H186z"/>
	<path class="st4" d="M197.1,205.7h1.1v6.6h-1.1v-1.1c-0.4,0.8-1.2,1.2-2.1,1.2c-0.7,0-1.3-0.2-1.8-0.7s-0.7-1.2-0.7-2.1v-3.9h1.1
		v3.7c0,0.7,0.2,1.2,0.5,1.5s0.8,0.5,1.3,0.5c0.6,0,1-0.2,1.3-0.5s0.5-0.8,0.5-1.5v-3.7H197.1z"/>
	<path class="st4" d="M203.5,212.3V204h1.1v8.3H203.5z"/>
	<path class="st4" d="M208.6,211.4h0.9v0.9h-1.1c-1.1,0-1.7-0.6-1.7-1.7v-4h-0.9v-0.9h0.9v-1.6h1.1v1.6h1.7v0.9h-1.7v4
		c0,0.3,0.1,0.5,0.2,0.6C208.1,211.4,208.3,211.4,208.6,211.4z"/>
	<path class="st4" d="M213.5,212.4c-0.9,0-1.7-0.3-2.3-0.9c-0.6-0.6-0.9-1.4-0.9-2.5s0.3-1.8,0.9-2.5c0.6-0.6,1.4-0.9,2.3-0.9
		s1.7,0.3,2.3,0.9s0.9,1.3,0.9,2.3c0,0.2,0,0.4,0,0.6h-5.2c0,0.7,0.2,1.2,0.6,1.6s0.9,0.6,1.5,0.6c0.4,0,0.8-0.1,1.1-0.3
		s0.5-0.5,0.7-0.8h1.2c-0.2,0.6-0.6,1.1-1.1,1.4C214.9,212.2,214.2,212.4,213.5,212.4z M214.9,207.1c-0.4-0.4-0.9-0.6-1.5-0.6
		s-1.1,0.2-1.4,0.6c-0.4,0.4-0.6,0.9-0.6,1.5h4.1C215.5,208,215.3,207.5,214.9,207.1z"/>
	<path class="st4" d="M219.1,205.7v1.1c0.4-0.8,1.2-1.2,2.1-1.2c0.5,0,1,0.1,1.4,0.4c0.4,0.2,0.7,0.6,0.9,1.1c0.2-0.4,0.6-0.8,1-1
		s0.9-0.4,1.4-0.4c0.7,0,1.4,0.2,1.8,0.7c0.5,0.5,0.7,1.2,0.7,2.1v3.9h-1.1v-3.7c0-0.7-0.2-1.2-0.5-1.5s-0.8-0.5-1.3-0.5
		c-0.6,0-1,0.2-1.3,0.5s-0.5,0.8-0.5,1.5v3.7h-1.1v-3.7c0-0.7-0.2-1.2-0.5-1.5s-0.8-0.5-1.3-0.5c-0.6,0-1,0.2-1.3,0.5
		s-0.5,0.8-0.5,1.5v3.7h-1v-6.6h1.1L219.1,205.7L219.1,205.7z"/>
	<path class="st4" d="M234.6,203.9c0.5-0.4,1.2-0.6,2-0.6s1.4,0.2,1.9,0.6c0.5,0.4,0.7,1,0.7,1.6c0,0.5-0.1,0.9-0.4,1.2
		c-0.3,0.4-0.6,0.6-1,0.7v0.1c0.5,0.1,0.9,0.4,1.2,0.8s0.4,0.9,0.4,1.6c0,0.7-0.2,1.2-0.7,1.7s-1.2,0.7-2,0.7
		c-0.9,0-1.6-0.2-2.1-0.6s-0.8-1-0.9-1.8h1c0,0.5,0.2,0.8,0.6,1.1s0.8,0.4,1.4,0.4c0.6,0,1-0.1,1.3-0.5c0.3-0.3,0.5-0.7,0.5-1.2
		c0-0.6-0.2-1.1-0.6-1.3c-0.4-0.3-1-0.4-1.8-0.4h-0.3v-0.9h0.3c1.5,0,2.3-0.5,2.3-1.5c0-0.4-0.1-0.8-0.4-1s-0.7-0.4-1.2-0.4
		s-0.9,0.1-1.2,0.4c-0.3,0.2-0.5,0.6-0.5,0.9H234C233.8,204.9,234,204.3,234.6,203.9z"/>
</g>
<g>
	<g>
		<path class="st4" d="M278,174.3c-0.1-0.1-0.2-0.2-0.2-0.4s0.1-0.3,0.2-0.4l0.5-0.5c0.1-0.1,0.2-0.2,0.4-0.2s0.3,0.1,0.4,0.2
			l2.3,2.3l2.3-2.3c0.1-0.1,0.2-0.2,0.4-0.2s0.3,0.1,0.4,0.2l0.5,0.5c0.1,0.1,0.2,0.2,0.2,0.4s-0.1,0.3-0.2,0.4l-3.2,3.2
			c-0.1,0.1-0.2,0.2-0.4,0.2s-0.3-0.1-0.4-0.2L278,174.3z"/>
	</g>
</g>
<g>
	<path class="st2" d="M176.4,279.3h-1.7v-2h1.7v-1.6c0-0.8,0.2-1.5,0.7-1.9c0.5-0.5,1.1-0.7,1.8-0.7c0.6,0,1.1,0,1.5,0.1v1.8h-1
		c-0.4,0-0.7,0.1-0.8,0.3c-0.1,0.1-0.2,0.4-0.2,0.7v1.4h1.8l-0.3,2h-1.6v5h-2v-5.1L176.4,279.3L176.4,279.3z"/>
</g>
<g>
	<path class="st2" d="M210.5,277.1c0,0.9-0.2,1.7-0.6,2.6c-0.4,0.9-1.1,1.6-1.9,2.1c-0.9,0.6-1.9,0.9-3,0.9s-2.1-0.3-3-0.9
		c0.1,0,0.3,0,0.5,0c0.9,0,1.7-0.3,2.4-0.8c-0.4,0-0.8-0.1-1.1-0.4s-0.5-0.6-0.7-0.9c0.1,0,0.2,0,0.3,0c0.2,0,0.3,0,0.5-0.1
		c-0.4-0.1-0.8-0.3-1.1-0.7c-0.3-0.4-0.4-0.8-0.4-1.2l0,0c0.3,0.2,0.6,0.2,0.9,0.3c-0.3-0.2-0.5-0.4-0.6-0.7
		c-0.2-0.3-0.2-0.6-0.2-0.9s0.1-0.7,0.3-1c0.5,0.6,1.1,1.1,1.8,1.4c0.7,0.4,1.4,0.6,2.2,0.6c0-0.1,0-0.3,0-0.4c0-0.3,0.1-0.7,0.3-1
		s0.4-0.5,0.7-0.7s0.6-0.3,1-0.3c0.3,0,0.5,0.1,0.8,0.2c0.2,0.1,0.5,0.3,0.6,0.4c0.4-0.1,0.9-0.2,1.2-0.5c-0.1,0.5-0.4,0.8-0.8,1.1
		c0.4,0,0.7-0.2,1.1-0.3c-0.3,0.4-0.6,0.7-1,1C210.5,276.9,210.5,277,210.5,277.1z"/>
</g>
<g>
	<path class="st2" d="M237.3,278.8c0,0.8-0.2,1.5-0.5,2.1s-0.8,1.1-1.4,1.4c-0.6,0.3-1.3,0.5-2,0.5s-1.4-0.2-2-0.5s-1.1-0.9-1.5-1.5
		s-0.5-1.3-0.5-2s0.2-1.4,0.5-2c0.4-0.6,0.9-1.1,1.5-1.5s1.3-0.5,2-0.5c1.1,0,2,0.4,2.7,1.1L235,277c-0.4-0.4-1-0.6-1.6-0.6
		c-0.5,0-0.9,0.1-1.3,0.3c-0.4,0.2-0.7,0.5-0.9,0.9s-0.3,0.8-0.3,1.3s0.1,0.9,0.3,1.3s0.5,0.7,0.9,0.9c0.4,0.2,0.8,0.3,1.3,0.3
		s0.9-0.1,1.3-0.3c0.3-0.2,0.5-0.4,0.7-0.7c0.2-0.2,0.3-0.5,0.3-0.7h-2.3v-1.4h3.8C237.3,278.4,237.3,278.6,237.3,278.8z
		 M241.2,277.1H240v1.2h-1.2v1.2h1.2v1.2h1.2v-1.2h1.2v-1.2h-1.2V277.1z"/>
</g>
<g>
	<path class="st2" d="M270.1,283.4c-0.2,0.2-0.4,0.3-0.6,0.3h-7.9c-0.3,0-0.5-0.1-0.6-0.3s-0.3-0.4-0.3-0.6v-5
		c0-0.3,0.1-0.5,0.3-0.7c0.5-0.4,1.6-1.2,3.1-2.3l0.2-0.1c0.3-0.2,0.5-0.3,0.6-0.4c0.2-0.2,0.4-0.2,0.6-0.2s0.4,0.1,0.6,0.2
		s0.4,0.2,0.6,0.4l0.2,0.1c1.6,1.1,2.6,1.9,3.1,2.3c0.2,0.2,0.3,0.4,0.3,0.7v5C270.4,283,270.3,283.2,270.1,283.4z M269,278.9h-0.1
		l-2.2,1.6c-0.3,0.2-0.5,0.3-0.6,0.4c-0.2,0.2-0.4,0.2-0.6,0.2s-0.4-0.1-0.6-0.2s-0.4-0.2-0.6-0.4l-2.2-1.6H262c0,0-0.1,0-0.1,0.1
		l-0.2,0.3v0.1v0.1l2.2,1.6c0.3,0.2,0.5,0.4,0.7,0.5c0.3,0.2,0.6,0.3,0.8,0.3s0.5-0.1,0.8-0.3c0.2-0.1,0.4-0.3,0.7-0.5l2.2-1.6v-0.1
		v-0.1L269,278.9C269.1,278.9,269.1,278.9,269,278.9z"/>
</g>
<g>
	<g>
		<path class="st4" d="M278,205.8c-0.1-0.1-0.2-0.2-0.2-0.4s0.1-0.3,0.2-0.4l0.5-0.5c0.1-0.1,0.2-0.2,0.4-0.2s0.3,0.1,0.4,0.2
			l2.3,2.3l2.3-2.3c0.1-0.1,0.2-0.2,0.4-0.2s0.3,0.1,0.4,0.2l0.5,0.5c0.1,0.1,0.2,0.2,0.2,0.4s-0.1,0.3-0.2,0.4L282,209
			c-0.1,0.1-0.2,0.2-0.4,0.2s-0.3-0.1-0.4-0.2L278,205.8z"/>
	</g>
</g>
<path class="st4" d="M181,251.8c0.4,0.4,0.6,0.9,0.6,1.5s-0.2,1.1-0.6,1.5c-0.4,0.4-1,0.6-1.8,0.6h-1.4v2.9h-0.9v-6.9h2.3
	C179.9,251.1,180.5,251.3,181,251.8z M177.8,254.6h1.3c0.5,0,0.9-0.1,1.1-0.3s0.4-0.6,0.4-1c0-0.9-0.5-1.3-1.5-1.3h-1.3V254.6z"/>
<path class="st4" d="M183.1,257.4c-0.5-0.5-0.8-1.2-0.8-2c0-0.8,0.3-1.5,0.8-2.1c0.5-0.5,1.2-0.8,2-0.8s1.5,0.3,2,0.8s0.8,1.2,0.8,2
	c0,0.8-0.3,1.5-0.8,2s-1.2,0.8-2,0.8S183.6,257.9,183.1,257.4z M185,257.4c0.5,0,1-0.2,1.3-0.6c0.4-0.4,0.6-0.9,0.6-1.5
	s-0.2-1.2-0.5-1.5c-0.4-0.4-0.8-0.5-1.3-0.5s-0.9,0.2-1.3,0.5c-0.3,0.4-0.5,0.9-0.5,1.5c0,0.7,0.2,1.2,0.5,1.5
	S184.5,257.4,185,257.4z"/>
<path class="st4" d="M195.3,252.6h0.9l-1.7,5.5h-0.9l-1.2-4.4l-1.2,4.4h-1l-1.7-5.5h0.9l1.3,4.6l1.3-4.6h0.9l1.2,4.6L195.3,252.6z"
	/>
<path class="st4" d="M199.4,258.1c-0.8,0-1.4-0.3-1.9-0.8s-0.7-1.2-0.7-2.1s0.3-1.5,0.8-2.1s1.1-0.8,1.9-0.8s1.4,0.2,1.9,0.7
	s0.7,1.1,0.7,1.9c0,0.2,0,0.4,0,0.5h-4.4c0,0.5,0.2,1,0.5,1.3s0.7,0.5,1.2,0.5c0.4,0,0.7-0.1,0.9-0.3c0.3-0.2,0.4-0.4,0.6-0.7h1
	c-0.2,0.5-0.5,0.9-0.9,1.2C200.6,257.8,200,258.1,199.4,258.1z M200.6,253.8c-0.3-0.3-0.7-0.5-1.2-0.5s-0.9,0.2-1.2,0.5
	s-0.5,0.7-0.5,1.3h3.4C201.1,254.4,201,254.1,200.6,253.8z"/>
<path class="st4" d="M204.1,252.6v0.9c0.3-0.7,0.9-1,1.7-1v1h-0.2c-0.5,0-0.8,0.1-1.1,0.4s-0.4,0.7-0.4,1.3v3h-0.9v-5.5h0.9V252.6z"
	/>
<path class="st4" d="M209.2,258.1c-0.8,0-1.4-0.3-1.9-0.8s-0.7-1.2-0.7-2.1s0.3-1.5,0.8-2.1s1.1-0.8,1.9-0.8c0.8,0,1.4,0.2,1.9,0.7
	s0.7,1.1,0.7,1.9c0,0.2,0,0.4,0,0.5h-4.4c0,0.5,0.2,1,0.5,1.3s0.7,0.5,1.2,0.5c0.4,0,0.7-0.1,0.9-0.3c0.3-0.2,0.4-0.4,0.6-0.7h1
	c-0.2,0.5-0.5,0.9-0.9,1.2S209.8,258.1,209.2,258.1z M210.4,253.8c-0.3-0.3-0.7-0.5-1.2-0.5s-0.9,0.2-1.2,0.5s-0.5,0.7-0.5,1.3h3.4
	C210.9,254.4,210.7,254.1,210.4,253.8z"/>
<path class="st4" d="M213.4,257.3c-0.5-0.5-0.8-1.2-0.8-2.1c0-0.8,0.2-1.5,0.7-2s1.1-0.8,1.9-0.8c0.5,0,0.9,0.1,1.2,0.3
	s0.6,0.5,0.8,0.9v-3h0.9v7.4h-0.9v-1c-0.2,0.4-0.4,0.7-0.8,0.9s-0.8,0.3-1.2,0.3C214.5,258.1,213.9,257.9,213.4,257.3z M216.7,256.8
	c0.4-0.4,0.5-0.9,0.5-1.5s-0.2-1.1-0.5-1.5c-0.4-0.4-0.8-0.6-1.3-0.6s-0.9,0.2-1.3,0.5c-0.4,0.4-0.5,0.8-0.5,1.5s0.2,1.1,0.6,1.5
	c0.4,0.4,0.8,0.6,1.3,0.6C215.9,257.4,216.4,257.3,216.7,256.8z"/>
<path class="st4" d="M222.7,251.1h2.5c0.7,0,1.3,0.2,1.6,0.5c0.4,0.3,0.6,0.8,0.6,1.3c0,0.8-0.4,1.3-1.3,1.5
	c0.4,0.1,0.8,0.3,1.1,0.6s0.4,0.7,0.4,1.1c0,0.5-0.2,1-0.6,1.3s-1,0.5-1.6,0.5h-2.6L222.7,251.1L222.7,251.1z M223.6,251.9v2.3h1.5
	c0.4,0,0.7-0.1,1-0.3c0.2-0.2,0.4-0.5,0.4-0.8c0-0.4-0.1-0.6-0.4-0.8c-0.2-0.2-0.6-0.3-1-0.3L223.6,251.9L223.6,251.9z M223.6,257.3
	h1.6c0.4,0,0.8-0.1,1-0.3s0.4-0.5,0.4-0.9s-0.1-0.7-0.4-0.9c-0.3-0.2-0.6-0.3-1.1-0.3h-1.6v2.4L223.6,257.3L223.6,257.3z"/>
<path class="st4" d="M230.4,258l-2.2-5.4h1l1.7,4.4l1.7-4.4h0.9l-3.3,8.1h-0.9L230.4,258z"/>
<g>
	<path class="st3" d="M242.8,258.1l-0.5-1.5h-3.1l-0.5,1.5h-0.9l2.5-6.9h1l2.5,6.9H242.8z M239.4,255.8h2.6l-1.3-3.6L239.4,255.8z"
		/>
	<path class="st3" d="M252,251.1v6.9h-0.9v-5l-2.3,5h-0.6l-2.3-5v5H245v-6.9h0.9l2.6,5.7l2.6-5.7L252,251.1L252,251.1z"/>
	<path class="st3" d="M257.5,251.7c0.4,0.4,0.6,0.9,0.6,1.5s-0.2,1.1-0.6,1.5s-1,0.6-1.8,0.6h-1.3v2.9h-0.9v-6.9h2.3
		C256.5,251.1,257.1,251.3,257.5,251.7z M254.4,254.5h1.3c0.5,0,0.9-0.1,1.1-0.3c0.2-0.2,0.4-0.6,0.4-1c0-0.9-0.5-1.3-1.5-1.3h-1.3
		L254.4,254.5L254.4,254.5z"/>
	<path class="st3" d="M269.9,251.1h1l-2.1,6.9h-1l-1.6-5.6l-1.7,5.6h-1l-2-6.9h1l1.5,5.9l1.7-5.9h1l1.5,5.9L269.9,251.1z"/>
	<path class="st3" d="M275.9,251.7c0.4,0.4,0.6,0.9,0.6,1.5s-0.2,1.1-0.6,1.5s-1,0.6-1.8,0.6h-1.3v2.9h-0.9v-6.9h2.3
		C274.9,251.1,275.5,251.3,275.9,251.7z M272.8,254.5h1.3c0.5,0,0.9-0.1,1.1-0.3s0.4-0.6,0.4-1c0-0.9-0.5-1.3-1.5-1.3h-1.3V254.5z"
		/>
	<path class="st3" d="M237.3,259.6v-0.5h39.2v0.5H237.3z"/>
</g>
</svg>
