<?xml version="1.0" encoding="utf-8"?>
<!-- Generator: Adobe Illustrator 21.0.0, SVG Export Plug-In . SVG Version: 6.00 Build 0)  -->
<svg version="1.1" id="Layer_1" xmlns="http://www.w3.org/2000/svg" xmlns:xlink="http://www.w3.org/1999/xlink" x="0px" y="0px"
	 viewBox="0 0 301 301" style="enable-background:new 0 0 301 301;" xml:space="preserve">
<style type="text/css">
	.st0{fill:#EFEFEF;}
	.st1{clip-path:url(#SVGID_2_);}
	.st2{fill:#CBDAF7;}
	.st3{fill:#416DEB;}
	.st4{fill:#223F9A;}
	.st5{fill:#FFFFFF;}
	.st6{fill:#81A0EF;}
	.st7{fill:#020202;}
	.st8{clip-path:url(#SVGID_4_);}
	.st9{fill:#F4D3D3;}
	.st10{fill:#EFB4B4;}
	.st11{fill:#D36363;}
	.st12{fill:#E53935;}
	.st13{fill:#9B2C2C;}
	.st14{fill:#EA6A6A;}
	.st15{fill:#CD2A27;}
	.st16{fill:none;stroke:#E53935;stroke-width:0.5631;stroke-miterlimit:10;}
	.st17{fill:#E4E4E4;}
	.st18{fill:#848484;}
	.st19{fill:#F4EDEF;}
	.st20{clip-path:url(#SVGID_6_);}
	.st21{enable-background:new    ;}
	.st22{clip-path:url(#SVGID_8_);}
</style>
<g>
	<rect class="st0" width="301" height="301"/>
	<g>
		<g>
			<defs>
				<rect id="SVGID_1_" width="300" height="301"/>
			</defs>
			<clipPath id="SVGID_2_">
				<use xlink:href="#SVGID_1_"  style="overflow:visible;"/>
			</clipPath>
			<g class="st1">
				<g>
					<rect x="5.8" y="26.3" class="st2" width="141.6" height="353.2"/>
				</g>
				<g>
					<g>
						<rect x="49.9" y="179.8" class="st3" width="36.8" height="2.8"/>
					</g>
				</g>
				<g>
					<g>
						<rect x="49.9" y="201.1" class="st3" width="36.8" height="2.8"/>
					</g>
				</g>
				<g>
					<g>
						<path class="st3" d="M15.4,166.3h19.3c2.2,0,4,1.8,4,4l0,0c0,2.2-1.8,4-4,4H15.4c-2.2,0-4-1.8-4-4l0,0
							C11.4,168,13.2,166.3,15.4,166.3z"/>
					</g>
				</g>
				<g>
					<g>
						<path class="st3" d="M45.9,166.3h19.3c2.2,0,4,1.8,4,4l0,0c0,2.2-1.8,4-4,4H45.9c-2.2,0-4-1.8-4-4l0,0
							C42,168,43.7,166.3,45.9,166.3z"/>
					</g>
				</g>
				<g>
					<g>
						<rect x="11.6" y="215.1" class="st3" width="130.2" height="0.2"/>
					</g>
				</g>
				<g>
					<rect x="5.8" y="48.1" class="st3" width="141.6" height="110.9"/>
				</g>
				<g>
					<rect x="5.8" y="26.3" class="st4" width="141.6" height="21.9"/>
				</g>
				<g>
					<g>
						<g>
							<g>
								<rect x="60.1" y="90" class="st3" width="32.9" height="18.8"/>
							</g>
						</g>
						<g>
							<g>
								<path class="st4" d="M92.5,90.5v17.8H60.6V90.5H92.5 M93.5,89.5H59.6v19.8h33.9V89.5L93.5,89.5z"/>
							</g>
						</g>
					</g>
					<g>
						<g>
							<circle class="st4" cx="63.9" cy="93.7" r="1.7"/>
						</g>
					</g>
					<g>
						<g>
							<polygon class="st4" points="93.5,109.3 93.5,101.8 84.8,93.1 71.2,106.7 73.9,109.3 							"/>
						</g>
					</g>
					<g>
						<g>
							<polygon class="st4" points="59.6,109.3 82.8,109.3 71.2,97.7 59.6,109.3 							"/>
						</g>
					</g>
				</g>
				<g>
					<rect x="11.4" y="134.1" class="st4" width="71.3" height="2.4"/>
				</g>
				<g>
					<rect x="49.9" y="189.2" class="st4" width="91.8" height="5.7"/>
				</g>
				<g>
					<rect x="11.4" y="140.2" class="st4" width="130.4" height="4.7"/>
				</g>
				<g>
					<rect x="11.4" y="147" class="st4" width="75.3" height="4.7"/>
				</g>
				<g>
					<g>
						<rect x="133.9" y="34.1" class="st5" width="7.7" height="1.1"/>
					</g>
					<g>
						<rect x="133.9" y="36.7" class="st5" width="7.7" height="1.1"/>
					</g>
					<g>
						<rect x="133.9" y="39.3" class="st5" width="7.7" height="1.1"/>
					</g>
				</g>
				<g>
					<g>
						<g>
							<g>
								<rect x="12.9" y="179.6" class="st3" width="30.4" height="29"/>
							</g>
						</g>
						<g>
							<g>
								<path class="st4" d="M42.6,180.3v27.5H13.7v-27.5H42.6 M44.1,178.8h-32v30.6h32V178.8L44.1,178.8z"/>
							</g>
						</g>
					</g>
					<g>
						<g>
							<circle class="st4" cx="20.9" cy="187.8" r="2.8"/>
						</g>
					</g>
					<g>
						<g>
							<polygon class="st4" points="44.1,206.9 44.1,191 36.8,185 19.6,206.9 19.7,206.9 19.6,206.9 							"/>
						</g>
					</g>
					<g>
						<polygon class="st4" points="43.8,209.3 43.8,206 26.1,191.6 12.1,209.3 12.2,209.4 12.2,209.3 						"/>
					</g>
				</g>
				<g>
					<g>
						<rect x="49.9" y="236.4" class="st3" width="36.8" height="2.8"/>
					</g>
				</g>
				<g>
					<g>
						<rect x="49.9" y="257.7" class="st3" width="36.8" height="2.8"/>
					</g>
				</g>
				<g>
					<g>
						<path class="st3" d="M15.4,223.8h19.3c2.2,0,4,1.8,4,4l0,0c0,2.2-1.8,4-4,4H15.4c-2.2,0-4-1.8-4-4l0,0
							C11.4,225.5,13.2,223.8,15.4,223.8z"/>
					</g>
				</g>
				<g>
					<g>
						<path class="st3" d="M45.9,223.8h19.3c2.2,0,4,1.8,4,4l0,0c0,2.2-1.8,4-4,4H45.9c-2.2,0-4-1.8-4-4l0,0
							C42,225.5,43.7,223.8,45.9,223.8z"/>
					</g>
				</g>
				<g>
					<g>
						<rect x="11.6" y="272.3" class="st3" width="130.2" height="0.2"/>
					</g>
				</g>
				<g>
					<rect x="49.9" y="245.8" class="st4" width="91.8" height="5.7"/>
				</g>
				<g>
					<g>
						<g>
							<g>
								<rect x="12.9" y="236.2" class="st3" width="30.4" height="29"/>
							</g>
						</g>
						<g>
							<g>
								<path class="st4" d="M42.6,237v27.5H13.7V237H42.6 M44.1,235.4h-32V266h32V235.4L44.1,235.4z"/>
							</g>
						</g>
					</g>
					<g>
						<g>
							<circle class="st4" cx="20.9" cy="244.4" r="2.8"/>
						</g>
					</g>
					<g>
						<g>
							<polygon class="st4" points="44.1,263.5 44.1,247.6 36.8,241.6 19.6,263.5 19.7,263.6 19.6,263.5 							"/>
						</g>
					</g>
					<g>
						<polygon class="st4" points="43.8,265.9 43.8,262.6 26.1,248.2 12.1,265.9 12.2,266 12.2,265.9 						"/>
					</g>
				</g>
				<g>
					<g>
						<rect x="49.9" y="291.1" class="st3" width="36.8" height="2.8"/>
					</g>
				</g>
				<g>
					<g>
						<rect x="49.9" y="312.5" class="st3" width="36.8" height="2.8"/>
					</g>
				</g>
				<g>
					<g>
						<path class="st3" d="M15.4,278.5h19.3c2.2,0,4,1.8,4,4l0,0c0,2.2-1.8,4-4,4H15.4c-2.2,0-4-1.8-4-4l0,0
							C11.4,280.2,13.2,278.5,15.4,278.5z"/>
					</g>
				</g>
				<g>
					<g>
						<path class="st3" d="M45.9,278.5h19.3c2.2,0,4,1.8,4,4l0,0c0,2.2-1.8,4-4,4H45.9c-2.2,0-4-1.8-4-4l0,0
							C42,280.2,43.7,278.5,45.9,278.5z"/>
					</g>
				</g>
				<g>
					<rect x="49.9" y="300.5" class="st4" width="91.8" height="5.7"/>
				</g>
				<g>
					<g>
						<g>
							<g>
								<rect x="12.9" y="290.9" class="st3" width="30.4" height="29"/>
							</g>
						</g>
						<g>
							<g>
								<path class="st4" d="M42.6,291.7v27.5H13.7v-27.5H42.6 M44.1,290.1h-32v30.6h32V290.1L44.1,290.1z"/>
							</g>
						</g>
					</g>
					<g>
						<g>
							<circle class="st4" cx="20.9" cy="299.1" r="2.8"/>
						</g>
					</g>
					<g>
						<g>
							<polygon class="st4" points="44.1,318.2 44.1,302.3 36.8,296.4 19.6,318.2 19.7,318.3 19.6,318.2 							"/>
						</g>
					</g>
					<g>
						<polygon class="st4" points="43.8,320.7 43.8,317.3 26.1,302.9 12.1,320.7 12.2,320.7 12.2,320.7 						"/>
					</g>
				</g>
				<path class="st5" d="M122.9,39.3L122.9,39.3c-0.2-0.2-0.5-0.5-0.8-0.8l-0.1-0.1l0.1-0.2c0.3-0.4,0.4-0.9,0.4-1.5
					c0-0.2,0-0.3,0-0.5c-0.1-0.7-0.6-1.3-1.1-1.7s-1.3-0.6-2-0.5c-0.6,0.1-1.2,0.4-1.6,0.9s-0.7,1.1-0.7,1.7c0,0.8,0.2,1.5,0.8,2.1
					s1.2,0.8,2,0.8c0.5,0,1-0.1,1.5-0.4l0.2-0.1l0.1,0.1c0.4,0.4,0.7,0.7,1.1,1.1l0.2,0.2l0,0c0,0.1,0.1,0.1,0.2,0.2
					c0.1,0.1,0.2,0.1,0.3,0.1c0.1,0,0.2-0.1,0.3-0.2c0-0.1,0.1-0.3-0.1-0.5C123.3,39.7,123.1,39.4,122.9,39.3z M119.7,38.8
					c-1.1,0-2.1-0.9-2.1-2.1s0.9-2.1,2.1-2.1s2.1,0.9,2.1,2.1S120.9,38.8,119.7,38.8z"/>
				<g>
					<g>
						<path class="st4" d="M15.4,122.6h19.3c2.2,0,4,1.8,4,4l0,0c0,2.2-1.8,4-4,4H15.4c-2.2,0-4-1.8-4-4l0,0
							C11.4,124.3,13.2,122.6,15.4,122.6z"/>
					</g>
				</g>
				<g>
					<g>
						<path class="st4" d="M46.8,122.6H66c2.2,0,4,1.8,4,4l0,0c0,2.2-1.8,4-4,4H46.8c-2.2,0-4-1.8-4-4l0,0
							C42.8,124.3,44.6,122.6,46.8,122.6z"/>
					</g>
				</g>
				<g>
					<rect x="5.8" y="342.6" class="st6" width="141.6" height="21.2"/>
				</g>
				<g>
					<rect x="5.8" y="363.8" class="st3" width="141.6" height="18.6"/>
				</g>
				<g>
					<rect x="5.8" y="382.4" class="st4" width="141.6" height="14"/>
				</g>
				<g>
					<path class="st7" d="M96.3,357.8H56.8c-2.5,0-4.6-2.1-4.6-4.6l0,0c0-2.5,2.1-4.6,4.6-4.6h39.5c2.5,0,4.6,2.1,4.6,4.6l0,0
						C100.9,355.7,98.8,357.8,96.3,357.8z"/>
					<g>
						<path class="st5" d="M58.8,350.9c0.8,0,1.5,0,2.3,0c0.3,0,0.5,0.2,0.5,0.5c0,0.8,0,1.7,0,2.5c0,0.3-0.2,0.5-0.5,0.5
							c-1.5,0-3,0-4.5,0c-0.3,0-0.5-0.2-0.5-0.5c0-0.8,0-1.7,0-2.6c0-0.3,0.2-0.5,0.5-0.5C57.3,350.9,58,350.9,58.8,350.9z
							 M61.3,353.6L61.3,353.6c0-0.8,0-1.5,0-2.2c0-0.1,0-0.2-0.2-0.2c-1.5,0-3,0-4.5,0c-0.1,0-0.2,0-0.2,0.2c0,0.7,0,1.5,0,2.2l0,0
							C58,353.6,59.6,353.6,61.3,353.6z M58.8,354.3c0.1,0,0.2-0.1,0.2-0.2s-0.1-0.2-0.2-0.2s-0.2,0.1-0.2,0.2
							C58.6,354.2,58.7,354.3,58.8,354.3z"/>
						<path class="st5" d="M58.4,354.7c0.3,0,0.5,0,0.8,0c0,0,0,0.1,0,0.2c0,0.2,0.1,0.4,0.4,0.4l0,0c0,0,0,0,0,0.1c0,0,0,0,0,0.1
							c0,0,0,0-0.1,0c-0.5,0-1,0-1.6,0l0,0c0,0-0.1,0-0.1-0.1s0-0.1,0.1-0.1l0,0c0.2,0,0.4-0.1,0.4-0.4
							C58.4,354.8,58.4,354.8,58.4,354.7z"/>
					</g>
					<g>
						<path class="st5" d="M64.2,354l-0.8-2.2h0.3l0.7,1.9l0.7-1.9h0.3l-0.8,2.2H64.2z"/>
						<path class="st5" d="M66,351.9L66,351.9h-0.2v-0.1v-0.1h0.1H66v0.1V351.9z M65.7,354v-1.7H66v1.7H65.7z"/>
						<path class="st5" d="M67.2,354c-0.2,0-0.5-0.1-0.6-0.2c-0.1-0.2-0.2-0.4-0.2-0.7s0.1-0.5,0.2-0.7s0.4-0.2,0.6-0.2
							s0.5,0.1,0.6,0.2s0.2,0.4,0.2,0.6c0,0,0,0.1,0,0.2h-1.4c0,0.2,0,0.3,0.1,0.4s0.2,0.1,0.4,0.1c0.1,0,0.2,0,0.3-0.1
							c0.1,0,0.1-0.1,0.2-0.2H68c0,0.1-0.1,0.3-0.3,0.4C67.6,354,67.4,354,67.2,354z M67.6,352.6c-0.1-0.1-0.2-0.1-0.4-0.1
							c-0.1,0-0.3,0-0.4,0.1s-0.1,0.2-0.2,0.4h1.1C67.8,352.8,67.7,352.7,67.6,352.6z"/>
						<path class="st5" d="M70.4,352.2h0.3l-0.6,1.7h-0.3l-0.4-1.4l-0.4,1.4h-0.3l-0.6-1.7h0.3l0.4,1.5l0.4-1.5h0.3l0.4,1.5
							L70.4,352.2z"/>
						<path class="st5" d="M72.7,351.8c0.4,0,0.7,0.1,0.8,0.3c0.2,0.2,0.3,0.5,0.3,0.8s-0.1,0.6-0.3,0.8c-0.2,0.2-0.5,0.3-0.8,0.3
							H72v-2.2L72.7,351.8L72.7,351.8z M72.3,353.7h0.4c0.3,0,0.5-0.1,0.7-0.2c0.1-0.1,0.2-0.4,0.2-0.7c0-0.3-0.1-0.5-0.2-0.7
							c-0.1-0.1-0.4-0.2-0.7-0.2h-0.4V353.7z"/>
						<path class="st5" d="M74.9,354c-0.2,0-0.5-0.1-0.6-0.2c-0.1-0.2-0.2-0.4-0.2-0.7s0.1-0.5,0.2-0.7s0.4-0.2,0.6-0.2
							s0.5,0.1,0.6,0.2s0.2,0.4,0.2,0.6c0,0,0,0.1,0,0.2h-1.4c0,0.2,0,0.3,0.1,0.4s0.2,0.1,0.4,0.1c0.1,0,0.2,0,0.3-0.1
							c0.1,0,0.1-0.1,0.2-0.2h0.3c0,0.1-0.1,0.3-0.3,0.4C75.3,354,75.1,354,74.9,354z M75.3,352.6c-0.1-0.1-0.2-0.1-0.4-0.1
							c-0.1,0-0.3,0-0.4,0.1s-0.1,0.2-0.2,0.4h1.1C75.5,352.8,75.4,352.7,75.3,352.6z"/>
						<path class="st5" d="M76.1,352.7c0-0.1,0-0.3,0.2-0.4c0.1-0.1,0.3-0.1,0.5-0.1s0.3,0,0.5,0.1c0.1,0.1,0.2,0.2,0.2,0.4h-0.3
							c0-0.1,0-0.2-0.1-0.2s-0.1-0.1-0.2-0.1s-0.2,0-0.2,0.1s-0.1,0.1-0.1,0.2s0,0.1,0.1,0.2c0.1,0,0.1,0.1,0.2,0.1s0.2,0,0.3,0
							c0.1,0,0.2,0.1,0.2,0.1c0.1,0.1,0.1,0.2,0.1,0.3c0,0.1,0,0.2-0.2,0.3c-0.1,0.1-0.3,0.1-0.5,0.1s-0.4,0-0.5-0.1
							s-0.2-0.2-0.2-0.4h0.3c0,0.1,0,0.2,0.1,0.2c0,0,0.1,0.1,0.3,0.1c0.1,0,0.2,0,0.3-0.1c0.1,0,0.1-0.1,0.1-0.2s0-0.1-0.1-0.2
							c0,0-0.1-0.1-0.2-0.1s-0.1,0-0.2,0s-0.2,0-0.2-0.1c-0.1,0-0.1-0.1-0.2-0.1C76.1,352.8,76.1,352.8,76.1,352.7z"/>
						<path class="st5" d="M78.1,354h-0.3v-2.4h0.3v1.4l0.7-0.8h0.4l-0.8,0.9l0.8,0.9h-0.4l-0.7-0.8V354L78.1,354z"/>
						<path class="st5" d="M80,353.7h0.2v0.2H80c-0.3,0-0.5-0.1-0.5-0.5v-1h-0.2v-0.2h0.2v-0.4h0.3v0.4h0.5v0.2h-0.5v1.1
							c0,0.1,0,0.1,0,0.2C79.9,353.7,80,353.7,80,353.7z"/>
						<path class="st5" d="M80.7,353.7c-0.1-0.2-0.2-0.4-0.2-0.7c0-0.3,0.1-0.5,0.2-0.7c0.2-0.2,0.4-0.2,0.6-0.2s0.5,0.1,0.6,0.2
							c0.2,0.2,0.2,0.4,0.2,0.7s-0.1,0.5-0.3,0.7c-0.2,0.2-0.4,0.2-0.7,0.2C81.1,354,80.9,353.9,80.7,353.7z M81.4,353.8
							c0.1,0,0.3,0,0.4-0.2c0.1-0.1,0.2-0.3,0.2-0.5s0-0.4-0.2-0.5c-0.1-0.1-0.2-0.2-0.4-0.2c-0.2,0-0.3,0-0.4,0.2
							c-0.1,0.1-0.2,0.3-0.2,0.5s0,0.4,0.1,0.5C81.1,353.7,81.2,353.8,81.4,353.8z"/>
						<path class="st5" d="M83.6,352.2c0.2,0,0.4,0.1,0.6,0.2c0.1,0.2,0.2,0.4,0.2,0.7s-0.1,0.5-0.2,0.7s-0.4,0.2-0.6,0.2
							c-0.1,0-0.3,0-0.4-0.1s-0.2-0.1-0.2-0.3v1.2h-0.3v-2.6H83v0.3c0-0.1,0.1-0.2,0.2-0.3C83.3,352.1,83.4,352.2,83.6,352.2z
							 M83.5,353.7c0.1,0,0.3,0,0.4-0.2c0.1-0.1,0.2-0.3,0.2-0.5s0-0.4-0.2-0.5c-0.1-0.1-0.2-0.2-0.4-0.2c-0.1,0-0.3,0-0.4,0.2
							c-0.1,0.1-0.2,0.3-0.2,0.5s0,0.4,0.2,0.5C83.2,353.7,83.3,353.7,83.5,353.7z"/>
						<path class="st5" d="M86.4,354l-0.8-2.2h0.3l0.7,1.9l0.7-1.9h0.3l-0.8,2.2H86.4z"/>
						<path class="st5" d="M88.7,354c-0.2,0-0.5-0.1-0.6-0.2c-0.1-0.2-0.2-0.4-0.2-0.7s0.1-0.5,0.2-0.7s0.4-0.2,0.6-0.2
							s0.5,0.1,0.6,0.2s0.2,0.4,0.2,0.6c0,0,0,0.1,0,0.2h-1.4c0,0.2,0,0.3,0.1,0.4s0.2,0.1,0.4,0.1c0.1,0,0.2,0,0.3-0.1
							c0.1,0,0.1-0.1,0.2-0.2h0.3c0,0.1-0.1,0.3-0.3,0.4C89.1,354,88.9,354,88.7,354z M89.1,352.6c-0.1-0.1-0.2-0.1-0.4-0.1
							c-0.1,0-0.3,0-0.4,0.1s-0.1,0.2-0.2,0.4h1.1C89.2,352.8,89.2,352.7,89.1,352.6z"/>
						<path class="st5" d="M90.2,352.2v0.3c0.1-0.2,0.3-0.3,0.5-0.3v0.3h-0.1c-0.1,0-0.3,0-0.3,0.1c0,0-0.1,0.2-0.1,0.4v0.9h-0.3
							v-1.7L90.2,352.2L90.2,352.2L90.2,352.2z"/>
						<path class="st5" d="M91,352.7c0-0.1,0-0.3,0.2-0.4s0.3-0.1,0.5-0.1s0.3,0,0.5,0.1c0.1,0.1,0.2,0.2,0.2,0.4H92
							c0-0.1,0-0.2-0.1-0.2s-0.1-0.1-0.2-0.1s-0.2,0-0.2,0.1s-0.1,0.1-0.1,0.2s0,0.1,0.1,0.2c0.1,0,0.1,0.1,0.2,0.1s0.2,0,0.3,0
							c0.1,0,0.2,0.1,0.2,0.1c0.1,0.1,0.1,0.2,0.1,0.3c0,0.1,0,0.2-0.2,0.3c-0.1,0.1-0.3,0.1-0.5,0.1s-0.4,0-0.5-0.1
							s-0.2-0.2-0.2-0.4h0.3c0,0.1,0,0.2,0.1,0.2c0,0,0.1,0.1,0.3,0.1c0.1,0,0.2,0,0.3-0.1c0.1,0,0.1-0.1,0.1-0.2s0-0.1-0.1-0.2
							c0,0-0.1-0.1-0.2-0.1s-0.1,0-0.2,0s-0.2,0-0.2-0.1c-0.1,0-0.1-0.1-0.2-0.1C91,352.8,91,352.8,91,352.7z"/>
						<path class="st5" d="M93,351.9L93,351.9h-0.2v-0.1v-0.1h0.1H93v0.1C93.1,351.8,93.1,351.9,93,351.9z M92.7,354v-1.7H93v1.7
							H92.7z"/>
						<path class="st5" d="M93.6,353.7c-0.1-0.2-0.2-0.4-0.2-0.7c0-0.3,0.1-0.5,0.2-0.7c0.2-0.2,0.4-0.2,0.6-0.2s0.5,0.1,0.6,0.2
							c0.2,0.2,0.2,0.4,0.2,0.7s-0.1,0.5-0.3,0.7c-0.2,0.2-0.4,0.2-0.7,0.2C94,354,93.8,353.9,93.6,353.7z M94.2,353.8
							c0.1,0,0.3,0,0.4-0.2c0.1-0.1,0.2-0.3,0.2-0.5s0-0.4-0.2-0.5c-0.1-0.1-0.2-0.2-0.4-0.2c-0.2,0-0.3,0-0.4,0.2
							c-0.1,0.1-0.2,0.3-0.2,0.5s0,0.4,0.1,0.5C94,353.7,94.1,353.8,94.2,353.8z"/>
						<path class="st5" d="M95.8,352.2v0.3c0.1-0.2,0.3-0.3,0.6-0.3c0.2,0,0.4,0,0.5,0.2c0.1,0.1,0.2,0.3,0.2,0.6v1h-0.3v-1
							c0-0.2,0-0.3-0.1-0.4s-0.2-0.1-0.3-0.1c-0.1,0-0.3,0-0.4,0.1s-0.1,0.2-0.1,0.4v1h-0.3v-1.7h0.2V352.2z"/>
					</g>
				</g>
				<g>
					<path class="st5" d="M62.5,375.7v-3.3h1.8v0.3h-1.4v1.1H64v0.3h-1.1v1.5h-0.4V375.7z"/>
					<path class="st5" d="M65,375.4c-0.2-0.2-0.4-0.6-0.4-0.9c0-0.4,0.1-0.7,0.4-1c0.2-0.2,0.6-0.4,0.9-0.4s0.7,0.1,0.9,0.4
						s0.4,0.6,0.4,0.9s-0.1,0.7-0.4,0.9c-0.3,0.2-0.6,0.4-0.9,0.4S65.2,375.6,65,375.4z M65.9,375.4c0.2,0,0.5-0.1,0.6-0.3
						c0.1-0.2,0.3-0.4,0.3-0.7c0-0.3-0.1-0.6-0.2-0.7c-0.2-0.2-0.4-0.2-0.6-0.2s-0.4,0.1-0.6,0.2c-0.1,0.2-0.2,0.4-0.2,0.7
						c0,0.3,0.1,0.6,0.2,0.7C65.5,375.3,65.6,375.4,65.9,375.4z"/>
					<path class="st5" d="M68,375.4c-0.2-0.2-0.4-0.6-0.4-0.9c0-0.4,0.1-0.7,0.4-1c0.2-0.2,0.6-0.4,0.9-0.4c0.4,0,0.7,0.1,0.9,0.4
						c0.2,0.2,0.4,0.6,0.4,0.9s-0.1,0.7-0.4,0.9c-0.3,0.2-0.6,0.4-0.9,0.4C68.5,375.7,68.2,375.6,68,375.4z M68.9,375.4
						c0.2,0,0.5-0.1,0.6-0.3c0.1-0.2,0.3-0.4,0.3-0.7c0-0.3-0.1-0.6-0.2-0.7c-0.2-0.2-0.4-0.2-0.6-0.2s-0.4,0.1-0.6,0.2
						c-0.1,0.2-0.2,0.4-0.2,0.7c0,0.3,0.1,0.6,0.2,0.7C68.4,375.3,68.6,375.4,68.9,375.4z"/>
					<path class="st5" d="M71.6,375.3H72v0.3h-0.4c-0.5,0-0.7-0.2-0.7-0.7v-1.6h-0.3V373h0.3v-0.7h0.4v0.7H72v0.3h-0.7v1.6
						c0,0.1,0,0.2,0,0.2C71.4,375.3,71.5,375.3,71.6,375.3z"/>
					<path class="st5" d="M73.5,375.7c-0.4,0-0.7-0.1-0.9-0.4c-0.2-0.2-0.3-0.6-0.3-1s0.1-0.7,0.4-1c0.2-0.3,0.5-0.4,0.9-0.4
						s0.7,0.1,0.9,0.3c0.2,0.2,0.3,0.5,0.3,0.9c0,0.1,0,0.2,0,0.2h-2.1c0,0.2,0.1,0.5,0.2,0.6s0.3,0.2,0.6,0.2c0.2,0,0.3,0,0.4-0.1
						s0.2-0.2,0.3-0.3h0.5c-0.1,0.2-0.2,0.4-0.4,0.6C74.1,375.6,73.8,375.7,73.5,375.7z M74.1,373.6c-0.1-0.1-0.3-0.2-0.6-0.2
						c-0.2,0-0.4,0.1-0.6,0.2c-0.1,0.1-0.2,0.3-0.2,0.6h1.7C74.3,374,74.2,373.8,74.1,373.6z"/>
					<path class="st5" d="M75.7,373.1v0.4c0.1-0.3,0.4-0.5,0.8-0.5v0.5h-0.1c-0.2,0-0.4,0-0.5,0.2c-0.1,0.1-0.2,0.3-0.2,0.6v1.4
						h-0.4v-2.6H75.7L75.7,373.1z"/>
					<path class="st5" d="M81.8,372.4v3.3h-0.4v-2.4l-1.1,2.4H80l-1.1-2.4v2.4h-0.4v-3.3h0.4l1.2,2.7l1.2-2.7H81.8z"/>
					<path class="st5" d="M83.6,375.7c-0.4,0-0.7-0.1-0.9-0.4c-0.2-0.2-0.3-0.6-0.3-1s0.1-0.7,0.4-1c0.2-0.3,0.5-0.4,0.9-0.4
						s0.7,0.1,0.9,0.3c0.2,0.2,0.3,0.5,0.3,0.9c0,0.1,0,0.2,0,0.2h-2.1c0,0.2,0.1,0.5,0.2,0.6s0.3,0.2,0.6,0.2c0.2,0,0.3,0,0.4-0.1
						s0.2-0.2,0.3-0.3h0.5c-0.1,0.2-0.2,0.4-0.4,0.6C84.1,375.6,83.9,375.7,83.6,375.7z M84.2,373.6c-0.1-0.1-0.3-0.2-0.6-0.2
						c-0.2,0-0.4,0.1-0.6,0.2c-0.1,0.1-0.2,0.3-0.2,0.6h1.7C84.4,374,84.3,373.8,84.2,373.6z"/>
					<path class="st5" d="M85.8,373.1v0.4c0.2-0.3,0.5-0.5,0.8-0.5s0.5,0.1,0.7,0.3c0.2,0.2,0.3,0.5,0.3,0.8v1.6h-0.4v-1.5
						c0-0.3,0-0.5-0.2-0.6c-0.1-0.1-0.3-0.2-0.5-0.2s-0.4,0-0.5,0.2c-0.1,0.1-0.2,0.3-0.2,0.6v1.5h-0.4v-2.6L85.8,373.1L85.8,373.1z
						"/>
					<path class="st5" d="M90.2,373.1h0.4v2.6h-0.4v-0.4c-0.2,0.3-0.5,0.5-0.8,0.5s-0.5-0.1-0.7-0.3c-0.2-0.2-0.3-0.5-0.3-0.8v-1.6
						h0.4v1.5c0,0.2,0,0.5,0.2,0.6s0.3,0.2,0.5,0.2s0.4,0,0.5-0.2c0.1-0.1,0.2-0.3,0.2-0.6L90.2,373.1L90.2,373.1z"/>
				</g>
				<g>
					<path class="st4" d="M13.9,330.7c0.1,0.1,0.2,0.3,0.2,0.6s-0.1,0.4-0.2,0.6c-0.1,0.1-0.4,0.2-0.7,0.2h-0.5v1.1h-0.3v-2.6h0.8
						C13.5,330.5,13.8,330.6,13.9,330.7z M12.7,331.7h0.5c0.2,0,0.3,0,0.4-0.1c0.1-0.1,0.1-0.2,0.1-0.4c0-0.3-0.2-0.5-0.6-0.5h-0.5
						v1H12.7z"/>
					<path class="st4" d="M14.7,332.8c-0.2-0.2-0.3-0.5-0.3-0.8s0.1-0.6,0.3-0.8s0.4-0.3,0.7-0.3c0.2,0,0.3,0,0.5,0.1
						c0.1,0.1,0.2,0.2,0.3,0.3v-0.4h0.3v2.1h-0.3v-0.4c0,0.1-0.2,0.2-0.3,0.3c-0.1,0.1-0.3,0.1-0.5,0.1
						C15.1,333.2,14.9,333,14.7,332.8z M16,332.6c0.1-0.1,0.2-0.3,0.2-0.6s0-0.4-0.2-0.6c-0.1-0.1-0.3-0.2-0.5-0.2s-0.4,0-0.5,0.2
						c-0.1,0.1-0.2,0.3-0.2,0.6s0,0.4,0.2,0.6c0.1,0.1,0.3,0.2,0.5,0.2C15.7,332.9,15.9,332.8,16,332.6z"/>
					<path class="st4" d="M17.3,332.8c-0.2-0.2-0.3-0.5-0.3-0.8s0.1-0.6,0.3-0.8s0.4-0.3,0.7-0.3c0.2,0,0.3,0,0.5,0.1
						c0.1,0.1,0.2,0.2,0.3,0.3v-0.4h0.3v2.1c0,0.3-0.1,0.5-0.3,0.7s-0.4,0.3-0.7,0.3s-0.5,0-0.7-0.2c-0.2-0.1-0.3-0.3-0.3-0.5h0.3
						c0,0.1,0.1,0.2,0.2,0.3c0.1,0.1,0.3,0.1,0.5,0.1s0.3,0,0.4-0.2s0.2-0.3,0.2-0.5v-0.5c0,0.1-0.2,0.2-0.3,0.3
						c-0.1,0.1-0.3,0.1-0.5,0.1C17.7,333.2,17.5,333,17.3,332.8z M18.5,332.6c0.1-0.1,0.2-0.3,0.2-0.6s0-0.4-0.2-0.6
						c-0.1-0.1-0.3-0.2-0.5-0.2s-0.4,0-0.5,0.2c-0.1,0.1-0.2,0.3-0.2,0.6s0,0.4,0.2,0.6c0.1,0.1,0.3,0.2,0.5,0.2
						S18.4,332.8,18.5,332.6z"/>
					<path class="st4" d="M20.5,333.2c-0.3,0-0.5-0.1-0.7-0.3s-0.3-0.5-0.3-0.8s0.1-0.6,0.3-0.8c0.2-0.2,0.4-0.3,0.8-0.3
						c0.3,0,0.5,0.1,0.7,0.3c0.2,0.2,0.3,0.4,0.3,0.7c0,0.1,0,0.1,0,0.2h-1.7c0,0.2,0.1,0.4,0.2,0.5s0.3,0.2,0.5,0.2
						c0.1,0,0.3,0,0.4-0.1c0.1,0,0.2-0.1,0.2-0.2h0.4c0,0.2-0.2,0.3-0.3,0.5C20.9,333.1,20.8,333.2,20.5,333.2z M21,331.5
						c-0.1-0.1-0.3-0.2-0.5-0.2s-0.3,0-0.5,0.2c-0.1,0.1-0.2,0.3-0.2,0.5h1.3C21.2,331.7,21.1,331.6,21,331.5z"/>
					<path class="st4" d="M23.3,333.1v-2.4H23v-0.3h0.7v2.7L23.3,333.1L23.3,333.1z"/>
					<path class="st4" d="M25.6,332.8c-0.2-0.2-0.3-0.5-0.3-0.8s0.1-0.6,0.3-0.8s0.4-0.3,0.8-0.3c0.3,0,0.6,0.1,0.8,0.3
						s0.3,0.5,0.3,0.8s-0.1,0.6-0.3,0.8c-0.2,0.2-0.5,0.3-0.8,0.3C26,333.2,25.8,333,25.6,332.8z M26.3,332.9c0.2,0,0.4,0,0.5-0.2
						c0.1-0.1,0.2-0.3,0.2-0.6s0-0.4-0.2-0.6c-0.1-0.1-0.3-0.2-0.5-0.2s-0.4,0-0.5,0.2c-0.1,0.1-0.2,0.3-0.2,0.6s0,0.4,0.2,0.6
						C26,332.8,26.1,332.9,26.3,332.9z"/>
					<path class="st4" d="M28.7,331v0.3h-0.4v1.8H28v-1.8h-0.3V331H28v-0.2c0-0.2,0-0.4,0.2-0.5c0.1-0.1,0.3-0.1,0.6-0.1v0.3
						c-0.1,0-0.2,0-0.3,0.1c0,0-0.1,0.1-0.1,0.3v0.2L28.7,331L28.7,331z"/>
					<path class="st4" d="M30.1,333.1v-0.2c0,0,0.1-0.1,0.3-0.2c0.1-0.1,0.2-0.2,0.3-0.2c0,0,0.1-0.1,0.2-0.2s0.2-0.2,0.2-0.2
						s0.1-0.1,0.2-0.2s0.1-0.3,0.1-0.5c0-0.1,0-0.3-0.1-0.4s-0.2-0.1-0.4-0.1c-0.2,0-0.3,0-0.4,0.1s-0.1,0.2-0.1,0.4h-0.3
						c0-0.3,0.1-0.5,0.2-0.7c0.1-0.1,0.4-0.2,0.6-0.2s0.5,0.1,0.6,0.2s0.2,0.3,0.2,0.6c0,0.3-0.1,0.6-0.4,0.9
						c-0.1,0.1-0.2,0.2-0.2,0.2c-0.1,0.1-0.3,0.3-0.5,0.5h1.3v0.3L30.1,333.1L30.1,333.1z"/>
				</g>
				<g>
					<path class="st4" d="M123.4,330.3h0.3v2.1h-0.3l-1.1-1.7v1.7H122v-2.1h0.3l1.1,1.7V330.3z"/>
					<path class="st4" d="M124.8,332.5c-0.2,0-0.4-0.1-0.6-0.2c-0.1-0.1-0.2-0.4-0.2-0.6s0.1-0.5,0.2-0.6s0.3-0.2,0.6-0.2
						s0.4,0.1,0.6,0.2c0.1,0.1,0.2,0.3,0.2,0.6v0.1h-1.3c0,0.2,0,0.3,0.1,0.4s0.2,0.1,0.4,0.1c0.1,0,0.2,0,0.3-0.1
						c0.1,0,0.1-0.1,0.2-0.2h0.3c0,0.1-0.1,0.3-0.3,0.4C125.2,332.4,125,332.5,124.8,332.5z M125.2,331.1c-0.1-0.1-0.2-0.1-0.4-0.1
						c-0.1,0-0.3,0-0.4,0.1s-0.1,0.2-0.1,0.4h1C125.3,331.3,125.3,331.2,125.2,331.1z"/>
					<path class="st4" d="M127.1,330.8l-0.5,0.8l0.5,0.8h-0.3l-0.4-0.6l-0.4,0.6h-0.3l0.5-0.8l-0.5-0.8h0.3l0.4,0.6l0.4-0.6H127.1z"
						/>
					<path class="st4" d="M127.9,332.2h0.2v0.2h-0.3c-0.3,0-0.4-0.1-0.4-0.4v-1h-0.2v-0.2h0.2v-0.4h0.3v0.4h0.4v0.2h-0.4v1
						c0,0.1,0,0.1,0,0.1L127.9,332.2z"/>
				</g>
				<g>
					<path class="st4" d="M135.2,328.2c1.8,0,3.3,1.5,3.3,3.3s-1.5,3.3-3.3,3.3h-16.8c-1.8,0-3.3-1.5-3.3-3.3s1.5-3.3,3.3-3.3H135.2
						 M135.2,327.7h-16.8c-2.1,0-3.8,1.7-3.8,3.8l0,0c0,2.1,1.7,3.8,3.8,3.8h16.8c2.1,0,3.8-1.7,3.8-3.8l0,0
						C138.9,329.4,137.2,327.7,135.2,327.7L135.2,327.7z"/>
				</g>
				<g>
					<g>
						<path class="st4" d="M131.1,329.9L131.1,329.9c0.1,0,0.2,0,0.2,0l1.1,1.1c0,0,0,0,0,0.1v0.1l-1.1,1.1c0,0,0,0-0.1,0h-0.1
							l-0.1-0.1c0,0,0,0,0-0.1V332l0.7-0.7H130h-0.1c0,0,0,0,0-0.1V331v-0.1c0,0,0,0,0.1,0h1.7l-0.7-0.7c0,0,0,0,0-0.1s0-0.1,0-0.1
							L131.1,329.9z"/>
					</g>
				</g>
				<g>
					<g>
						<g>
							<path class="st5" d="M28.2,34.4h0.7l2.5,5.8h-0.6L30,38.3h-2.7l-0.8,1.9h-0.6L28.2,34.4z M28.5,35.1l-1.1,2.6h2.3L28.5,35.1z
								"/>
						</g>
						<g>
							<path class="st5" d="M32,40.2v-5.8h0.9l2.1,5l2.1-5H38v5.8h-0.6v-5.1l-2.2,5.1h-0.5l-2.2-5.1v5.1H32z"/>
						</g>
						<g>
							<path class="st5" d="M39.2,40.2v-5.8h1.5c0.7,0,1.3,0.1,1.7,0.3C42.8,35,43,35.4,43,36v0.1c0,0.5-0.2,0.9-0.6,1.2
								c-0.4,0.3-0.8,0.5-1.5,0.5h-1.3v2.4H39.2z M39.8,34.9v2.4H41c0.5,0,0.9-0.1,1.1-0.4c0.2-0.2,0.3-0.5,0.3-0.9
								s-0.1-0.7-0.5-0.9c-0.3-0.1-0.7-0.2-1.2-0.2L39.8,34.9L39.8,34.9z"/>
						</g>
						<g>
							<path class="st5" d="M44.1,34.4h1.1l1,4.1l1-4.1H48l0.9,4.1l1-4.1H51l-1.7,5.8h-0.8l-0.9-3.9l-0.9,3.9h-0.8L44.1,34.4z"/>
						</g>
						<g>
							<path class="st5" d="M51.6,40.2v-5.8h1.6c0.8,0,1.3,0.2,1.7,0.6c0.3,0.3,0.4,0.8,0.4,1.2c0,0.5-0.2,0.9-0.5,1.3
								C54.5,37.8,54,38,53.4,38h-0.7v2.2H51.6z M52.7,36.9h0.6c0.3,0,0.5,0,0.7-0.2c0.2-0.1,0.3-0.3,0.3-0.6s-0.1-0.5-0.3-0.6
								c-0.1-0.1-0.4-0.1-0.7-0.1h-0.6V36.9L52.7,36.9z"/>
						</g>
					</g>
					<g>
						<path class="st5" d="M15.8,41.6L15.8,41.6L15.8,41.6l-0.3,1c0,0.1,0.1,0.2,0.2,0.1l0.4-0.5l0,0l0.1-0.2L15.8,41.6L15.8,41.6z"
							/>
						<g>
							<path class="st5" d="M15.1,42.2C15,42.2,15,42.2,15.1,42.2L11.9,39c-0.3-0.3-0.5-0.8-0.5-1.2s0.2-0.8,0.5-1.2l4.3-4.3
								c0.7-0.7,1.7-0.7,2.4,0l0.2,0.2c0,0,0,0.1,0,0.2c0,0-0.1,0-0.2,0l-0.2-0.2c-0.5-0.5-1.4-0.5-1.9,0l-4.3,4.3
								c-0.2,0.2-0.4,0.6-0.4,0.9c0,0.4,0.1,0.7,0.4,0.9l3.1,3.1C15.2,41.9,15.2,42,15.1,42.2C15.2,42.1,15.1,42.2,15.1,42.2z"/>
						</g>
						<g>
							<path class="st5" d="M17.4,43.8c-0.4,0-0.8-0.1-1.2-0.5L16,43.1c0,0,0-0.1,0-0.2c0,0,0.1,0,0.2,0l0.2,0.2
								c0.5,0.5,1.4,0.5,1.9,0l4.3-4.3c0.2-0.2,0.4-0.6,0.4-0.9c0-0.4-0.1-0.7-0.4-0.9l-3.1-3.1c0,0,0-0.1,0-0.2c0,0,0.1,0,0.2,0
								l3.1,3.1c0.3,0.3,0.5,0.8,0.5,1.2s-0.2,0.8-0.5,1.2l-4.3,4.3C18.3,43.6,17.8,43.8,17.4,43.8z"/>
						</g>
						<path class="st5" d="M22.2,38.4l-4.3,4.3c-0.3,0.3-0.8,0.3-1.1,0l-0.6-0.6l0,0l0.5-0.6l0,0l0,0l1-1.2c0.7-0.8,1.4-1.7,2.1-2.5
							c0.2-0.2,0.1-0.5-0.2-0.5c-0.1,0-0.2,0-0.3,0c-0.4,0-0.8-0.1-1.2-0.2c0,0-0.1,0-0.1-0.1c0.3-0.9,0.6-1.7,0.9-2.6L18.5,34h-0.1
							c-0.1,0.1-0.2,0.2-0.2,0.2l-0.1,0.1l-0.1,0l0,0l-2,2.5l0,0c0,0.1-0.1,0.1-0.2,0.2c-0.3,0.3-0.6,0.7-0.9,1.1
							c-0.2,0.2-0.1,0.5,0.2,0.5h0.1c0.4,0,0.8,0.1,1.2,0.2c0.1,0,0.2,0,0.1,0.2c0,0,0,0.1,0,0.2l-0.8,2.4l0,0l0,0l-3.2-3.2
							c-0.3-0.3-0.3-0.8,0-1.1l4.3-4.3c0.3-0.3,0.8-0.3,1.1,0l0.7,0.7l0.1-0.2l0,0l0.4-0.5c0.1-0.1,0.2,0,0.2,0.1L19,34l0,0l0,0l0,0
							l3.2,3.2C22.5,37.6,22.5,38.1,22.2,38.4z"/>
					</g>
				</g>
				<g>
					<path class="st5" d="M55.1,387.5c0.2,0.2,0.3,0.4,0.3,0.7c0,0.3-0.1,0.5-0.3,0.7s-0.5,0.3-0.8,0.3h-0.6v1.4h-0.4v-3.3h1.1
						C54.6,387.2,54.9,387.3,55.1,387.5z M53.6,388.9h0.6c0.2,0,0.4,0,0.5-0.1s0.2-0.3,0.2-0.5c0-0.4-0.2-0.6-0.7-0.6h-0.6V388.9z"
						/>
					<path class="st5" d="M56.1,390.2c-0.2-0.2-0.4-0.6-0.4-0.9s0.1-0.7,0.4-1c0.2-0.2,0.6-0.4,0.9-0.4c0.4,0,0.7,0.1,0.9,0.4
						c0.2,0.2,0.4,0.6,0.4,0.9s-0.1,0.7-0.4,0.9c-0.2,0.2-0.6,0.4-0.9,0.4C56.6,390.5,56.3,390.4,56.1,390.2z M57,390.2
						c0.2,0,0.5-0.1,0.6-0.3c0.2-0.2,0.3-0.4,0.3-0.7s-0.1-0.6-0.2-0.7c-0.2-0.2-0.4-0.2-0.6-0.2c-0.2,0-0.4,0.1-0.6,0.2
						c-0.1,0.2-0.2,0.4-0.2,0.7c0,0.3,0.1,0.6,0.2,0.7S56.8,390.2,57,390.2z"/>
					<path class="st5" d="M61.8,388h0.4l-0.8,2.6H61l-0.6-2.1l-0.6,2.1h-0.5l-0.8-2.6H59l0.6,2.2l0.6-2.2h0.4l0.6,2.2L61.8,388z"/>
					<path class="st5" d="M63.8,390.6c-0.4,0-0.7-0.1-0.9-0.4c-0.2-0.2-0.3-0.6-0.3-1s0.1-0.7,0.4-1c0.2-0.3,0.5-0.4,0.9-0.4
						s0.7,0.1,0.9,0.3c0.2,0.2,0.3,0.5,0.3,0.9c0,0.1,0,0.2,0,0.2H63c0,0.2,0.1,0.5,0.2,0.6s0.3,0.2,0.6,0.2c0.2,0,0.3,0,0.4-0.1
						s0.2-0.2,0.3-0.3H65c-0.1,0.2-0.2,0.4-0.4,0.6C64.3,390.3,64.1,390.6,63.8,390.6z M64.4,388.5c-0.1-0.1-0.3-0.2-0.6-0.2
						c-0.2,0-0.4,0.1-0.6,0.2c-0.1,0.1-0.2,0.3-0.2,0.6h1.6C64.6,388.8,64.5,388.6,64.4,388.5z"/>
					<path class="st5" d="M66,388v0.4c0.1-0.3,0.4-0.5,0.8-0.5v0.5h-0.1c-0.2,0-0.4,0-0.5,0.2c-0.1,0.1-0.2,0.3-0.2,0.6v1.4h-0.4
						V388H66L66,388z"/>
					<path class="st5" d="M68.4,390.6c-0.4,0-0.7-0.1-0.9-0.4s-0.3-0.6-0.3-1s0.1-0.7,0.4-1c0.2-0.3,0.5-0.4,0.9-0.4
						s0.7,0.1,0.9,0.3s0.3,0.5,0.3,0.9c0,0.1,0,0.2,0,0.2h-2.1c0,0.2,0.1,0.5,0.2,0.6s0.3,0.2,0.6,0.2c0.2,0,0.3,0,0.4-0.1
						s0.2-0.2,0.3-0.3h0.5c-0.1,0.2-0.2,0.4-0.4,0.6C68.9,390.4,68.7,390.6,68.4,390.6z M69,388.5c-0.1-0.1-0.3-0.2-0.6-0.2
						s-0.4,0.1-0.6,0.2c-0.1,0.1-0.2,0.3-0.2,0.6h1.6C69.2,388.8,69.1,388.6,69,388.5z"/>
					<path class="st5" d="M70.4,390.1c-0.2-0.2-0.4-0.6-0.4-1s0.1-0.7,0.3-0.9c0.2-0.2,0.5-0.4,0.9-0.4c0.2,0,0.4,0,0.6,0.1
						c0.1,0.1,0.3,0.2,0.4,0.4V387h0.4v3.5h-0.4V390c-0.1,0.2-0.2,0.3-0.4,0.4c-0.2,0.1-0.4,0.1-0.6,0.1
						C70.9,390.6,70.6,390.4,70.4,390.1z M72,389.9c0.2-0.2,0.2-0.4,0.2-0.7s-0.1-0.5-0.2-0.7c-0.2-0.2-0.4-0.3-0.6-0.3
						s-0.4,0.1-0.6,0.2c-0.2,0.2-0.2,0.4-0.2,0.7c0,0.3,0.1,0.5,0.3,0.7s0.4,0.3,0.6,0.3C71.6,390.2,71.8,390.1,72,389.9z"/>
					<path class="st5" d="M74.8,387.2H76c0.3,0,0.6,0.1,0.8,0.2c0.2,0.1,0.3,0.4,0.3,0.6c0,0.4-0.2,0.6-0.6,0.7
						c0.2,0,0.4,0.1,0.5,0.3c0.1,0.1,0.2,0.3,0.2,0.5s-0.1,0.5-0.3,0.6c-0.2,0.1-0.5,0.2-0.8,0.2h-1.2L74.8,387.2L74.8,387.2z
						 M75.2,387.6v1.1h0.7c0.2,0,0.3,0,0.5-0.1c0.1-0.1,0.2-0.2,0.2-0.4c0-0.2,0-0.3-0.2-0.4c-0.1-0.1-0.3-0.1-0.5-0.1L75.2,387.6
						L75.2,387.6z M75.2,390.1H76c0.2,0,0.4,0,0.5-0.1s0.2-0.2,0.2-0.4s0-0.3-0.2-0.4c-0.1-0.1-0.3-0.1-0.5-0.1h-0.8V390.1
						L75.2,390.1L75.2,390.1z"/>
					<path class="st5" d="M78.4,390.5l-1-2.5h0.5l0.8,2.1l0.8-2.1h0.4l-1.6,3.8h-0.4L78.4,390.5z"/>
					<path class="st5" d="M84,390.6l-0.2-0.7h-1.5l-0.2,0.7h-0.4l1.2-3.3h0.5l1.2,3.3H84z M82.4,389.4h1.2l-0.6-1.7L82.4,389.4z"/>
					<path class="st5" d="M88.3,387.2v3.3h-0.4v-2.4l-1.1,2.4h-0.3l-1.1-2.4v2.4H85v-3.3h0.4l1.2,2.7l1.2-2.7H88.3z"/>
					<path class="st5" d="M90.9,387.5c0.2,0.2,0.3,0.4,0.3,0.7c0,0.3-0.1,0.5-0.3,0.7s-0.5,0.3-0.8,0.3h-0.6v1.4H89v-3.3h1.1
						C90.4,387.2,90.7,387.3,90.9,387.5z M89.4,388.9H90c0.2,0,0.4,0,0.5-0.1s0.2-0.3,0.2-0.5c0-0.4-0.2-0.6-0.7-0.6h-0.6V388.9z"/>
					<path class="st5" d="M96.8,387.2h0.5l-1,3.3h-0.5l-0.8-2.6l-0.8,2.6h-0.5l-0.9-3.3h0.5L94,390l0.8-2.8h0.5L96,390L96.8,387.2z"
						/>
					<path class="st5" d="M99.6,387.5c0.2,0.2,0.3,0.4,0.3,0.7c0,0.3-0.1,0.5-0.3,0.7s-0.5,0.3-0.8,0.3h-0.6v1.4h-0.4v-3.3h1.1
						C99.2,387.2,99.4,387.3,99.6,387.5z M98.2,388.9h0.6c0.2,0,0.4,0,0.5-0.1s0.2-0.3,0.2-0.5c0-0.4-0.2-0.6-0.7-0.6h-0.6V388.9z"
						/>
					<path class="st5" d="M81.4,391.3V391h18.5v0.2L81.4,391.3L81.4,391.3z"/>
				</g>
			</g>
		</g>
		<g>
			<defs>
				<rect id="SVGID_3_" width="300" height="301"/>
			</defs>
			<clipPath id="SVGID_4_">
				<use xlink:href="#SVGID_3_"  style="overflow:visible;"/>
			</clipPath>
			<g class="st8">
				<rect x="153.5" y="26.3" class="st9" width="141.6" height="584.4"/>
				<g>
					<path class="st10" d="M161.4,348h-0.1c-1.1,0-2.1-0.9-2.1-2.1V240h130.2v106c0,1.1-0.9,2-2.1,2H161.4z"/>
					<path class="st11" d="M289.3,240.1V346c0,1.1-0.8,1.9-1.9,1.9H161.5l0,0h-0.2c-1.1,0-1.9-0.8-1.9-1.9V240.1H289.3 M289.5,239.8
						H159.1v106c0,1.2,1,2.2,2.2,2.2l0,0h126.1c1.2,0,2.2-1,2.2-2.2v-106H289.5z"/>
				</g>
				<path class="st12" d="M283.1,549.6h-16.8c-2.1,0-3.8-1.7-3.8-3.8l0,0c0-2.1,1.7-3.8,3.8-3.8h16.8c2.1,0,3.8,1.7,3.8,3.8l0,0
					C286.8,547.9,285.2,549.6,283.1,549.6z"/>
				<g>
					<g>
						<rect x="153.5" y="48.1" class="st10" width="141.6" height="110.9"/>
					</g>
				</g>
				<g>
					<rect x="153.5" y="26.3" class="st12" width="141.6" height="21.9"/>
				</g>
				<g>
					<g>
						<g>
							<g>
								<rect x="207.8" y="85" class="st13" width="32.9" height="18.8"/>
							</g>
						</g>
						<g>
							<g>
								<path class="st12" d="M240.2,85.6v17.8h-31.9V85.6H240.2 M241.3,84.6h-33.9v19.8h33.9L241.3,84.6L241.3,84.6z"/>
							</g>
						</g>
					</g>
					<g>
						<g>
							<circle class="st12" cx="211.7" cy="88.7" r="1.7"/>
						</g>
					</g>
					<g>
						<g>
							<polygon class="st12" points="241.3,104.3 241.3,96.9 232.5,88.1 218.9,101.7 221.6,104.3 							"/>
						</g>
					</g>
					<g>
						<g>
							<polygon class="st12" points="207.3,104.3 230.5,104.3 218.9,92.7 207.3,104.3 207.3,104.4 							"/>
						</g>
					</g>
				</g>
				<g>
					<rect x="172.1" y="249.4" class="st12" width="43.6" height="4.9"/>
				</g>
				<g>
					<rect x="172.1" y="332.3" class="st12" width="43.6" height="4.9"/>
				</g>
				<g>
					<rect x="172.1" y="286.1" class="st14" width="103.6" height="4.9"/>
				</g>
				<g>
					<rect x="172.1" y="294.5" class="st14" width="103.6" height="4.9"/>
				</g>
				<g>
					<rect x="172.1" y="302.8" class="st14" width="103.6" height="4.9"/>
				</g>
				<g>
					<rect x="172.1" y="311.2" class="st14" width="72.4" height="4.9"/>
				</g>
				<g>
					<rect x="172.1" y="261.7" class="st12" width="103.6" height="6.2"/>
				</g>
				<g>
					<rect x="172.1" y="271" class="st12" width="72.4" height="6.2"/>
				</g>
				<g>
					<rect x="159.1" y="144.2" class="st12" width="74.1" height="4.7"/>
				</g>
				<g>
					<rect x="159.1" y="137" class="st12" width="130.4" height="4.7"/>
				</g>
				<g>
					<g>
						<rect x="281.6" y="34.1" class="st5" width="7.7" height="1.1"/>
					</g>
					<g>
						<rect x="281.6" y="36.7" class="st5" width="7.7" height="1.1"/>
					</g>
					<g>
						<rect x="281.6" y="39.3" class="st5" width="7.7" height="1.1"/>
					</g>
				</g>
				<path class="st5" d="M270.6,39.3L270.6,39.3c-0.2-0.2-0.5-0.5-0.8-0.8l-0.1-0.1l0.1-0.2c0.3-0.4,0.4-0.9,0.4-1.5
					c0-0.2,0-0.3,0-0.5c-0.1-0.7-0.6-1.3-1.1-1.7c-0.6-0.4-1.3-0.6-2-0.5c-0.6,0.1-1.2,0.4-1.6,0.9s-0.7,1.1-0.7,1.7
					c0,0.8,0.2,1.5,0.8,2.1s1.2,0.8,2,0.8c0.5,0,1-0.1,1.5-0.4l0.2-0.1l0.1,0.1c0.4,0.4,0.7,0.7,1.1,1.1l0.2,0.2l0,0
					c0,0.1,0.1,0.1,0.2,0.2c0.1,0.1,0.2,0.1,0.3,0.1c0.1,0,0.2-0.1,0.3-0.2c0-0.1,0.1-0.3-0.1-0.5C271,39.7,270.8,39.4,270.6,39.3z
					 M267.4,38.8c-1.1,0-2.1-0.9-2.1-2.1s0.9-2.1,2.1-2.1c1.1,0,2.1,0.9,2.1,2.1S268.6,38.8,267.4,38.8z"/>
				<g>
					<g>
						<path class="st15" d="M163.1,119.6h19.3c2.2,0,4,1.8,4,4l0,0c0,2.2-1.8,4-4,4h-19.3c-2.2,0-4-1.8-4-4l0,0
							C159.1,121.4,160.9,119.6,163.1,119.6z"/>
					</g>
				</g>
				<g>
					<g>
						<path class="st15" d="M194.5,119.6h19.3c2.2,0,4,1.8,4,4l0,0c0,2.2-1.8,4-4,4h-19.3c-2.2,0-4-1.8-4-4l0,0
							C190.5,121.4,192.3,119.6,194.5,119.6z"/>
					</g>
				</g>
				<g>
					<g>
						<g>
							<path class="st5" d="M175.9,34.4h0.7l2.5,5.8h-0.6l-0.8-1.9H175l-0.8,1.9h-0.6L175.9,34.4z M176.2,35.1l-1.1,2.6h2.3
								L176.2,35.1z"/>
						</g>
						<g>
							<path class="st5" d="M179.7,40.2v-5.8h0.9l2.1,5l2.1-5h0.9v5.8h-0.6v-5.1l-2.2,5.1h-0.5l-2.2-5.1v5.1H179.7z"/>
						</g>
						<g>
							<path class="st5" d="M186.9,40.2v-5.8h1.5c0.7,0,1.3,0.1,1.7,0.3c0.5,0.3,0.7,0.7,0.7,1.3v0.1c0,0.5-0.2,0.9-0.6,1.2
								c-0.4,0.3-0.8,0.5-1.5,0.5h-1.3v2.4H186.9z M187.5,34.9v2.4h1.2c0.5,0,0.9-0.1,1.1-0.4c0.2-0.2,0.3-0.5,0.3-0.9
								s-0.1-0.7-0.5-0.9c-0.3-0.1-0.7-0.2-1.2-0.2L187.5,34.9L187.5,34.9z"/>
						</g>
						<g>
							<path class="st5" d="M191.8,34.4h1.1l1,4.1l1-4.1h0.8l0.9,4.1l1-4.1h1.1l-1.7,5.8h-0.8l-0.9-3.9l-0.9,3.9h-0.8L191.8,34.4z"
								/>
						</g>
						<g>
							<path class="st5" d="M199.3,40.2v-5.8h1.6c0.8,0,1.3,0.2,1.7,0.6c0.3,0.3,0.4,0.8,0.4,1.2c0,0.5-0.2,0.9-0.5,1.3
								c-0.3,0.3-0.8,0.5-1.4,0.5h-0.7v2.2C200.4,40.2,199.3,40.2,199.3,40.2z M200.4,36.9h0.6c0.3,0,0.5,0,0.7-0.2
								c0.2-0.1,0.3-0.3,0.3-0.6s-0.1-0.5-0.3-0.6c-0.1-0.1-0.4-0.1-0.7-0.1h-0.6V36.9L200.4,36.9z"/>
						</g>
					</g>
					<g>
						<path class="st5" d="M163.5,41.6L163.5,41.6L163.5,41.6l-0.3,1c0,0.1,0.1,0.2,0.2,0.1l0.4-0.5l0,0l0.1-0.2L163.5,41.6
							L163.5,41.6z"/>
						<g>
							<path class="st5" d="M162.8,42.2C162.8,42.2,162.7,42.2,162.8,42.2l-3.2-3.2c-0.3-0.3-0.5-0.8-0.5-1.2s0.2-0.8,0.5-1.2
								l4.3-4.3c0.7-0.7,1.7-0.7,2.4,0l0.2,0.2c0,0,0,0.1,0,0.2c0,0-0.1,0-0.2,0l-0.2-0.2c-0.5-0.5-1.4-0.5-1.9,0l-4.3,4.3
								c-0.2,0.2-0.4,0.6-0.4,0.9c0,0.4,0.1,0.7,0.4,0.9l3.1,3.1C162.9,41.9,162.9,42,162.8,42.2C162.9,42.1,162.9,42.2,162.8,42.2z
								"/>
						</g>
						<g>
							<path class="st5" d="M165.1,43.8c-0.4,0-0.8-0.1-1.2-0.5l-0.2-0.2c0,0,0-0.1,0-0.2c0,0,0.1,0,0.2,0l0.2,0.2
								c0.5,0.5,1.4,0.5,1.9,0l4.3-4.3c0.2-0.2,0.4-0.6,0.4-0.9c0-0.4-0.1-0.7-0.4-0.9l-3.1-3.1c0,0,0-0.1,0-0.2c0,0,0.1,0,0.2,0
								l3.1,3.1c0.3,0.3,0.5,0.8,0.5,1.2s-0.2,0.8-0.5,1.2l-4.3,4.3C166,43.6,165.5,43.8,165.1,43.8z"/>
						</g>
						<path class="st5" d="M169.9,38.4l-4.3,4.3c-0.3,0.3-0.8,0.3-1.1,0l-0.6-0.6l0,0l0.5-0.6l0,0l0,0l1-1.2
							c0.7-0.8,1.4-1.7,2.1-2.5c0.2-0.2,0.1-0.5-0.2-0.5c-0.1,0-0.2,0-0.3,0c-0.4,0-0.8-0.1-1.2-0.2c0,0-0.1,0-0.1-0.1
							c0.3-0.9,0.6-1.7,0.9-2.6l-0.4-0.4h-0.1c-0.1,0.1-0.2,0.2-0.2,0.2l-0.1,0.1l-0.2,0.2l0,0l-2,2.5l0,0c0,0.1-0.1,0.1-0.2,0.2
							c-0.3,0.3-0.6,0.7-0.9,1.1c-0.2,0.2-0.1,0.5,0.2,0.5h0.1c0.4,0,0.8,0.1,1.2,0.2c0.1,0,0.2,0,0.1,0.2c0,0,0,0.1,0,0.2l-0.8,2.4
							l0,0l0,0l-3.2-3.2c-0.3-0.3-0.3-0.8,0-1.1l4.3-4.3c0.3-0.3,0.8-0.3,1.1,0l0.7,0.7l0.1-0.2l0,0l0.4-0.5c0.1-0.1,0.2,0,0.2,0.1
							l-0.3,0.9l0,0l0,0l0,0l3.2,3.2C170.2,37.6,170.2,38.1,169.9,38.4z"/>
					</g>
				</g>
				<path class="st12" d="M289.5,240.1H159.1v-67.7c0-1,0.8-1.9,1.9-1.9h126.6c1,0,1.9,0.8,1.9,1.9V240.1L289.5,240.1z"/>
				<g>
					<g>
						<path class="st15" d="M169.7,223.3H189c2.2,0,4,1.8,4,4l0,0c0,2.2-1.8,4-4,4h-19.3c-2.2,0-4-1.8-4-4l0,0
							C165.7,225.1,167.5,223.3,169.7,223.3z"/>
					</g>
				</g>
				<g>
					<g>
						<path class="st15" d="M201.1,223.3h19.3c2.2,0,4,1.8,4,4l0,0c0,2.2-1.8,4-4,4h-19.3c-2.2,0-4-1.8-4-4l0,0
							C197.1,225.1,198.9,223.3,201.1,223.3z"/>
					</g>
				</g>
				<g>
					<line class="st16" x1="172.1" y1="324.7" x2="275.7" y2="324.7"/>
				</g>
				
					<text transform="matrix(1 0 0 1 261.709 336.0233)" class="st12" style="font-family:'MyriadPro-Regular'; font-size:5.6639px;"></text>
				<text transform="matrix(1 0 0 1 270.2236 336.0233)" class="st12" style="font-family:'Poppins-Regular'; font-size:5.6639px;">10</text>
				<g>
					<path class="st10" d="M161.4,536.1h-0.1c-1.1,0-2.1-0.9-2.1-2.1V428.1h130.2v106c0,1.1-0.9,2-2.1,2H161.4L161.4,536.1z"/>
					<path class="st11" d="M289.3,428.2V534c0,1.1-0.8,1.9-1.9,1.9H161.5l0,0h-0.2c-1.1,0-1.9-0.8-1.9-1.9V428.2H289.3 M289.5,428
						H159.1v106c0,1.2,1,2.2,2.2,2.2l0,0h126.1c1.2,0,2.2-1,2.2-2.2V428H289.5z"/>
				</g>
				<g>
					<rect x="172.1" y="437.5" class="st12" width="43.6" height="4.9"/>
				</g>
				<g>
					<rect x="172.1" y="520.4" class="st12" width="43.6" height="4.9"/>
				</g>
				<g>
					<rect x="172.1" y="474.2" class="st14" width="103.6" height="4.9"/>
				</g>
				<g>
					<rect x="172.1" y="482.5" class="st14" width="103.6" height="4.9"/>
				</g>
				<g>
					<rect x="172.1" y="490.9" class="st14" width="103.6" height="4.9"/>
				</g>
				<g>
					<rect x="172.1" y="499.3" class="st14" width="72.4" height="4.9"/>
				</g>
				<g>
					<rect x="172.1" y="449.8" class="st12" width="103.6" height="6.2"/>
				</g>
				<g>
					<rect x="172.1" y="459.1" class="st12" width="72.4" height="6.2"/>
				</g>
				<path class="st12" d="M289.5,428.2H159.1v-67.7c0-1,0.8-1.9,1.9-1.9h126.6c1,0,1.9,0.8,1.9,1.9V428.2L289.5,428.2z"/>
				<g>
					<g>
						<g>
							<path class="st15" d="M169.7,411.4H189c2.2,0,4,1.8,4,4l0,0c0,2.2-1.8,4-4,4h-19.3c-2.2,0-4-1.8-4-4l0,0
								C165.7,413.2,167.5,411.4,169.7,411.4z"/>
						</g>
					</g>
				</g>
				<g>
					<g>
						<g>
							<path class="st15" d="M201.1,411.4h19.3c2.2,0,4,1.8,4,4l0,0c0,2.2-1.8,4-4,4h-19.3c-2.2,0-4-1.8-4-4l0,0
								C197.1,413.2,198.9,411.4,201.1,411.4z"/>
						</g>
					</g>
				</g>
				<g>
					<line class="st16" x1="172.1" y1="512.8" x2="275.7" y2="512.8"/>
				</g>
				
					<text transform="matrix(1 0 0 1 261.709 524.1112)" class="st12" style="font-family:'MyriadPro-Regular'; font-size:5.6639px;"></text>
				<text transform="matrix(1 0 0 1 270.2236 524.1112)" class="st12" style="font-family:'Poppins-Regular'; font-size:5.6639px;">10</text>
				<g>
					<g>
						<g>
							<rect x="153.7" y="556.9" class="st17" width="141.6" height="21.2"/>
						</g>
					</g>
					<g>
						<g>
							<rect x="153.7" y="578.1" class="st12" width="141.6" height="18.6"/>
						</g>
					</g>
					<g>
						<g>
							<rect x="153.7" y="596.7" class="st15" width="141.6" height="14"/>
						</g>
					</g>
					<g>
						<path class="st7" d="M244.2,572.1h-39.5c-2.5,0-4.6-2.1-4.6-4.6l0,0c0-2.5,2.1-4.6,4.6-4.6h39.5c2.5,0,4.6,2.1,4.6,4.6l0,0
							C248.8,570.1,246.7,572.1,244.2,572.1z"/>
						<g>
							<path class="st5" d="M206.8,565.2c0.8,0,1.5,0,2.3,0c0.3,0,0.5,0.2,0.5,0.5c0,0.8,0,1.7,0,2.5c0,0.3-0.2,0.5-0.5,0.5
								c-1.5,0-3,0-4.5,0c-0.3,0-0.5-0.2-0.5-0.5c0-0.8,0-1.7,0-2.6c0-0.3,0.2-0.5,0.5-0.5C205.2,565.2,206,565.2,206.8,565.2z
								 M209.2,568C209.2,567.9,209.2,567.9,209.2,568c0-0.8,0-1.5,0-2.2c0-0.1,0-0.2-0.2-0.2c-1.5,0-3,0-4.5,0
								c-0.1,0-0.2,0-0.2,0.2c0,0.7,0,1.5,0,2.2l0,0C205.9,568,207.6,568,209.2,568z M206.8,568.6c0.1,0,0.2-0.1,0.2-0.2
								c0-0.1-0.1-0.2-0.2-0.2c-0.1,0-0.2,0.1-0.2,0.2C206.5,568.5,206.6,568.6,206.8,568.6z"/>
							<path class="st5" d="M206.3,569c0.3,0,0.5,0,0.8,0c0,0,0,0.1,0,0.2c0,0.2,0.1,0.4,0.4,0.4l0,0c0,0,0,0,0,0.1s0,0,0,0.1
								c0,0,0,0-0.1,0c-0.5,0-1,0-1.6,0l0,0c0,0-0.1,0-0.1-0.1s0-0.1,0.1-0.1l0,0c0.2,0,0.4-0.1,0.4-0.4
								C206.3,569.2,206.3,569.1,206.3,569z"/>
						</g>
						<g>
							<path class="st5" d="M212.1,568.3l-0.8-2.2h0.3l0.7,1.9l0.7-1.9h0.3l-0.8,2.2H212.1z"/>
							<path class="st5" d="M213.9,566.2h-0.1h-0.1v-0.1V566h0.1h0.1V566.2L213.9,566.2z M213.6,568.3v-1.7h0.3v1.7H213.6z"/>
							<path class="st5" d="M215.1,568.4c-0.2,0-0.5-0.1-0.6-0.2c-0.1-0.2-0.2-0.4-0.2-0.7s0.1-0.5,0.2-0.7c0.1-0.2,0.4-0.2,0.6-0.2
								s0.5,0.1,0.6,0.2c0.1,0.1,0.2,0.4,0.2,0.6c0,0,0,0.1,0,0.2h-1.4c0,0.2,0,0.3,0.1,0.4c0.1,0.1,0.2,0.1,0.4,0.1
								c0.1,0,0.2,0,0.3-0.1c0.1,0,0.1-0.1,0.2-0.2h0.3c0,0.1-0.1,0.3-0.3,0.4C215.5,568.3,215.3,568.4,215.1,568.4z M215.5,566.9
								c-0.1-0.1-0.2-0.1-0.4-0.1s-0.3,0-0.4,0.1c-0.1,0.1-0.1,0.2-0.2,0.4h1.1C215.7,567.1,215.6,567,215.5,566.9z"/>
							<path class="st5" d="M218.4,566.6h0.3l-0.6,1.7h-0.3l-0.4-1.4l-0.4,1.4h-0.3l-0.6-1.7h0.3l0.4,1.5l0.4-1.5h0.3l0.4,1.5
								L218.4,566.6z"/>
							<path class="st5" d="M220.6,566.1c0.4,0,0.7,0.1,0.8,0.3c0.2,0.2,0.3,0.5,0.3,0.8s-0.1,0.6-0.3,0.8s-0.5,0.3-0.8,0.3h-0.7
								V566L220.6,566.1L220.6,566.1z M220.2,568.1h0.4c0.3,0,0.5-0.1,0.7-0.2c0.1-0.1,0.2-0.4,0.2-0.7s-0.1-0.5-0.2-0.7
								c-0.1-0.1-0.4-0.2-0.7-0.2h-0.4V568.1z"/>
							<path class="st5" d="M222.8,568.4c-0.2,0-0.5-0.1-0.6-0.2c-0.1-0.2-0.2-0.4-0.2-0.7s0.1-0.5,0.2-0.7c0.1-0.2,0.4-0.2,0.6-0.2
								s0.5,0.1,0.6,0.2s0.2,0.4,0.2,0.6c0,0,0,0.1,0,0.2h-1.4c0,0.2,0,0.3,0.1,0.4c0.1,0.1,0.2,0.1,0.4,0.1s0.2,0,0.3-0.1
								c0.1,0,0.1-0.1,0.2-0.2h0.3c0,0.1-0.1,0.3-0.3,0.4C223.2,568.3,223.1,568.4,222.8,568.4z M223.3,566.9
								c-0.1-0.1-0.2-0.1-0.4-0.1s-0.3,0-0.4,0.1c-0.1,0.1-0.1,0.2-0.2,0.4h1.1C223.4,567.1,223.4,567,223.3,566.9z"/>
							<path class="st5" d="M224,567c0-0.1,0-0.3,0.2-0.4c0.1-0.1,0.3-0.1,0.5-0.1s0.3,0,0.5,0.1c0.1,0.1,0.2,0.2,0.2,0.4h-0.3
								c0-0.1,0-0.2-0.1-0.2s-0.1-0.1-0.2-0.1c-0.1,0-0.2,0-0.2,0.1c0,0-0.1,0.1-0.1,0.2c0,0.1,0,0.1,0.1,0.2c0.1,0,0.1,0.1,0.2,0.1
								c0.1,0,0.2,0,0.3,0s0.2,0.1,0.2,0.1c0.1,0.1,0.1,0.2,0.1,0.3s0,0.2-0.2,0.3c-0.1,0.1-0.3,0.1-0.5,0.1s-0.4,0-0.5-0.1
								s-0.2-0.2-0.2-0.4h0.3c0,0.1,0,0.2,0.1,0.2c0,0,0.1,0.1,0.3,0.1c0.1,0,0.2,0,0.3-0.1c0.1,0,0.1-0.1,0.1-0.2
								c0-0.1,0-0.1-0.1-0.2c0,0-0.1-0.1-0.2-0.1s-0.1,0-0.2,0c-0.1,0-0.2,0-0.2-0.1c-0.1,0-0.1-0.1-0.2-0.1S224,567.1,224,567z"/>
							<path class="st5" d="M226.1,568.3h-0.3v-2.4h0.3v1.4l0.7-0.8h0.4l-0.8,0.9l0.8,0.9h-0.4l-0.7-0.8V568.3L226.1,568.3z"/>
							<path class="st5" d="M228,568.1h0.2v0.2h-0.3c-0.3,0-0.5-0.1-0.5-0.5v-1.1h-0.2v-0.2h0.2v-0.4h0.3v0.4h0.5v0.2h-0.5v1.1
								c0,0.1,0,0.1,0,0.2C227.9,568.1,227.9,568.1,228,568.1z"/>
							<path class="st5" d="M228.7,568.1c-0.1-0.2-0.2-0.4-0.2-0.7s0.1-0.5,0.2-0.7c0.2-0.2,0.4-0.2,0.6-0.2s0.5,0.1,0.6,0.2
								c0.2,0.2,0.2,0.4,0.2,0.7s-0.1,0.5-0.3,0.7s-0.4,0.2-0.7,0.2C229,568.4,228.8,568.3,228.7,568.1z M229.3,568.1
								c0.1,0,0.3,0,0.4-0.2c0.1-0.1,0.2-0.3,0.2-0.5s0-0.4-0.2-0.5c-0.1-0.1-0.2-0.2-0.4-0.2s-0.3,0-0.4,0.2
								c-0.1,0.1-0.2,0.3-0.2,0.5s0,0.4,0.1,0.5C229,568,229.1,568.1,229.3,568.1z"/>
							<path class="st5" d="M231.5,566.5c0.2,0,0.4,0.1,0.6,0.2c0.1,0.2,0.2,0.4,0.2,0.7s-0.1,0.5-0.2,0.7c-0.1,0.2-0.4,0.2-0.6,0.2
								c-0.1,0-0.3,0-0.4-0.1c-0.1-0.1-0.2-0.1-0.2-0.3v1.2h-0.3v-2.6h0.3v0.3c0-0.1,0.1-0.2,0.2-0.3
								C231.2,566.5,231.3,566.5,231.5,566.5z M231.4,568.1c0.1,0,0.3,0,0.4-0.2c0.1-0.1,0.2-0.3,0.2-0.5s0-0.4-0.2-0.5
								c-0.1-0.1-0.2-0.2-0.4-0.2c-0.1,0-0.3,0-0.4,0.2c-0.1,0.1-0.2,0.3-0.2,0.5s0,0.4,0.2,0.5C231.2,568,231.3,568.1,231.4,568.1z
								"/>
							<path class="st5" d="M234.4,568.3l-0.8-2.2h0.3l0.7,1.9l0.7-1.9h0.3l-0.8,2.2H234.4z"/>
							<path class="st5" d="M236.6,568.4c-0.2,0-0.5-0.1-0.6-0.2c-0.1-0.2-0.2-0.4-0.2-0.7s0.1-0.5,0.2-0.7c0.1-0.2,0.4-0.2,0.6-0.2
								s0.5,0.1,0.6,0.2c0.1,0.1,0.2,0.4,0.2,0.6c0,0,0,0.1,0,0.2H236c0,0.2,0,0.3,0.1,0.4c0.1,0.1,0.2,0.1,0.4,0.1
								c0.1,0,0.2,0,0.3-0.1c0.1,0,0.1-0.1,0.2-0.2h0.3c0,0.1-0.1,0.3-0.3,0.4C237,568.3,236.8,568.4,236.6,568.4z M237,566.9
								c-0.1-0.1-0.2-0.1-0.4-0.1s-0.3,0-0.4,0.1c-0.1,0.1-0.1,0.2-0.2,0.4h1.1C237.1,567.1,237.1,567,237,566.9z"/>
							<path class="st5" d="M238.1,566.6v0.3c0.1-0.2,0.3-0.3,0.5-0.3v0.3h-0.1c-0.1,0-0.3,0-0.3,0.1s-0.1,0.2-0.1,0.4v0.9h-0.3
								v-1.7H238.1L238.1,566.6z"/>
							<path class="st5" d="M238.9,567c0-0.1,0-0.3,0.2-0.4c0.1-0.1,0.3-0.1,0.5-0.1s0.3,0,0.5,0.1c0.1,0.1,0.2,0.2,0.2,0.4H240
								c0-0.1,0-0.2-0.1-0.2c0,0-0.1-0.1-0.2-0.1c-0.1,0-0.2,0-0.2,0.1c0,0-0.1,0.1-0.1,0.2c0,0.1,0,0.1,0.1,0.2
								c0.1,0,0.1,0.1,0.2,0.1c0.1,0,0.2,0,0.3,0s0.2,0.1,0.2,0.1c0.1,0.1,0.1,0.2,0.1,0.3s0,0.2-0.2,0.3c-0.1,0.1-0.3,0.1-0.5,0.1
								s-0.4,0-0.5-0.1s-0.2-0.2-0.2-0.4h0.3c0,0.1,0,0.2,0.1,0.2c0,0,0.1,0.1,0.3,0.1c0.1,0,0.2,0,0.3-0.1c0.1,0,0.1-0.1,0.1-0.2
								c0-0.1,0-0.1-0.1-0.2s-0.1-0.1-0.2-0.1c-0.1,0-0.1,0-0.2,0c-0.1,0-0.2,0-0.2-0.1c-0.1,0-0.1-0.1-0.2-0.1
								S238.9,567.1,238.9,567z"/>
							<path class="st5" d="M241,566.2h-0.1h-0.1v-0.1V566h0.1h0.1V566.2L241,566.2z M240.6,568.3v-1.7h0.3v1.7H240.6z"/>
							<path class="st5" d="M241.6,568.1c-0.1-0.2-0.2-0.4-0.2-0.7s0.1-0.5,0.2-0.7c0.2-0.2,0.4-0.2,0.6-0.2s0.5,0.1,0.6,0.2
								c0.2,0.2,0.2,0.4,0.2,0.7s-0.1,0.5-0.3,0.7s-0.4,0.2-0.7,0.2C241.9,568.4,241.7,568.3,241.6,568.1z M242.2,568.1
								c0.1,0,0.3,0,0.4-0.2c0.1-0.1,0.2-0.3,0.2-0.5s0-0.4-0.2-0.5c-0.1-0.1-0.2-0.2-0.4-0.2s-0.3,0-0.4,0.2
								c-0.1,0.1-0.2,0.3-0.2,0.5s0,0.4,0.1,0.5C241.9,568,242,568.1,242.2,568.1z"/>
							<path class="st5" d="M243.8,566.6v0.3c0.1-0.2,0.3-0.3,0.6-0.3c0.2,0,0.4,0,0.5,0.2c0.1,0.1,0.2,0.3,0.2,0.6v1h-0.3v-1
								c0-0.2,0-0.3-0.1-0.4c-0.1-0.1-0.2-0.1-0.3-0.1s-0.3,0-0.4,0.1c-0.1,0.1-0.1,0.2-0.1,0.4v1h-0.3v-1.7L243.8,566.6
								L243.8,566.6z"/>
						</g>
					</g>
					<g>
						<path class="st5" d="M210.4,590v-3.3h1.8v0.3h-1.4v1.1h1.1v0.3h-1.1v1.5L210.4,590L210.4,590z"/>
						<path class="st5" d="M212.9,589.7c-0.2-0.2-0.4-0.6-0.4-0.9s0.1-0.7,0.4-1c0.2-0.2,0.6-0.4,0.9-0.4s0.7,0.1,0.9,0.4
							s0.4,0.6,0.4,0.9s-0.1,0.7-0.4,0.9c-0.3,0.2-0.6,0.4-0.9,0.4S213.1,589.9,212.9,589.7z M213.8,589.7c0.2,0,0.5-0.1,0.6-0.3
							s0.3-0.4,0.3-0.7s-0.1-0.6-0.2-0.7c-0.2-0.2-0.4-0.2-0.6-0.2s-0.4,0.1-0.6,0.2c-0.1,0.2-0.2,0.4-0.2,0.7s0.1,0.6,0.2,0.7
							C213.4,589.6,213.6,589.7,213.8,589.7z"/>
						<path class="st5" d="M215.9,589.7c-0.2-0.2-0.4-0.6-0.4-0.9s0.1-0.7,0.4-1c0.2-0.2,0.6-0.4,0.9-0.4s0.7,0.1,0.9,0.4
							c0.2,0.2,0.4,0.6,0.4,0.9s-0.1,0.7-0.4,0.9c-0.3,0.2-0.6,0.4-0.9,0.4S216.1,589.9,215.9,589.7z M216.8,589.7
							c0.2,0,0.5-0.1,0.6-0.3s0.3-0.4,0.3-0.7s-0.1-0.6-0.2-0.7c-0.2-0.2-0.4-0.2-0.6-0.2c-0.2,0-0.4,0.1-0.6,0.2
							c-0.1,0.2-0.2,0.4-0.2,0.7s0.1,0.6,0.2,0.7C216.4,589.6,216.6,589.7,216.8,589.7z"/>
						<path class="st5" d="M219.5,589.6h0.4v0.3h-0.4c-0.5,0-0.7-0.2-0.7-0.7v-1.6h-0.3v-0.3h0.3v-0.7h0.4v0.7h0.7v0.3h-0.7v1.6
							c0,0.1,0,0.2,0,0.2C219.3,589.6,219.4,589.6,219.5,589.6z"/>
						<path class="st5" d="M221.4,590.1c-0.4,0-0.7-0.1-0.9-0.4c-0.2-0.2-0.3-0.6-0.3-1s0.1-0.7,0.4-1c0.2-0.3,0.5-0.4,0.9-0.4
							s0.7,0.1,0.9,0.3s0.3,0.5,0.3,0.9c0,0.1,0,0.2,0,0.2h-2.1c0,0.2,0.1,0.5,0.2,0.6c0.1,0.1,0.3,0.2,0.6,0.2c0.2,0,0.3,0,0.4-0.1
							c0.1-0.1,0.2-0.2,0.3-0.3h0.5c-0.1,0.2-0.2,0.4-0.4,0.6C222,590,221.8,590.1,221.4,590.1z M222,587.9
							c-0.1-0.1-0.3-0.2-0.6-0.2s-0.4,0.1-0.6,0.2c-0.1,0.1-0.2,0.3-0.2,0.6h1.7C222.2,588.3,222.2,588.1,222,587.9z"/>
						<path class="st5" d="M223.6,587.4v0.4c0.1-0.3,0.4-0.5,0.8-0.5v0.5h-0.1c-0.2,0-0.4,0-0.5,0.2c-0.1,0.1-0.2,0.3-0.2,0.6v1.4
							h-0.4v-2.6L223.6,587.4L223.6,587.4z"/>
						<path class="st5" d="M229.7,586.7v3.3h-0.4v-2.4l-1.1,2.4h-0.3l-1.1-2.4v2.4h-0.4v-3.3h0.4l1.2,2.7l1.2-2.7H229.7z"/>
						<path class="st5" d="M231.5,590.1c-0.4,0-0.7-0.1-0.9-0.4c-0.2-0.2-0.3-0.6-0.3-1s0.1-0.7,0.4-1c0.2-0.3,0.5-0.4,0.9-0.4
							s0.7,0.1,0.9,0.3s0.3,0.5,0.3,0.9c0,0.1,0,0.2,0,0.2h-2.1c0,0.2,0.1,0.5,0.2,0.6c0.1,0.1,0.3,0.2,0.6,0.2c0.2,0,0.3,0,0.4-0.1
							c0.1-0.1,0.2-0.2,0.3-0.3h0.5c-0.1,0.2-0.2,0.4-0.4,0.6C232.1,590,231.8,590.1,231.5,590.1z M232.1,587.9
							c-0.1-0.1-0.3-0.2-0.6-0.2s-0.4,0.1-0.6,0.2c-0.1,0.1-0.2,0.3-0.2,0.6h1.7C232.3,588.3,232.2,588.1,232.1,587.9z"/>
						<path class="st5" d="M233.7,587.4v0.4c0.2-0.3,0.5-0.5,0.8-0.5s0.5,0.1,0.7,0.3s0.3,0.5,0.3,0.8v1.6h-0.4v-1.5
							c0-0.3,0-0.5-0.2-0.6c-0.1-0.1-0.3-0.2-0.5-0.2s-0.4,0-0.5,0.2c-0.1,0.1-0.2,0.3-0.2,0.6v1.5h-0.4v-2.6H233.7z"/>
						<path class="st5" d="M238.1,587.4h0.4v2.6h-0.4v-0.4c-0.2,0.3-0.5,0.5-0.8,0.5s-0.5-0.1-0.7-0.3s-0.3-0.5-0.3-0.8v-1.6h0.4
							v1.5c0,0.2,0,0.5,0.2,0.6c0.1,0.1,0.3,0.2,0.5,0.2s0.4,0,0.5-0.2c0.1-0.1,0.2-0.3,0.2-0.6L238.1,587.4L238.1,587.4z"/>
					</g>
					<g>
						<path class="st5" d="M203.8,602.4c0.2,0.2,0.3,0.4,0.3,0.7s-0.1,0.5-0.3,0.7s-0.5,0.3-0.8,0.3h-0.6v1.4H202v-3.3h1.1
							C203.3,602.1,203.6,602.2,203.8,602.4z M202.3,603.7h0.6c0.2,0,0.4,0,0.5-0.1s0.2-0.3,0.2-0.5c0-0.4-0.2-0.6-0.7-0.6h-0.6
							V603.7z"/>
						<path class="st5" d="M204.8,605.1c-0.2-0.2-0.4-0.6-0.4-0.9s0.1-0.7,0.4-1c0.2-0.2,0.6-0.4,0.9-0.4s0.7,0.1,0.9,0.4
							c0.2,0.2,0.4,0.6,0.4,0.9s-0.1,0.7-0.4,0.9c-0.2,0.2-0.6,0.4-0.9,0.4S205,605.3,204.8,605.1z M205.7,605.1
							c0.2,0,0.5-0.1,0.6-0.3c0.2-0.2,0.3-0.4,0.3-0.7s-0.1-0.6-0.2-0.7c-0.2-0.2-0.4-0.2-0.6-0.2c-0.2,0-0.4,0.1-0.6,0.2
							c-0.1,0.2-0.2,0.4-0.2,0.7s0.1,0.6,0.2,0.7C205.3,604.9,205.5,605.1,205.7,605.1z"/>
						<path class="st5" d="M210.5,602.8h0.4l-0.8,2.6h-0.4l-0.6-2.1l-0.6,2.1H208l-0.8-2.6h0.4l0.6,2.2l0.6-2.2h0.4l0.6,2.2
							L210.5,602.8z"/>
						<path class="st5" d="M212.5,605.4c-0.4,0-0.7-0.1-0.9-0.4c-0.2-0.2-0.3-0.6-0.3-1s0.1-0.7,0.4-1c0.2-0.3,0.5-0.4,0.9-0.4
							s0.7,0.1,0.9,0.3s0.3,0.5,0.3,0.9c0,0.1,0,0.2,0,0.2h-2.1c0,0.2,0.1,0.5,0.2,0.6c0.1,0.1,0.3,0.2,0.6,0.2c0.2,0,0.3,0,0.4-0.1
							c0.1-0.1,0.2-0.2,0.3-0.3h0.5c-0.1,0.2-0.2,0.4-0.4,0.6S212.8,605.4,212.5,605.4z M213.1,603.3c-0.1-0.1-0.3-0.2-0.6-0.2
							s-0.4,0.1-0.6,0.2c-0.1,0.1-0.2,0.3-0.2,0.6h1.6C213.3,603.7,213.2,603.5,213.1,603.3z"/>
						<path class="st5" d="M214.7,602.8v0.4c0.1-0.3,0.4-0.5,0.8-0.5v0.5h-0.1c-0.2,0-0.4,0-0.5,0.2c-0.1,0.1-0.2,0.3-0.2,0.6v1.4
							h-0.4v-2.6L214.7,602.8L214.7,602.8z"/>
						<path class="st5" d="M217.1,605.4c-0.4,0-0.7-0.1-0.9-0.4c-0.2-0.2-0.3-0.6-0.3-1s0.1-0.7,0.4-1c0.2-0.3,0.5-0.4,0.9-0.4
							s0.7,0.1,0.9,0.3s0.3,0.5,0.3,0.9c0,0.1,0,0.2,0,0.2h-2.1c0,0.2,0.1,0.5,0.2,0.6c0.1,0.1,0.3,0.2,0.6,0.2c0.2,0,0.3,0,0.4-0.1
							c0.1-0.1,0.2-0.2,0.3-0.3h0.5c-0.1,0.2-0.2,0.4-0.4,0.6C217.7,605.2,217.4,605.4,217.1,605.4z M217.7,603.3
							c-0.1-0.1-0.3-0.2-0.6-0.2s-0.4,0.1-0.6,0.2c-0.1,0.1-0.2,0.3-0.2,0.6h1.6C217.9,603.7,217.8,603.5,217.7,603.3z"/>
						<path class="st5" d="M219.1,605c-0.2-0.2-0.4-0.6-0.4-1s0.1-0.7,0.3-0.9s0.5-0.4,0.9-0.4c0.2,0,0.4,0,0.6,0.1s0.3,0.2,0.4,0.4
							v-1.4h0.4v3.5h-0.4v-0.5c-0.1,0.2-0.2,0.3-0.4,0.4c-0.2,0.1-0.4,0.1-0.6,0.1C219.6,605.4,219.3,605.3,219.1,605z M220.7,604.8
							c0.2-0.2,0.2-0.4,0.2-0.7s-0.1-0.5-0.2-0.7c-0.2-0.2-0.4-0.3-0.6-0.3c-0.2,0-0.4,0.1-0.6,0.2c-0.2,0.2-0.2,0.4-0.2,0.7
							s0.1,0.5,0.3,0.7s0.4,0.3,0.6,0.3C220.3,605.1,220.5,605,220.7,604.8z"/>
						<path class="st5" d="M223.5,602.1h1.2c0.3,0,0.6,0.1,0.8,0.2c0.2,0.1,0.3,0.4,0.3,0.6c0,0.4-0.2,0.6-0.6,0.7
							c0.2,0,0.4,0.1,0.5,0.3c0.1,0.1,0.2,0.3,0.2,0.5s-0.1,0.5-0.3,0.6s-0.5,0.2-0.8,0.2h-1.2L223.5,602.1L223.5,602.1z
							 M223.9,602.5v1.1h0.7c0.2,0,0.3,0,0.5-0.1c0.1-0.1,0.2-0.2,0.2-0.4s0-0.3-0.2-0.4c-0.1-0.1-0.3-0.1-0.5-0.1L223.9,602.5
							L223.9,602.5z M223.9,605h0.8c0.2,0,0.4,0,0.5-0.1s0.2-0.2,0.2-0.4s0-0.3-0.2-0.4c-0.1-0.1-0.3-0.1-0.5-0.1h-0.8V605
							L223.9,605L223.9,605z"/>
						<path class="st5" d="M227.1,605.4l-1-2.5h0.5l0.8,2.1l0.8-2.1h0.4l-1.6,3.8h-0.4L227.1,605.4z"/>
						<path class="st5" d="M232.7,605.4l-0.2-0.7H231l-0.2,0.7h-0.4l1.2-3.3h0.5l1.2,3.3H232.7z M231.1,604.3h1.2l-0.6-1.7
							L231.1,604.3z"/>
						<path class="st5" d="M237,602.1v3.3h-0.4V603l-1.1,2.4h-0.3l-1.1-2.4v2.4h-0.4v-3.3h0.4l1.2,2.7l1.2-2.7L237,602.1L237,602.1z
							"/>
						<path class="st5" d="M239.6,602.4c0.2,0.2,0.3,0.4,0.3,0.7s-0.1,0.5-0.3,0.7s-0.5,0.3-0.8,0.3h-0.6v1.4h-0.4v-3.3h1.1
							C239.1,602.1,239.4,602.2,239.6,602.4z M238.1,603.7h0.6c0.2,0,0.4,0,0.5-0.1s0.2-0.3,0.2-0.5c0-0.4-0.2-0.6-0.7-0.6h-0.6
							V603.7z"/>
						<path class="st5" d="M244.1,602.1h0.5l-1,3.3h-0.5l-0.8-2.6l-0.8,2.6H241l-0.9-3.3h0.5l0.7,2.8l0.8-2.8h0.5l0.7,2.8
							L244.1,602.1z"/>
						<path class="st5" d="M247,602.4c0.2,0.2,0.3,0.4,0.3,0.7s-0.1,0.5-0.3,0.7s-0.5,0.3-0.8,0.3h-0.6v1.4h-0.4v-3.3h1.1
							C246.5,602.1,246.8,602.2,247,602.4z M245.5,603.7h0.6c0.2,0,0.4,0,0.5-0.1s0.2-0.3,0.2-0.5c0-0.4-0.2-0.6-0.7-0.6h-0.6V603.7
							z"/>
						<path class="st5" d="M230.1,606.1v-0.2h17.4v0.2H230.1z"/>
					</g>
				</g>
				<g>
					<path class="st18" d="M161.9,545c0.1,0.1,0.2,0.3,0.2,0.6c0,0.2-0.1,0.4-0.2,0.6c-0.1,0.1-0.4,0.2-0.7,0.2h-0.5v1.1h-0.3v-2.6
						h0.8C161.5,544.8,161.7,544.9,161.9,545z M160.7,546.1h0.5c0.2,0,0.3,0,0.4-0.1c0.1-0.1,0.1-0.2,0.1-0.4c0-0.3-0.2-0.5-0.6-0.5
						h-0.5C160.7,545.1,160.7,546.1,160.7,546.1z"/>
					<path class="st18" d="M162.7,547.2c-0.2-0.2-0.3-0.5-0.3-0.8s0.1-0.6,0.3-0.8s0.4-0.3,0.7-0.3c0.2,0,0.3,0,0.5,0.1
						c0.1,0.1,0.2,0.2,0.3,0.3v-0.4h0.3v2.1h-0.3V547c0,0.1-0.2,0.2-0.3,0.3s-0.3,0.1-0.5,0.1C163.1,547.5,162.9,547.3,162.7,547.2z
						 M163.9,547c0.1-0.1,0.2-0.3,0.2-0.6c0-0.2,0-0.4-0.2-0.6c-0.1-0.1-0.3-0.2-0.5-0.2s-0.4,0-0.5,0.2c-0.1,0.1-0.2,0.3-0.2,0.6
						c0,0.2,0,0.4,0.2,0.6c0.1,0.1,0.3,0.2,0.5,0.2S163.8,547.1,163.9,547z"/>
					<path class="st18" d="M165.2,547.2c-0.2-0.2-0.3-0.5-0.3-0.8s0.1-0.6,0.3-0.8s0.4-0.3,0.7-0.3c0.2,0,0.3,0,0.5,0.1
						c0.1,0.1,0.2,0.2,0.3,0.3v-0.4h0.3v2.1c0,0.3-0.1,0.5-0.3,0.7s-0.4,0.3-0.7,0.3s-0.5,0-0.7-0.2c-0.2-0.1-0.3-0.3-0.3-0.5h0.3
						c0,0.1,0.1,0.2,0.2,0.3c0.1,0.1,0.3,0.1,0.5,0.1s0.3,0,0.4-0.2c0.1-0.1,0.2-0.3,0.2-0.5v-0.5c0,0.1-0.2,0.2-0.3,0.3
						s-0.3,0.1-0.5,0.1C165.6,547.5,165.4,547.3,165.2,547.2z M166.4,547c0.1-0.1,0.2-0.3,0.2-0.6c0-0.2,0-0.4-0.2-0.6
						c-0.1-0.1-0.3-0.2-0.5-0.2s-0.4,0-0.5,0.2c-0.1,0.1-0.2,0.3-0.2,0.6c0,0.2,0,0.4,0.2,0.6c0.1,0.1,0.3,0.2,0.5,0.2
						S166.3,547.1,166.4,547z"/>
					<path class="st18" d="M168.4,547.5c-0.3,0-0.5-0.1-0.7-0.3s-0.3-0.5-0.3-0.8s0.1-0.6,0.3-0.8s0.4-0.3,0.8-0.3
						c0.3,0,0.5,0.1,0.7,0.3s0.3,0.4,0.3,0.7c0,0.1,0,0.1,0,0.2h-1.7c0,0.2,0.1,0.4,0.2,0.5c0.1,0.1,0.3,0.2,0.5,0.2
						c0.1,0,0.3,0,0.4-0.1c0.1,0,0.2-0.1,0.2-0.2h0.4c0,0.2-0.2,0.3-0.3,0.5C168.9,547.4,168.7,547.5,168.4,547.5z M168.9,545.8
						c-0.1-0.1-0.3-0.2-0.5-0.2s-0.3,0-0.5,0.2c-0.1,0.1-0.2,0.3-0.2,0.5h1.3C169.1,546.1,169,545.9,168.9,545.8z"/>
					<path class="st18" d="M171.2,547.4V545h-0.3v-0.3h0.7v2.7H171.2L171.2,547.4z"/>
					<path class="st18" d="M173.5,547.2c-0.2-0.2-0.3-0.5-0.3-0.8s0.1-0.6,0.3-0.8s0.4-0.3,0.8-0.3c0.3,0,0.6,0.1,0.8,0.3
						s0.3,0.5,0.3,0.8s-0.1,0.6-0.3,0.8s-0.5,0.3-0.8,0.3C173.9,547.5,173.7,547.3,173.5,547.2z M174.2,547.2c0.2,0,0.4,0,0.5-0.2
						c0.1-0.1,0.2-0.3,0.2-0.6c0-0.2,0-0.4-0.2-0.6c-0.1-0.1-0.3-0.2-0.5-0.2s-0.4,0-0.5,0.2c-0.1,0.1-0.2,0.3-0.2,0.6
						c0,0.2,0,0.4,0.2,0.6C173.9,547.1,174,547.2,174.2,547.2z"/>
					<path class="st18" d="M176.6,545.4v0.3h-0.4v1.8h-0.3v-1.8h-0.3v-0.3h0.3v-0.2c0-0.2,0-0.4,0.2-0.5c0.1-0.1,0.3-0.1,0.6-0.1
						v0.3c-0.1,0-0.2,0-0.3,0.1c0,0-0.1,0.1-0.1,0.3v0.2L176.6,545.4L176.6,545.4z"/>
					<path class="st18" d="M178.1,547.4v-0.2c0,0,0.1-0.1,0.3-0.2c0.1-0.1,0.2-0.2,0.3-0.2c0,0,0.1-0.1,0.2-0.2
						c0.1-0.1,0.2-0.2,0.2-0.2s0.1-0.1,0.2-0.2c0.1-0.1,0.1-0.3,0.1-0.5s0-0.3-0.1-0.4c-0.1-0.1-0.2-0.1-0.4-0.1s-0.3,0-0.4,0.1
						c-0.1,0.1-0.1,0.2-0.1,0.4H178c0-0.3,0.1-0.5,0.2-0.7c0.1-0.1,0.4-0.2,0.6-0.2s0.5,0.1,0.6,0.2c0.1,0.1,0.2,0.3,0.2,0.6
						s-0.1,0.6-0.4,0.9c-0.1,0.1-0.2,0.2-0.2,0.2c-0.1,0.1-0.3,0.3-0.5,0.5h1.3v0.3L178.1,547.4L178.1,547.4z"/>
				</g>
				<g>
					<path class="st19" d="M271.3,544.6h0.3v2.1h-0.3l-1.1-1.7v1.7h-0.3v-2.1h0.3l1.1,1.7V544.6z"/>
					<path class="st19" d="M272.7,546.8c-0.2,0-0.4-0.1-0.6-0.2c-0.1-0.1-0.2-0.4-0.2-0.6c0-0.2,0.1-0.5,0.2-0.6s0.3-0.2,0.6-0.2
						c0.3,0,0.4,0.1,0.6,0.2c0.1,0.1,0.2,0.3,0.2,0.6v0.1h-1.3c0,0.2,0,0.3,0.1,0.4c0.1,0.1,0.2,0.1,0.4,0.1c0.1,0,0.2,0,0.3-0.1
						c0.1,0,0.1-0.1,0.2-0.2h0.3c0,0.1-0.1,0.3-0.3,0.4C273.1,546.7,272.9,546.8,272.7,546.8z M273.1,545.4
						c-0.1-0.1-0.2-0.1-0.4-0.1s-0.3,0-0.4,0.1s-0.1,0.2-0.1,0.4h1C273.3,545.6,273.2,545.5,273.1,545.4z"/>
					<path class="st19" d="M275.1,545.1l-0.5,0.8l0.5,0.8h-0.3l-0.4-0.6l-0.4,0.6h-0.3l0.5-0.8l-0.5-0.8h0.3l0.4,0.6l0.4-0.6H275.1z
						"/>
					<path class="st19" d="M275.9,546.5h0.2v0.2h-0.3c-0.3,0-0.4-0.1-0.4-0.4v-1h-0.2V545h0.2v-0.4h0.3v0.4h0.4v0.2h-0.4v1
						c0,0.1,0,0.1,0,0.1C275.8,546.5,275.8,546.5,275.9,546.5z"/>
				</g>
				<g>
					<path class="st19" d="M279,544.2L279,544.2c0.1,0,0.2,0,0.2,0l1.1,1.1c0,0,0,0,0,0.1s0,0.1,0,0.1l-1.1,1.1c0,0,0,0-0.1,0
						s-0.1,0-0.1,0l-0.1-0.1c0,0,0,0,0-0.1s0-0.1,0-0.1l0.7-0.7h-1.7h-0.1c0,0,0,0,0-0.1v-0.2v-0.1c0,0,0,0,0.1,0h1.7l-0.7-0.7
						c0,0,0,0,0-0.1s0-0.1,0-0.1L279,544.2z"/>
				</g>
				<g>
					<rect x="159.1" y="131.1" class="st14" width="65.9" height="2.2"/>
				</g>
				<g>
					<g>
						<g>
							<g>
								<rect x="207.8" y="190" class="st12" width="32.9" height="18.8"/>
							</g>
						</g>
						<g>
							<g>
								<path class="st15" d="M240.2,190.5v17.8h-31.9v-17.8H240.2 M241.3,189.5h-33.9v19.8h33.9L241.3,189.5L241.3,189.5z"/>
							</g>
						</g>
					</g>
					<g>
						<g>
							<circle class="st15" cx="211.7" cy="193.6" r="1.7"/>
						</g>
					</g>
					<g>
						<g>
							<polygon class="st15" points="241.3,209.3 241.3,201.9 232.5,193.1 218.9,206.6 221.6,209.3 							"/>
						</g>
					</g>
					<g>
						<g>
							<polygon class="st15" points="207.3,209.3 230.5,209.3 218.9,197.7 207.3,209.3 207.3,209.4 							"/>
						</g>
					</g>
				</g>
				<g>
					<g>
						<g>
							<g>
								<rect x="207.8" y="377.9" class="st12" width="32.9" height="18.8"/>
							</g>
						</g>
						<g>
							<g>
								<path class="st15" d="M240.2,378.3v17.8h-31.9v-17.8H240.2 M241.3,377.4h-33.9v19.8h33.9L241.3,377.4L241.3,377.4z"/>
							</g>
						</g>
					</g>
					<g>
						<g>
							<circle class="st15" cx="211.7" cy="381.5" r="1.7"/>
						</g>
					</g>
					<g>
						<g>
							<polygon class="st15" points="241.3,397.2 241.3,389.7 232.5,380.9 218.9,394.5 221.6,397.2 							"/>
						</g>
					</g>
					<g>
						<g>
							<polygon class="st15" points="207.3,397.2 230.5,397.2 218.9,385.5 207.3,397.2 							"/>
						</g>
					</g>
				</g>
			</g>
		</g>
		<g>
			<defs>
				<rect id="SVGID_5_" width="300" height="301"/>
			</defs>
			<clipPath id="SVGID_6_">
				<use xlink:href="#SVGID_5_"  style="overflow:visible;"/>
			</clipPath>
			<g class="st20">
				<g class="st21">
					<path class="st4" d="M50.8,15.6h2.7v1.6h-4.8V8.7h2.1V15.6z"/>
					<path class="st4" d="M54.6,7.8c0.2-0.2,0.5-0.3,0.9-0.3c0.4,0,0.7,0.1,0.9,0.3c0.2,0.2,0.3,0.5,0.3,0.8c0,0.3-0.1,0.6-0.3,0.8
						s-0.5,0.3-0.9,0.3c-0.4,0-0.7-0.1-0.9-0.3c-0.2-0.2-0.3-0.5-0.3-0.8C54.3,8.3,54.4,8,54.6,7.8z M56.5,10.5v6.7h-2.1v-6.7H56.5z
						"/>
					<path class="st4" d="M62.4,11.1c0.5,0.4,0.8,1,1,1.7h-1.9c-0.1-0.3-0.2-0.5-0.4-0.6c-0.2-0.2-0.4-0.2-0.7-0.2
						c-0.2,0-0.4,0-0.5,0.1c-0.1,0.1-0.2,0.2-0.2,0.4c0,0.2,0.1,0.4,0.3,0.5c0.2,0.1,0.6,0.2,1,0.3c0.5,0.1,0.9,0.2,1.3,0.4
						c0.3,0.1,0.6,0.3,0.9,0.6c0.2,0.3,0.4,0.7,0.4,1.1c0,0.4-0.1,0.7-0.3,1s-0.5,0.5-0.9,0.7c-0.4,0.2-0.9,0.3-1.4,0.3
						c-0.9,0-1.6-0.2-2.2-0.6c-0.5-0.4-0.9-1-1-1.7h2c0,0.3,0.2,0.5,0.4,0.7c0.2,0.2,0.5,0.2,0.8,0.2c0.2,0,0.4-0.1,0.5-0.2
						c0.1-0.1,0.2-0.3,0.2-0.4c0-0.2-0.1-0.4-0.3-0.5c-0.2-0.1-0.6-0.2-1.1-0.3c-0.5-0.1-0.9-0.2-1.2-0.3c-0.3-0.1-0.6-0.3-0.8-0.6
						c-0.2-0.3-0.3-0.6-0.3-1.1c0-0.6,0.2-1.1,0.7-1.5s1.1-0.6,1.9-0.6C61.2,10.4,61.9,10.6,62.4,11.1z"/>
					<path class="st4" d="M68.4,15.4v1.8h-0.9c-0.8,0-1.4-0.2-1.8-0.6s-0.7-1-0.7-1.9v-2.5h-0.9v-1.7H65V8.9H67v1.6h1.3v1.7H67v2.5
						c0,0.3,0.1,0.4,0.2,0.6s0.3,0.2,0.5,0.2H68.4z"/>
					<path class="st4" d="M75,15.2l1.5-4.7h2.2l-2.4,6.7h-2.5l-2.4-6.7h2.2L75,15.2z"/>
					<path class="st4" d="M79.7,7.8c0.2-0.2,0.5-0.3,0.9-0.3c0.4,0,0.7,0.1,0.9,0.3c0.2,0.2,0.3,0.5,0.3,0.8c0,0.3-0.1,0.6-0.3,0.8
						s-0.5,0.3-0.9,0.3c-0.4,0-0.7-0.1-0.9-0.3c-0.2-0.2-0.3-0.5-0.3-0.8C79.3,8.3,79.4,8,79.7,7.8z M81.6,10.5v6.7h-2.1v-6.7H81.6z
						"/>
					<path class="st4" d="M89.3,14.2h-4.6c0,0.5,0.2,0.9,0.4,1.1c0.2,0.2,0.5,0.3,0.9,0.3c0.3,0,0.6-0.1,0.8-0.2
						c0.2-0.2,0.3-0.3,0.4-0.6h2.2c-0.1,0.5-0.3,0.9-0.6,1.3S88,16.8,87.5,17c-0.5,0.2-1,0.3-1.5,0.3c-0.7,0-1.2-0.1-1.7-0.4
						c-0.5-0.3-0.9-0.7-1.2-1.2c-0.3-0.5-0.4-1.1-0.4-1.8c0-0.7,0.1-1.3,0.4-1.8c0.3-0.5,0.7-0.9,1.2-1.2c0.5-0.3,1.1-0.4,1.8-0.4
						c0.7,0,1.2,0.1,1.8,0.4c0.5,0.3,0.9,0.7,1.2,1.1c0.3,0.5,0.4,1.1,0.4,1.7C89.4,13.8,89.3,14,89.3,14.2z M86.9,12.4
						C86.7,12.2,86.4,12,86,12c-0.4,0-0.7,0.1-0.9,0.3c-0.2,0.2-0.4,0.6-0.4,1h2.6C87.3,12.9,87.2,12.6,86.9,12.4z"/>
					<path class="st4" d="M100.2,10.5l-1.7,6.7h-2.3L95,12.7l-1.2,4.5h-2.3l-1.7-6.7h2.1l0.9,4.8l1.2-4.8h2.2l1.3,4.8l0.9-4.8H100.2
						z"/>
				</g>
			</g>
		</g>
		<g>
			<defs>
				<rect id="SVGID_7_" width="300" height="301"/>
			</defs>
			<clipPath id="SVGID_8_">
				<use xlink:href="#SVGID_7_"  style="overflow:visible;"/>
			</clipPath>
			<g class="st22">
				<g class="st21">
					<path class="st12" d="M189.5,9.5c0.7,0.6,1.2,1.3,1.4,2.3h-2.2c-0.2-0.4-0.4-0.7-0.7-0.9s-0.7-0.3-1.2-0.3
						c-0.6,0-1.1,0.2-1.5,0.7c-0.4,0.4-0.6,1-0.6,1.8s0.2,1.3,0.6,1.8c0.4,0.4,0.9,0.7,1.5,0.7c0.5,0,0.9-0.1,1.2-0.3
						s0.6-0.5,0.7-0.9h2.2c-0.2,1-0.7,1.7-1.4,2.3c-0.7,0.6-1.6,0.9-2.7,0.9c-0.8,0-1.5-0.2-2.2-0.5c-0.6-0.4-1.1-0.9-1.4-1.5
						c-0.3-0.7-0.5-1.4-0.5-2.2s0.2-1.6,0.5-2.2c0.3-0.7,0.8-1.2,1.4-1.5c0.6-0.4,1.3-0.5,2.2-0.5C187.9,8.6,188.8,8.9,189.5,9.5z"
						/>
					<path class="st12" d="M194.1,8.3v8.9H192V8.3H194.1z"/>
					<path class="st12" d="M199.4,10.8c0.4,0.2,0.6,0.5,0.8,0.9v-1.2h2v6.7h-2V16c-0.2,0.4-0.4,0.7-0.8,0.9
						c-0.4,0.2-0.8,0.3-1.3,0.3c-0.6,0-1-0.1-1.5-0.4c-0.4-0.3-0.8-0.7-1-1.2c-0.3-0.5-0.4-1.1-0.4-1.8c0-0.7,0.1-1.3,0.4-1.8
						c0.3-0.5,0.6-0.9,1-1.2c0.4-0.3,0.9-0.4,1.5-0.4C198.5,10.4,199,10.5,199.4,10.8z M197.6,12.7c-0.3,0.3-0.4,0.7-0.4,1.2
						c0,0.5,0.1,0.9,0.4,1.2c0.3,0.3,0.6,0.4,1.1,0.4c0.4,0,0.8-0.1,1.1-0.4c0.3-0.3,0.4-0.7,0.4-1.2c0-0.5-0.1-0.9-0.4-1.2
						c-0.3-0.3-0.6-0.4-1.1-0.4C198.3,12.2,197.9,12.4,197.6,12.7z"/>
					<path class="st12" d="M208.1,11.1c0.5,0.4,0.8,1,1,1.7h-1.9c-0.1-0.3-0.2-0.5-0.4-0.6c-0.2-0.2-0.4-0.2-0.7-0.2
						c-0.2,0-0.4,0-0.5,0.1c-0.1,0.1-0.2,0.2-0.2,0.4c0,0.2,0.1,0.4,0.3,0.5c0.2,0.1,0.6,0.2,1,0.3c0.5,0.1,0.9,0.2,1.3,0.4
						c0.3,0.1,0.6,0.3,0.9,0.6s0.4,0.7,0.4,1.1c0,0.4-0.1,0.7-0.3,1s-0.5,0.5-0.9,0.7c-0.4,0.2-0.9,0.3-1.4,0.3
						c-0.9,0-1.6-0.2-2.2-0.6c-0.5-0.4-0.9-1-1-1.7h2c0,0.3,0.2,0.5,0.4,0.7c0.2,0.2,0.5,0.2,0.8,0.2c0.2,0,0.4-0.1,0.5-0.2
						c0.1-0.1,0.2-0.3,0.2-0.4c0-0.2-0.1-0.4-0.3-0.5c-0.2-0.1-0.6-0.2-1.1-0.3c-0.5-0.1-0.9-0.2-1.2-0.3s-0.6-0.3-0.8-0.6
						c-0.2-0.3-0.3-0.6-0.3-1.1c0-0.6,0.2-1.1,0.7-1.5s1.1-0.6,1.9-0.6C206.9,10.4,207.6,10.6,208.1,11.1z"/>
					<path class="st12" d="M214.8,11.1c0.5,0.4,0.8,1,1,1.7h-1.9c-0.1-0.3-0.2-0.5-0.4-0.6c-0.2-0.2-0.4-0.2-0.7-0.2
						c-0.2,0-0.4,0-0.5,0.1c-0.1,0.1-0.2,0.2-0.2,0.4c0,0.2,0.1,0.4,0.3,0.5c0.2,0.1,0.6,0.2,1,0.3c0.5,0.1,0.9,0.2,1.3,0.4
						c0.3,0.1,0.6,0.3,0.9,0.6s0.4,0.7,0.4,1.1c0,0.4-0.1,0.7-0.3,1s-0.5,0.5-0.9,0.7c-0.4,0.2-0.9,0.3-1.4,0.3
						c-0.9,0-1.6-0.2-2.2-0.6c-0.5-0.4-0.9-1-1-1.7h2c0,0.3,0.2,0.5,0.4,0.7c0.2,0.2,0.5,0.2,0.8,0.2c0.2,0,0.4-0.1,0.5-0.2
						c0.1-0.1,0.2-0.3,0.2-0.4c0-0.2-0.1-0.4-0.3-0.5c-0.2-0.1-0.6-0.2-1.1-0.3c-0.5-0.1-0.9-0.2-1.2-0.3s-0.6-0.3-0.8-0.6
						c-0.2-0.3-0.3-0.6-0.3-1.1c0-0.6,0.2-1.1,0.7-1.5s1.1-0.6,1.9-0.6C213.6,10.4,214.2,10.6,214.8,11.1z"/>
					<path class="st12" d="M217.1,7.8c0.2-0.2,0.5-0.3,0.9-0.3c0.4,0,0.7,0.1,0.9,0.3c0.2,0.2,0.3,0.5,0.3,0.8
						c0,0.3-0.1,0.6-0.3,0.8c-0.2,0.2-0.5,0.3-0.9,0.3c-0.4,0-0.7-0.1-0.9-0.3s-0.3-0.5-0.3-0.8C216.8,8.3,216.9,8,217.1,7.8z
						 M219,10.5v6.7h-2.1v-6.7H219z"/>
					<path class="st12" d="M225.6,11.1c0.6,0.5,1,1.1,1.1,2h-2.2c-0.1-0.3-0.2-0.5-0.4-0.7c-0.2-0.2-0.5-0.2-0.8-0.2
						c-0.4,0-0.7,0.1-0.9,0.4c-0.2,0.3-0.3,0.7-0.3,1.2s0.1,1,0.3,1.2c0.2,0.3,0.5,0.4,0.9,0.4c0.3,0,0.6-0.1,0.8-0.2
						s0.3-0.4,0.4-0.7h2.2c-0.2,0.8-0.5,1.5-1.1,2s-1.3,0.7-2.2,0.7c-0.7,0-1.2-0.1-1.7-0.4c-0.5-0.3-0.9-0.7-1.2-1.2
						c-0.3-0.5-0.4-1.1-0.4-1.8c0-0.7,0.1-1.3,0.4-1.8c0.3-0.5,0.7-0.9,1.2-1.2c0.5-0.3,1.1-0.4,1.8-0.4
						C224.3,10.4,225,10.7,225.6,11.1z"/>
					<path class="st12" d="M233.3,15.2l1.5-4.7h2.2l-2.4,6.7H232l-2.4-6.7h2.2L233.3,15.2z"/>
					<path class="st12" d="M237.9,7.8c0.2-0.2,0.5-0.3,0.9-0.3s0.7,0.1,0.9,0.3c0.2,0.2,0.3,0.5,0.3,0.8c0,0.3-0.1,0.6-0.3,0.8
						c-0.2,0.2-0.5,0.3-0.9,0.3s-0.7-0.1-0.9-0.3c-0.2-0.2-0.3-0.5-0.3-0.8C237.6,8.3,237.7,8,237.9,7.8z M239.8,10.5v6.7h-2.1v-6.7
						H239.8z"/>
					<path class="st12" d="M247.5,14.2h-4.6c0,0.5,0.2,0.9,0.4,1.1c0.2,0.2,0.5,0.3,0.9,0.3c0.3,0,0.6-0.1,0.8-0.2
						c0.2-0.2,0.3-0.3,0.4-0.6h2.2c-0.1,0.5-0.3,0.9-0.6,1.3s-0.7,0.7-1.1,0.9c-0.5,0.2-1,0.3-1.5,0.3c-0.7,0-1.2-0.1-1.7-0.4
						s-0.9-0.7-1.2-1.2c-0.3-0.5-0.4-1.1-0.4-1.8c0-0.7,0.1-1.3,0.4-1.8c0.3-0.5,0.7-0.9,1.2-1.2c0.5-0.3,1.1-0.4,1.8-0.4
						c0.7,0,1.2,0.1,1.8,0.4c0.5,0.3,0.9,0.7,1.2,1.1c0.3,0.5,0.4,1.1,0.4,1.7C247.6,13.8,247.6,14,247.5,14.2z M245.2,12.4
						c-0.2-0.2-0.5-0.3-0.9-0.3c-0.4,0-0.7,0.1-0.9,0.3c-0.2,0.2-0.4,0.6-0.4,1h2.6C245.5,12.9,245.4,12.6,245.2,12.4z"/>
					<path class="st12" d="M258.5,10.5l-1.7,6.7h-2.3l-1.2-4.5l-1.2,4.5h-2.3l-1.7-6.7h2.1l0.9,4.8l1.2-4.8h2.2l1.3,4.8l0.9-4.8
						H258.5z"/>
				</g>
			</g>
		</g>
	</g>
</g>
</svg>
