<?xml version="1.0" encoding="utf-8"?>
<!-- Generator: Adobe Illustrator 22.0.1, SVG Export Plug-In . SVG Version: 6.00 Build 0)  -->
<svg version="1.1" id="Layer_1" xmlns="http://www.w3.org/2000/svg" xmlns:xlink="http://www.w3.org/1999/xlink" x="0px" y="0px"
	 viewBox="0 0 300 300" style="enable-background:new 0 0 300 300;" xml:space="preserve">
<style type="text/css">
	.st0{fill:#3281AD;}
	.st1{fill:#1C4F70;}
	.st2{fill:#FFFFFF;}
</style>
<g>
	<g>
		<rect class="st0" width="300" height="300"/>
	</g>
</g>
<path class="st1" d="M263.2,47.1H36.7c-9.1,0-16.5-6.6-16.5-14.7l0,0c0-8.1,7.4-14.7,16.5-14.7h226.4c9.1,0,16.5,6.6,16.5,14.7l0,0
	C279.6,40.6,272.3,47.1,263.2,47.1z"/>
<g>
	<rect x="20.4" y="66.9" class="st1" width="259.3" height="114.2"/>
</g>
<g>
	<g>
		<g>
			<g>
				<rect x="115.1" y="103.9" class="st1" width="69.8" height="39.9"/>
			</g>
		</g>
		<g>
			<g>
				<path class="st0" d="M183.8,105v37.7h-67.6V105H183.8 M186,102.9h-71.9v42H186V102.9L186,102.9z"/>
			</g>
		</g>
	</g>
	<g>
		<g>
			<circle class="st0" cx="123.3" cy="111.7" r="3.6"/>
		</g>
	</g>
	<g>
		<g>
			<polygon class="st0" points="186,144.8 186,129 167.4,110.4 138.6,139.2 144.3,144.8 			"/>
		</g>
	</g>
	<g>
		<g>
			<polygon class="st0" points="114.1,144.8 163.3,144.8 138.7,120.2 114,144.8 114.1,144.9 			"/>
		</g>
	</g>
</g>
<g>
	<rect x="20.4" y="215.4" class="st1" width="151.1" height="5.1"/>
</g>
<g>
	<rect x="20.4" y="228.3" class="st1" width="259.3" height="10"/>
</g>
<g>
	<rect x="20.4" y="242.8" class="st1" width="159.6" height="10"/>
</g>
<path class="st2" d="M266,36.6L266,36.6c-0.5-0.5-1-1-1.6-1.6l-0.3-0.3l0.3-0.4c0.6-0.9,0.9-1.9,0.9-3.1c0-0.4,0-0.7-0.1-1.1
	c-0.3-1.5-1.2-2.8-2.4-3.7c-1.2-0.9-2.8-1.2-4.3-1c-1.3,0.2-2.5,0.9-3.4,1.9s-1.4,2.3-1.5,3.6c-0.1,1.7,0.5,3.2,1.6,4.4
	c1.1,1.2,2.6,1.8,4.2,1.8c1.1,0,2.2-0.3,3.1-0.9l0.4-0.3l0.3,0.3c0.9,0.9,1.4,1.4,2.3,2.3l0.4,0.4L266,39c0.1,0.2,0.3,0.3,0.5,0.4
	c0.2,0.2,0.5,0.2,0.7,0.2c0.3-0.1,0.5-0.3,0.6-0.5c0.1-0.3,0.2-0.6-0.3-1C266.9,37.5,266.4,37,266,36.6z M259.3,35.6
	c-2.4,0-4.4-2-4.4-4.4s2-4.4,4.4-4.4c2.4,0,4.4,2,4.4,4.4S261.7,35.6,259.3,35.6z"/>
<g>
	<g>
		<path class="st1" d="M28.8,191h40.8c4.7,0,8.4,3.8,8.4,8.4l0,0c0,4.7-3.8,8.4-8.4,8.4H28.8c-4.7,0-8.4-3.8-8.4-8.4l0,0
			C20.3,194.7,24.1,191,28.8,191z"/>
	</g>
</g>
<g>
	<g>
		<path class="st1" d="M95.3,191h40.8c4.7,0,8.4,3.8,8.4,8.4l0,0c0,4.7-3.8,8.4-8.4,8.4H95.3c-4.7,0-8.4-3.8-8.4-8.4l0,0
			C86.9,194.7,90.7,191,95.3,191z"/>
	</g>
</g>
</svg>
