<?xml version="1.0" encoding="utf-8"?>
<!-- Generator: Adobe Illustrator 22.0.1, SVG Export Plug-In . SVG Version: 6.00 Build 0)  -->
<svg version="1.1" id="Layer_1" xmlns="http://www.w3.org/2000/svg" xmlns:xlink="http://www.w3.org/1999/xlink" x="0px" y="0px"
	 viewBox="0 0 301 301" style="enable-background:new 0 0 301 301;" xml:space="preserve">
<style type="text/css">
	.st0{fill:#115E8C;}
	.st1{fill:#2896CE;}
	.st2{enable-background:new    ;}
	.st3{fill:#757575;}
</style>
<g>
	<rect y="256.9" class="st0" width="301" height="44.1"/>
</g>
<g>
	<path class="st1" d="M282,286.3h-39.5c-4.1,0-7.3-3.3-7.3-7.3l0,0c0-4.1,3.3-7.3,7.3-7.3H282c4.1,0,7.3,3.3,7.3,7.3l0,0
		C289.4,283,286.1,286.3,282,286.3z"/>
	<g class="st2">
		<path class="st0" d="M248.5,279.6h-1l-0.2,0.5h-0.7l1-2.8h0.7l1,2.8h-0.7L248.5,279.6z M248.3,279.2l-0.3-1l-0.3,1H248.3z"/>
		<path class="st0" d="M251.3,278.1c0.2,0.1,0.3,0.3,0.3,0.7h-0.7c0-0.1-0.1-0.1-0.1-0.2c-0.1-0.1-0.1-0.1-0.3-0.1s-0.2,0.1-0.3,0.1
			c-0.1,0.1-0.1,0.2-0.1,0.4c0,0.2,0.1,0.3,0.1,0.4c0.1,0.1,0.2,0.1,0.3,0.1s0.2,0,0.3-0.1c0.1-0.1,0.1-0.1,0.1-0.2h0.7
			c-0.1,0.3-0.2,0.5-0.3,0.7c-0.2,0.1-0.4,0.2-0.7,0.2c-0.2,0-0.4-0.1-0.5-0.1c-0.1-0.1-0.3-0.2-0.4-0.4c-0.1-0.2-0.1-0.3-0.1-0.6
			c0-0.2,0.1-0.4,0.1-0.6c0.1-0.2,0.2-0.3,0.4-0.4c0.1-0.1,0.3-0.1,0.5-0.1C250.9,277.9,251.1,278,251.3,278.1z"/>
		<path class="st0" d="M253.8,278.1c0.2,0.1,0.3,0.3,0.3,0.7h-0.7c0-0.1-0.1-0.1-0.1-0.2s-0.1-0.1-0.3-0.1s-0.2,0.1-0.3,0.1
			c-0.1,0.1-0.1,0.2-0.1,0.4c0,0.2,0.1,0.3,0.1,0.4c0.1,0.1,0.2,0.1,0.3,0.1c0.1,0,0.2,0,0.3-0.1c0.1-0.1,0.1-0.1,0.1-0.2h0.7
			c-0.1,0.3-0.2,0.5-0.3,0.7c-0.2,0.1-0.4,0.2-0.7,0.2c-0.2,0-0.4-0.1-0.5-0.1c-0.1-0.1-0.3-0.2-0.4-0.4c-0.1-0.2-0.1-0.3-0.1-0.6
			c0-0.2,0.1-0.4,0.1-0.6c0.1-0.2,0.2-0.3,0.4-0.4c0.2-0.1,0.3-0.1,0.5-0.1C253.4,277.9,253.6,278,253.8,278.1z"/>
		<path class="st0" d="M256.6,279.2H255c0,0.1,0.1,0.3,0.1,0.3c0.1,0.1,0.2,0.1,0.3,0.1s0.2,0,0.3-0.1s0.1-0.1,0.1-0.2h0.7
			c0,0.1-0.1,0.3-0.2,0.4c-0.1,0.1-0.2,0.2-0.3,0.3c-0.1,0.1-0.3,0.1-0.5,0.1c-0.2,0-0.4-0.1-0.5-0.1s-0.3-0.2-0.4-0.4
			c-0.1-0.2-0.1-0.3-0.1-0.6c0-0.2,0.1-0.4,0.1-0.6c0.1-0.2,0.2-0.3,0.4-0.4c0.1-0.1,0.3-0.1,0.5-0.1c0.2,0,0.4,0.1,0.5,0.1
			c0.1,0.1,0.3,0.2,0.4,0.4c0.1,0.1,0.1,0.3,0.1,0.5C256.6,279,256.6,279.1,256.6,279.2z M255.8,278.5c-0.1-0.1-0.2-0.1-0.3-0.1
			c-0.1,0-0.2,0.1-0.3,0.1c-0.1,0.1-0.1,0.2-0.1,0.3h0.9C255.9,278.7,255.9,278.6,255.8,278.5z"/>
		<path class="st0" d="M258.8,278.1c0.1,0.1,0.3,0.2,0.3,0.4c0.1,0.2,0.1,0.3,0.1,0.6c0,0.2-0.1,0.4-0.1,0.6
			c-0.1,0.2-0.2,0.3-0.3,0.4c-0.1,0.1-0.3,0.1-0.5,0.1s-0.3-0.1-0.4-0.1c-0.1-0.1-0.2-0.2-0.3-0.3v1.4H257v-3.3h0.7v0.4
			c0.1-0.1,0.1-0.2,0.3-0.3c0.1-0.1,0.3-0.1,0.4-0.1C258.5,277.9,258.7,278,258.8,278.1z M257.7,278.7c-0.1,0.1-0.1,0.2-0.1,0.4
			c0,0.1,0.1,0.3,0.1,0.4c0.1,0.1,0.2,0.1,0.3,0.1s0.3-0.1,0.3-0.1c0.1-0.1,0.1-0.2,0.1-0.4c0-0.2-0.1-0.3-0.1-0.4
			c-0.1-0.1-0.2-0.1-0.3-0.1S257.9,278.5,257.7,278.7z"/>
		<path class="st0" d="M260.9,279.6v0.6h-0.3c-0.3,0-0.5-0.1-0.6-0.2s-0.2-0.3-0.2-0.6v-0.8h-0.3V278h0.3v-0.5h0.7v0.5h0.5v0.5h-0.5
			v0.8c0,0.1,0,0.1,0.1,0.2c0.1,0.1,0.1,0.1,0.2,0.1L260.9,279.6L260.9,279.6z"/>
		<path class="st0" d="M264.2,277.6c0.2,0.2,0.4,0.4,0.5,0.7h-0.7c-0.1-0.1-0.1-0.2-0.3-0.3c-0.1-0.1-0.3-0.1-0.4-0.1
			c-0.2,0-0.3,0.1-0.5,0.2s-0.2,0.3-0.2,0.6s0.1,0.4,0.2,0.6c0.1,0.1,0.3,0.2,0.5,0.2c0.1,0,0.3-0.1,0.4-0.1
			c0.1-0.1,0.2-0.2,0.3-0.3h0.7c-0.1,0.3-0.2,0.5-0.5,0.7c-0.2,0.2-0.5,0.3-0.9,0.3c-0.3,0-0.5-0.1-0.7-0.2
			c-0.2-0.1-0.3-0.3-0.5-0.5c-0.1-0.2-0.1-0.5-0.1-0.7s0.1-0.5,0.1-0.7c0.1-0.2,0.3-0.4,0.5-0.5c0.2-0.1,0.5-0.2,0.7-0.2
			C263.7,277.3,264,277.5,264.2,277.6z"/>
		<path class="st0" d="M266.6,278.1c0.2,0.1,0.3,0.2,0.4,0.4c0.1,0.2,0.1,0.3,0.1,0.6s-0.1,0.4-0.1,0.6c-0.1,0.2-0.2,0.3-0.4,0.4
			c-0.2,0.1-0.3,0.1-0.6,0.1c-0.2,0-0.4-0.1-0.6-0.1s-0.3-0.2-0.4-0.4c-0.1-0.2-0.1-0.3-0.1-0.6s0.1-0.4,0.1-0.6
			c0.1-0.2,0.2-0.3,0.4-0.4c0.2-0.1,0.3-0.1,0.6-0.1S266.5,278,266.6,278.1z M265.8,278.7c-0.1,0.1-0.1,0.2-0.1,0.4
			c0,0.2,0.1,0.3,0.1,0.4c0.1,0.1,0.2,0.1,0.3,0.1s0.2-0.1,0.3-0.1c0.1-0.1,0.1-0.2,0.1-0.4c0-0.2-0.1-0.3-0.1-0.4s-0.2-0.1-0.3-0.1
			S265.8,278.5,265.8,278.7z"/>
		<path class="st0" d="M269.2,278.1c0.2,0.1,0.3,0.2,0.4,0.4c0.1,0.2,0.1,0.3,0.1,0.6s-0.1,0.4-0.1,0.6c-0.1,0.2-0.2,0.3-0.4,0.4
			c-0.2,0.1-0.3,0.1-0.6,0.1s-0.4-0.1-0.6-0.1s-0.3-0.2-0.4-0.4c-0.1-0.2-0.1-0.3-0.1-0.6s0.1-0.4,0.1-0.6s0.2-0.3,0.4-0.4
			c0.2-0.1,0.3-0.1,0.6-0.1S269,278,269.2,278.1z M268.3,278.7c-0.1,0.1-0.1,0.2-0.1,0.4c0,0.2,0.1,0.3,0.1,0.4
			c0.1,0.1,0.2,0.1,0.3,0.1s0.2-0.1,0.3-0.1c0.1-0.1,0.1-0.2,0.1-0.4c0-0.2-0.1-0.3-0.1-0.4c-0.1-0.1-0.2-0.1-0.3-0.1
			S268.3,278.5,268.3,278.7z"/>
		<path class="st0" d="M271.5,280.2l-0.7-1v1h-0.7v-2.9h0.7v1.6l0.7-0.9h0.8l-0.9,1.1l0.9,1.1L271.5,280.2L271.5,280.2z"/>
		<path class="st0" d="M272.6,277c0.1-0.1,0.2-0.1,0.3-0.1c0.1,0,0.2,0,0.3,0.1c0.1,0.1,0.1,0.1,0.1,0.3c0,0.1-0.1,0.2-0.1,0.3
			s-0.2,0.1-0.3,0.1c-0.1,0-0.2,0-0.3-0.1s-0.1-0.1-0.1-0.3C272.4,277.2,272.5,277.1,272.6,277z M273.2,277.9v2.2h-0.7v-2.2H273.2z"
			/>
		<path class="st0" d="M275.8,279.2h-1.6c0,0.1,0.1,0.3,0.1,0.3c0.1,0.1,0.2,0.1,0.3,0.1s0.2,0,0.3-0.1s0.1-0.1,0.1-0.2h0.7
			c0,0.1-0.1,0.3-0.2,0.4c-0.1,0.1-0.2,0.2-0.3,0.3s-0.3,0.1-0.5,0.1c-0.2,0-0.4-0.1-0.5-0.1s-0.3-0.2-0.4-0.4
			c-0.1-0.2-0.1-0.3-0.1-0.6c0-0.2,0.1-0.4,0.1-0.6c0.1-0.2,0.2-0.3,0.4-0.4s0.3-0.1,0.5-0.1s0.4,0.1,0.6,0.1
			c0.1,0.1,0.3,0.2,0.4,0.4c0.1,0.1,0.1,0.3,0.1,0.5C275.8,279,275.8,279.1,275.8,279.2z M274.9,278.5c-0.1-0.1-0.2-0.1-0.3-0.1
			c-0.1,0-0.2,0.1-0.3,0.1c-0.1,0.1-0.1,0.2-0.1,0.3h0.9C275.1,278.7,275,278.6,274.9,278.5z"/>
		<path class="st0" d="M277.6,278.1c0.1,0.1,0.3,0.3,0.3,0.5h-0.6c0-0.1-0.1-0.1-0.1-0.2c-0.1-0.1-0.1-0.1-0.3-0.1
			c-0.1,0-0.1,0-0.2,0.1c-0.1,0-0.1,0.1-0.1,0.1s0.1,0.1,0.1,0.1c0.1,0.1,0.2,0.1,0.3,0.1s0.3,0.1,0.4,0.1c0.1,0.1,0.2,0.1,0.3,0.2
			c0.1,0.1,0.1,0.2,0.1,0.3c0,0.1-0.1,0.3-0.1,0.3c-0.1,0.1-0.1,0.2-0.3,0.2c-0.1,0.1-0.3,0.1-0.5,0.1c-0.3,0-0.5-0.1-0.7-0.2
			c-0.2-0.1-0.3-0.3-0.3-0.5h0.7c0,0.1,0.1,0.1,0.1,0.2c0.1,0.1,0.1,0.1,0.3,0.1c0.1,0,0.1,0,0.2-0.1c0.1-0.1,0.1-0.1,0.1-0.1
			s-0.1-0.1-0.1-0.1s-0.2-0.1-0.3-0.1c-0.1-0.1-0.3-0.1-0.4-0.1c-0.1-0.1-0.2-0.1-0.3-0.2s-0.1-0.2-0.1-0.3c0-0.2,0.1-0.3,0.2-0.5
			c0.1-0.1,0.3-0.2,0.6-0.2C277.2,277.9,277.4,278,277.6,278.1z"/>
	</g>
</g>
<rect x="15.7" y="265.5" class="st1" width="204.8" height="5.2"/>
<rect x="15.7" y="275.7" class="st1" width="204.8" height="5.2"/>
<rect x="15.7" y="286" class="st1" width="134.2" height="5.2"/>
<rect class="st3" width="301" height="256.9"/>
</svg>
