<?xml version="1.0" encoding="utf-8"?>
<!-- Generator: Adobe Illustrator 22.0.1, SVG Export Plug-In . SVG Version: 6.00 Build 0)  -->
<svg version="1.1" id="Layer_1" xmlns="http://www.w3.org/2000/svg" xmlns:xlink="http://www.w3.org/1999/xlink" x="0px" y="0px"
	 viewBox="0 0 301 301" style="enable-background:new 0 0 301 301;" xml:space="preserve">
<style type="text/css">
	.st0{fill:#6BC373;}
	.st1{fill:#DDDDDD;}
	.st2{fill:#C7E8CA;}
	.st3{enable-background:new    ;}
	.st4{fill:#757575;}
</style>
<g>
	<rect y="256.9" class="st0" width="301" height="44.1"/>
</g>
<g>
	<g>
		<path class="st0" d="M16.8,287.7c-4.9,0-8.8-4-8.8-8.9s4-8.8,8.8-8.8h38.8c4.9,0,8.8,4,8.8,8.8c0,4.9-4,8.9-8.8,8.9H16.8z"/>
		<path class="st1" d="M55.6,270.2c4.8,0,8.6,3.8,8.6,8.6c0,4.8-3.8,8.6-8.6,8.6H16.7c-4.8,0-8.6-3.8-8.6-8.6c0-4.8,3.8-8.6,8.6-8.6
			H55.6 M55.6,269.6H16.7c-5,0-9.2,4.1-9.2,9.2l0,0c0,5,4.1,9.2,9.2,9.2h38.9c5,0,9.2-4.1,9.2-9.2l0,0
			C64.7,273.8,60.7,269.6,55.6,269.6L55.6,269.6z"/>
	</g>
</g>
<g>
	<g>
		<path class="st2" d="M19.7,279L19.7,279l3.2,1.7c0.2-0.2,0.7-0.3,1-0.3c0.9,0,1.6,0.7,1.6,1.6s-0.7,1.6-1.6,1.6s-1.6-0.7-1.6-1.6
			c0,0,0,0,0-0.1l-3.2-1.6c-0.2,0.2-0.7,0.3-1,0.3c-0.9,0-1.6-0.7-1.6-1.6s0.7-1.6,1.6-1.6c0.3,0,0.8,0.1,1,0.3l3.2-1.6
			c0,0,0,0,0-0.1c0-0.9,0.7-1.6,1.6-1.6s1.6,0.7,1.6,1.6s-0.7,1.6-1.6,1.6c-0.3,0-0.8-0.1-1-0.3L19.7,279
			C19.7,278.9,19.7,279,19.7,279L19.7,279z"/>
	</g>
</g>
<g>
	<g>
		<path class="st2" d="M86.3,268.2c-6,0-10.8,4.8-10.8,10.8s4.8,10.8,10.8,10.8S97.1,285,97.1,279S92.3,268.2,86.3,268.2z
			 M89.1,275.3c0,0.1-0.1,0.2-0.2,0.2h-1.1c-0.3,0-0.5,0.2-0.5,0.5v1.1h1.6c0,0,0.1,0,0.1,0.1v0.1l-0.2,1.9c0,0.1-0.1,0.1-0.2,0.1
			h-1.4v4.9c0,0.1-0.1,0.2-0.2,0.2h-2.1c-0.1,0-0.2-0.1-0.2-0.2v-4.9h-1.2c-0.1,0-0.2-0.1-0.2-0.2v-1.7c0-0.1,0.1-0.2,0.2-0.2h1.3
			v-1.3c0-0.1-0.1-1,0.7-1.6c0.7-0.7,1.5-0.7,1.7-0.7h0.1h1.4c0.1,0,0.2,0.1,0.2,0.2v1.5H89.1z"/>
	</g>
</g>
<g>
	<g>
		<path class="st2" d="M116.5,268.2c-6,0-10.8,4.8-10.8,10.8s4.8,10.8,10.8,10.8s10.8-4.8,10.8-10.8S122.5,268.2,116.5,268.2z
			 M120.2,277v0.2c0,2.5-2,5.4-5.4,5.4c-1.1,0-2.1-0.3-2.9-0.9c0.1,0,0.3,0,0.4,0c0.9,0,1.7-0.3,2.4-0.9c-0.9,0-1.5-0.5-1.7-1.3
			c0.1,0,0.2,0,0.3,0c0.2,0,0.3,0,0.5-0.1c-0.9-0.2-1.5-1-1.5-1.9l0,0c0.2,0.1,0.5,0.2,0.9,0.2c-0.5-0.3-0.9-1-0.9-1.6
			c0-0.3,0.1-0.7,0.2-1c1,1.2,2.4,2,3.9,2c0-0.1,0-0.3,0-0.4c0-1.1,0.9-2,2-2c0.5,0,1.1,0.2,1.4,0.7c0.4-0.1,0.9-0.2,1.2-0.4
			c-0.1,0.4-0.4,0.9-0.9,1.1c0.4,0,0.8-0.1,1.1-0.3C120.9,276.4,120.6,276.7,120.2,277z"/>
	</g>
</g>
<g>
	<g>
		<path class="st2" d="M147.4,278.9l2.4-2.2c0.1-0.1,0.1-0.2,0-0.4c-0.1-0.1-0.2-0.1-0.4,0l-3.3,2.9l-0.7-0.5l0,0l0,0l-2.6-2.3
			c-0.1-0.1-0.3-0.1-0.4,0c-0.1,0.1-0.1,0.3,0,0.4l2.4,2.2l-2.4,2.3c-0.1,0.1-0.1,0.3,0,0.4c0,0.1,0.1,0.1,0.2,0.1
			c0.1,0,0.1,0,0.2-0.1l2.4-2.3l0.7,0.5c0,0,0.1,0.1,0.2,0.1c0.1,0,0.1,0,0.2-0.1l0.7-0.7l2.4,2.3c0,0,0.1,0.1,0.2,0.1
			c0.1,0,0.1,0,0.2-0.1c0.1-0.1,0.1-0.3,0-0.4L147.4,278.9z"/>
	</g>
	<g>
		<path class="st2" d="M146.1,268.2c-6,0-10.8,4.8-10.8,10.8s4.8,10.8,10.8,10.8s10.8-4.8,10.8-10.8S152.1,268.2,146.1,268.2z
			 M151,281.5c0,0.7-0.5,1.2-1.2,1.2h-7.4c-0.7,0-1.2-0.5-1.2-1.2v-5c0-0.7,0.5-1.2,1.2-1.2h7.4c0.7,0,1.2,0.5,1.2,1.2V281.5z"/>
	</g>
</g>
<g>
	<g>
		<path class="st2" d="M176.4,268.2c-6,0-10.8,4.8-10.8,10.8s4.8,10.8,10.8,10.8s10.8-4.8,10.8-10.8S182.3,268.2,176.4,268.2z
			 M180.2,282.3c-1.3,1.6-3.6,2.1-5.4,1.4c-2-0.7-3.5-2.7-3.4-4.8c-0.1-2.6,2.2-5,4.8-5c1.3-0.1,2.6,0.4,3.6,1.2
			c-0.4,0.4-0.9,0.9-1.3,1.3c-0.9-0.5-2-1-3.1-0.5c-1.6,0.4-2.7,2.5-2.1,4.1c0.5,1.7,2.6,2.6,4.2,2c0.9-0.3,1.4-1.1,1.6-2
			c-1,0-2,0-2.9,0c0-0.5,0-1.2,0-1.7c1.6,0,3.3,0,4.9,0C181.4,279.6,181.2,281.2,180.2,282.3z"/>
	</g>
</g>
<g class="st3">
	<path class="st2" d="M34.1,280.9c-0.1,0.2-0.3,0.4-0.6,0.6s-0.6,0.2-1,0.2s-0.8-0.1-1.1-0.2s-0.6-0.3-0.7-0.6
		c-0.2-0.3-0.3-0.5-0.3-0.9h0.8c0,0.2,0.1,0.3,0.2,0.5s0.2,0.3,0.4,0.4c0.2,0.1,0.4,0.2,0.7,0.2s0.6-0.1,0.8-0.3
		c0.2-0.2,0.3-0.4,0.3-0.7c0-0.2-0.1-0.4-0.2-0.6c-0.1-0.2-0.3-0.3-0.5-0.4s-0.4-0.2-0.8-0.3c-0.4-0.1-0.7-0.2-0.9-0.4
		s-0.4-0.3-0.6-0.5s-0.2-0.5-0.2-0.9c0-0.3,0.1-0.6,0.2-0.8s0.4-0.4,0.6-0.6c0.3-0.1,0.6-0.2,1-0.2c0.6,0,1.1,0.1,1.4,0.4
		s0.5,0.7,0.6,1.1h-0.8c0-0.2-0.2-0.4-0.4-0.6s-0.5-0.3-0.8-0.3s-0.6,0.1-0.7,0.2c-0.2,0.2-0.3,0.4-0.3,0.7c0,0.2,0.1,0.4,0.2,0.6
		s0.3,0.3,0.5,0.3c0.2,0.1,0.4,0.2,0.7,0.3c0.4,0.1,0.7,0.2,0.9,0.4s0.4,0.3,0.6,0.5c0.2,0.2,0.2,0.5,0.2,0.9
		C34.3,280.3,34.2,280.6,34.1,280.9z"/>
	<path class="st2" d="M39.1,277.4c0.3,0.3,0.5,0.9,0.5,1.5v2.7h-0.8V279c0-0.5-0.1-0.8-0.4-1.1c-0.2-0.3-0.6-0.4-1-0.4
		s-0.8,0.1-1,0.4c-0.3,0.3-0.4,0.7-0.4,1.2v2.5h-0.8v-6.3H36v2.7c0.1-0.4,0.3-0.7,0.6-0.9c0.3-0.2,0.7-0.3,1.1-0.3
		C38.3,276.9,38.8,277,39.1,277.4z"/>
	<path class="st2" d="M43.9,277.2c0.3,0.2,0.5,0.5,0.7,0.9V277h0.8v4.7h-0.8v-1.2c-0.1,0.4-0.3,0.7-0.7,0.9
		c-0.3,0.2-0.7,0.3-1.2,0.3c-0.4,0-0.8-0.1-1.1-0.3c-0.3-0.2-0.6-0.5-0.8-0.8c-0.2-0.4-0.3-0.8-0.3-1.3s0.1-0.9,0.3-1.3
		s0.4-0.6,0.8-0.8c0.3-0.2,0.7-0.3,1.1-0.3C43.2,276.9,43.6,277,43.9,277.2z M41.8,278c-0.3,0.3-0.4,0.7-0.4,1.3
		c0,0.5,0.1,1,0.4,1.3c0.3,0.3,0.7,0.5,1.1,0.5c0.3,0,0.6-0.1,0.8-0.2s0.4-0.3,0.6-0.6c0.1-0.3,0.2-0.6,0.2-0.9s-0.1-0.6-0.2-0.9
		s-0.3-0.5-0.6-0.6c-0.2-0.1-0.5-0.2-0.8-0.2C42.5,277.6,42.1,277.7,41.8,278z"/>
	<path class="st2" d="M48,277.1c0.3-0.2,0.6-0.3,1.1-0.3v0.8h-0.2c-0.4,0-0.8,0.1-1.1,0.3c-0.3,0.2-0.4,0.6-0.4,1.1v2.5h-0.8V277
		h0.8v0.9C47.5,277.6,47.7,277.3,48,277.1z"/>
	<path class="st2" d="M54.1,279.5h-3.7c0,0.5,0.2,0.9,0.5,1.2c0.3,0.3,0.6,0.4,1.1,0.4c0.4,0,0.7-0.1,0.9-0.3
		c0.3-0.2,0.4-0.4,0.5-0.8h0.8c-0.1,0.3-0.2,0.6-0.4,0.9s-0.4,0.5-0.8,0.6s-0.7,0.2-1.1,0.2c-0.4,0-0.8-0.1-1.2-0.3
		c-0.3-0.2-0.6-0.5-0.8-0.8c-0.2-0.4-0.3-0.8-0.3-1.3s0.1-0.9,0.3-1.3s0.5-0.6,0.8-0.8c0.3-0.2,0.7-0.3,1.2-0.3s0.8,0.1,1.2,0.3
		c0.3,0.2,0.6,0.5,0.8,0.8s0.3,0.7,0.3,1.1C54.1,279.2,54.1,279.3,54.1,279.5z M53.1,278.2c-0.1-0.2-0.3-0.4-0.5-0.5
		s-0.5-0.2-0.7-0.2c-0.4,0-0.8,0.1-1.1,0.4s-0.4,0.7-0.5,1.2h3C53.3,278.7,53.3,278.4,53.1,278.2z"/>
</g>
<rect class="st4" width="301" height="256.9"/>
</svg>
