<?xml version="1.0" encoding="utf-8"?>
<!-- Generator: Adobe Illustrator 22.1.0, SVG Export Plug-In . SVG Version: 6.00 Build 0)  -->
<svg version="1.1" id="Layer_1" xmlns="http://www.w3.org/2000/svg" xmlns:xlink="http://www.w3.org/1999/xlink" x="0px" y="0px"
	 viewBox="0 0 300 300" style="enable-background:new 0 0 300 300;" xml:space="preserve">
<style type="text/css">
	.st0{fill:#FBC5A9;}
	.st1{fill:#F78B53;}
	.st2{fill:none;stroke:#BC5E39;stroke-miterlimit:10;}
	.st3{fill:#BC5E39;}
</style>
<g>
	<rect class="st0" width="300" height="300"/>
</g>
<g>
	<rect x="18" y="26.5" class="st1" width="264" height="247"/>
</g>
<g>
	<g>
		<g>
			<g>
				<rect x="118.5" y="121.5" class="st2" width="64.6" height="36.9"/>
			</g>
		</g>
		<g>
			<g>
				<path class="st2" d="M182,122.5v34.9h-62.5v-34.9H182 M184,120.6h-66.5v38.8H184V120.6L184,120.6z"/>
			</g>
		</g>
	</g>
	<g>
		<g>
			<circle class="st3" cx="126" cy="128.7" r="3.3"/>
		</g>
	</g>
	<g>
		<g>
			<polygon class="st3" points="184,159.3 184,144.7 166.8,127.5 140.2,154.2 145.5,159.3 			"/>
		</g>
	</g>
	<g>
		<g>
			<polygon class="st3" points="117.5,159.3 163,159.3 140.3,136.6 117.4,159.3 117.5,159.4 			"/>
		</g>
	</g>
</g>
<g>
	<rect x="34.3" y="218.5" class="st3" width="131.3" height="4.7"/>
</g>
<g>
	<rect x="34.3" y="230.4" class="st3" width="229.3" height="9.2"/>
</g>
<g>
	<rect x="34.3" y="246.8" class="st3" width="139.7" height="9.2"/>
</g>
<g>
	<g>
		<path class="st3" d="M42.6,196.6h37.7c4.3,0,7.8,3.5,7.8,7.8l0,0c0,4.3-3.5,7.8-7.8,7.8H42.6c-4.3,0-7.8-3.5-7.8-7.8l0,0
			C34.8,200,38.3,196.6,42.6,196.6z"/>
	</g>
</g>
<g>
	<g>
		<path class="st3" d="M103.5,195.9h37.7c4.3,0,7.8,3.5,7.8,7.8l0,0c0,4.3-3.5,7.8-7.8,7.8h-37.7c-4.3,0-7.8-3.5-7.8-7.8l0,0
			C95.8,199.3,99.3,195.9,103.5,195.9z"/>
	</g>
</g>
</svg>
