<?xml version="1.0" encoding="utf-8"?>
<!-- Generator: Adobe Illustrator 21.0.0, SVG Export Plug-In . SVG Version: 6.00 Build 0)  -->
<svg version="1.1" id="Layer_1" xmlns="http://www.w3.org/2000/svg" xmlns:xlink="http://www.w3.org/1999/xlink" x="0px" y="0px"
	 viewBox="0 0 2920 600" style="enable-background:new 0 0 2920 600;" xml:space="preserve">
<style type="text/css">
	.st0{fill:#FFCCCC;}
	.st1{opacity:0.2;fill:#FFFFFF;enable-background:new    ;}
	.st2{fill:none;stroke:#F79F9F;stroke-width:1.6142;stroke-linecap:round;stroke-linejoin:round;stroke-miterlimit:10;}
	.st3{opacity:0.25;fill:#F79F9F;enable-background:new    ;}
	.st4{fill:none;stroke:#C2AAE6;stroke-width:1.6142;stroke-linecap:round;stroke-linejoin:round;stroke-miterlimit:10;}
	.st5{fill:#9B2C2C;}
	.st6{fill:#822121;}
	.st7{fill:#EA6A6A;}
	.st8{fill:#F79F9F;}
	.st9{fill:#80FFCE;}
	.st10{fill:none;stroke:#12B563;stroke-width:1.4522;stroke-linecap:round;stroke-linejoin:round;stroke-miterlimit:10;}
	.st11{fill:#20D37E;}
	.st12{fill:none;stroke:#20D37E;stroke-width:1.4522;stroke-linecap:round;stroke-linejoin:round;stroke-miterlimit:10;}
	.st13{opacity:0.75;fill:#CC0719;enable-background:new    ;}
	.st14{fill:#D26948;}
	.st15{opacity:0.25;fill:#D26948;enable-background:new    ;}
	.st16{fill:#FFB67E;}
	.st17{opacity:0.25;}
	.st18{fill:#602210;}
	.st19{opacity:0.55;}
	.st20{opacity:0.5;}
	.st21{fill:#FFFFFF;}
	.st22{fill:none;stroke:#FFFFFF;stroke-width:1.6142;stroke-linecap:round;stroke-linejoin:round;stroke-miterlimit:10;}
	.st23{opacity:0.2;}
	.st24{fill:#CC3333;}
	.st25{opacity:0.25;fill:#D7BBFF;enable-background:new    ;}
	.st26{fill:#CD2A27;}
	.st27{fill:#EF6F66;}
	.st28{fill:#601502;}
	.st29{fill:none;stroke:#EF6F66;stroke-width:0.7261;stroke-linecap:round;stroke-linejoin:round;stroke-miterlimit:10;}
	.st30{fill:#80250C;}
	.st31{fill:#A0270C;}
	.st32{fill:#731900;}
	.st33{fill:#601808;}
	.st34{fill:#F6CB4D;}
	.st35{fill:#F3A63F;}
	.st36{opacity:0.55;fill:#602210;enable-background:new    ;}
</style>
<rect y="-0.5" class="st0" width="2920" height="600"/>
<g>
	<path class="st1" d="M1175.1,366.9c3.5,0,150.7,0,150.7,0c19.1,0-7.9-12.6-14-4c0-10.2-8.2-15.8-18.4-15.8c-2,0-4,0.3-5.8,1
		c0.5-1.6,0.7-3.3,0.7-5.1c0-10.1-8.2-18.3-18.3-18.3c-4.1,0-7.8,1.4-10.9,3.6c0.5-2.1,0.7-4.3,0.7-6.5c0-16.3-13.2-29.5-29.5-29.5
		c-16.3,0-29.5,13.2-29.5,29.5c0,1.5,0.1,3.1,0.4,4.6c-2.1-1-4.5-1.6-7-1.6c-8.8,0-15.9,7.1-15.9,15.9c0,2.5,0.6,4.8,1.6,6.9
		c-1-0.3-2-0.5-3.1-0.5c-5.9,0-10.6,4.7-10.6,10.6C1166.3,361.6,1170.1,366.9,1175.1,366.9z"/>
	<path class="st1" d="M1746.3,152.5c-2.3,0-4.4,0.8-6,2.2c0.2-0.7,0.2-1.5,0.2-2.2c0-5.7-4.6-10.3-10.3-10.3c-1.8,0-3.6,0.5-5.1,1.3
		c0.2-1.3,0.3-2.6,0.3-3.9c0-14-11.4-25.4-25.4-25.4c-13.2,0-24,10-25.3,22.8c-1.4-1.1-3.2-1.8-5.2-1.8c-4.7,0-8.6,3.8-8.6,8.6
		c0,0.7,0.1,1.3,0.2,1.9c-1.3-1.2-3-1.9-4.9-1.9c-4,0-7.2,3.2-7.2,7.2c0,1.4,0.4,2.7,1.1,3.9c-1-0.3-2.1-0.5-3.2-0.5
		c-5.8,0-10.4,5.2-6,5.2s108.3,0,111.6,0C1756,159.8,1752.5,152.5,1746.3,152.5z"/>
	<path class="st1" d="M1773.8,412.4c-2.3,0-4.4,0.8-6,2.2c0.2-0.7,0.2-1.5,0.2-2.2c0-5.7-4.6-10.3-10.3-10.3c-1.8,0-3.6,0.5-5.1,1.3
		c0.2-1.3,0.3-2.6,0.3-3.9c0-14-11.4-25.4-25.4-25.4c-13.2,0-24,10-25.3,22.8c-1.4-1.1-3.2-1.8-5.2-1.8c-4.7,0-8.6,3.8-8.6,8.6
		c0,0.7,0.1,1.3,0.2,1.9c-1.3-1.2-3-1.9-4.9-1.9c-4,0-7.2,3.2-7.2,7.2c0,1.4,0.4,2.7,1.1,3.9c-1-0.3-2.1-0.5-3.2-0.5
		c-5.8,0-10.4,5.2-6,5.2s108.3,0,111.6,0C1783.6,419.7,1780.1,412.4,1773.8,412.4z"/>
	<path class="st1" d="M1476.2,68.4h-45.6c-1.4-1.2-2.4-3-2.4-5c0-3.6,2.9-6.5,6.5-6.5c0.4,0,0.8,0,1.2,0.1c-0.1-0.7-0.2-1.5-0.2-2.3
		c0-8.1,6.6-14.7,14.7-14.7c7.3,0,13.4,5.3,14.5,12.3c1.7-1.3,3.8-2.1,6.1-2.1c5.4,0,9.8,4.4,9.8,9.8
		C1480.8,63.6,1479,66.6,1476.2,68.4z"/>
	<g>
		<polyline class="st2" points="1205.9,439 1205.9,405.3 1339.2,405.3 1339.2,538.2 1205.9,538.2 1205.9,518.9 		"/>
		<line class="st2" x1="1205.9" y1="481.8" x2="1205.9" y2="513.6"/>
		<line class="st2" x1="1205.9" y1="470" x2="1205.9" y2="474.3"/>
		<g>
			<rect x="1310.4" y="443.5" class="st3" width="20.9" height="41.2"/>
			<rect x="1216.4" y="421.3" class="st3" width="114.9" height="14"/>
			<rect x="1217.4" y="443.5" class="st3" width="88.8" height="6.7"/>
			<rect x="1217.4" y="460.8" class="st3" width="88.8" height="6.7"/>
			<rect x="1217.4" y="478" class="st3" width="88.8" height="6.7"/>
			<rect x="1217.4" y="495.3" class="st3" width="114.4" height="6.7"/>
			<rect x="1217.4" y="512.6" class="st3" width="114.4" height="6.7"/>
		</g>
	</g>
	<g>
		<polyline class="st2" points="1513.8,124.6 1513.8,87.3 1661.2,87.3 1661.2,234.4 1513.8,234.4 1513.8,213 		"/>
		<line class="st4" x1="1513.8" y1="172" x2="1513.8" y2="207.2"/>
		<line class="st4" x1="1513.8" y1="159" x2="1513.8" y2="163.6"/>
		<g>
			<rect x="1629.5" y="129.6" class="st3" width="23.1" height="45.6"/>
			<rect x="1525.3" y="105" class="st3" width="127.2" height="15.5"/>
			<rect x="1526.5" y="129.6" class="st3" width="98.3" height="7.4"/>
			<rect x="1526.5" y="148.7" class="st3" width="98.3" height="7.4"/>
			<rect x="1526.5" y="167.8" class="st3" width="98.3" height="7.4"/>
			<rect x="1526.5" y="186.9" class="st3" width="126.6" height="7.4"/>
			<rect x="1526.5" y="206" class="st3" width="126.6" height="7.4"/>
		</g>
	</g>
	<path class="st1" d="M1283.8,176h73.8c2.3-1.9,3.8-4.8,3.8-8.1c0-5.8-4.7-10.5-10.5-10.5c-0.7,0-1.3,0.1-1.9,0.2
		c0.2-1.2,0.3-2.4,0.3-3.7c0-13.2-10.7-23.8-23.8-23.8c-11.8,0-21.6,8.6-23.5,19.9c-2.7-2.1-6.1-3.4-9.8-3.4
		c-8.8,0-15.9,7.1-15.9,15.9C1276.2,168.2,1279.2,173.2,1283.8,176z"/>
	<g>
		<path class="st5" d="M1570.5,446.3l9.6,65.3c0,0,7.6,10.2,36.2,10.2c28.6,0,36.2-10.2,36.2-10.2l9.6-65.3H1570.5z"/>
		<path class="st6" d="M1616.2,481.8c16.8,0,31.8-2.1,41.3-5.4l4.3-29.2h-91.1l4.3,29.2C1584.5,479.7,1599.3,481.8,1616.2,481.8z"/>
		<path class="st5" d="M1668.3,461.3c0,7.6-23.3,13.8-52.1,13.8c-28.8,0-52.1-6.2-52.1-13.8l-2.5-20.8h109.1L1668.3,461.3z"/>
		<ellipse class="st7" cx="1616.2" cy="440.6" rx="54.6" ry="14.5"/>
		<ellipse class="st8" cx="1616.2" cy="440.3" rx="48.8" ry="10.9"/>
		<path class="st6" d="M1569.7,443.6c6.2-4.4,24.7-7.6,46.6-7.6s40.3,3.2,46.6,7.6c1.4-1,2.2-2.1,2.2-3.3c0-6-21.8-10.9-48.8-10.9
			c-26.9,0-48.8,4.9-48.8,10.9C1567.3,441.5,1568.2,442.6,1569.7,443.6z"/>
		<g>
			<path class="st9" d="M1654.7,353.6c3.5-12.7-0.8-22.7-5.4-34c-4.7-11.3-5.4-23.3-3.7-35.2c2.4-16.1,7.7-31.7,1.6-47.4
				c-5.8-14.8-11.4-34.2-27.4-40.5c-15.5-6.6-27.3,8.7-27,22.8c0.3,14.1,8.3,26.8,4.3,40.8c-3,11.4-7,24.9-1.1,35.9
				c7.1,13.5,20.4,23.1,15.4,39.5c-2,5.9-5.2,10.9-5.8,16.8c-0.8,8.9,3.7,11.1,7.8,18.3c17.1,30.1-14.2,42.2-1.9,75.2
				c0.3,0.9,1.2,1.5,2.2,1.5l0,0c1.1-0.1,2-0.9,2.1-2c3.9-36.9,30.2-24.2,30.5-54.1c0.1-5.6-1.7-11.2-1-16.7
				C1646,366.1,1652.6,361.6,1654.7,353.6z"/>
			<path class="st10" d="M1619.7,364.8c0,0,1.5,16.9,13.8,19"/>
			<path class="st10" d="M1607.8,283c0,0,0.9,18.9,16.7,24"/>
			<path class="st10" d="M1643.2,257.3c0,0-0.7,19.6-16.2,22.6"/>
			<path class="st10" d="M1642.7,318.7c0,0,3.7,21.5-8.8,27"/>
			<path class="st10" d="M1639.3,391c0,0,0,19.6-19.7,21.5"/>
			<path class="st10" d="M1614.8,230c0,0,1.5,19.8,13.2,23.1"/>
			<path class="st10" d="M1616.2,216.4c13.6,13.4,12.4,43.8,11.4,57.9c-0.9,10.2-6.3,34,0,51.3c6.6,18.3,12.6,37.8,5.1,63
				c-5.3,17.6-22.4,26.1-19,58.1"/>
			<path class="st11" d="M1646.2,389.6c0,0.6,0,1.1,0,1.7c-0.2,19.6-11.6,20.9-20.5,29.9c1-5.2,1.3-11.7,4.8-16
				c3.8-4.3,9-5.1,12.8-10.2C1644.8,393,1645.7,391.3,1646.2,389.6z M1649.3,319.6c-4.7-11.3-5.4-23.3-3.7-35.2
				c0.2-1.2,0.4-2.3,0.6-3.5c-6.1,2.4-10.9,6.8-13.8,13c-8.6,18.3-1.8,30.8,5.6,44.7c6.1,11.3,2.1,21.8,3.4,33.7
				c0.5,5,2.7,8.9,4.4,12.6c-0.4-3.5-0.9-6.9-0.5-10.3c0.8-8.5,7.4-12.9,9.4-21C1658.2,340.9,1653.8,330.9,1649.3,319.6z
				 M1617,415.7c-1.2-2.6-2.7-5.4-2.9-8.2c-3.9,10.2-8.2,20.8-3.6,35.7v0.1c0.3,0.8,0.6,1.7,0.9,2.6c0.1,0.2,0.2,0.3,0.3,0.5
				c0,0,0,0.1,0.1,0.1c0.1,0.1,0.2,0.3,0.4,0.4l0,0c0.4,0.4,1,0.6,1.5,0.5l0,0c0.4,0,0.8-0.2,1.2-0.4c0.7-0.5,0.8-1,0.9-1.4v-0.1
				c0.6-5.5,1.7-9.9,3.1-13.5c-0.8,0.5-1.6,1-2.5,1.5C1619,427.5,1620.8,423.9,1617,415.7z"/>
		</g>
		<g>
			<path class="st9" d="M1694.8,347c-7.7-14.1-7.7-23.4-6.8-38.4c0.9-15.4-3.8-35.9-22.6-39.3c-14.1-2.6-25.6,3.2-30.8,14.3
				c-8.6,18.3-1.8,30.8,5.6,44.7c6.1,11.3,2.1,21.8,3.4,33.7c1.3,12,12,17.5,3,29.9c-3.8,5.1-9,6-12.8,10.2
				c-3.8,4.7-3.8,12.1-5.1,17.5c-3.4,13.8-16.9,11.8-17.5,25.8c0,1,0.8,2.1,1.5,2c0.7,0,1.3,0.1,1.8-0.8c3.2-5.6,8.4-4.8,14.2-7.3
				c4.3-1.9,5.7-7.3,16.1-8.5c13.6-1.6,26,7.3,32.9-11.1c2.6-6.4,1.7-12,3-18.4c1.3-8.5,6.8-13.7,12.4-19.6
				C1703,370.5,1701.7,359.4,1694.8,347z"/>
			<g>
				<g>
					<path class="st12" d="M1646.3,303.2c0,0,9,15.9,21.5,16.9"/>
					<path class="st12" d="M1655.8,352.4c0,0-0.7,28.6,8.4,34.6"/>
					<path class="st12" d="M1685.3,333.2c0,0-1,24.5-16.4,28.9"/>
					<path class="st12" d="M1672.8,403.5c0,0-7.8,23.6-30.2,19.8"/>
					<path class="st12" d="M1669.7,281.3c0,0,6.4,18.6-3.2,27.5"/>
					<path class="st12" d="M1612.8,446.1c2.1-7.7,13.4-10.5,16.7-12.6c36.1-23.5,50.2-69,32.4-146"/>
				</g>
			</g>
			<path class="st13" d="M1611.2,445.4c0,1,0.8,2.1,1.5,2h0.1c2.3-1.7-0.6-4.2,2.9-12.4C1613.3,437.5,1611.3,440.4,1611.2,445.4z"/>
		</g>
		<g>
			<path class="st9" d="M1613.8,411.6c-4.2-9.1-0.2-20.8-4.4-27.4c-5.1-8.3-13.6-2-23.5-13.4c-8.3-9.6-2.3-22.9-21.2-32.7
				c-5.8-3-12.5-1.5-14.7,5c-2.7,6.1,1.6,14.9,3.6,20.8c1.9,5,4.2,8.7,3.3,14.3c0,0.1,0,0.1,0,0.2c-1.1,4.3-3.9,6.5-2.4,11.6
				c3.2,12.2,20.5,11.1,29.3,18.8c6.2,5.4,0.6,11.8,6.7,20c6,8.1,9.1-0.7,19.8,18.4c0.4,0.7,1.3,0.9,1.9,0.5l0,0
				c0.5-0.3,0.8-0.8,0.7-1.3C1611.2,425.5,1620,425,1613.8,411.6z"/>
			<g>
				<path class="st10" d="M1555.7,352.6c0,0,1,9.5,10,12.4"/>
				<path class="st10" d="M1560.7,379.4c0,0,9,10.4,20.1,6.2"/>
				<path class="st10" d="M1594,380c0,0,6.8,11.2,1.8,16.4"/>
				<path class="st10" d="M1604.3,401.1c0,0,4,13.8-2.9,18.9"/>
				<path class="st10" d="M1572.6,358.8c0,0,5.8,14.4,0.8,19.6"/>
				<path class="st10" d="M1580.8,400.2c0,0,5.2,8.8,19.9,7.9"/>
				<path class="st10" d="M1590.8,418.9c0,0,1.4,8.9,15.9,10.9"/>
				<path class="st10" d="M1611.2,446.8c-0.6-18.8-10.6-20.4-10.3-31.5c0.3-8.7,0-16.9-10.6-23.2c-18.1-10.8-25.7-22.2-29.4-46.2"/>
			</g>
		</g>
	</g>
	<g>
		<g>
			<path class="st14" d="M1536.1,214.5c-1.8,18.9,12.2,29.7,18.5,45.7l22.8-13.9c-11.8-12.4-28.8-14.7-34.2-32.9"/>
		</g>
		<g>
			<path class="st14" d="M1563,245.9c-14.4,5.4-46.1,9.2-61,12.8l0,0c0,10.6,6.1,19.1,11.3,27.9c5.2,8.5,9.9,17.3,14.2,26.3
				c1.1,2.7,5.4,16,7.7,17.8c10.1-2.6,21.9-7,31.5-14.4c15.1-11.5,26.8-24.1,31.3-42.5l-9-13.6l-8.3-10.9l-11.7-5.8h-4.4L1563,245.9
				z"/>
		</g>
		<path class="st15" d="M1583.3,285.6c0,0,0.9-6.2-2.8,1.4c-2.5,10.2-22.9,32.2-40.8,37.4c-2.1,1.8-2.8,3.8-2.7,5.7
			c9.6-2.6,20.6-6.9,29.7-13.9c7-5.3,13.3-10.9,18.5-17.2C1584.3,292.4,1583.3,285.6,1583.3,285.6z"/>
		<g>
			<path class="st16" d="M1573.5,338.6c0.6,4-1.4,4-2,6.7c-0.7,3.2-2.1,6.8,1,8.4c0.5,0.2,1.4-0.1,0.8-1.3c0.3,0.1,1.8,1.3,2.2,1.4
				c1.6,0.3,2.9,0.7,3.4-1.6c1.7-1.5,2.4-4.3,1.9-6.7c-0.5-2-2-2.5-2-4.7s2-5.2,2.8-7.5"/>
		</g>
		<g>
			<path class="st14" d="M1580.3,284.7c3.6,26.1,0.5,38.6-8.8,53.4c0.9,3.2,5.2,3.8,9,2.5c39.8-45.3,15.3-83.2,3.9-88.5"/>
		</g>
		<g class="st17">
			<path class="st14" d="M1588.8,255.2c11.3,12.2,24,45.5-10.1,84.4c-0.5,0.5-2.2,1.4-3.1,1.5c1.5,0.2,3.2,0,4.8-0.6
				C1615.6,300.6,1600.7,266.3,1588.8,255.2z"/>
		</g>
		<g>
			<path class="st16" d="M1575.3,229.4c-0.6,4.6-1.2,9.2-2.4,13.7c-1.5,4.9-4.9,9.5-1.5,13.7c8.3,11.3,27.8-3.4,27.8-14"/>
		</g>
		<g>
			<path class="st16" d="M1579,243c-0.1,0.7-0.5,1.3-1.1,1.7s-1.3,0.7-1.8,1c-0.1,0.1-0.2,0.2-0.2,0.2c0,0.1,0,0.2,0,0.3
				c0,0.3,0.1,0.5,0.3,0.9c0.2,0.6,0.5,1.3,0.5,2c-0.3-0.6-0.7-1.1-1.1-1.7c-0.2-0.3-0.3-0.6-0.4-1c0-0.2,0-0.4,0.1-0.7
				s0.3-0.4,0.5-0.5c0.7-0.3,1.3-0.5,1.8-0.8C1578.2,244,1578.7,243.6,1579,243z"/>
		</g>
		<g>
			<path class="st18" d="M1602.3,234.2c1.3-3.6,2.4-7.6-1.9-10.8c-11.4-8.5-18.2-1.6-21.8-1.6c-1.6-0.3-4.8-6.6-6.5,1.4
				c-3,14.1,10.3,22.5,22.3,17.9c0.3,3.3-3.5,6.2-3.3,8.7c0.5,3.5,5.1,3.7,7.6,2.4C1604.8,249,1610.3,233.9,1602.3,234.2z"/>
		</g>
		<g>
			<path class="st16" d="M1573,352.1c-0.2-0.5-0.4-1.1-0.2-1.7c0.3-0.6,1-0.8,1.6-0.8c0.3,0,0.6,0.1,1,0.2c0.3,0.1,0.6,0.4,0.8,0.7
				c0.3,0.6,0.4,1.2,0.4,1.8c-0.3-0.5-0.6-1.1-0.9-1.4c-0.2-0.2-0.3-0.3-0.5-0.4c-0.2-0.1-0.5-0.1-0.7-0.2c-0.3,0-0.5-0.1-0.8,0
				c-0.2,0-0.6,0-0.7,0.3C1572.7,350.9,1572.8,351.5,1573,352.1z"/>
		</g>
		<g>
			<path class="st16" d="M1577.3,348.6c0.4,0,0.7,0.2,1,0.5c0.3,0.3,0.4,0.6,0.6,0.9c0.3,0.7,0.3,1.5-0.1,2.1
				c-0.2-0.7-0.4-1.3-0.6-1.8c-0.1-0.3-0.2-0.6-0.4-0.9C1577.7,349.1,1577.6,348.8,1577.3,348.6z"/>
		</g>
		<g>
			<path class="st16" d="M1574.7,351.2c0.3-0.3,0.5-0.3,0.7-0.3c0.2,0,0.3,0.1,0.7,0.2c0,0.2-0.1,0.3-0.3,0.4
				c-0.1,0.1-0.3,0.1-0.4,0.1C1575.1,351.5,1574.8,351.5,1574.7,351.2z"/>
		</g>
		<g class="st19">
			<path class="st18" d="M1604.6,234.7c0.6,1,1,1.7,1,3.3c-0.1,3.6-2.9,9.1-6.7,8.4c-1.2-0.2-2-1.5-2.1-2.7c0-1.2,1.5-6.9,0.6-6.8
				c-2.8,0.4-13.1,5.4-24-3c3.6,7.1,12.7,10.3,21.1,7.1c0.3,3.3-3.5,6.2-3.3,8.7c0.5,3.5,5.1,3.7,7.6,2.4
				C1604.2,249.4,1609,237.3,1604.6,234.7z"/>
		</g>
	</g>
	<g>
		<path class="st8" d="M1258.2,214.2h24.1c5.5,0,9.9,4.4,9.9,9.9v3.1l3.9,2.6c1,0.7,1,1.8,0,2.4l-3.9,2.6v3.1c0,5.5-4.4,9.9-9.9,9.9
			h-24.1c-5.5,0-9.9-4.4-9.9-9.9V224C1248.3,218.6,1252.7,214.2,1258.2,214.2z"/>
		<g class="st20">
			<path class="st21" d="M1282.6,230.1c-0.2-0.4-0.4-0.8-0.5-1.3c-0.1-0.5-0.1-1.2-0.1-2s0-1.4-0.1-1.7c0-0.3-0.1-0.5-0.3-0.6
				c-0.1-0.1-0.4-0.2-0.8-0.2c-0.2,0-0.4-0.1-0.6-0.3c-0.2-0.2-0.2-0.5-0.2-0.8c0-0.7,0.5-1.1,1.4-1.1s1.6,0.3,2.1,0.8
				s0.8,1.2,0.8,2.1c0,1.4,0,2.3,0.1,2.7c0,0.4,0.1,0.7,0.1,1c0.1,0.3,0.2,0.6,0.4,0.8c0.2,0.2,0.5,0.4,1,0.7c0.4,0.2,0.5,0.6,0.5,1
				c0,0.3-0.1,0.6-0.2,0.7c-0.1,0.1-0.3,0.3-0.6,0.5c-0.3,0.2-0.5,0.4-0.7,0.6c-0.2,0.2-0.3,0.5-0.4,1c0,0.2-0.1,0.5-0.1,1.1
				s0,1.3-0.1,2.3c0,0.6-0.1,1.1-0.4,1.5c-0.2,0.4-0.6,0.8-1,1s-1,0.4-1.5,0.4c-0.9,0-1.4-0.4-1.4-1.1c0-0.3,0.1-0.6,0.2-0.8
				c0.2-0.2,0.4-0.3,0.6-0.3c0.3,0,0.5-0.1,0.6-0.1s0.2-0.1,0.3-0.3s0.1-0.4,0.2-0.7c0-0.3,0-0.8,0-1.4c0-0.8,0.1-1.5,0.2-2
				c0.1-0.5,0.3-1,0.5-1.3c0.3-0.3,0.6-0.7,1-0.9C1283.2,230.8,1282.8,230.5,1282.6,230.1z"/>
			<path class="st21" d="M1275.4,235.9c-0.3-0.3-0.4-0.6-0.4-1.1c0-0.4,0.1-0.7,0.4-1c0.3-0.3,0.6-0.4,1-0.4c0.4,0,0.7,0.1,1,0.4
				c0.3,0.3,0.4,0.6,0.4,1c0,0.5-0.1,0.8-0.4,1.1c-0.3,0.3-0.6,0.4-1,0.4C1276.1,236.3,1275.8,236.2,1275.4,235.9z"/>
			<path class="st21" d="M1269.4,235.9c-0.3-0.3-0.4-0.6-0.4-1.1c0-0.4,0.1-0.7,0.4-1c0.3-0.3,0.6-0.4,1-0.4c0.4,0,0.7,0.1,1,0.4
				c0.3,0.3,0.4,0.6,0.4,1c0,0.5-0.1,0.8-0.4,1.1c-0.3,0.3-0.6,0.4-1,0.4C1270.1,236.3,1269.8,236.2,1269.4,235.9z"/>
			<path class="st21" d="M1263.3,235.9c-0.3-0.3-0.4-0.6-0.4-1.1c0-0.4,0.1-0.7,0.4-1c0.3-0.3,0.6-0.4,1-0.4s0.7,0.1,1,0.4
				c0.3,0.3,0.4,0.6,0.4,1c0,0.5-0.1,0.8-0.4,1.1c-0.3,0.3-0.6,0.4-1,0.4C1263.9,236.3,1263.7,236.2,1263.3,235.9z"/>
			<path class="st21" d="M1258.3,232.1c0.2,0.4,0.4,0.8,0.5,1.3s0.1,1.2,0.2,2c0,0.6,0,1,0,1.3s0.1,0.5,0.1,0.7
				c0.1,0.2,0.2,0.3,0.3,0.3c0.1,0.1,0.3,0.1,0.6,0.1c0.2,0,0.3,0.1,0.4,0.2c0.1,0.1,0.2,0.2,0.3,0.4s0.1,0.4,0.1,0.6
				c0,0.4-0.1,0.7-0.4,0.8c-0.2,0.2-0.6,0.3-1,0.3c-0.9,0-1.6-0.3-2.1-0.8s-0.8-1.2-0.8-2.1c0-0.9,0-1.7-0.1-2.3
				c0-0.6-0.1-1.1-0.1-1.4c-0.1-0.3-0.2-0.6-0.4-0.8c-0.2-0.2-0.5-0.4-1-0.7c-0.4-0.2-0.5-0.6-0.5-1c0-0.3,0.1-0.6,0.2-0.7
				c0.1-0.2,0.3-0.3,0.6-0.5s0.5-0.4,0.7-0.6c0.2-0.2,0.3-0.5,0.4-0.9c0.1-0.2,0.1-1.4,0.1-3.4c0-0.6,0.1-1.1,0.4-1.5
				c0.3-0.4,0.6-0.8,1-1c0.4-0.2,1-0.4,1.5-0.4c0.9,0,1.4,0.4,1.4,1.1c0,0.3-0.1,0.6-0.2,0.8c-0.2,0.2-0.4,0.3-0.6,0.3
				c-0.3,0-0.5,0.1-0.6,0.1c-0.1,0.1-0.2,0.2-0.3,0.3c-0.1,0.1-0.1,0.4-0.2,0.7c0,0.3,0,0.8,0,1.4c0,0.6,0,1.2-0.1,1.6
				c-0.1,0.5-0.2,0.8-0.3,1.2c-0.1,0.3-0.3,0.6-0.5,0.8c-0.2,0.2-0.5,0.5-0.8,0.7C1257.8,231.4,1258.2,231.7,1258.3,232.1z"/>
		</g>
	</g>
	<g>
		<path class="st8" d="M1272.6,79.1h24.1c5.5,0,9.9,4.4,9.9,9.9v3l3.9,2.6c1,0.7,1,1.8,0,2.4l-3.9,2.6v3.1c0,5.5-4.4,9.9-9.9,9.9
			h-24.1c-5.5,0-9.9-4.4-9.9-9.9V89C1262.7,83.5,1267.1,79.1,1272.6,79.1z"/>
		<g class="st20">
			<path class="st21" d="M1284.4,98.4c0,0.4-0.1,0.9-0.3,1.4c-0.2,0.5-0.6,1-1,1.5c-0.5,0.5-1.1,0.9-1.8,1.2
				c-0.7,0.3-1.6,0.5-2.5,0.5c-0.7,0-1.4-0.1-2-0.2c-0.6-0.1-1.1-0.4-1.6-0.6c-0.5-0.3-0.9-0.7-1.3-1.2c-0.4-0.4-0.7-0.9-0.9-1.5
				c-0.3-0.5-0.5-1.1-0.6-1.7c-0.1-0.6-0.2-1.3-0.2-1.9c0-1.1,0.2-2.1,0.5-3c0.3-0.9,0.8-1.6,1.4-2.3c0.6-0.6,1.3-1.1,2.1-1.4
				s1.7-0.5,2.6-0.5c1.1,0,2.1,0.2,3,0.7c0.9,0.4,1.5,1,2,1.7s0.7,1.3,0.7,1.9c0,0.3-0.1,0.6-0.3,0.8c-0.2,0.2-0.5,0.4-0.8,0.4
				c-0.4,0-0.6-0.1-0.8-0.3c-0.2-0.2-0.4-0.5-0.6-0.9c-0.4-0.7-0.8-1.2-1.3-1.5s-1.1-0.5-1.8-0.5c-1.1,0-2.1,0.4-2.7,1.3
				c-0.7,0.9-1,2.1-1,3.7c0,1.1,0.2,2,0.5,2.7c0.3,0.7,0.7,1.2,1.3,1.6s1.2,0.5,1.9,0.5c0.8,0,1.5-0.2,2-0.6c0.6-0.4,1-1,1.3-1.8
				c0.1-0.4,0.3-0.7,0.4-0.9c0.2-0.2,0.5-0.3,0.8-0.3c0.3,0,0.6,0.1,0.9,0.3C1284.7,97.7,1284.4,98.1,1284.4,98.4z"/>
			<path class="st21" d="M1287.1,94c0-0.4,0.1-0.8,0.4-1c0.3-0.2,0.6-0.4,1-0.4c0.4,0,0.7,0.1,1,0.4c0.3,0.2,0.4,0.6,0.4,1
				s-0.2,0.7-0.5,1c-0.3,0.3-0.6,0.4-1,0.4s-0.7-0.1-1-0.4C1287.3,94.7,1287.1,94.3,1287.1,94z M1288.4,103c-0.4,0-0.7-0.1-1-0.4
				c-0.3-0.3-0.4-0.6-0.4-1.1c0-0.4,0.1-0.7,0.4-1c0.3-0.3,0.6-0.4,1-0.4c0.4,0,0.7,0.1,1,0.4c0.3,0.3,0.4,0.6,0.4,1
				s-0.1,0.8-0.4,1.1C1289.3,102.9,1288.8,103,1288.4,103z"/>
			<path class="st21" d="M1296.4,90.6l-2.6,10.9c-0.1,0.4-0.2,0.6-0.2,0.8c-0.1,0.2-0.2,0.4-0.3,0.5s-0.3,0.2-0.6,0.2
				c-0.6,0-1-0.3-1-0.8c0-0.1,0.1-0.5,0.2-1.1l2.6-10.9c0.1-0.6,0.3-1,0.4-1.2c0.1-0.2,0.4-0.3,0.7-0.3c0.3,0,0.6,0.1,0.7,0.2
				c0.2,0.2,0.2,0.4,0.2,0.6C1296.7,89.8,1296.7,90.1,1296.4,90.6z"/>
		</g>
	</g>
	<g>
		<path class="st8" d="M1171.3,313.5c0,5.1-4.1,9.2-9.2,9.2H1137c-5.1,0-9.2-4.1-9.2-9.2v-25.1c0-5.1,4.1-9.2,9.2-9.2h25.1
			c5.1,0,9.2,4.1,9.2,9.2V313.5z"/>
		<g class="st20">
			<polyline class="st22" points="1145.1,293.7 1142.8,299.5 1135.9,294.9 1140.4,290.6 			"/>
			<polygon class="st22" points="1149.8,293.7 1154.3,293.7 1158.9,290.6 1154.7,288.7 1149.8,288.7 1144.8,288.7 1140.4,290.6 
				1145.1,293.7 			"/>
			<polyline class="st22" points="1154.3,293.7 1156.6,299.5 1163.4,294.9 1158.9,290.6 			"/>
			<polyline class="st22" points="1163.4,294.9 1149.8,313.2 1156.6,299.5 1149.8,299.5 1142.8,299.5 1149.8,313.2 1135.9,294.9 			
				"/>
		</g>
	</g>
	<g>
		<path class="st8" d="M1583.7,40.2h-27.3c-6.2,0-11.2,5-11.2,11.2v3.5l-4.4,3c-1.1,0.8-1.1,2,0,2.8l4.4,3V67
			c0,6.2,5,11.2,11.2,11.2h27.3c6.2,0,11.2-5,11.2-11.2V51.3C1594.8,45.2,1589.8,40.2,1583.7,40.2z"/>
		<g class="st20">
			<path class="st21" d="M1586.1,59.8l-7.5-2.9v-3l10.7,4.6v2.6l-10.7,4.6v-3L1586.1,59.8z"/>
			<path class="st21" d="M1566.3,52.6c0-0.3,0.1-0.5,0.3-0.7c0.2-0.2,0.5-0.3,0.8-0.3c0.4,0,0.7,0.1,0.8,0.4
				c0.1,0.2,0.3,0.7,0.4,1.3l3,12.3c0.1,0.7,0.2,1.1,0.2,1.2c0,0.6-0.4,0.9-1.1,0.9c-0.3,0-0.5-0.1-0.7-0.2
				c-0.2-0.1-0.3-0.3-0.3-0.5c-0.1-0.2-0.2-0.6-0.3-1l-3-12.3C1566.3,53.2,1566.3,52.8,1566.3,52.6z"/>
			<path class="st21" d="M1548.8,58.6l10.7-4.6v3l-7.5,2.9l7.5,2.9v3l-10.7-4.7V58.6z"/>
		</g>
	</g>
	<g>
		<g>
			<path class="st8" d="M1419.5,100.6c-2.2,2.4-6,2.6-8.5,0.3c-2.4-2.2-2.6-6-0.3-8.5c2.2-2.4,6-2.6,8.5-0.3
				C1421.6,94.4,1421.7,98.1,1419.5,100.6z"/>
		</g>
		<g>
			<path class="st8" d="M1443.3,129.4c-2.2,2.4-6,2.6-8.5,0.3c-2.4-2.2-2.6-6-0.3-8.5c2.2-2.4,6-2.6,8.5-0.3
				C1445.5,123.2,1445.6,127,1443.3,129.4z"/>
		</g>
		<g>
			<path class="st8" d="M1388.7,107.1c-1.5,1.6-4,1.7-5.7,0.2c-1.6-1.5-1.7-4-0.2-5.7c1.5-1.6,4-1.7,5.7-0.2
				C1390.1,102.9,1390.2,105.4,1388.7,107.1z"/>
		</g>
		<g>
			
				<rect x="1426.9" y="97.5" transform="matrix(0.7602 -0.6496 0.6496 0.7602 270.5739 954.0558)" class="st8" width="1.8" height="25.9"/>
		</g>
		<g>
			
				<rect x="1387.3" y="99.9" transform="matrix(0.9646 -0.2636 0.2636 0.9646 22.8957 372.2035)" class="st8" width="22.2" height="1.8"/>
		</g>
	</g>
	<g>
		<g>
			<path class="st8" d="M1771.2,340.9c-0.7-1.8,0.2-3.9,2.1-4.6c1.8-0.7,3.9,0.2,4.6,2.1c0.7,1.8-0.2,3.9-2.1,4.6
				C1774,343.7,1771.8,342.7,1771.2,340.9z"/>
		</g>
		<g>
			<path class="st8" d="M1749.5,345.9c-0.7-1.8,0.2-3.9,2.1-4.6c1.8-0.7,3.9,0.2,4.6,2.1c0.7,1.8-0.2,3.9-2.1,4.6
				C1752.3,348.7,1750.2,347.8,1749.5,345.9z"/>
		</g>
		<g>
			<path class="st8" d="M1776,322.9c-0.5-1.2,0.2-2.6,1.4-3.1c1.2-0.5,2.6,0.2,3.1,1.4c0.5,1.2-0.2,2.6-1.4,3.1
				C1777.8,324.7,1776.3,324.1,1776,322.9z"/>
		</g>
		<g>
			
				<rect x="1756" y="342.2" transform="matrix(0.9708 -0.2399 0.2399 0.9708 -30.7227 433.1089)" class="st8" width="15.4" height="1.1"/>
		</g>
		<g>
			
				<rect x="1770" y="329.2" transform="matrix(0.1968 -0.9804 0.9804 0.1968 1103.689 2006.724)" class="st8" width="13.2" height="1.1"/>
		</g>
	</g>
	<g>
		<g>
			<path class="st8" d="M1201.4,276.2c1.4-1.1,3.5-0.9,4.6,0.5c1.1,1.4,0.9,3.5-0.5,4.6c-1.4,1.1-3.5,0.9-4.6-0.5
				C1199.8,279.4,1200.1,277.3,1201.4,276.2z"/>
		</g>
		<g>
			<path class="st8" d="M1191.1,258.6c1.4-1.1,3.5-0.9,4.6,0.5s0.9,3.5-0.5,4.6s-3.5,0.9-4.6-0.5
				C1189.3,261.8,1189.6,259.7,1191.1,258.6z"/>
		</g>
		<g>
			<path class="st8" d="M1218.6,275.4c1-0.7,2.3-0.6,3.1,0.4c0.7,1,0.6,2.3-0.4,3.1c-1,0.7-2.3,0.6-3.1-0.4
				C1217.4,277.5,1217.7,276.1,1218.6,275.4z"/>
		</g>
		<g>
			
				<rect x="1197.1" y="263.1" transform="matrix(0.8533 -0.5214 0.5214 0.8533 34.7935 664.1355)" class="st8" width="1.3" height="14.2"/>
		</g>
		<g>
			
				<rect x="1206.7" y="277.2" transform="matrix(0.9942 -0.1075 0.1075 0.9942 -22.8401 131.9764)" class="st8" width="12.1" height="1.3"/>
		</g>
	</g>
	<path class="st8" d="M1752.5,231.2c0,4.3-3.5,7.7-7.7,7.7h-32.3c-4.3,0-7.7-3.5-7.7-7.7v-32.3c0-4.3,3.5-7.7,7.7-7.7h32.3
		c4.3,0,7.7,3.5,7.7,7.7V231.2z"/>
	<path class="st8" d="M1787.8,244.3c0,1.6-1.3,2.9-2.9,2.9h-12.1c-1.6,0-2.9-1.3-2.9-2.9v-12.1c0-1.6,1.3-2.9,2.9-2.9h12.1
		c1.6,0,2.9,1.3,2.9,2.9V244.3z"/>
	<path class="st8" d="M1220.2,182.3c0,1.7-1.3,3-3,3h-12.6c-1.7,0-3-1.3-3-3v-12.6c0-1.7,1.3-3,3-3h12.5c1.7,0,3,1.3,3,3
		L1220.2,182.3L1220.2,182.3z"/>
	<path class="st1" d="M1223.2,122.9l2.6-2.6c0.4-0.4,0.4-1,0-1.4s-1-0.4-1.4,0l-2.6,2.6l-2.6-2.6c-0.4-0.4-1-0.4-1.4,0s-0.4,1,0,1.4
		l2.6,2.6l-2.6,2.6c-0.4,0.4-0.4,1,0,1.4c0.2,0.2,0.5,0.3,0.7,0.3c0.3,0,0.5-0.1,0.7-0.3l2.6-2.6l2.6,2.6c0.2,0.2,0.5,0.3,0.7,0.3
		c0.3,0,0.5-0.1,0.7-0.3c0.4-0.4,0.4-1,0-1.4L1223.2,122.9z"/>
	<path class="st1" d="M1151.2,247.2l2.6-2.6c0.4-0.4,0.4-1,0-1.4s-1-0.4-1.4,0l-2.6,2.6l-2.6-2.6c-0.4-0.4-1-0.4-1.4,0s-0.4,1,0,1.4
		l2.6,2.6l-2.6,2.6c-0.4,0.4-0.4,1,0,1.4c0.2,0.2,0.5,0.3,0.7,0.3c0.2,0,0.5-0.1,0.7-0.3l2.6-2.6l2.6,2.6c0.2,0.2,0.5,0.3,0.7,0.3
		c0.3,0,0.5-0.1,0.7-0.3c0.4-0.4,0.4-1,0-1.4L1151.2,247.2z"/>
	<path class="st1" d="M1482.8,103l2.6-2.6c0.4-0.4,0.4-1,0-1.4s-1-0.4-1.4,0l-2.6,2.6l-2.6-2.6c-0.4-0.4-1-0.4-1.4,0s-0.4,1,0,1.4
		l2.6,2.6l-2.6,2.6c-0.4,0.4-0.4,1,0,1.4c0.2,0.2,0.5,0.3,0.7,0.3c0.2,0,0.5-0.1,0.7-0.3l2.6-2.6l2.6,2.6c0.2,0.2,0.5,0.3,0.7,0.3
		c0.3,0,0.5-0.1,0.7-0.3c0.4-0.4,0.4-1,0-1.4L1482.8,103z"/>
	<path class="st1" d="M1685.8,181l2.6-2.6c0.4-0.4,0.4-1,0-1.4s-1-0.4-1.4,0l-2.6,2.6l-2.6-2.6c-0.4-0.4-1-0.4-1.4,0s-0.4,1,0,1.4
		l2.6,2.6l-2.6,2.6c-0.4,0.4-0.4,1,0,1.4c0.2,0.2,0.5,0.3,0.7,0.3c0.2,0,0.5-0.1,0.7-0.3l2.6-2.6l2.6,2.6c0.2,0.2,0.5,0.3,0.7,0.3
		c0.2,0,0.5-0.1,0.7-0.3c0.4-0.4,0.4-1,0-1.4L1685.8,181z"/>
	<path class="st1" d="M1789.3,365.8l2.6-2.6c0.4-0.4,0.4-1,0-1.4s-1-0.4-1.4,0l-2.6,2.6l-2.6-2.6c-0.4-0.4-1-0.4-1.4,0s-0.4,1,0,1.4
		l2.6,2.6l-2.6,2.6c-0.4,0.4-0.4,1,0,1.4c0.2,0.2,0.5,0.3,0.7,0.3c0.2,0,0.5-0.1,0.7-0.3l2.6-2.6l2.6,2.6c0.2,0.2,0.5,0.3,0.7,0.3
		c0.2,0,0.5-0.1,0.7-0.3c0.4-0.4,0.4-1,0-1.4L1789.3,365.8z"/>
	<path class="st1" d="M1273.9,278.7l2.6-2.6c0.4-0.4,0.4-1,0-1.4c-0.4-0.4-1-0.4-1.4,0l-2.6,2.6l-2.6-2.6c-0.4-0.4-1-0.4-1.4,0
		c-0.4,0.4-0.4,1,0,1.4l2.6,2.6l-2.6,2.6c-0.4,0.4-0.4,1,0,1.4c0.2,0.2,0.5,0.3,0.7,0.3c0.2,0,0.5-0.1,0.7-0.3l2.6-2.6l2.6,2.6
		c0.2,0.2,0.5,0.3,0.7,0.3c0.3,0,0.5-0.1,0.7-0.3c0.4-0.4,0.4-1,0-1.4L1273.9,278.7z"/>
	<g class="st23">
		<path class="st21" d="M1358.6,78.6c-2.9,0-5.2-2.4-5.2-5.2s2.4-5.2,5.2-5.2c2.9,0,5.2,2.4,5.2,5.2S1361.4,78.6,1358.6,78.6z
			 M1358.6,70.1c-1.8,0-3.2,1.5-3.2,3.2c0,1.8,1.5,3.2,3.2,3.2c1.8,0,3.2-1.5,3.2-3.2C1361.8,71.5,1360.3,70.1,1358.6,70.1z"/>
	</g>
	<g class="st23">
		<path class="st21" d="M1205.9,228.7c-2.9,0-5.2-2.4-5.2-5.2s2.4-5.2,5.2-5.2c2.8,0,5.2,2.4,5.2,5.2S1208.8,228.7,1205.9,228.7z
			 M1205.9,220.2c-1.8,0-3.2,1.5-3.2,3.2s1.5,3.2,3.2,3.2c1.8,0,3.2-1.5,3.2-3.2S1207.8,220.2,1205.9,220.2z"/>
	</g>
	<g class="st23">
		<path class="st21" d="M1183.4,405.4c-2.9,0-5.2-2.4-5.2-5.2c0-2.9,2.4-5.2,5.2-5.2c2.9,0,5.2,2.4,5.2,5.2
			C1188.8,403.1,1186.3,405.4,1183.4,405.4z M1183.4,396.9c-1.8,0-3.2,1.5-3.2,3.2c0,1.8,1.5,3.2,3.2,3.2c1.8,0,3.2-1.5,3.2-3.2
			C1186.8,398.4,1185.3,396.9,1183.4,396.9z"/>
	</g>
	<g class="st23">
		<path class="st21" d="M1677.6,79.5c-2.9,0-5.2-2.4-5.2-5.2c0-2.9,2.4-5.2,5.2-5.2c2.8,0,5.2,2.4,5.2,5.2
			C1682.8,77.2,1680.5,79.5,1677.6,79.5z M1677.6,71c-1.8,0-3.2,1.5-3.2,3.2c0,1.8,1.5,3.2,3.2,3.2c1.8,0,3.2-1.5,3.2-3.2
			S1679.3,71,1677.6,71z"/>
	</g>
	<g class="st23">
		<path class="st21" d="M1724.2,270c-2.9,0-5.2-2.4-5.2-5.2c0-2.9,2.4-5.2,5.2-5.2c2.9,0,5.2,2.4,5.2,5.2
			C1729.5,267.6,1727.1,270,1724.2,270z M1724.2,261.5c-1.8,0-3.2,1.5-3.2,3.2c0,1.8,1.5,3.2,3.2,3.2c1.8,0,3.2-1.5,3.2-3.2
			C1727.5,262.9,1726,261.5,1724.2,261.5z"/>
	</g>
	<g>
		<path class="st24" d="M1353.4,151.9H1541c4.3,0,7.7,3.5,7.7,7.7v348.7c0,4.3-3.5,7.7-7.7,7.7h-187.5c-4.3,0-7.7-3.5-7.7-7.7V159.7
			C1345.8,155.4,1349.2,151.9,1353.4,151.9z"/>
		<rect x="1354.3" y="191.8" class="st21" width="186" height="284.3"/>
		<path class="st8" d="M1418.1,175.2v-3.1c0-0.6,0.4-1,1-1h56.4c0.6,0,1,0.4,1,1v3.1c0,0.6-0.4,1-1,1h-56.4
			C1418.5,176.2,1418.1,175.8,1418.1,175.2z"/>
		<circle class="st8" cx="1447.3" cy="494.7" r="11.2"/>
	</g>
	<g>
		<g>
			<path class="st7" d="M1524.7,459.9h-153.5c-1.4,0-2.5-1.2-2.5-2.6v-24.4l11.7-12.2h144.2c1.4,0,2.5,1.2,2.5,2.6v34
				C1527.2,458.7,1526.1,459.9,1524.7,459.9z"/>
			<path class="st25" d="M1377.9,432.8h-9.2l11.7-12.2v9.6C1380.4,431.7,1379.3,432.8,1377.9,432.8z"/>
		</g>
	</g>
	<rect x="1367.3" y="229.3" class="st7" width="160" height="74.9"/>
	<rect x="1368.6" y="351.5" class="st7" width="158.5" height="57.5"/>
	<rect x="1412.8" y="208.2" class="st7" width="114.2" height="13.3"/>
	<path class="st7" d="M1375.9,215c0,2.4-1.9,4.3-4.3,4.3s-4.3-1.9-4.3-4.3c0-2.4,1.9-4.3,4.3-4.3S1375.9,212.6,1375.9,215z"/>
	<path class="st7" d="M1391.8,215c0,2.4-1.9,4.3-4.3,4.3c-2.4,0-4.3-1.9-4.3-4.3c0-2.4,1.9-4.3,4.3-4.3
		C1389.8,210.7,1391.8,212.6,1391.8,215z"/>
	<path class="st7" d="M1407.5,215c0,2.4-1.9,4.3-4.3,4.3c-2.4,0-4.3-1.9-4.3-4.3c0-2.4,1.9-4.3,4.3-4.3
		C1405.6,210.7,1407.5,212.6,1407.5,215z"/>
	<g>
		<g>
			<rect x="1368.8" y="334.4" class="st7" width="158.4" height="6.8"/>
			<rect x="1368.8" y="317.3" class="st7" width="158.4" height="6.8"/>
		</g>
	</g>
	<g>
		<polygon class="st26" points="1373.3,488.6 1307.8,488.6 1320.8,471.5 1386.3,471.5 		"/>
		<polygon class="st5" points="1373.3,488.6 1373.3,534 1386.3,516.9 1386.3,471.5 		"/>
		<rect x="1307.8" y="488.6" class="st26" width="65.5" height="45.4"/>
	</g>
	<ellipse class="st7" cx="1347.3" cy="480.1" rx="30.2" ry="6.2"/>
	<g>
		<g>
			<path class="st16" d="M1362.8,285.6c0.9-2.8,5.3-9.1,4.5-10.4c-0.2-0.3-2,2-3.7,4.4c0.7-1.3,1.4-2.5,2-3.9
				c0.3-0.6,0.4-1.5-0.2-1.8c-1.3,1.4-2.4,2.8-3.5,4.3c0.7-1.4,1.1-2.6,0.8-3.1c-0.3-0.4-2.1,2.1-3.7,4.7c0.9-1.8,1.5-3.5,1.1-3.7
				c-0.7-0.4-5.5,8-7.6,13.7c-1.6,4.3-4.3,7.7-5.7,10.9l9.7-0.7c0,0,1-4.6,2.1-6.3c1.2-1.9,3.7-3,5.1-5.5c0.9-1.7,3.4-4.6,2.6-5.4
				C1365.5,282,1363.7,285.6,1362.8,285.6z"/>
		</g>
		<g>
			<g>
				<g>
					<path class="st21" d="M1337.6,477.9l-10.6,2c0,0,0.2-2.4,0.7-3.8c0.6-1.3,1-1.4,1.3-2.9c1.3-6.3-2.8-35.5-1.1-46.7
						c-0.3-22.3,0.2-44.2-3.2-53.7c-3.6-10.2,16.2-11.9,17.9,0c1.7,11.9-5.9,100.1-4,101.3c2.9,1.8,8.1,2,8.1,3.5
						C1346.4,479.1,1337.6,477.9,1337.6,477.9z"/>
					<path class="st27" d="M1350.7,480.9c-0.7,2.5-18.3,2-21.8,2c-3.4,0-1.9-5.9-1-6.2c0.9-0.4,4.9,2,10,1.4
						c1.1-0.1-1.6-2.6-1.5-3.6c2-1.1,3.8,1.3,4.8,1.7C1342.1,476.6,1351.4,477.8,1350.7,480.9z"/>
					<path class="st28" d="M1350.3,479.9c-0.7,2.5-18.3,2-21.8,2c-3.4,0-1.9-5.9-1-6.2c1.6,1,3.7,1.6,8.8,1c1.1-0.1-1.2-2.5,0.8-3.5
						c2-1.1,2.6,1.6,3.6,2C1341.8,475.6,1351.2,476.8,1350.3,479.9z"/>
				</g>
				<path class="st29" d="M1339.2,476.7c0.2-0.8,0.9-1.5,1.6-1.9"/>
				<path class="st29" d="M1341.3,477.3c0.3-0.8,1-1.4,1.8-1.8"/>
				<path class="st29" d="M1343.3,477.8c0.3-0.7,0.9-1.3,1.6-1.7"/>
			</g>
			<g>
				<path class="st30" d="M1345.1,387.2c0.5,20.6-2.2,55.1-5.4,77.8l0,0c-0.2,1.1-0.3,2.2-0.5,3.3c-4.1,0.5-8.7-0.4-12.4-2
					c-2-14.9-2.5-51.2-3.9-63.1c-1.1-9.3-10.2-34.1-1.1-62.9l19.4,4.6l4.1,1l0.4,0.1l-0.6,13.6l-0.1,22
					C1344.8,383.2,1344.9,385.1,1345.1,387.2z"/>
			</g>
			<g>
				<path class="st31" d="M1340.2,465.3c-0.8-0.6-13.9-0.2-14.1,0c-0.3,0.2,0.1,3.2,0.5,3.4c0.4,0.2,12.5,0.3,13.1,0
					C1340.2,468.4,1340.9,465.9,1340.2,465.3z"/>
			</g>
			<g>
				<g>
					<path class="st21" d="M1357.6,479.4l-10.6,2c0,0,0.2-2.4,0.7-3.8c0.6-1.3,1-1.4,1.3-2.9c1.3-6.3-2.8-35.5-1.1-46.7
						c-0.3-22.3,0.2-44.2-3.2-53.7c-3.6-10.2,9-16.6,10.7-4.6c0.8,5.5,6.7,32,5.4,54c-1.6,25.6-3.3,51.3-2.3,52
						c2.9,1.9,8.1,2,8.1,3.5S1357.6,479.4,1357.6,479.4z"/>
					<path class="st27" d="M1370.7,482.5c-0.7,2.5-18.3,2-21.8,2c-3.4,0-1.9-5.9-1-6.2c0.9-0.4,4.9,2,10,1.4
						c1.1-0.1-1.6-2.6-1.5-3.6c2-1.1,3.8,1.3,4.8,1.7S1371.4,479.3,1370.7,482.5z"/>
					<path class="st32" d="M1370.3,481.5c-0.7,2.5-18.3,2-21.8,2s-1.9-5.9-1-6.2c1.6,1,3.7,1.6,8.8,1c1.1-0.1-1.2-2.5,0.8-3.5
						c2-1.1,2.6,1.6,3.6,2C1361.8,477.2,1371.2,478.3,1370.3,481.5z"/>
				</g>
				<path class="st29" d="M1359.3,478.3c0.2-0.8,0.9-1.5,1.6-1.9"/>
				<path class="st29" d="M1361.4,478.8c0.3-0.8,1-1.4,1.8-1.8"/>
				<path class="st29" d="M1363.3,479.4c0.3-0.7,0.9-1.3,1.6-1.7"/>
			</g>
			<g>
				<path class="st33" d="M1345.1,387.2c0.5,20.6-2.2,55.1-5.4,77.8c-1.8-19.8,2.3-46.4-5.7-83.1c-1.5-6.6-0.1-13.4-0.1-13.4
					S1344.8,385.7,1345.1,387.2z"/>
			</g>
			<g>
				<path class="st30" d="M1359.3,468.3c-1.3-0.7-2.6-0.9-4-1c-2.8-0.1-5.7,0.4-8.8-0.6c-2.9-14.6-1.5-55.4-5.2-70.2
					c-1.1-4.4-6.8-22.9-7.7-28.7c-1.5-8.9-0.1-19.3,1.4-27.4h22.2c4.2,9.7,4.2,21.3,4.7,31.7c0.1,1.3,0.1,2.6,0.2,4
					C1363.2,401,1361.9,445.6,1359.3,468.3z"/>
			</g>
			<g>
				<path class="st33" d="M1359.3,468.3c-1.3-0.7-2.6-0.9-4-1c-0.1-8.4,0.3-62-0.1-75.9c-0.2-8.9-0.5-17.9-2.5-26.6
					c-2.1-8.7-6.2-17.1-13-22.9l1.7-1.6h15.8c4.2,9.7,4.2,21.3,4.7,31.7c0.1,1.3,0.1,2.6,0.2,4
					C1363.2,401,1361.9,445.6,1359.3,468.3z"/>
			</g>
			<g>
				<path class="st31" d="M1360.2,466.6c-0.8-0.6-13.6-0.1-13.8,0c-0.3,0.2,0.1,2.9,0.5,3c0.4,0.2,12.3,0.3,12.9,0
					C1360.2,469.3,1360.9,467.1,1360.2,466.6z"/>
			</g>
		</g>
		<g>
			<path class="st16" d="M1350.3,259.7c4.9,1.5,3.7,4.1,0.5,4.9"/>
		</g>
		<g>
			<path class="st34" d="M1362.4,361.6c-1.9,2.2-4.1,3.9-6.6,5.1c-3.7,1.9-7.9,2.7-12.2,2.9c-0.2,0-0.4,0-0.6,0c-0.3,0-0.6,0-0.9,0
				c-13.1,0.2-26.2-5.4-26.1-6.4c1.2-11.1,0.7-41.8,0.7-51.1c0.2-25.1,9.6-29.3,16.1-30.5l5.5,0.3c11.3-3.6,22.3,19.6,22,21.3
				c0.2,1.5,0.2,5.5,0.3,10.9C1360.8,327.2,1360.8,348.6,1362.4,361.6z"/>
		</g>
		<g>
			<path class="st35" d="M1362.4,361.6c-1.9,2.2-4.1,3.9-6.6,5.1c-3.6,1.7-7.8,2.6-12.2,2.9c-0.2,0-0.4,0-0.6,0
				c-0.4,0-0.8,0.1-1.1,0.1c0.1,0,0.2,0,0.3-0.1c3.6-1,13.3-7,14.1-17.9c0.1-1.1-0.5-35.3-0.9-45.6l5.3,7.9
				C1360.8,327.2,1360.8,348.6,1362.4,361.6z"/>
		</g>
		<path class="st35" d="M1367.6,302l3.2,3.7c0,0-3,16.4-4.7,12.7c-1.7-3.6-3.8-11.9-3.8-11.9L1367.6,302z"/>
		<g>
			<path class="st16" d="M1408.2,290.6c0.4-1.1-5.2,2.8-6.9,3.9c4-3.2,6.7-6.1,6.2-6.7c-0.4-0.6-6.7,4.5-8,5.2
				c1.1-1.2,6.2-5.6,5.5-6.6c-0.3-0.5-4.8,3.4-7.5,5.3c1.3-1.2,1.9-1.9,1.7-2.9c-0.2-1.8-6.7,6.3-8.8,8.6
				c-0.8,0.9-15.1,6.1-16.5,6.3c-1.7,0.2-11.7-10.5-11.7-10.5l-5.2,11.4c7.2,5.2,12.6,10.1,15.2,10.6c3.6,0.6,20.2-11.8,21.7-12.1
				c3.1-0.7,8.4-4.4,10.4-6.1c1.4-1.2,3.7-2.8,4-3.7c0.3-0.9-4,1.7-6.3,3.1C1404.5,294.8,1407.8,291.8,1408.2,290.6z"/>
		</g>
		<g>
			<path class="st34" d="M1370.8,301.9c-10.4-12.7-21.3-19.3-30.4-21.1l10.1,24.4c4,5.4,9.1,10.6,15.8,13.6
				C1365.1,311.1,1369.1,302.6,1370.8,301.9z"/>
		</g>
		<path class="st16" d="M1333.3,281.6c0,0-0.3-4.7,0.5-9.7c0.8-5,11-4.7,9.5,0.2c-1.4,4.9,0.4,9.5,0.4,9.5
			C1343.8,284.6,1334.2,287,1333.3,281.6z"/>
		<g>
			<path class="st16" d="M1345.1,248.2c5.5,4.4,10,25.3,5.8,28.6c-2,1.6-12.6,4.6-16.7,0"/>
		</g>
		<path class="st18" d="M1351.8,247.1c-0.9-0.7-2.1-0.8-3.2-0.7c-0.1,0-0.3,0-0.4,0.1c-0.1-0.1-0.1-0.1-0.2-0.2
			c0.4-0.3,0.8-0.6,1.1-1c0.6-0.8,1.1-1.9,0.5-2.8c-0.5-0.7-1.4-0.8-2.2-0.8c-1.3,0-2.7,0.4-3.9,0.9c-0.1-0.8-0.4-1.6-1.1-2
			c-0.5-0.3-1.2-0.4-1.8-0.4c-1.3,0-2.7,0.4-3.8,1c-0.6-0.8-1.8-0.9-2.8-0.7c-1.8,0.3-3.5,1-4.9,2c-0.6-0.3-1.2-0.5-1.8-0.4
			c-1.2,0.1-2.1,0.9-2.9,1.8c-0.2,0.2-0.4,0.5-0.5,0.8c-0.5-0.1-0.9-0.3-1.4-0.3c-0.8-0.1-1.6,0-2.3,0.4c-0.8,0.5-1.3,1.5-1.2,2.5
			c0.1,0.7,0.4,1.4,0.9,1.9c-2.3,0.2-4.7,1.4-5.9,3.2c-1.4,2.1-0.1,4.2,0.7,4.6c-0.6,0.7-1.1,1.6-1.4,2.4c-0.4,1-0.6,2.1-0.1,3.1
			c0.4,0.9,1.3,1.5,2.2,1.8c0.2,0.1,0.4,0.1,0.6,0.2c-0.3,0.6-0.5,1.2-0.6,1.9c-0.1,0.6-0.2,1.3,0.2,1.8s1.1,0.6,1.8,0.5
			c0.4-0.1,0.8-0.3,1.2-0.5c-0.5,3.5,0.6,4.6,2.5,4.2c0,0.4,0.1,0.8,0.2,1.1c0.1,0.6,0.4,1.3,1,1.6c0.2,0.1,0.4,0.1,0.5,0.1
			c0.1,0.9,0.4,1.7,0.8,2.2c0.7,0.8,1.6,0.8,2.4,0.2c0.1-0.1,0.2-0.2,0.2-0.2s0.1,0,0.1,0.1c0.2,1,0.6,1.9,1.2,2.5
			c0.2,0.3,0.5,0.5,0.8,0.5c0.4,0.1,0.9-0.2,1.2-0.6c0.1-0.1,0.1-0.2,0.2-0.3c1.6,0.9,2.9,1.6,3.8,2c5.1,2.7,6.5-4.2,9.4-9.2
			c3.6-6.3,3.7-8.1,1.5-15c0.1-0.1,0.1-0.3,0.2-0.4c0.1,0,0.1,0,0.2,0c1.5-0.1,3.1-0.7,4-1.9c0.4-0.5,0.6-1,0.7-1.6
			c0-0.8-0.3-1.5-0.9-2.1c0.9-0.2,1.8-0.4,2.7-0.7c0.4-0.1,0.8-0.3,1.1-0.6C1352.9,249.2,1352.7,247.8,1351.8,247.1z"/>
		<path class="st36" d="M1352.2,250c-0.3,0.3-0.7,0.4-1,0.6c-0.9,0.3-1.8,0.6-2.7,0.7c0.6,0.6,0.9,1.3,0.9,2.1
			c0,0.6-0.3,1.2-0.7,1.6c-0.9,1.2-2.5,1.8-4,1.9h-0.2c-0.1,0.1-0.1,0.3-0.2,0.4c2.2,6.9,2.1,8.7-1.5,15c-2.9,5.1-4.3,12-9.4,9.2
			c-0.9-0.5-2.2-1.1-3.8-2c0,0.1-0.1,0.2-0.2,0.3c-0.3,0.4-0.8,0.7-1.2,0.6c-0.3,0-0.6-0.3-0.8-0.5c-0.5-0.6-0.9-1.4-1.1-2.4
			c1.2,0.7,2.1,1.4,2.9,1.5c5,0.6,6.5-4.2,9.4-9.2c3.6-6.3,3.7-8.1,1.5-15c0.1-0.1,0.1-0.3,0.2-0.4h0.1c1.5-0.1,3.1-0.7,4-1.9
			c0.4-0.5,0.6-1,0.7-1.6c0-0.8-0.4-1.5-0.9-2.1c0.9-0.2,1.8-0.4,2.7-0.7c0.4-0.1,0.8-0.3,1.1-0.6c0.3-0.3,0.5-0.7,0.5-1.2h0.1
			c1.1-0.1,2.3,0,3.2,0.7C1352.7,247.8,1352.9,249.2,1352.2,250z"/>
		<path class="st18" d="M1348.4,246.4c-0.1,0-0.2,0-0.4,0c0-0.1-0.1-0.1-0.2-0.2c0.1-0.1,0.3-0.2,0.4-0.4
			C1348.3,246,1348.4,246.2,1348.4,246.4z"/>
		<g>
			<path class="st16" d="M1345.2,268.5c-0.2-1-0.7-2-1.5-2.6c-0.5-0.4-1.3-0.7-1.9-0.3c-0.3,0.2-0.4,0.6-0.5,0.9
				c-0.3,1.1-0.5,2.3-0.4,3.4c0.1,1.2,0.6,2.3,1.4,3.1c0.6,0.6,1.5,1,2.3,0.8c1.3-0.2,1.2-1,1.3-2.3"/>
		</g>
		<g>
			<path class="st16" d="M1345.2,267.6c-0.2-1-0.7-2-1.5-2.6c-0.5-0.4-1.7-0.9-2.3-0.5c-2.8,2.1,0.1,6.9,0.9,7.7
				c0.6,0.6,1.5,1,2.3,0.8c1.3-0.2,1.2-1,1.3-2.3"/>
		</g>
	</g>
</g>
</svg>
